<svg width="5922" height="2325" xmlns="http://www.w3.org/2000/svg" xmlns:xlink="http://www.w3.org/1999/xlink" xml:space="preserve" overflow="hidden"><g transform="translate(-422 -202)"><path d="M5038.5 849.5 5071.65 849.5" stroke="#000000" stroke-width="6.875" stroke-miterlimit="8" fill="none" fill-rule="evenodd"/><path d="M0 0 3452.06 0.571654" stroke="#000000" stroke-width="6.875" stroke-miterlimit="8" fill="none" fill-rule="evenodd" transform="matrix(1 0 0 -1 2499.5 1686.07)"/><path d="M661.5 2107.5 1865.68 2107.5" stroke="#000000" stroke-width="6.875" stroke-miterlimit="8" fill="none" fill-rule="evenodd"/><path d="M2957.5 2024.67C2957.5 2001.93 2975.93 1983.5 2998.67 1983.5L3332.33 1983.5C3355.07 1983.5 3373.5 2001.93 3373.5 2024.67L3373.5 2189.33C3373.5 2212.07 3355.07 2230.5 3332.33 2230.5L2998.67 2230.5C2975.93 2230.5 2957.5 2212.07 2957.5 2189.33Z" stroke="#2A642C" stroke-width="9.16667" stroke-miterlimit="8" fill="#BEE4BF" fill-rule="evenodd"/><text font-family="Times New Roman,Times New Roman_MSFontService,sans-serif" font-weight="400" font-size="110" transform="matrix(1 0 0 1 3030.87 2081)">FREE </text><text font-family="Times New Roman,Times New Roman_MSFontService,sans-serif" font-weight="400" font-size="110" transform="matrix(1 0 0 1 3016.2 2186)">IOVA</text><text font-family="Times New Roman,Times New Roman_MSFontService,sans-serif" font-weight="400" font-size="73" transform="matrix(1 0 0 1 3277.59 2213)">0</text><path d="M1515.5 2024.67C1515.5 2001.93 1533.93 1983.5 1556.67 1983.5L2877.33 1983.5C2900.07 1983.5 2918.5 2001.93 2918.5 2024.67L2918.5 2189.33C2918.5 2212.07 2900.07 2230.5 2877.33 2230.5L1556.67 2230.5C1533.93 2230.5 1515.5 2212.07 1515.5 2189.33Z" stroke="#AA2020" stroke-width="9.16667" stroke-miterlimit="8" fill="#EFAAAA" fill-rule="evenodd"/><text font-family="Times New Roman,Times New Roman_MSFontService,sans-serif" font-weight="400" font-size="110" transform="matrix(1 0 0 1 2036.24 2147)">IR</text><text font-family="Times New Roman,Times New Roman_MSFontService,sans-serif" font-weight="400" font-size="110" transform="matrix(1 0 0 1 2146.24 2147)">-</text><text font-family="Times New Roman,Times New Roman_MSFontService,sans-serif" font-weight="400" font-size="110" transform="matrix(1 0 0 1 2182.9 2147)">SUB</text><path d="M1724.5 1185.67C1724.5 1162.93 1742.93 1144.5 1765.67 1144.5L1968.33 1144.5C1991.07 1144.5 2009.5 1162.93 2009.5 1185.67L2009.5 1350.33C2009.5 1373.07 1991.07 1391.5 1968.33 1391.5L1765.67 1391.5C1742.93 1391.5 1724.5 1373.07 1724.5 1350.33Z" stroke="#000000" stroke-width="9.16667" stroke-miterlimit="8" fill="#FFFFFF" fill-rule="evenodd"/><text font-family="Times New Roman,Times New Roman_MSFontService,sans-serif" font-weight="400" font-size="110" transform="matrix(1 0 0 1 1808.43 1307)">U</text><text font-family="Times New Roman,Times New Roman_MSFontService,sans-serif" font-weight="400" font-size="73" transform="matrix(1 0 0 1 1888.07 1334)">1</text><path d="M2043.5 1185.67C2043.5 1162.93 2061.93 1144.5 2084.67 1144.5L2396.33 1144.5C2419.07 1144.5 2437.5 1162.93 2437.5 1185.67L2437.5 1350.33C2437.5 1373.07 2419.07 1391.5 2396.33 1391.5L2084.67 1391.5C2061.93 1391.5 2043.5 1373.07 2043.5 1350.33Z" stroke="#2A642C" stroke-width="9.16667" stroke-miterlimit="8" fill="#BEE4BF" fill-rule="evenodd"/><text font-family="Times New Roman,Times New Roman_MSFontService,sans-serif" font-weight="400" font-size="110" transform="matrix(1 0 0 1 2166.47 1242)">IR</text><text font-family="Times New Roman,Times New Roman_MSFontService,sans-serif" font-weight="400" font-size="110" transform="matrix(1 0 0 1 2276.47 1242)">-</text><text font-family="Times New Roman,Times New Roman_MSFontService,sans-serif" font-weight="400" font-size="110" transform="matrix(1 0 0 1 2089.97 1347)">PREP</text><text font-family="Times New Roman,Times New Roman_MSFontService,sans-serif" font-weight="400" font-size="73" transform="matrix(1 0 0 1 2352.94 1374)">1</text><path d="M1786.5 1603.67C1786.5 1580.93 1804.93 1562.5 1827.67 1562.5L2031.33 1562.5C2054.07 1562.5 2072.5 1580.93 2072.5 1603.67L2072.5 1768.33C2072.5 1791.07 2054.07 1809.5 2031.33 1809.5L1827.67 1809.5C1804.93 1809.5 1786.5 1791.07 1786.5 1768.33Z" stroke="#000000" stroke-width="9.16667" stroke-miterlimit="8" fill="#FFFFFF" fill-rule="evenodd"/><text font-family="Times New Roman,Times New Roman_MSFontService,sans-serif" font-weight="400" font-size="110" transform="matrix(1 0 0 1 1870.53 1726)">U</text><text font-family="Times New Roman,Times New Roman_MSFontService,sans-serif" font-weight="400" font-size="73" transform="matrix(1 0 0 1 1950.16 1753)">2</text><path d="M2105.5 1603.67C2105.5 1580.93 2123.93 1562.5 2146.67 1562.5L2458.33 1562.5C2481.07 1562.5 2499.5 1580.93 2499.5 1603.67L2499.5 1768.33C2499.5 1791.07 2481.07 1809.5 2458.33 1809.5L2146.67 1809.5C2123.93 1809.5 2105.5 1791.07 2105.5 1768.33Z" stroke="#2A642C" stroke-width="9.16667" stroke-miterlimit="8" fill="#BEE4BF" fill-rule="evenodd"/><text font-family="Times New Roman,Times New Roman_MSFontService,sans-serif" font-weight="400" font-size="110" transform="matrix(1 0 0 1 2228.56 1660)">IR</text><text font-family="Times New Roman,Times New Roman_MSFontService,sans-serif" font-weight="400" font-size="110" transform="matrix(1 0 0 1 2338.56 1660)">-</text><text font-family="Times New Roman,Times New Roman_MSFontService,sans-serif" font-weight="400" font-size="110" transform="matrix(1 0 0 1 2152.07 1765)">PREP</text><text font-family="Times New Roman,Times New Roman_MSFontService,sans-serif" font-weight="400" font-size="73" transform="matrix(1 0 0 1 2415.03 1792)">2</text><path d="M5266.5 2024.67C5266.5 2001.93 5284.93 1983.5 5307.67 1983.5L5804.33 1983.5C5827.07 1983.5 5845.5 2001.93 5845.5 2024.67L5845.5 2189.33C5845.5 2212.07 5827.07 2230.5 5804.33 2230.5L5307.67 2230.5C5284.93 2230.5 5266.5 2212.07 5266.5 2189.33Z" stroke="#2A642C" stroke-width="9.16667" stroke-miterlimit="8" fill="#BEE4BF" fill-rule="evenodd"/><text font-family="Times New Roman,Times New Roman_MSFontService,sans-serif" font-weight="400" font-size="110" transform="matrix(1 0 0 1 5420.86 2081)">FREE </text><text font-family="Times New Roman,Times New Roman_MSFontService,sans-serif" font-weight="400" font-size="110" transform="matrix(1 0 0 1 5323.69 2186)">IOVA</text><text font-family="Times New Roman,Times New Roman_MSFontService,sans-serif" font-weight="400" font-size="73" transform="matrix(1 0 0 1 5585.08 2213)">1,2,3,4</text><path d="M3823 2024.17C3823 2001.43 3841.43 1983 3864.17 1983L5184.83 1983C5207.57 1983 5226 2001.43 5226 2024.17L5226 2188.83C5226 2211.57 5207.57 2230 5184.83 2230L3864.17 2230C3841.43 2230 3823 2211.57 3823 2188.83Z" stroke="#AA2020" stroke-width="10.3125" stroke-miterlimit="8" fill="#EFAAAA" fill-rule="evenodd"/><text font-family="Times New Roman,Times New Roman_MSFontService,sans-serif" font-weight="400" font-size="110" transform="matrix(1 0 0 1 4344.41 2147)">IR</text><text font-family="Times New Roman,Times New Roman_MSFontService,sans-serif" font-weight="400" font-size="110" transform="matrix(1 0 0 1 4454.41 2147)">-</text><text font-family="Times New Roman,Times New Roman_MSFontService,sans-serif" font-weight="400" font-size="110" transform="matrix(1 0 0 1 4491.07 2147)">SUB</text><path d="M3430.5 766.668C3430.5 743.931 3448.93 725.5 3471.67 725.5L3753.33 725.5C3776.07 725.5 3794.5 743.931 3794.5 766.668L3794.5 931.333C3794.5 954.069 3776.07 972.5 3753.33 972.5L3471.67 972.5C3448.93 972.5 3430.5 954.069 3430.5 931.333Z" stroke="#2A642C" stroke-width="9.16667" stroke-miterlimit="8" fill="#BEE4BF" fill-rule="evenodd"/><text font-family="Times New Roman,Times New Roman_MSFontService,sans-serif" font-weight="400" font-size="110" transform="matrix(1 0 0 1 3477.51 823)">FREE </text><text font-family="Times New Roman,Times New Roman_MSFontService,sans-serif" font-weight="400" font-size="110" transform="matrix(1 0 0 1 3492.41 928)">PFN</text><text font-family="Times New Roman,Times New Roman_MSFontService,sans-serif" font-weight="400" font-size="73" transform="matrix(1 0 0 1 3694.65 955)">0</text><path d="M4752.5 767.667C4752.5 744.931 4770.93 726.5 4793.67 726.5L4997.33 726.5C5020.07 726.5 5038.5 744.931 5038.5 767.667L5038.5 932.332C5038.5 955.069 5020.07 973.5 4997.33 973.5L4793.67 973.5C4770.93 973.5 4752.5 955.069 4752.5 932.332Z" stroke="#000000" stroke-width="9.16667" stroke-miterlimit="8" fill="#FFFFFF" fill-rule="evenodd"/><text font-family="Times New Roman,Times New Roman_MSFontService,sans-serif" font-weight="400" font-size="110" transform="matrix(1 0 0 1 4837.14 889)">U</text><text font-family="Times New Roman,Times New Roman_MSFontService,sans-serif" font-weight="400" font-size="73" transform="matrix(1 0 0 1 4916.77 916)">7</text><path d="M5071.5 767.667C5071.5 744.931 5089.93 726.5 5112.67 726.5L5425.33 726.5C5448.07 726.5 5466.5 744.931 5466.5 767.667L5466.5 932.333C5466.5 955.069 5448.07 973.5 5425.33 973.5L5112.67 973.5C5089.93 973.5 5071.5 955.069 5071.5 932.333Z" stroke="#2A642C" stroke-width="9.16667" stroke-miterlimit="8" fill="#BEE4BF" fill-rule="evenodd"/><text font-family="Times New Roman,Times New Roman_MSFontService,sans-serif" font-weight="400" font-size="110" transform="matrix(1 0 0 1 5195.17 824)">IR</text><text font-family="Times New Roman,Times New Roman_MSFontService,sans-serif" font-weight="400" font-size="110" transform="matrix(1 0 0 1 5305.17 824)">-</text><text font-family="Times New Roman,Times New Roman_MSFontService,sans-serif" font-weight="400" font-size="110" transform="matrix(1 0 0 1 5118.67 929)">PREP</text><text font-family="Times New Roman,Times New Roman_MSFontService,sans-serif" font-weight="400" font-size="73" transform="matrix(1 0 0 1 5381.64 956)">7</text><path d="M669.5 1267.5 1724.2 1267.5" stroke="#000000" stroke-width="6.875" stroke-miterlimit="8" fill="none" fill-rule="evenodd"/><path d="M2009.5 1267.5 2042.65 1267.5" stroke="#000000" stroke-width="6.875" stroke-miterlimit="8" fill="none" fill-rule="evenodd"/><path d="M669.5 1686.5 1786.3 1686.5" stroke="#000000" stroke-width="6.875" stroke-miterlimit="8" fill="none" fill-rule="evenodd"/><path d="M0 0 2764.82 6.46827" stroke="#000000" stroke-width="6.875" stroke-miterlimit="8" fill="none" fill-rule="evenodd" transform="matrix(1 0 0 -1 665.5 854.968)"/><path d="M3794.5 848.5 4753.12 849.507" stroke="#000000" stroke-width="6.875" stroke-miterlimit="8" fill="none" fill-rule="evenodd"/><path d="M1389.5 848.5 1453.15 848.5" stroke="#000000" stroke-width="6.875" stroke-miterlimit="8" fill="none" fill-rule="evenodd"/><path d="M2072.5 1686.5 2105.65 1686.5" stroke="#000000" stroke-width="6.875" stroke-miterlimit="8" fill="none" fill-rule="evenodd"/><path d="M2918.5 2107.5 2957.58 2107.5" stroke="#000000" stroke-width="6.875" stroke-miterlimit="8" fill="none" fill-rule="evenodd"/><path d="M0 0 450.197 0.000360892" stroke="#000000" stroke-width="6.875" stroke-miterlimit="8" fill="none" fill-rule="evenodd" transform="matrix(1 0 0 -1 3373.5 2107.5)"/><path d="M5226.5 2107.5 5265.58 2107.5" stroke="#000000" stroke-width="6.875" stroke-miterlimit="8" fill="none" fill-rule="evenodd"/><path d="M5910.5 1603.67C5910.5 1580.93 5928.93 1562.5 5951.67 1562.5L6281.33 1562.5C6304.07 1562.5 6322.5 1580.93 6322.5 1603.67L6322.5 1768.33C6322.5 1791.07 6304.07 1809.5 6281.33 1809.5L5951.67 1809.5C5928.93 1809.5 5910.5 1791.07 5910.5 1768.33Z" stroke="#2A642C" stroke-width="9.16667" stroke-miterlimit="8" fill="#BEE4BF" fill-rule="evenodd"/><text font-family="Times New Roman,Times New Roman_MSFontService,sans-serif" font-weight="400" font-size="110" transform="matrix(1 0 0 1 5981.78 1660)">FREE </text><text font-family="Times New Roman,Times New Roman_MSFontService,sans-serif" font-weight="400" font-size="110" transform="matrix(1 0 0 1 5996.68 1765)">PFN</text><text font-family="Times New Roman,Times New Roman_MSFontService,sans-serif" font-weight="400" font-size="73" transform="matrix(1 0 0 1 6198.92 1792)">2</text><path d="M5910.5 1185.67C5910.5 1162.93 5928.93 1144.5 5951.67 1144.5L6281.33 1144.5C6304.07 1144.5 6322.5 1162.93 6322.5 1185.67L6322.5 1350.33C6322.5 1373.07 6304.07 1391.5 6281.33 1391.5L5951.67 1391.5C5928.93 1391.5 5910.5 1373.07 5910.5 1350.33Z" stroke="#2A642C" stroke-width="9.16667" stroke-miterlimit="8" fill="#BEE4BF" fill-rule="evenodd"/><text font-family="Times New Roman,Times New Roman_MSFontService,sans-serif" font-weight="400" font-size="110" transform="matrix(1 0 0 1 5981.78 1242)">FREE </text><text font-family="Times New Roman,Times New Roman_MSFontService,sans-serif" font-weight="400" font-size="110" transform="matrix(1 0 0 1 5969.18 1347)">PFN</text><text font-family="Times New Roman,Times New Roman_MSFontService,sans-serif" font-weight="400" font-size="73" transform="matrix(1 0 0 1 6171.42 1374)">1,4</text><path d="M2318.5 767.667C2318.5 744.931 2336.93 726.5 2359.67 726.5L2562.33 726.5C2585.07 726.5 2603.5 744.931 2603.5 767.667L2603.5 932.332C2603.5 955.069 2585.07 973.5 2562.33 973.5L2359.67 973.5C2336.93 973.5 2318.5 955.069 2318.5 932.332Z" stroke="#000000" stroke-width="9.16667" stroke-miterlimit="8" fill="#FFFFFF" fill-rule="evenodd"/><text font-family="Times New Roman,Times New Roman_MSFontService,sans-serif" font-weight="400" font-size="110" transform="matrix(1 0 0 1 2402.37 889)">U</text><text font-family="Times New Roman,Times New Roman_MSFontService,sans-serif" font-weight="400" font-size="73" transform="matrix(1 0 0 1 2482 916)">3</text><path d="M2637.5 767.667C2637.5 744.931 2655.93 726.5 2678.67 726.5L2990.33 726.5C3013.07 726.5 3031.5 744.931 3031.5 767.667L3031.5 932.333C3031.5 955.069 3013.07 973.5 2990.33 973.5L2678.67 973.5C2655.93 973.5 2637.5 955.069 2637.5 932.333Z" stroke="#2A642C" stroke-width="9.16667" stroke-miterlimit="8" fill="#BEE4BF" fill-rule="evenodd"/><text font-family="Times New Roman,Times New Roman_MSFontService,sans-serif" font-weight="400" font-size="110" transform="matrix(1 0 0 1 2760.4 824)">IR</text><text font-family="Times New Roman,Times New Roman_MSFontService,sans-serif" font-weight="400" font-size="110" transform="matrix(1 0 0 1 2870.4 824)">-</text><text font-family="Times New Roman,Times New Roman_MSFontService,sans-serif" font-weight="400" font-size="110" transform="matrix(1 0 0 1 2683.91 929)">PREP</text><text font-family="Times New Roman,Times New Roman_MSFontService,sans-serif" font-weight="400" font-size="73" transform="matrix(1 0 0 1 2946.87 956)">3</text><path d="M2437.5 1267.5 5910.9 1267.5" stroke="#000000" stroke-width="6.875" stroke-miterlimit="8" fill="none" fill-rule="evenodd"/><path d="M3.434-0.155173 4.36503 20.4488-2.50296 20.7591-3.434 0.155173ZM4.67538 27.3168 5.60642 47.9208-1.26158 48.2311-2.19261 27.6271ZM5.91676 54.7888 6.8478 75.3927-0.0201948 75.7031-0.951231 55.0991ZM7.15814 82.2607 8.08918 102.865 1.22119 103.175 0.290151 82.5711ZM8.39952 109.733 9.33056 130.337 2.46257 130.647 1.53153 110.043ZM9.64091 137.205 10.5719 157.809 3.70395 158.119 2.77292 137.515ZM10.8823 164.677 11.8133 185.281 4.94533 185.591 4.0143 164.987ZM12.1237 192.149 13.0547 212.753 6.18672 213.063 5.25568 192.459ZM13.3651 219.621 14.2961 240.225 7.4281 240.535 6.49706 219.931ZM14.6064 247.093 15.5375 267.697 8.66948 268.007 7.73844 247.403ZM15.8478 274.564 16.7789 295.168 9.91086 295.479 8.97983 274.875ZM17.0892 302.036 18.0202 322.64 11.1522 322.951 10.2212 302.347ZM18.3306 329.508 19.2616 350.112 12.3936 350.423 11.4626 329.819ZM19.572 356.98 20.503 377.584 13.635 377.895 12.704 357.291ZM20.8133 384.452 21.7444 405.056 14.8764 405.367 13.9454 384.763ZM22.0547 411.924 22.9858 432.528 16.1178 432.839 15.1867 412.235ZM23.2961 439.396 24.2271 460 17.3592 460.311 16.4281 439.707ZM24.5375 466.868 25.4685 487.472 18.6005 487.783 17.6695 467.179ZM25.7789 494.34 26.7099 514.944 19.8419 515.255 18.9109 494.651ZM27.0203 521.812 27.9513 542.416 21.0833 542.727 20.1523 522.123ZM28.2616 549.284 29.1927 569.888 22.3247 570.199 21.3936 549.595ZM29.503 576.756 30.4341 597.36 23.5661 597.671 22.635 577.067ZM30.7444 604.228 31.6754 624.832 24.8074 625.143 23.8764 604.539ZM31.9858 631.7 32.9168 652.304 26.0488 652.615 25.1178 632.011ZM33.2272 659.172 34.1582 679.776 27.2902 680.087 26.3592 659.483ZM34.4686 686.644 35.3996 707.248 28.5316 707.559 27.6006 686.955ZM35.7099 714.116 36.641 734.72 29.773 735.031 28.8419 714.427ZM36.9513 741.588 37.8824 762.192 31.0144 762.502 30.0833 741.898ZM38.1927 769.06 39.1237 789.664 32.2557 789.974 31.3247 769.37ZM39.4341 796.532 40.3651 817.136 33.4971 817.446 32.5661 796.842ZM40.6755 824.004 41.6065 844.608 34.7385 844.918 33.8075 824.314ZM41.9168 851.476 42.8479 872.08 35.9799 872.39 35.0489 851.786ZM43.1582 878.948 44.0893 899.552 37.2213 899.862 36.2902 879.258ZM44.3996 906.42 45.3306 927.024 38.4627 927.334 37.5316 906.73ZM45.641 933.892 46.572 954.496 39.704 954.806 38.773 934.202ZM46.8824 961.364 47.8134 981.968 40.9454 982.278 40.0144 961.674ZM48.1238 988.836 49.0548 1009.44 42.1868 1009.75 41.2558 989.146ZM49.3651 1016.31 50.2962 1036.91 43.4282 1037.22 42.4971 1016.62ZM50.6065 1043.78 51.5376 1064.38 44.6696 1064.69 43.7385 1044.09ZM51.8479 1071.25 52.7789 1091.86 45.9109 1092.17 44.9799 1071.56ZM53.0893 1098.72 54.0203 1119.33 47.1523 1119.64 46.2213 1099.03ZM54.3307 1126.2 55.2617 1146.8 48.3937 1147.11 47.4627 1126.51ZM55.572 1153.67 56.5031 1174.27 49.6351 1174.58 48.7041 1153.98ZM56.8134 1181.14 57.7445 1201.74 50.8765 1202.05 49.9454 1181.45ZM58.0548 1208.61 58.9859 1229.22 52.1179 1229.53 51.1868 1208.92ZM55.6266 1231.02 77.6923 1211.68 56.868 1258.5 31.9057 1213.74Z" fill="#747474" transform="matrix(1 0 0 -1 3373.5 2107)"/><path d="M2659.5 1183.67C2659.5 1160.93 2677.93 1142.5 2700.67 1142.5L2903.33 1142.5C2926.07 1142.5 2944.5 1160.93 2944.5 1183.67L2944.5 1348.33C2944.5 1371.07 2926.07 1389.5 2903.33 1389.5L2700.67 1389.5C2677.93 1389.5 2659.5 1371.07 2659.5 1348.33Z" stroke="#000000" stroke-width="9.16667" stroke-miterlimit="8" fill="#FFFFFF" fill-rule="evenodd"/><text font-family="Times New Roman,Times New Roman_MSFontService,sans-serif" font-weight="400" font-size="110" transform="matrix(1 0 0 1 2743.3 1306)">U</text><text font-family="Times New Roman,Times New Roman_MSFontService,sans-serif" font-weight="400" font-size="73" transform="matrix(1 0 0 1 2822.94 1333)">4</text><path d="M2978.5 1183.67C2978.5 1160.93 2996.93 1142.5 3019.67 1142.5L3331.33 1142.5C3354.07 1142.5 3372.5 1160.93 3372.5 1183.67L3372.5 1348.33C3372.5 1371.07 3354.07 1389.5 3331.33 1389.5L3019.67 1389.5C2996.93 1389.5 2978.5 1371.07 2978.5 1348.33Z" stroke="#2A642C" stroke-width="9.16667" stroke-miterlimit="8" fill="#BEE4BF" fill-rule="evenodd"/><text font-family="Times New Roman,Times New Roman_MSFontService,sans-serif" font-weight="400" font-size="110" transform="matrix(1 0 0 1 3101.34 1240)">IR</text><text font-family="Times New Roman,Times New Roman_MSFontService,sans-serif" font-weight="400" font-size="110" transform="matrix(1 0 0 1 3211.34 1240)">-</text><text font-family="Times New Roman,Times New Roman_MSFontService,sans-serif" font-weight="400" font-size="110" transform="matrix(1 0 0 1 3024.84 1345)">PREP</text><text font-family="Times New Roman,Times New Roman_MSFontService,sans-serif" font-weight="400" font-size="73" transform="matrix(1 0 0 1 3287.81 1372)">4</text><path d="M4050.5 1183.67C4050.5 1160.93 4068.93 1142.5 4091.67 1142.5L4295.33 1142.5C4318.07 1142.5 4336.5 1160.93 4336.5 1183.67L4336.5 1348.33C4336.5 1371.07 4318.07 1389.5 4295.33 1389.5L4091.67 1389.5C4068.93 1389.5 4050.5 1371.07 4050.5 1348.33Z" stroke="#000000" stroke-width="9.16667" stroke-miterlimit="8" fill="#FFFFFF" fill-rule="evenodd"/><text font-family="Times New Roman,Times New Roman_MSFontService,sans-serif" font-weight="400" font-size="110" transform="matrix(1 0 0 1 4134.79 1306)">U</text><text font-family="Times New Roman,Times New Roman_MSFontService,sans-serif" font-weight="400" font-size="73" transform="matrix(1 0 0 1 4214.43 1333)">5</text><path d="M4369.5 1183.67C4369.5 1160.93 4387.93 1142.5 4410.67 1142.5L4722.33 1142.5C4745.07 1142.5 4763.5 1160.93 4763.5 1183.67L4763.5 1348.33C4763.5 1371.07 4745.07 1389.5 4722.33 1389.5L4410.67 1389.5C4387.93 1389.5 4369.5 1371.07 4369.5 1348.33Z" stroke="#2A642C" stroke-width="9.16667" stroke-miterlimit="8" fill="#BEE4BF" fill-rule="evenodd"/><text font-family="Times New Roman,Times New Roman_MSFontService,sans-serif" font-weight="400" font-size="110" transform="matrix(1 0 0 1 4492.83 1240)">IR</text><text font-family="Times New Roman,Times New Roman_MSFontService,sans-serif" font-weight="400" font-size="110" transform="matrix(1 0 0 1 4602.83 1240)">-</text><text font-family="Times New Roman,Times New Roman_MSFontService,sans-serif" font-weight="400" font-size="110" transform="matrix(1 0 0 1 4416.33 1345)">PREP</text><text font-family="Times New Roman,Times New Roman_MSFontService,sans-serif" font-weight="400" font-size="73" transform="matrix(1 0 0 1 4679.3 1372)">5</text><path d="M4317.5 1604.67C4317.5 1581.93 4335.93 1563.5 4358.67 1563.5L4561.33 1563.5C4584.07 1563.5 4602.5 1581.93 4602.5 1604.67L4602.5 1769.33C4602.5 1792.07 4584.07 1810.5 4561.33 1810.5L4358.67 1810.5C4335.93 1810.5 4317.5 1792.07 4317.5 1769.33Z" stroke="#000000" stroke-width="9.16667" stroke-miterlimit="8" fill="#FFFFFF" fill-rule="evenodd"/><text font-family="Times New Roman,Times New Roman_MSFontService,sans-serif" font-weight="400" font-size="110" transform="matrix(1 0 0 1 4401.28 1726)">U</text><text font-family="Times New Roman,Times New Roman_MSFontService,sans-serif" font-weight="400" font-size="73" transform="matrix(1 0 0 1 4480.92 1753)">6</text><path d="M4635.5 1604.67C4635.5 1581.93 4653.93 1563.5 4676.67 1563.5L4989.33 1563.5C5012.07 1563.5 5030.5 1581.93 5030.5 1604.67L5030.5 1769.33C5030.5 1792.07 5012.07 1810.5 4989.33 1810.5L4676.67 1810.5C4653.93 1810.5 4635.5 1792.07 4635.5 1769.33Z" stroke="#2A642C" stroke-width="9.16667" stroke-miterlimit="8" fill="#BEE4BF" fill-rule="evenodd"/><text font-family="Times New Roman,Times New Roman_MSFontService,sans-serif" font-weight="400" font-size="110" transform="matrix(1 0 0 1 4759.32 1661)">IR</text><text font-family="Times New Roman,Times New Roman_MSFontService,sans-serif" font-weight="400" font-size="110" transform="matrix(1 0 0 1 4869.32 1661)">-</text><text font-family="Times New Roman,Times New Roman_MSFontService,sans-serif" font-weight="400" font-size="110" transform="matrix(1 0 0 1 4682.82 1766)">PREP</text><text font-family="Times New Roman,Times New Roman_MSFontService,sans-serif" font-weight="400" font-size="73" transform="matrix(1 0 0 1 4945.79 1793)">6</text><path d="M3.39684-0.527168 6.55984 19.8539-0.233829 20.9082-3.39684 0.527168ZM7.61418 26.6475 10.7772 47.0285 3.98352 48.0829 0.820508 27.7019ZM11.8315 53.8222 14.9945 74.2032 8.20086 75.2576 5.03785 54.8766ZM16.0489 80.9969 19.2119 101.378 12.4182 102.432 9.2552 82.0513ZM20.2662 108.172 23.4292 128.553 16.6355 129.607 13.4725 109.226ZM24.4836 135.346 27.6466 155.727 20.8529 156.782 17.6899 136.401ZM28.7009 162.521 31.8639 182.902 25.0702 183.956 21.9072 163.575ZM32.9182 189.696 36.0813 210.077 29.2876 211.131 26.1246 190.75ZM37.1356 216.87 40.2986 237.251 33.5049 238.306 30.3419 217.925ZM41.3529 244.045 44.5159 264.426 37.7223 265.48 34.5593 245.099ZM45.5703 271.22 48.7333 291.601 41.9396 292.655 38.7766 272.274ZM49.7876 298.394 52.9506 318.775 46.157 319.83 42.9939 299.449ZM54.005 325.569 57.168 345.95 50.3743 347.005 47.2113 326.624ZM58.2223 352.744 61.3853 373.125 54.5916 374.179 51.4286 353.798ZM62.4397 379.919 64.5948 393.806 57.8012 394.86 55.646 380.973ZM61.198 394.333 81.032 372.702 65.4154 421.508 35.7409 379.731Z" fill="#747474" transform="matrix(1 0 0 -1 5845.5 2107.01)"/><path d="M3.42711-0.267047 5.0294 20.2956-1.82483 20.8297-3.42711 0.267047ZM5.56349 27.1498 7.16577 47.7125 0.311551 48.2466-1.29073 27.6839ZM7.69987 54.5667 9.30215 75.1294 2.44793 75.6635 0.845645 55.1008ZM9.83625 81.9836 11.4385 102.546 4.58431 103.08 2.98202 82.5177ZM11.9726 109.4 13.5749 129.963 6.72068 130.497 5.1184 109.935ZM14.109 136.817 15.7113 157.38 8.85706 157.914 7.25478 137.351ZM16.2454 164.234 17.8477 184.797 10.9934 185.331 9.39116 164.768ZM18.3818 191.651 19.984 212.214 13.1298 212.748 11.5275 192.185ZM20.5181 219.068 22.1204 239.631 15.2662 240.165 13.6639 219.602ZM22.6545 246.485 24.2568 267.048 17.4026 267.582 15.8003 247.019ZM24.7909 273.902 26.3932 294.465 19.5389 294.999 17.9367 274.436ZM26.9273 301.319 28.5296 321.881 21.6753 322.415 20.073 301.853ZM29.0636 328.736 30.6659 349.298 23.8117 349.832 22.2094 329.27ZM31.2 356.153 32.8023 376.715 25.9481 377.249 24.3458 356.687ZM33.3364 383.569 34.9387 404.132 28.0845 404.666 26.4822 384.103ZM35.4728 410.986 37.0751 431.549 30.2208 432.083 28.6186 411.52ZM37.6092 438.403 39.2114 458.966 32.3572 459.5 30.7549 438.937ZM39.7455 465.82 41.3478 486.383 34.4936 486.917 32.8913 466.354ZM41.8819 493.237 43.4842 513.799 36.63 514.334 35.0277 493.771ZM44.0183 520.654 45.6206 541.216 38.7664 541.75 37.1641 521.188ZM46.1547 548.071 47.757 568.633 40.9027 569.167 39.3005 548.605ZM48.2911 575.487 49.8933 596.05 43.0391 596.584 41.4368 576.022ZM50.4274 602.904 52.0297 623.467 45.1755 624.001 43.5732 603.438ZM52.5638 630.321 54.1661 650.884 47.3119 651.418 45.7096 630.855ZM54.7002 657.738 56.3025 678.301 49.4482 678.835 47.846 658.272ZM56.8366 685.155 58.4388 705.718 51.5846 706.252 49.9823 685.689ZM58.9729 712.572 60.5752 733.135 53.721 733.669 52.1187 713.106ZM61.1093 739.989 62.7116 760.552 55.8574 761.086 54.2551 740.523ZM63.2457 767.406 64.848 787.968 57.9938 788.503 56.3915 767.94ZM65.3821 794.823 66.7062 811.815 59.8519 812.349 58.5279 795.357ZM63.279 812.081 84.7021 792.023 65.4154 839.498 39.0073 795.584Z" fill="#747474" transform="matrix(1 0 0 -1 5845.5 2107)"/><path d="M5910.5 766.501C5910.5 743.857 5928.86 725.5 5951.5 725.5L6281.5 725.5C6304.14 725.5 6322.5 743.857 6322.5 766.501L6322.5 930.499C6322.5 953.143 6304.14 971.5 6281.5 971.5L5951.5 971.5C5928.86 971.5 5910.5 953.143 5910.5 930.499Z" stroke="#2A642C" stroke-width="9.16667" stroke-miterlimit="8" fill="#BEE4BF" fill-rule="evenodd"/><text font-family="Times New Roman,Times New Roman_MSFontService,sans-serif" font-weight="400" font-size="110" transform="matrix(1 0 0 1 5981.78 822)">FREE </text><text font-family="Times New Roman,Times New Roman_MSFontService,sans-serif" font-weight="400" font-size="110" transform="matrix(1 0 0 1 5996.68 927)">PFN</text><text font-family="Times New Roman,Times New Roman_MSFontService,sans-serif" font-weight="400" font-size="73" transform="matrix(1 0 0 1 6198.92 954)">3</text><path d="M3.43287-0.17842 4.50339 20.4188-2.36234 20.7756-3.43287 0.17842ZM4.86023 27.2845 5.93075 47.8817-0.934981 48.2386-2.0055 27.6414ZM6.28759 54.7474 7.35812 75.3446 0.492382 75.7015-0.57814 55.1043ZM7.71496 82.2104 8.78548 102.808 1.91974 103.164 0.849222 82.5672ZM9.14232 109.673 10.2128 130.271 3.34711 130.627 2.27659 110.03ZM10.5697 137.136 11.6402 157.733 4.77447 158.09 3.70395 137.493ZM11.997 164.599 13.0676 185.196 6.20183 185.553 5.13131 164.956ZM13.4244 192.062 14.4949 212.659 7.6292 213.016 6.55867 192.419ZM14.8518 219.525 15.9223 240.122 9.05656 240.479 7.98604 219.882ZM16.2791 246.988 17.3497 267.585 10.4839 267.942 9.4134 247.345ZM17.7065 274.451 18.777 295.048 11.9113 295.405 10.8408 274.808ZM19.1339 301.914 20.2044 322.511 13.3387 322.868 12.2681 302.271ZM20.5612 329.377 21.6317 349.974 14.766 350.331 13.6955 329.734ZM21.9886 356.84 23.0591 377.437 16.1934 377.794 15.1229 357.197ZM23.416 384.303 24.4865 404.9 17.6207 405.257 16.5502 384.659ZM24.8433 411.766 25.9138 432.363 19.0481 432.72 17.9776 412.122ZM26.2707 439.229 27.3412 459.826 20.4755 460.183 19.4049 439.585ZM27.698 466.691 28.7686 487.289 21.9028 487.646 20.8323 467.048ZM29.1254 494.154 30.1959 514.752 23.3302 515.109 22.2597 494.511ZM30.5528 521.617 31.6233 542.215 24.7576 542.571 23.687 521.974ZM31.9801 549.08 33.0507 569.678 26.1849 570.034 25.1144 549.437ZM33.4075 576.543 34.478 597.141 27.6123 597.497 26.5418 576.9ZM34.8349 604.006 35.9054 624.604 29.0396 624.96 27.9691 604.363ZM36.2622 631.469 37.3327 652.067 30.467 652.423 29.3965 631.826ZM37.6896 658.932 38.7601 679.529 31.8944 679.886 30.8238 659.289ZM39.1169 686.395 40.1875 706.992 33.3217 707.349 32.2512 686.752ZM40.5443 713.858 41.6148 734.455 34.7491 734.812 33.6786 714.215ZM41.9717 741.321 43.0422 761.918 36.1765 762.275 35.1059 741.678ZM43.399 768.784 44.4696 789.381 37.6038 789.738 36.5333 769.141ZM44.8264 796.247 45.8969 816.844 39.0312 817.201 37.9607 796.604ZM46.2538 823.71 47.3243 844.307 40.4585 844.664 39.388 824.067ZM47.6811 851.173 48.7516 871.77 41.8859 872.127 40.8154 851.53ZM49.1085 878.636 50.179 899.233 43.3133 899.59 42.2428 878.992ZM50.5359 906.098 51.6064 926.696 44.7406 927.053 43.6701 906.455ZM51.9632 933.561 53.0337 954.159 46.168 954.516 45.0975 933.918ZM53.3906 961.024 54.4611 981.622 47.5954 981.978 46.5248 961.381ZM54.8179 988.487 55.8885 1009.08 49.0227 1009.44 47.9522 988.844ZM56.2453 1015.95 57.3158 1036.55 50.4501 1036.9 49.3796 1016.31ZM57.6727 1043.41 58.7432 1064.01 51.8775 1064.37 50.8069 1043.77ZM59.1 1070.88 60.1705 1091.47 53.3048 1091.83 52.2343 1071.23ZM60.5274 1098.34 61.5979 1118.94 54.7322 1119.29 53.6617 1098.7ZM61.9547 1125.8 63.0253 1146.4 56.1595 1146.76 55.089 1126.16ZM63.3821 1153.26 64.4526 1173.86 57.5869 1174.22 56.5164 1153.62ZM64.8095 1180.73 65.88 1201.32 59.0143 1201.68 57.9437 1181.08ZM66.2368 1208.19 67.3074 1228.79 60.4416 1229.14 59.3711 1208.55ZM63.988 1231.15 85.9222 1211.65 65.4154 1258.61 40.1506 1214.03Z" fill="#747474" transform="matrix(1 0 0 -1 5845.5 2107.11)"/><path d="M0 0 444.696 1.12382" stroke="#000000" stroke-width="6.875" stroke-miterlimit="8" fill="none" fill-rule="evenodd" transform="matrix(1 0 0 -1 5466.5 849.624)"/><path d="M5845.5 2107.5 6266 2107.5" stroke="#000000" stroke-width="6.875" stroke-miterlimit="8" fill="none" fill-rule="evenodd"/><path d="M740.5 766.668C740.5 743.932 758.931 725.5 781.667 725.5L985.332 725.5C1008.07 725.5 1026.5 743.932 1026.5 766.668L1026.5 931.333C1026.5 954.069 1008.07 972.5 985.332 972.5L781.667 972.5C758.931 972.5 740.5 954.069 740.5 931.333Z" stroke="#000000" stroke-width="9.16667" stroke-miterlimit="8" fill="#FFFFFF" fill-rule="evenodd"/><text font-family="Times New Roman,Times New Roman_MSFontService,sans-serif" font-weight="400" font-size="110" transform="matrix(1 0 0 1 825.222 888)">U</text><text font-family="Times New Roman,Times New Roman_MSFontService,sans-serif" font-weight="400" font-size="73" transform="matrix(1 0 0 1 904.857 915)">0</text><path d="M1059.5 766.668C1059.5 743.932 1077.93 725.5 1100.67 725.5L1413.33 725.5C1436.07 725.5 1454.5 743.932 1454.5 766.668L1454.5 931.333C1454.5 954.069 1436.07 972.5 1413.33 972.5L1100.67 972.5C1077.93 972.5 1059.5 954.069 1059.5 931.333Z" stroke="#2A642C" stroke-width="9.16667" stroke-miterlimit="8" fill="#BEE4BF" fill-rule="evenodd"/><text font-family="Times New Roman,Times New Roman_MSFontService,sans-serif" font-weight="400" font-size="110" transform="matrix(1 0 0 1 1183.26 823)">IR</text><text font-family="Times New Roman,Times New Roman_MSFontService,sans-serif" font-weight="400" font-size="110" transform="matrix(1 0 0 1 1293.26 823)">-</text><text font-family="Times New Roman,Times New Roman_MSFontService,sans-serif" font-weight="400" font-size="110" transform="matrix(1 0 0 1 1106.76 928)">PREP</text><text font-family="Times New Roman,Times New Roman_MSFontService,sans-serif" font-weight="400" font-size="73" transform="matrix(1 0 0 1 1369.73 955)">0</text><path d="M1457.93 848.332 1458.94 868.933 1452.07 869.268 1451.07 848.667ZM1459.27 875.8 1460.28 896.4 1453.41 896.735 1452.41 876.135ZM1460.61 903.267 1461.62 923.867 1454.75 924.203 1453.75 903.602ZM1461.95 930.734 1462.96 951.335 1456.09 951.67 1455.09 931.069ZM1463.29 958.202 1464.3 978.802 1457.43 979.137 1456.43 958.537ZM1464.63 985.669 1465.64 1006.27 1458.77 1006.6 1457.77 986.004ZM1465.98 1013.14 1466.98 1033.74 1460.11 1034.07 1459.11 1013.47ZM1467.32 1040.6 1468.32 1061.2 1461.45 1061.54 1460.45 1040.94ZM1468.66 1068.07 1469.66 1088.67 1462.79 1089.01 1461.79 1068.41ZM1470 1095.54 1471 1116.14 1464.13 1116.47 1463.13 1095.87ZM1471.34 1123.01 1472.34 1143.61 1465.47 1143.94 1464.47 1123.34ZM1472.68 1150.47 1473.68 1171.07 1466.82 1171.41 1465.81 1150.81ZM1474.02 1177.94 1475.02 1198.54 1468.16 1198.88 1467.15 1178.28ZM1475.36 1205.41 1476.36 1226.01 1469.5 1226.34 1468.49 1205.74ZM1476.7 1232.87 1477.7 1253.48 1470.84 1253.81 1469.83 1233.21ZM1478.04 1260.34 1479.04 1280.94 1472.18 1281.28 1471.17 1260.68ZM1479.38 1287.81 1480.38 1308.41 1473.52 1308.74 1472.51 1288.14ZM1480.72 1315.28 1481.72 1335.88 1474.86 1336.21 1473.85 1315.61ZM1482.06 1342.74 1483.06 1363.34 1476.2 1363.68 1475.19 1343.08ZM1483.4 1370.21 1484.4 1390.81 1477.54 1391.15 1476.53 1370.55ZM1484.74 1397.68 1485.74 1418.28 1478.88 1418.61 1477.87 1398.01ZM1486.08 1425.15 1487.09 1445.75 1480.22 1446.08 1479.21 1425.48ZM1487.42 1452.61 1488.43 1473.21 1481.56 1473.55 1480.55 1452.95ZM1488.76 1480.08 1489.77 1500.68 1482.9 1501.02 1481.89 1480.42ZM1490.1 1507.55 1491.11 1528.15 1484.24 1528.48 1483.23 1507.88ZM1491.44 1535.02 1492.45 1555.62 1485.58 1555.95 1484.57 1535.35ZM1492.78 1562.48 1493.79 1583.08 1486.92 1583.42 1485.91 1562.82ZM1494.12 1589.95 1495.13 1610.55 1488.26 1610.89 1487.26 1590.29ZM1495.46 1617.42 1496.47 1638.02 1489.6 1638.35 1488.6 1617.75ZM1496.8 1644.88 1497.81 1665.49 1490.94 1665.82 1489.94 1645.22ZM1498.14 1672.35 1499.15 1692.95 1492.28 1693.29 1491.28 1672.69ZM1499.48 1699.82 1500.49 1720.42 1493.62 1720.75 1492.62 1700.15ZM1500.82 1727.29 1501.83 1747.89 1494.96 1748.22 1493.96 1727.62ZM1502.16 1754.75 1503.17 1775.35 1496.3 1775.69 1495.3 1755.09ZM1503.5 1782.22 1504.51 1802.82 1497.64 1803.16 1496.64 1782.56ZM1504.84 1809.69 1505.85 1830.29 1498.98 1830.62 1497.98 1810.02ZM1506.18 1837.16 1507.19 1857.76 1500.32 1858.09 1499.32 1837.49ZM1507.53 1864.62 1508.53 1885.22 1501.66 1885.56 1500.66 1864.96ZM1508.87 1892.09 1509.87 1912.69 1503 1913.03 1502 1892.43ZM1510.21 1919.56 1511.21 1940.16 1504.34 1940.49 1503.34 1919.89ZM1511.55 1947.02 1512.55 1967.63 1505.68 1967.96 1504.68 1947.36ZM1512.89 1974.49 1513.89 1995.09 1507.02 1995.43 1506.02 1974.83ZM1514.23 2001.96 1515.23 2022.56 1508.36 2022.9 1507.36 2002.29ZM1515.57 2029.43 1516.57 2050.03 1509.71 2050.36 1508.7 2029.76ZM1516.91 2056.89 1517.91 2077.49 1511.05 2077.83 1510.04 2057.23ZM1514.57 2079.53 1536.57 2060.1 1515.91 2107 1490.79 2062.33Z" fill="#747474"/><rect x="635.5" y="205.5" width="5415" height="408" stroke="#042433" stroke-width="6.875" stroke-miterlimit="8" fill="#FFFFFF"/><text font-family="Times New Roman,Times New Roman_MSFontService,sans-serif" font-weight="400" font-size="110" transform="matrix(1 0 0 1 1066.78 373)">IOMMU </text><text font-family="Times New Roman,Times New Roman_MSFontService,sans-serif" font-weight="400" font-size="110" transform="matrix(1 0 0 1 1039.28 505)">Subsystem</text><path d="M702 307.834C702 286.387 719.387 269 740.834 269L953.166 269C974.613 269 992 286.387 992 307.834L992 463.166C992 484.613 974.613 502 953.166 502L740.834 502C719.387 502 702 484.613 702 463.166Z" stroke="#2A642C" stroke-width="10.3125" stroke-miterlimit="8" fill="#BEE4BF" fill-rule="evenodd"/><text font-family="Times New Roman,Times New Roman_MSFontService,sans-serif" font-weight="400" font-size="110" transform="matrix(1 0 0 1 3091.52 356)">NIC </text><text font-family="Times New Roman,Times New Roman_MSFontService,sans-serif" font-weight="400" font-size="110" transform="matrix(1 0 0 1 3064.02 488)">Driver</text><path d="M2728.5 298.834C2728.5 274.901 2747.9 255.5 2771.83 255.5L2985.17 255.5C3009.1 255.5 3028.5 274.901 3028.5 298.834L3028.5 472.166C3028.5 496.099 3009.1 515.5 2985.17 515.5L2771.83 515.5C2747.9 515.5 2728.5 496.099 2728.5 472.166Z" stroke="#235D7F" stroke-width="9.16667" stroke-miterlimit="8" fill="#C3DEEE" fill-rule="evenodd"/><text font-family="Times New Roman,Times New Roman_MSFontService,sans-serif" font-weight="400" font-size="110" transform="matrix(1 0 0 1 2029.19 379)">VM Exit + </text><text font-family="Times New Roman,Times New Roman_MSFontService,sans-serif" font-weight="400" font-size="110" transform="matrix(1 0 0 1 2003.69 511)">IOMMU </text><text font-family="Times New Roman,Times New Roman_MSFontService,sans-serif" font-weight="400" font-size="110" transform="matrix(1 0 0 1 2423.06 511)">HW</text><path d="M1654.5 315.334C1654.5 293.886 1671.89 276.5 1693.33 276.5L1914.67 276.5C1936.11 276.5 1953.5 293.886 1953.5 315.334L1953.5 470.666C1953.5 492.113 1936.11 509.5 1914.67 509.5L1693.33 509.5C1671.89 509.5 1654.5 492.113 1654.5 470.666Z" stroke="#AA2020" stroke-width="9.16667" stroke-miterlimit="8" fill="#EFAAAA" fill-rule="evenodd"/><text font-family="Times New Roman,Times New Roman_MSFontService,sans-serif" font-weight="400" font-size="110" transform="matrix(1 0 0 1 3813.88 435)">Wait</text><path d="M3502.5 374.188 3739.44 374.188 3739.44 394.813 3502.5 394.813ZM3739.44 384.5 3698.19 332.938 3801.32 384.501 3698.19 436.063Z" fill="#AA2020"/><text font-family="Times New Roman,Times New Roman_MSFontService,sans-serif" font-weight="400" font-size="110" transform="matrix(1 0 0 1 5606.96 442)">Timeline</text><path d="M5269.5 417.5 5580.63 417.501" stroke="#000000" stroke-width="6.875" stroke-miterlimit="8" fill="none" fill-rule="evenodd"/><text font-family="Times New Roman,Times New Roman_MSFontService,sans-serif" font-weight="400" font-size="110" transform="matrix(1 0 0 1 4584.01 435)">Coordination</text><path d="M4165.5 381.063 4186.12 381.063 4186.12 387.938 4165.5 387.938ZM4193 381.063 4213.62 381.063 4213.62 387.938 4193 387.938ZM4220.5 381.063 4241.12 381.063 4241.12 387.938 4220.5 387.938ZM4248 381.063 4268.62 381.063 4268.62 387.938 4248 387.938ZM4275.5 381.063 4296.12 381.063 4296.12 387.938 4275.5 387.938ZM4303 381.063 4323.62 381.063 4323.62 387.938 4303 387.938ZM4330.5 381.063 4351.12 381.063 4351.12 387.938 4330.5 387.938ZM4358 381.063 4378.62 381.063 4378.62 387.938 4358 387.938ZM4385.5 381.063 4406.12 381.063 4406.12 387.938 4385.5 387.938ZM4413 381.063 4433.62 381.063 4433.62 387.938 4413 387.938ZM4440.5 381.063 4461.12 381.063 4461.12 387.938 4440.5 387.938ZM4468 381.063 4488.62 381.063 4488.62 387.938 4468 387.938ZM4495.5 381.063 4516.12 381.063 4516.12 387.938 4495.5 387.938ZM4519.97 384.5 4501.64 361.584 4547.47 384.501 4501.64 407.417Z" fill="#747474"/><text font-family="Times New Roman,Times New Roman_MSFontService,sans-serif" font-weight="400" font-size="110" transform="matrix(1 0 0 1 3762.11 2434)">T</text><text font-family="Times New Roman,Times New Roman_MSFontService,sans-serif" font-weight="400" font-size="73" transform="matrix(1 0 0 1 3829.14 2461)">0</text><path d="M4.58333-2.03651e-05 4.58359 58.305-4.58307 58.3051-4.58333 2.03651e-05ZM13.7502 53.7217 0.000360892 81.2217-13.7498 53.7218Z" transform="matrix(1 0 0 -1 3823.5 2315.72)"/><text font-family="Times New Roman,Times New Roman_MSFontService,sans-serif" font-weight="400" font-size="110" transform="matrix(1 0 0 1 5833.36 2434)">T</text><text font-family="Times New Roman,Times New Roman_MSFontService,sans-serif" font-weight="400" font-size="73" transform="matrix(1 0 0 1 5900.39 2461)">1</text><path d="M4.58333-2.03651e-05 4.58359 58.305-4.58307 58.3051-4.58333 2.03651e-05ZM13.7502 53.7217 0.000360892 81.2217-13.7498 53.7218Z" transform="matrix(1 0 0 -1 5780.5 2315.72)"/><text font-family="Times New Roman,Times New Roman_MSFontService,sans-serif" font-weight="700" font-size="110" transform="matrix(1 0 0 1 488.571 894)">C</text><text font-family="Times New Roman,Times New Roman_MSFontService,sans-serif" font-weight="700" font-size="98" transform="matrix(1 0 0 1 568.206 930)">0</text><text font-family="Times New Roman,Times New Roman_MSFontService,sans-serif" font-weight="700" font-size="110" transform="matrix(1 0 0 1 496.729 1311)">C</text><text font-family="Times New Roman,Times New Roman_MSFontService,sans-serif" font-weight="700" font-size="98" transform="matrix(1 0 0 1 576.364 1347)">1</text><text font-family="Times New Roman,Times New Roman_MSFontService,sans-serif" font-weight="700" font-size="110" transform="matrix(1 0 0 1 496.729 1733)">C</text><text font-family="Times New Roman,Times New Roman_MSFontService,sans-serif" font-weight="700" font-size="98" transform="matrix(1 0 0 1 576.364 1769)">2</text><text font-family="Cambria Math,Cambria Math_MSFontService,sans-serif" font-weight="700" font-size="128" transform="matrix(1 0 0 1 525.656 1958)">⋮</text><text font-family="Times New Roman,Times New Roman_MSFontService,sans-serif" font-weight="700" font-size="128" transform="matrix(1 0 0 1 502.748 2153)">Ĉ</text></g></svg>