<svg width="6290" height="2350" xmlns="http://www.w3.org/2000/svg" xmlns:xlink="http://www.w3.org/1999/xlink" xml:space="preserve" overflow="hidden"><g transform="translate(-422 -202)"><path d="M6101.5 1685.5 6437.27 1685.5" stroke="#000000" stroke-width="6.875" stroke-miterlimit="8" fill="none" fill-rule="evenodd"/><path d="M0 0 3452.06 0.571654" stroke="#000000" stroke-width="6.875" stroke-miterlimit="8" fill="none" fill-rule="evenodd" transform="matrix(1 0 0 -1 2540.5 1686.07)"/><path d="M0 0 1154.49 1.68681" stroke="#000000" stroke-width="6.875" stroke-miterlimit="8" fill="none" fill-rule="evenodd" transform="matrix(1 0 0 -1 710.5 2109.19)"/><path d="M3022.5 2024.67C3022.5 2001.93 3040.93 1983.5 3063.67 1983.5L3396.33 1983.5C3419.07 1983.5 3437.5 2001.93 3437.5 2024.67L3437.5 2189.33C3437.5 2212.07 3419.07 2230.5 3396.33 2230.5L3063.67 2230.5C3040.93 2230.5 3022.5 2212.07 3022.5 2189.33Z" stroke="#2A642C" stroke-width="9.16667" stroke-miterlimit="8" fill="#BEE4BF" fill-rule="evenodd"/><text font-family="Times New Roman,Times New Roman_MSFontService,sans-serif" font-weight="400" font-size="92" transform="matrix(1 0 0 1 3117.12 2086)">FREE </text><text font-family="Times New Roman,Times New Roman_MSFontService,sans-serif" font-weight="400" font-size="92" transform="matrix(1 0 0 1 3102.11 2174)">IOVA</text><text font-family="Times New Roman,Times New Roman_MSFontService,sans-serif" font-weight="400" font-size="73" transform="matrix(1 0 0 1 3320.02 2201)">0</text><path d="M1579.5 2024.67C1579.5 2001.93 1597.93 1983.5 1620.67 1983.5L2941.33 1983.5C2964.07 1983.5 2982.5 2001.93 2982.5 2024.67L2982.5 2189.33C2982.5 2212.07 2964.07 2230.5 2941.33 2230.5L1620.67 2230.5C1597.93 2230.5 1579.5 2212.07 1579.5 2189.33Z" stroke="#AA2020" stroke-width="9.16667" stroke-miterlimit="8" fill="#EFAAAA" fill-rule="evenodd"/><text font-family="Times New Roman,Times New Roman_MSFontService,sans-serif" font-weight="400" font-size="92" transform="matrix(1 0 0 1 2130.48 2141)">IR</text><text font-family="Times New Roman,Times New Roman_MSFontService,sans-serif" font-weight="400" font-size="92" transform="matrix(1 0 0 1 2222.15 2141)">-</text><text font-family="Times New Roman,Times New Roman_MSFontService,sans-serif" font-weight="400" font-size="92" transform="matrix(1 0 0 1 2252.51 2141)">SUB</text><path d="M1765.5 1185.67C1765.5 1162.93 1783.93 1144.5 1806.67 1144.5L2010.33 1144.5C2033.07 1144.5 2051.5 1162.93 2051.5 1185.67L2051.5 1350.33C2051.5 1373.07 2033.07 1391.5 2010.33 1391.5L1806.67 1391.5C1783.93 1391.5 1765.5 1373.07 1765.5 1350.33Z" stroke="#000000" stroke-width="9.16667" stroke-miterlimit="8" fill="#FFFFFF" fill-rule="evenodd"/><text font-family="Times New Roman,Times New Roman_MSFontService,sans-serif" font-weight="400" font-size="92" transform="matrix(1 0 0 1 1856.27 1301)">U</text><text font-family="Times New Roman,Times New Roman_MSFontService,sans-serif" font-weight="400" font-size="73" transform="matrix(1 0 0 1 1922.73 1328)">1</text><path d="M2114.5 1185.67C2114.5 1162.93 2132.93 1144.5 2155.67 1144.5L2437.33 1144.5C2460.07 1144.5 2478.5 1162.93 2478.5 1185.67L2478.5 1350.33C2478.5 1373.07 2460.07 1391.5 2437.33 1391.5L2155.67 1391.5C2132.93 1391.5 2114.5 1373.07 2114.5 1350.33Z" stroke="#2A642C" stroke-width="9.16667" stroke-miterlimit="8" fill="#BEE4BF" fill-rule="evenodd"/><text font-family="Times New Roman,Times New Roman_MSFontService,sans-serif" font-weight="400" font-size="92" transform="matrix(1 0 0 1 2235.27 1246)">IR</text><text font-family="Times New Roman,Times New Roman_MSFontService,sans-serif" font-weight="400" font-size="92" transform="matrix(1 0 0 1 2326.94 1246)">-</text><text font-family="Times New Roman,Times New Roman_MSFontService,sans-serif" font-weight="400" font-size="92" transform="matrix(1 0 0 1 2168.24 1334)">PREP</text><text font-family="Times New Roman,Times New Roman_MSFontService,sans-serif" font-weight="400" font-size="73" transform="matrix(1 0 0 1 2387.67 1361)">1</text><path d="M1827.5 1603.67C1827.5 1580.93 1845.93 1562.5 1868.67 1562.5L2072.33 1562.5C2095.07 1562.5 2113.5 1580.93 2113.5 1603.67L2113.5 1768.33C2113.5 1791.07 2095.07 1809.5 2072.33 1809.5L1868.67 1809.5C1845.93 1809.5 1827.5 1791.07 1827.5 1768.33Z" stroke="#000000" stroke-width="9.16667" stroke-miterlimit="8" fill="#FFFFFF" fill-rule="evenodd"/><text font-family="Times New Roman,Times New Roman_MSFontService,sans-serif" font-weight="400" font-size="92" transform="matrix(1 0 0 1 1918.37 1720)">U</text><text font-family="Times New Roman,Times New Roman_MSFontService,sans-serif" font-weight="400" font-size="73" transform="matrix(1 0 0 1 1984.82 1747)">2</text><path d="M2176.5 1603.67C2176.5 1580.93 2194.93 1562.5 2217.67 1562.5L2499.33 1562.5C2522.07 1562.5 2540.5 1580.93 2540.5 1603.67L2540.5 1768.33C2540.5 1791.07 2522.07 1809.5 2499.33 1809.5L2217.67 1809.5C2194.93 1809.5 2176.5 1791.07 2176.5 1768.33Z" stroke="#2A642C" stroke-width="9.16667" stroke-miterlimit="8" fill="#BEE4BF" fill-rule="evenodd"/><text font-family="Times New Roman,Times New Roman_MSFontService,sans-serif" font-weight="400" font-size="92" transform="matrix(1 0 0 1 2297.37 1665)">IR</text><text font-family="Times New Roman,Times New Roman_MSFontService,sans-serif" font-weight="400" font-size="92" transform="matrix(1 0 0 1 2389.04 1665)">-</text><text font-family="Times New Roman,Times New Roman_MSFontService,sans-serif" font-weight="400" font-size="92" transform="matrix(1 0 0 1 2230.34 1753)">PREP</text><text font-family="Times New Roman,Times New Roman_MSFontService,sans-serif" font-weight="400" font-size="73" transform="matrix(1 0 0 1 2449.77 1780)">2</text><path d="M5380.5 2024.67C5380.5 2001.93 5398.93 1983.5 5421.67 1983.5L5854.33 1983.5C5877.07 1983.5 5895.5 2001.93 5895.5 2024.67L5895.5 2189.33C5895.5 2212.07 5877.07 2230.5 5854.33 2230.5L5421.67 2230.5C5398.93 2230.5 5380.5 2212.07 5380.5 2189.33Z" stroke="#2A642C" stroke-width="9.16667" stroke-miterlimit="8" fill="#BEE4BF" fill-rule="evenodd"/><text font-family="Times New Roman,Times New Roman_MSFontService,sans-serif" font-weight="400" font-size="92" transform="matrix(1 0 0 1 5525.05 2086)">FREE </text><text font-family="Times New Roman,Times New Roman_MSFontService,sans-serif" font-weight="400" font-size="92" transform="matrix(1 0 0 1 5427.54 2174)">IOVA</text><text font-family="Times New Roman,Times New Roman_MSFontService,sans-serif" font-weight="400" font-size="73" transform="matrix(1 0 0 1 5645.46 2201)">1,2,3,4</text><path d="M3938 2024.17C3938 2001.43 3956.43 1983 3979.17 1983L5299.83 1983C5322.57 1983 5341 2001.43 5341 2024.17L5341 2188.83C5341 2211.57 5322.57 2230 5299.83 2230L3979.17 2230C3956.43 2230 3938 2211.57 3938 2188.83Z" stroke="#AA2020" stroke-width="10.3125" stroke-miterlimit="8" fill="#EFAAAA" fill-rule="evenodd"/><text font-family="Times New Roman,Times New Roman_MSFontService,sans-serif" font-weight="400" font-size="92" transform="matrix(1 0 0 1 4489.07 2141)">IR</text><text font-family="Times New Roman,Times New Roman_MSFontService,sans-serif" font-weight="400" font-size="92" transform="matrix(1 0 0 1 4580.74 2141)">-</text><text font-family="Times New Roman,Times New Roman_MSFontService,sans-serif" font-weight="400" font-size="92" transform="matrix(1 0 0 1 4611.1 2141)">SUB</text><path d="M3512.5 766.668C3512.5 743.931 3530.93 725.5 3553.67 725.5L3835.33 725.5C3858.07 725.5 3876.5 743.931 3876.5 766.668L3876.5 931.333C3876.5 954.069 3858.07 972.5 3835.33 972.5L3553.67 972.5C3530.93 972.5 3512.5 954.069 3512.5 931.333Z" stroke="#2A642C" stroke-width="9.16667" stroke-miterlimit="8" fill="#BEE4BF" fill-rule="evenodd"/><text font-family="Times New Roman,Times New Roman_MSFontService,sans-serif" font-weight="400" font-size="92" transform="matrix(1 0 0 1 3582.07 827)">FREE </text><text font-family="Times New Roman,Times New Roman_MSFontService,sans-serif" font-weight="400" font-size="92" transform="matrix(1 0 0 1 3591.81 915)">PFN</text><text font-family="Times New Roman,Times New Roman_MSFontService,sans-serif" font-weight="400" font-size="73" transform="matrix(1 0 0 1 3760.25 942)">0</text><path d="M4867.5 767.667C4867.5 744.931 4885.93 726.5 4908.67 726.5L5112.33 726.5C5135.07 726.5 5153.5 744.931 5153.5 767.667L5153.5 932.332C5153.5 955.069 5135.07 973.5 5112.33 973.5L4908.67 973.5C4885.93 973.5 4867.5 955.069 4867.5 932.332Z" stroke="#000000" stroke-width="9.16667" stroke-miterlimit="8" fill="#FFFFFF" fill-rule="evenodd"/><text font-family="Times New Roman,Times New Roman_MSFontService,sans-serif" font-weight="400" font-size="92" transform="matrix(1 0 0 1 4958.31 883)">U</text><text font-family="Times New Roman,Times New Roman_MSFontService,sans-serif" font-weight="400" font-size="73" transform="matrix(1 0 0 1 5024.77 910)">7</text><path d="M5216.5 767.667C5216.5 744.931 5234.93 726.5 5257.67 726.5L5539.33 726.5C5562.07 726.5 5580.5 744.931 5580.5 767.667L5580.5 932.333C5580.5 955.069 5562.07 973.5 5539.33 973.5L5257.67 973.5C5234.93 973.5 5216.5 955.069 5216.5 932.333Z" stroke="#2A642C" stroke-width="9.16667" stroke-miterlimit="8" fill="#BEE4BF" fill-rule="evenodd"/><text font-family="Times New Roman,Times New Roman_MSFontService,sans-serif" font-weight="400" font-size="92" transform="matrix(1 0 0 1 5337.31 828)">IR</text><text font-family="Times New Roman,Times New Roman_MSFontService,sans-serif" font-weight="400" font-size="92" transform="matrix(1 0 0 1 5428.98 828)">-</text><text font-family="Times New Roman,Times New Roman_MSFontService,sans-serif" font-weight="400" font-size="92" transform="matrix(1 0 0 1 5270.28 916)">PREP</text><text font-family="Times New Roman,Times New Roman_MSFontService,sans-serif" font-weight="400" font-size="73" transform="matrix(1 0 0 1 5489.71 943)">7</text><path d="M710.5 1267.5 1765.2 1267.5" stroke="#000000" stroke-width="6.875" stroke-miterlimit="8" fill="none" fill-rule="evenodd"/><path d="M2051.5 1267.5 2115.15 1267.5" stroke="#000000" stroke-width="6.875" stroke-miterlimit="8" fill="none" fill-rule="evenodd"/><path d="M6101.5 1267.5 6437.27 1267.5" stroke="#000000" stroke-width="6.875" stroke-miterlimit="8" fill="none" fill-rule="evenodd"/><path d="M710.5 1686.5 1827.3 1686.5" stroke="#000000" stroke-width="6.875" stroke-miterlimit="8" fill="none" fill-rule="evenodd"/><path d="M6338.5 848.5 6436.74 848.5" stroke="#000000" stroke-width="6.875" stroke-miterlimit="8" fill="none" fill-rule="evenodd"/><path d="M0 0 2810.64 12.9369" stroke="#000000" stroke-width="6.875" stroke-miterlimit="8" fill="none" fill-rule="evenodd" transform="matrix(1 0 0 -1 702.5 861.437)"/><path d="M3876.5 848.5 4867.2 849.507" stroke="#000000" stroke-width="6.875" stroke-miterlimit="8" fill="none" fill-rule="evenodd"/><path d="M1389.5 848.5 1453.15 848.5" stroke="#000000" stroke-width="6.875" stroke-miterlimit="8" fill="none" fill-rule="evenodd"/><path d="M2113.5 1686.5 2177.15 1686.5" stroke="#000000" stroke-width="6.875" stroke-miterlimit="8" fill="none" fill-rule="evenodd"/><path d="M2982.5 2107.5 3021.58 2107.5" stroke="#000000" stroke-width="6.875" stroke-miterlimit="8" fill="none" fill-rule="evenodd"/><path d="M0 0 500.614 0.000360892" stroke="#000000" stroke-width="6.875" stroke-miterlimit="8" fill="none" fill-rule="evenodd" transform="matrix(1 0 0 -1 3437.5 2107.5)"/><path d="M5341.5 2107.5 5380.58 2107.5" stroke="#000000" stroke-width="6.875" stroke-miterlimit="8" fill="none" fill-rule="evenodd"/><path d="M5153.5 849.5 5217.15 849.5" stroke="#000000" stroke-width="6.875" stroke-miterlimit="8" fill="none" fill-rule="evenodd"/><path d="M5974.5 1603.67C5974.5 1580.93 5992.93 1562.5 6015.67 1562.5L6297.33 1562.5C6320.07 1562.5 6338.5 1580.93 6338.5 1603.67L6338.5 1768.33C6338.5 1791.07 6320.07 1809.5 6297.33 1809.5L6015.67 1809.5C5992.93 1809.5 5974.5 1791.07 5974.5 1768.33Z" stroke="#2A642C" stroke-width="9.16667" stroke-miterlimit="8" fill="#BEE4BF" fill-rule="evenodd"/><text font-family="Times New Roman,Times New Roman_MSFontService,sans-serif" font-weight="400" font-size="92" transform="matrix(1 0 0 1 6044.09 1664)">FREE </text><text font-family="Times New Roman,Times New Roman_MSFontService,sans-serif" font-weight="400" font-size="92" transform="matrix(1 0 0 1 6053.83 1752)">PFN</text><text font-family="Times New Roman,Times New Roman_MSFontService,sans-serif" font-weight="400" font-size="73" transform="matrix(1 0 0 1 6222.27 1779)">2</text><path d="M5974.5 1185.67C5974.5 1162.93 5992.93 1144.5 6015.67 1144.5L6297.33 1144.5C6320.07 1144.5 6338.5 1162.93 6338.5 1185.67L6338.5 1350.33C6338.5 1373.07 6320.07 1391.5 6297.33 1391.5L6015.67 1391.5C5992.93 1391.5 5974.5 1373.07 5974.5 1350.33Z" stroke="#2A642C" stroke-width="9.16667" stroke-miterlimit="8" fill="#BEE4BF" fill-rule="evenodd"/><text font-family="Times New Roman,Times New Roman_MSFontService,sans-serif" font-weight="400" font-size="92" transform="matrix(1 0 0 1 6044.09 1246)">FREE </text><text font-family="Times New Roman,Times New Roman_MSFontService,sans-serif" font-weight="400" font-size="92" transform="matrix(1 0 0 1 6026.33 1334)">PFN</text><text font-family="Times New Roman,Times New Roman_MSFontService,sans-serif" font-weight="400" font-size="73" transform="matrix(1 0 0 1 6194.77 1361)">1,4</text><path d="M2359.5 767.667C2359.5 744.931 2377.93 726.5 2400.67 726.5L2604.33 726.5C2627.07 726.5 2645.5 744.931 2645.5 767.667L2645.5 932.332C2645.5 955.069 2627.07 973.5 2604.33 973.5L2400.67 973.5C2377.93 973.5 2359.5 955.069 2359.5 932.332Z" stroke="#000000" stroke-width="9.16667" stroke-miterlimit="8" fill="#FFFFFF" fill-rule="evenodd"/><text font-family="Times New Roman,Times New Roman_MSFontService,sans-serif" font-weight="400" font-size="92" transform="matrix(1 0 0 1 2450.21 883)">U</text><text font-family="Times New Roman,Times New Roman_MSFontService,sans-serif" font-weight="400" font-size="73" transform="matrix(1 0 0 1 2516.66 910)">3</text><path d="M2708.5 767.667C2708.5 744.931 2726.93 726.5 2749.67 726.5L3031.33 726.5C3054.07 726.5 3072.5 744.931 3072.5 767.667L3072.5 932.333C3072.5 955.069 3054.07 973.5 3031.33 973.5L2749.67 973.5C2726.93 973.5 2708.5 955.069 2708.5 932.333Z" stroke="#2A642C" stroke-width="9.16667" stroke-miterlimit="8" fill="#BEE4BF" fill-rule="evenodd"/><text font-family="Times New Roman,Times New Roman_MSFontService,sans-serif" font-weight="400" font-size="92" transform="matrix(1 0 0 1 2829.21 828)">IR</text><text font-family="Times New Roman,Times New Roman_MSFontService,sans-serif" font-weight="400" font-size="92" transform="matrix(1 0 0 1 2920.88 828)">-</text><text font-family="Times New Roman,Times New Roman_MSFontService,sans-serif" font-weight="400" font-size="92" transform="matrix(1 0 0 1 2762.18 916)">PREP</text><text font-family="Times New Roman,Times New Roman_MSFontService,sans-serif" font-weight="400" font-size="73" transform="matrix(1 0 0 1 2981.61 943)">3</text><path d="M2478.5 1267.5 5974.82 1267.5" stroke="#000000" stroke-width="6.875" stroke-miterlimit="8" fill="none" fill-rule="evenodd"/><path d="M3.43138-0.205042 4.66163 20.3832-2.20113 20.7933-3.43138 0.205042ZM5.07171 27.246 6.30196 47.8343-0.560796 48.2444-1.79105 27.6561ZM6.71205 54.697 7.9423 75.2853 1.07954 75.6954-0.150713 55.1071ZM8.35238 82.1481 9.58263 102.736 2.71987 103.146 1.48962 82.5581ZM9.99271 109.599 11.223 130.187 4.3602 130.597 3.12995 110.009ZM11.633 137.05 12.8633 157.638 6.00054 158.049 4.77029 137.46ZM13.2734 164.501 14.5036 185.089 7.64087 185.5 6.41062 164.911ZM14.9137 191.952 16.144 212.541 9.2812 212.951 8.05095 192.362ZM16.554 219.403 17.7843 239.992 10.9215 240.402 9.69129 219.813ZM18.1944 246.854 19.4246 267.443 12.5619 267.853 11.3316 247.264ZM19.8347 274.305 21.065 294.894 14.2022 295.304 12.972 274.715ZM21.475 301.756 22.7053 322.345 15.8425 322.755 14.6123 302.166ZM23.1154 329.207 24.3456 349.796 17.4829 350.206 16.2526 329.617ZM24.7557 356.658 25.986 377.247 19.1232 377.657 17.893 357.068ZM26.396 384.109 27.6263 404.698 20.7635 405.108 19.5333 384.52ZM28.0364 411.561 29.2666 432.149 22.4039 432.559 21.1736 411.971ZM29.6767 439.012 30.907 459.6 24.0442 460.01 22.814 439.422ZM31.3171 466.463 32.5473 487.051 25.6845 487.461 24.4543 466.873ZM32.9574 493.914 34.1876 514.502 27.3249 514.912 26.0946 494.324ZM34.5977 521.365 35.828 541.953 28.9652 542.363 27.735 521.775ZM36.2381 548.816 37.4683 569.404 30.6055 569.814 29.3753 549.226ZM37.8784 576.267 39.1086 596.855 32.2459 597.265 31.0156 576.677ZM39.5187 603.718 40.749 624.306 33.8862 624.716 32.656 604.128ZM41.1591 631.169 42.3893 651.757 35.5266 652.167 34.2963 631.579ZM42.7994 658.62 44.0296 679.208 37.1669 679.618 35.9366 659.03ZM44.4397 686.071 45.67 706.659 38.8072 707.069 37.577 686.481ZM46.0801 713.522 47.3103 734.11 40.4476 734.52 39.2173 713.932ZM47.7204 740.973 48.9506 761.561 42.0879 761.971 40.8576 741.383ZM49.3607 768.424 50.591 789.012 43.7282 789.422 42.498 768.834ZM51.0011 795.875 52.2313 816.463 45.3685 816.874 44.1383 796.285ZM52.6414 823.326 53.8716 843.914 47.0089 844.325 45.7786 823.736ZM54.2817 850.777 55.512 871.365 48.6492 871.776 47.419 851.187ZM55.922 878.228 57.1523 898.816 50.2895 899.227 49.0593 878.638ZM57.5624 905.679 58.7926 926.267 51.9299 926.678 50.6996 906.089ZM59.2027 933.13 60.433 953.718 53.5702 954.129 52.3399 933.54ZM60.843 960.581 62.0733 981.169 55.2105 981.58 53.9803 960.991ZM62.4834 988.032 63.7136 1008.62 56.8509 1009.03 55.6206 988.442ZM64.1237 1015.48 65.354 1036.07 58.4912 1036.48 57.2609 1015.89ZM65.764 1042.93 66.9943 1063.52 60.1315 1063.93 58.9013 1043.34ZM67.4044 1070.39 68.6346 1090.97 61.7719 1091.38 60.5416 1070.8ZM69.0447 1097.84 70.275 1118.42 63.4122 1118.83 62.1819 1098.25ZM70.6851 1125.29 71.9153 1145.88 65.0525 1146.29 63.8223 1125.7ZM72.3254 1152.74 73.5556 1173.33 66.6929 1173.74 65.4626 1153.15ZM73.9657 1180.19 75.196 1200.78 68.3332 1201.19 67.103 1180.6ZM75.6061 1207.64 76.8363 1228.23 69.9735 1228.64 68.7433 1208.05ZM73.561 1231.05 95.3433 1211.38 75.2013 1258.5 49.5916 1214.11Z" fill="#747474" transform="matrix(1 0 0 -1 3437.5 2107)"/><path d="M2732.5 1183.67C2732.5 1160.93 2750.93 1142.5 2773.67 1142.5L2977.33 1142.5C3000.07 1142.5 3018.5 1160.93 3018.5 1183.67L3018.5 1348.33C3018.5 1371.07 3000.07 1389.5 2977.33 1389.5L2773.67 1389.5C2750.93 1389.5 2732.5 1371.07 2732.5 1348.33Z" stroke="#000000" stroke-width="9.16667" stroke-miterlimit="8" fill="#FFFFFF" fill-rule="evenodd"/><text font-family="Times New Roman,Times New Roman_MSFontService,sans-serif" font-weight="400" font-size="92" transform="matrix(1 0 0 1 2823.22 1300)">U</text><text font-family="Times New Roman,Times New Roman_MSFontService,sans-serif" font-weight="400" font-size="73" transform="matrix(1 0 0 1 2889.68 1327)">4</text><path d="M3081.5 1183.67C3081.5 1160.93 3099.93 1142.5 3122.67 1142.5L3404.33 1142.5C3427.07 1142.5 3445.5 1160.93 3445.5 1183.67L3445.5 1348.33C3445.5 1371.07 3427.07 1389.5 3404.33 1389.5L3122.67 1389.5C3099.93 1389.5 3081.5 1371.07 3081.5 1348.33Z" stroke="#2A642C" stroke-width="9.16667" stroke-miterlimit="8" fill="#BEE4BF" fill-rule="evenodd"/><text font-family="Times New Roman,Times New Roman_MSFontService,sans-serif" font-weight="400" font-size="92" transform="matrix(1 0 0 1 3202.23 1245)">IR</text><text font-family="Times New Roman,Times New Roman_MSFontService,sans-serif" font-weight="400" font-size="92" transform="matrix(1 0 0 1 3293.89 1245)">-</text><text font-family="Times New Roman,Times New Roman_MSFontService,sans-serif" font-weight="400" font-size="92" transform="matrix(1 0 0 1 3135.2 1333)">PREP</text><text font-family="Times New Roman,Times New Roman_MSFontService,sans-serif" font-weight="400" font-size="73" transform="matrix(1 0 0 1 3354.62 1360)">4</text><path d="M4165.5 1183.67C4165.5 1160.93 4183.93 1142.5 4206.67 1142.5L4409.33 1142.5C4432.07 1142.5 4450.5 1160.93 4450.5 1183.67L4450.5 1348.33C4450.5 1371.07 4432.07 1389.5 4409.33 1389.5L4206.67 1389.5C4183.93 1389.5 4165.5 1371.07 4165.5 1348.33Z" stroke="#000000" stroke-width="9.16667" stroke-miterlimit="8" fill="#FFFFFF" fill-rule="evenodd"/><text font-family="Times New Roman,Times New Roman_MSFontService,sans-serif" font-weight="400" font-size="92" transform="matrix(1 0 0 1 4255.97 1300)">U</text><text font-family="Times New Roman,Times New Roman_MSFontService,sans-serif" font-weight="400" font-size="73" transform="matrix(1 0 0 1 4322.42 1327)">5</text><path d="M4514.5 1183.67C4514.5 1160.93 4532.93 1142.5 4555.67 1142.5L4837.33 1142.5C4860.07 1142.5 4878.5 1160.93 4878.5 1183.67L4878.5 1348.33C4878.5 1371.07 4860.07 1389.5 4837.33 1389.5L4555.67 1389.5C4532.93 1389.5 4514.5 1371.07 4514.5 1348.33Z" stroke="#2A642C" stroke-width="9.16667" stroke-miterlimit="8" fill="#BEE4BF" fill-rule="evenodd"/><text font-family="Times New Roman,Times New Roman_MSFontService,sans-serif" font-weight="400" font-size="92" transform="matrix(1 0 0 1 4634.97 1245)">IR</text><text font-family="Times New Roman,Times New Roman_MSFontService,sans-serif" font-weight="400" font-size="92" transform="matrix(1 0 0 1 4726.64 1245)">-</text><text font-family="Times New Roman,Times New Roman_MSFontService,sans-serif" font-weight="400" font-size="92" transform="matrix(1 0 0 1 4567.94 1333)">PREP</text><text font-family="Times New Roman,Times New Roman_MSFontService,sans-serif" font-weight="400" font-size="73" transform="matrix(1 0 0 1 4787.37 1360)">5</text><path d="M4431.5 1604.67C4431.5 1581.93 4449.93 1563.5 4472.67 1563.5L4676.33 1563.5C4699.07 1563.5 4717.5 1581.93 4717.5 1604.67L4717.5 1769.33C4717.5 1792.07 4699.07 1810.5 4676.33 1810.5L4472.67 1810.5C4449.93 1810.5 4431.5 1792.07 4431.5 1769.33Z" stroke="#000000" stroke-width="9.16667" stroke-miterlimit="8" fill="#FFFFFF" fill-rule="evenodd"/><text font-family="Times New Roman,Times New Roman_MSFontService,sans-serif" font-weight="400" font-size="92" transform="matrix(1 0 0 1 4522.46 1720)">U</text><text font-family="Times New Roman,Times New Roman_MSFontService,sans-serif" font-weight="400" font-size="73" transform="matrix(1 0 0 1 4588.91 1747)">6</text><path d="M4781.5 1604.67C4781.5 1581.93 4799.93 1563.5 4822.67 1563.5L5103.33 1563.5C5126.07 1563.5 5144.5 1581.93 5144.5 1604.67L5144.5 1769.33C5144.5 1792.07 5126.07 1810.5 5103.33 1810.5L4822.67 1810.5C4799.93 1810.5 4781.5 1792.07 4781.5 1769.33Z" stroke="#2A642C" stroke-width="9.16667" stroke-miterlimit="8" fill="#BEE4BF" fill-rule="evenodd"/><text font-family="Times New Roman,Times New Roman_MSFontService,sans-serif" font-weight="400" font-size="92" transform="matrix(1 0 0 1 4901.46 1665)">IR</text><text font-family="Times New Roman,Times New Roman_MSFontService,sans-serif" font-weight="400" font-size="92" transform="matrix(1 0 0 1 4993.13 1665)">-</text><text font-family="Times New Roman,Times New Roman_MSFontService,sans-serif" font-weight="400" font-size="92" transform="matrix(1 0 0 1 4834.43 1753)">PREP</text><text font-family="Times New Roman,Times New Roman_MSFontService,sans-serif" font-weight="400" font-size="73" transform="matrix(1 0 0 1 5053.85 1780)">6</text><path d="M3.3773-0.640504 7.22032 19.6233 0.465722 20.9043-3.3773 0.640504ZM8.50133 26.3779 12.3444 46.6417 5.58975 47.9227 1.74673 27.6589ZM13.6254 53.3963 17.4684 73.6601 10.7138 74.9411 6.87076 54.6773ZM18.7494 80.4147 22.5924 100.679 15.8378 101.96 11.9948 81.6957ZM23.8734 107.433 27.7164 127.697 20.9618 128.978 17.1188 108.714ZM28.9975 134.452 32.8405 154.715 26.0859 155.996 22.2429 135.733ZM34.1215 161.47 37.9645 181.734 31.2099 183.015 27.3669 162.751ZM39.2455 188.488 43.0885 208.752 36.3339 210.033 32.4909 189.769ZM44.3696 215.507 48.2126 235.771 41.458 237.052 37.6149 216.788ZM49.4936 242.525 53.3366 262.789 46.582 264.07 42.739 243.806ZM54.6176 269.544 58.4606 289.807 51.706 291.088 47.863 270.825ZM59.7416 296.562 63.5847 316.826 56.8301 318.107 52.987 297.843ZM64.8657 323.58 68.7087 343.844 61.9541 345.125 58.1111 324.861ZM69.9897 350.599 73.8327 370.863 67.0781 372.144 63.2351 351.88ZM75.1137 377.617 78.192 393.848 71.4374 395.129 68.3591 378.898ZM74.8147 394.489 93.914 372.207 79.9387 421.508 48.8834 380.747Z" fill="#747474" transform="matrix(1 0 0 -1 5895.5 2107.01)"/><path d="M3.42202-0.325852 5.37713 20.2063-1.46691 20.858-3.42202 0.325852ZM6.02884 27.0503 7.98395 47.5824 1.13991 48.2341-0.815206 27.702ZM8.63565 54.4265 10.5908 74.9586 3.74672 75.6103 1.79161 55.0782ZM11.2425 81.8027 13.1976 102.335 6.35354 102.986 4.39843 82.4544ZM13.8493 109.179 15.8044 129.711 8.96035 130.363 7.00524 109.831ZM16.4561 136.555 18.4112 157.087 11.5672 157.739 9.61206 137.207ZM19.0629 163.931 21.018 184.463 14.174 185.115 12.2189 164.583ZM21.6697 191.307 23.6248 211.839 16.7808 212.491 14.8257 191.959ZM24.2765 218.683 26.2317 239.216 19.3876 239.867 17.4325 219.335ZM26.8834 246.06 28.8385 266.592 21.9944 267.243 20.0393 246.711ZM29.4902 273.436 31.4453 293.968 24.6012 294.62 22.6461 274.087ZM32.097 300.812 34.0521 321.344 27.2081 321.996 25.253 301.464ZM34.7038 328.188 36.6589 348.72 29.8149 349.372 27.8598 328.84ZM37.3106 355.564 39.2657 376.096 32.4217 376.748 30.4666 356.216ZM39.9174 382.94 41.8726 403.473 35.0285 404.124 33.0734 383.592ZM42.5243 410.317 44.4794 430.849 37.6353 431.5 35.6802 410.968ZM45.1311 437.693 47.0862 458.225 40.2421 458.877 38.287 438.344ZM47.7379 465.069 49.693 485.601 42.849 486.253 40.8938 465.721ZM50.3447 492.445 52.2998 512.977 45.4558 513.629 43.5007 493.097ZM52.9515 519.821 54.9066 540.353 48.0626 541.005 46.1075 520.473ZM55.5583 547.198 57.5134 567.73 50.6694 568.381 48.7143 547.849ZM58.1651 574.574 60.1203 595.106 53.2762 595.757 51.3211 575.225ZM60.772 601.95 62.7271 622.482 55.883 623.134 53.9279 602.602ZM63.3788 629.326 65.3339 649.858 58.4899 650.51 56.5347 629.978ZM65.9856 656.702 67.9407 677.234 61.0967 677.886 59.1416 657.354ZM68.5924 684.078 70.5475 704.61 63.7035 705.262 61.7484 684.73ZM71.1992 711.455 73.1543 731.987 66.3103 732.638 64.3552 712.106ZM73.806 738.831 75.7612 759.363 68.9171 760.015 66.962 739.482ZM76.4129 766.207 78.368 786.739 71.5239 787.391 69.5688 766.859ZM79.0197 793.583 80.7538 811.795 73.9098 812.447 72.1756 794.235ZM77.3319 812.122 98.4075 791.699 79.9387 839.498 52.7806 796.044Z" fill="#747474" transform="matrix(1 0 0 -1 5895.5 2107)"/><path d="M5974.5 766.501C5974.5 743.857 5992.86 725.5 6015.5 725.5L6297.5 725.5C6320.14 725.5 6338.5 743.857 6338.5 766.501L6338.5 930.499C6338.5 953.143 6320.14 971.5 6297.5 971.5L6015.5 971.5C5992.86 971.5 5974.5 953.143 5974.5 930.499Z" stroke="#2A642C" stroke-width="9.16667" stroke-miterlimit="8" fill="#BEE4BF" fill-rule="evenodd"/><text font-family="Times New Roman,Times New Roman_MSFontService,sans-serif" font-weight="400" font-size="92" transform="matrix(1 0 0 1 6044.09 827)">FREE </text><text font-family="Times New Roman,Times New Roman_MSFontService,sans-serif" font-weight="400" font-size="92" transform="matrix(1 0 0 1 6053.83 915)">PFN</text><text font-family="Times New Roman,Times New Roman_MSFontService,sans-serif" font-weight="400" font-size="73" transform="matrix(1 0 0 1 6222.27 942)">3</text><path d="M3.43059-0.217888 4.73792 20.3656-2.12326 20.8014-3.43059 0.217888ZM5.17369 27.2268 6.48102 47.8103-0.380153 48.2461-1.68748 27.6626ZM6.9168 54.6715 8.22413 75.255 1.36295 75.6908 0.0556232 55.1073ZM8.6599 82.1162 9.96723 102.7 3.10606 103.136 1.79873 82.552ZM10.403 109.561 11.7103 130.144 4.84916 130.58 3.54183 109.997ZM12.1461 137.006 13.4534 157.589 6.59227 158.025 5.28494 137.441ZM13.8892 164.45 15.1965 185.034 8.33537 185.47 7.02804 164.886ZM15.6323 191.895 16.9397 212.479 10.0785 212.914 8.77115 192.331ZM17.3754 219.34 18.6828 239.923 11.8216 240.359 10.5143 219.775ZM19.1185 246.784 20.4259 267.368 13.5647 267.804 12.2574 247.22ZM20.8616 274.229 22.169 294.813 15.3078 295.248 14.0005 274.665ZM22.6047 301.674 23.9121 322.257 17.0509 322.693 15.7436 302.11ZM24.3478 329.118 25.6552 349.702 18.794 350.138 17.4867 329.554ZM26.091 356.563 27.3983 377.147 20.5371 377.582 19.2298 356.999ZM27.8341 384.008 29.1414 404.591 22.2802 405.027 20.9729 384.444ZM29.5772 411.453 30.8845 432.036 24.0233 432.472 22.716 411.888ZM31.3203 438.897 32.6276 459.481 25.7664 459.917 24.4591 439.333ZM33.0634 466.342 34.3707 486.926 27.5095 487.361 26.2022 466.778ZM34.8065 493.787 36.1138 514.37 29.2526 514.806 27.9453 494.223ZM36.5496 521.232 37.8569 541.815 30.9958 542.251 29.6884 521.667ZM38.2927 548.676 39.6 569.26 32.7389 569.695 31.4315 549.112ZM40.0358 576.121 41.3431 596.704 34.482 597.14 33.1746 576.557ZM41.7789 603.566 43.0862 624.149 36.2251 624.585 34.9177 604.001ZM43.522 631.01 44.8293 651.594 37.9682 652.03 36.6608 631.446ZM45.2651 658.455 46.5724 679.039 39.7113 679.474 38.4039 658.891ZM47.0082 685.9 48.3156 706.483 41.4544 706.919 40.147 686.336ZM48.7513 713.344 50.0587 733.928 43.1975 734.364 41.8902 713.78ZM50.4944 740.789 51.8018 761.373 44.9406 761.808 43.6333 741.225ZM52.2375 768.234 53.5449 788.817 46.6837 789.253 45.3764 768.67ZM53.9806 795.678 55.288 816.262 48.4268 816.698 47.1195 796.114ZM55.7238 823.123 57.0311 843.707 50.1699 844.142 48.8626 823.559ZM57.4669 850.568 58.7742 871.151 51.913 871.587 50.6057 851.004ZM59.21 878.013 60.5173 898.596 53.6561 899.032 52.3488 878.448ZM60.9531 905.457 62.2604 926.041 55.3992 926.477 54.0919 905.893ZM62.6962 932.902 64.0035 953.485 57.1423 953.921 55.835 933.338ZM64.4393 960.347 65.7466 980.93 58.8854 981.366 57.5781 960.782ZM66.1824 987.791 67.4897 1008.37 60.6285 1008.81 59.3212 988.227ZM67.9255 1015.24 69.2328 1035.82 62.3716 1036.26 61.0643 1015.67ZM69.6686 1042.68 70.9759 1063.26 64.1147 1063.7 62.8074 1043.12ZM71.4117 1070.13 72.719 1090.71 65.8578 1091.14 64.5505 1070.56ZM73.1548 1097.57 74.4621 1118.15 67.601 1118.59 66.2936 1098.01ZM74.8979 1125.01 76.2052 1145.6 69.3441 1146.03 68.0367 1125.45ZM76.641 1152.46 77.9483 1173.04 71.0872 1173.48 69.7798 1152.9ZM78.3841 1179.9 79.6914 1200.49 72.8303 1200.92 71.5229 1180.34ZM80.1272 1207.35 81.4345 1227.93 74.5734 1228.37 73.266 1207.78ZM78.1956 1231.17 99.9041 1211.42 79.9387 1258.61 54.163 1214.32Z" fill="#747474" transform="matrix(1 0 0 -1 5895.5 2107.11)"/><path d="M0 0 394.279 1.12382" stroke="#000000" stroke-width="6.875" stroke-miterlimit="8" fill="none" fill-rule="evenodd" transform="matrix(1 0 0 -1 5580.5 849.624)"/><path d="M5895.5 2107.5 6437.46 2107.5" stroke="#000000" stroke-width="6.875" stroke-miterlimit="8" fill="none" fill-rule="evenodd"/><path d="M740.5 766.668C740.5 743.932 758.931 725.5 781.667 725.5L985.332 725.5C1008.07 725.5 1026.5 743.932 1026.5 766.668L1026.5 931.333C1026.5 954.069 1008.07 972.5 985.332 972.5L781.667 972.5C758.931 972.5 740.5 954.069 740.5 931.333Z" stroke="#000000" stroke-width="9.16667" stroke-miterlimit="8" fill="#FFFFFF" fill-rule="evenodd"/><text font-family="Times New Roman,Times New Roman_MSFontService,sans-serif" font-weight="400" font-size="92" transform="matrix(1 0 0 1 831.811 882)">U</text><text font-family="Times New Roman,Times New Roman_MSFontService,sans-serif" font-weight="400" font-size="73" transform="matrix(1 0 0 1 898.269 909)">0</text><path d="M1090.5 766.668C1090.5 743.931 1108.93 725.5 1131.67 725.5L1413.33 725.5C1436.07 725.5 1454.5 743.931 1454.5 766.668L1454.5 931.333C1454.5 954.069 1436.07 972.5 1413.33 972.5L1131.67 972.5C1108.93 972.5 1090.5 954.069 1090.5 931.333Z" stroke="#2A642C" stroke-width="9.16667" stroke-miterlimit="8" fill="#BEE4BF" fill-rule="evenodd"/><text font-family="Times New Roman,Times New Roman_MSFontService,sans-serif" font-weight="400" font-size="92" transform="matrix(1 0 0 1 1210.81 827)">IR</text><text font-family="Times New Roman,Times New Roman_MSFontService,sans-serif" font-weight="400" font-size="92" transform="matrix(1 0 0 1 1302.48 827)">-</text><text font-family="Times New Roman,Times New Roman_MSFontService,sans-serif" font-weight="400" font-size="92" transform="matrix(1 0 0 1 1143.78 915)">PREP</text><text font-family="Times New Roman,Times New Roman_MSFontService,sans-serif" font-weight="400" font-size="73" transform="matrix(1 0 0 1 1363.21 942)">0</text><path d="M1457.92 848.183 1459.83 868.72 1452.98 869.354 1451.08 848.817ZM1460.46 875.565 1462.36 896.102 1455.52 896.737 1453.62 876.2ZM1463 902.948 1464.9 923.485 1458.06 924.119 1456.15 903.582ZM1465.54 930.33 1467.44 950.867 1460.6 951.502 1458.69 930.965ZM1468.08 957.713 1469.98 978.25 1463.13 978.885 1461.23 958.348ZM1470.61 985.096 1472.52 1005.63 1465.67 1006.27 1463.77 985.73ZM1473.15 1012.48 1475.06 1033.02 1468.21 1033.65 1466.31 1013.11ZM1475.69 1039.86 1477.59 1060.4 1470.75 1061.03 1468.84 1040.5ZM1478.23 1067.24 1480.13 1087.78 1473.29 1088.42 1471.38 1067.88ZM1480.77 1094.63 1482.67 1115.16 1475.82 1115.8 1473.92 1095.26ZM1483.3 1122.01 1485.21 1142.55 1478.36 1143.18 1476.46 1122.64ZM1485.84 1149.39 1487.75 1169.93 1480.9 1170.56 1479 1150.03ZM1488.38 1176.77 1490.29 1197.31 1483.44 1197.95 1481.54 1177.41ZM1490.92 1204.16 1492.82 1224.69 1485.98 1225.33 1484.07 1204.79ZM1493.46 1231.54 1495.36 1252.08 1488.52 1252.71 1486.61 1232.17ZM1496 1258.92 1497.9 1279.46 1491.05 1280.09 1489.15 1259.56ZM1498.53 1286.3 1500.44 1306.84 1493.59 1307.48 1491.69 1286.94ZM1501.07 1313.69 1502.98 1334.22 1496.13 1334.86 1494.23 1314.32ZM1503.61 1341.07 1505.51 1361.61 1498.67 1362.24 1496.77 1341.7ZM1506.15 1368.45 1508.05 1388.99 1501.21 1389.62 1499.3 1369.09ZM1508.69 1395.83 1510.59 1416.37 1503.75 1417.01 1501.84 1396.47ZM1511.23 1423.22 1513.13 1443.75 1506.28 1444.39 1504.38 1423.85ZM1513.76 1450.6 1515.67 1471.14 1508.82 1471.77 1506.92 1451.23ZM1516.3 1477.98 1518.21 1498.52 1511.36 1499.15 1509.46 1478.62ZM1518.84 1505.37 1520.74 1525.9 1513.9 1526.54 1511.99 1506ZM1521.38 1532.75 1523.28 1553.28 1516.44 1553.92 1514.53 1533.38ZM1523.92 1560.13 1525.82 1580.67 1518.97 1581.3 1517.07 1560.76ZM1526.45 1587.51 1528.36 1608.05 1521.51 1608.68 1519.61 1588.15ZM1528.99 1614.9 1530.9 1635.43 1524.05 1636.07 1522.15 1615.53ZM1531.53 1642.28 1533.43 1662.82 1526.59 1663.45 1524.69 1642.91ZM1534.07 1669.66 1535.97 1690.2 1529.13 1690.83 1527.22 1670.3ZM1536.61 1697.04 1538.51 1717.58 1531.67 1718.21 1529.76 1697.68ZM1539.15 1724.43 1541.05 1744.96 1534.2 1745.6 1532.3 1725.06ZM1541.68 1751.81 1543.59 1772.35 1536.74 1772.98 1534.84 1752.44ZM1544.22 1779.19 1546.13 1799.73 1539.28 1800.36 1537.38 1779.83ZM1546.76 1806.57 1548.66 1827.11 1541.82 1827.75 1539.91 1807.21ZM1549.3 1833.96 1551.2 1854.49 1544.36 1855.13 1542.45 1834.59ZM1551.84 1861.34 1553.74 1881.88 1546.9 1882.51 1544.99 1861.97ZM1554.38 1888.72 1556.28 1909.26 1549.43 1909.89 1547.53 1889.36ZM1556.91 1916.1 1558.82 1936.64 1551.97 1937.28 1550.07 1916.74ZM1559.45 1943.49 1561.36 1964.02 1554.51 1964.66 1552.61 1944.12ZM1561.99 1970.87 1563.89 1991.41 1557.05 1992.04 1555.14 1971.5ZM1564.53 1998.25 1566.43 2018.79 1559.59 2019.42 1557.68 1998.89ZM1567.07 2025.63 1568.97 2046.17 1562.12 2046.81 1560.22 2026.27ZM1569.6 2053.02 1571.51 2073.55 1564.66 2074.19 1562.76 2053.65ZM1568.62 2079.61 1589.74 2059.24 1571.16 2107 1544.11 2063.47Z" fill="#747474"/><rect x="635.5" y="205.5" width="5755" height="247" stroke="#042433" stroke-width="6.875" stroke-miterlimit="8" fill="#FFFFFF"/><text font-family="Times New Roman,Times New Roman_MSFontService,sans-serif" font-weight="400" font-size="92" transform="matrix(1 0 0 1 1037.01 360)">IOMMU Subsystem</text><path d="M702 284.834C702 273.328 711.328 264 722.834 264L980.166 264C991.672 264 1001 273.328 1001 284.834L1001 368.166C1001 379.672 991.672 389 980.166 389L722.834 389C711.328 389 702 379.672 702 368.166Z" stroke="#2A642C" stroke-width="10.3125" stroke-miterlimit="8" fill="#BEE4BF" fill-rule="evenodd"/><text font-family="Times New Roman,Times New Roman_MSFontService,sans-serif" font-weight="400" font-size="92" transform="matrix(1 0 0 1 3595.1 367)">NIC Driver</text><path d="M3262.5 292.5C3262.5 280.902 3271.9 271.5 3283.5 271.5L3540.5 271.5C3552.1 271.5 3561.5 280.902 3561.5 292.5L3561.5 376.5C3561.5 388.098 3552.1 397.5 3540.5 397.5L3283.5 397.5C3271.9 397.5 3262.5 388.098 3262.5 376.5Z" stroke="#235D7F" stroke-width="9.16667" stroke-miterlimit="8" fill="#C3DEEE" fill-rule="evenodd"/><text font-family="Times New Roman,Times New Roman_MSFontService,sans-serif" font-weight="400" font-size="92" transform="matrix(1 0 0 1 2235.68 367)">VM Exit + IOMMU HW</text><path d="M1902.5 292.5C1902.5 280.902 1911.9 271.5 1923.5 271.5L2180.5 271.5C2192.1 271.5 2201.5 280.902 2201.5 292.5L2201.5 376.499C2201.5 388.097 2192.1 397.5 2180.5 397.5L1923.5 397.5C1911.9 397.5 1902.5 388.097 1902.5 376.499Z" stroke="#AA2020" stroke-width="9.16667" stroke-miterlimit="8" fill="#EFAAAA" fill-rule="evenodd"/><text font-family="Times New Roman,Times New Roman_MSFontService,sans-serif" font-weight="400" font-size="92" transform="matrix(1 0 0 1 4444.04 367)">Wait</text><path d="M4132.5 324.187 4369.44 324.188 4369.44 344.813 4132.5 344.812ZM4369.44 334.5 4328.19 282.938 4431.32 334.5 4328.19 386.063Z" fill="#AA2020"/><text font-family="Times New Roman,Times New Roman_MSFontService,sans-serif" font-weight="400" font-size="92" transform="matrix(1 0 0 1 6001.42 367)">Timeline</text><path d="M5670.5 334.5 5969.32 334.5" stroke="#000000" stroke-width="6.875" stroke-miterlimit="8" fill="none" fill-rule="evenodd"/><text font-family="Times New Roman,Times New Roman_MSFontService,sans-serif" font-weight="400" font-size="92" transform="matrix(1 0 0 1 5056.78 367)">Coordination</text><path d="M4726.5 331.062 4747.12 331.062 4747.12 337.938 4726.5 337.937ZM4754 331.062 4774.62 331.063 4774.62 337.938 4754 337.938ZM4781.5 331.063 4802.12 331.063 4802.12 337.938 4781.5 337.938ZM4809 331.063 4829.62 331.063 4829.62 337.938 4809 337.938ZM4836.5 331.063 4857.12 331.063 4857.12 337.938 4836.5 337.938ZM4864 331.063 4884.62 331.063 4884.62 337.938 4864 337.938ZM4891.5 331.063 4912.12 331.063 4912.12 337.938 4891.5 337.938ZM4919 331.063 4939.62 331.063 4939.62 337.938 4919 337.938ZM4946.5 331.063 4967.12 331.063 4967.12 337.938 4946.5 337.938ZM4974 331.063 4994.62 331.063 4994.62 337.938 4974 337.938ZM4997.82 334.5 4979.49 311.584 5025.32 334.5 4979.49 357.417Z" fill="#747474"/><text font-family="Times New Roman,Times New Roman_MSFontService,sans-serif" font-weight="400" font-size="110" transform="matrix(1 0 0 1 3876.69 2434)">T</text><text font-family="Times New Roman,Times New Roman_MSFontService,sans-serif" font-weight="400" font-size="98" transform="matrix(1 0 0 1 3943.72 2470)">0</text><path d="M4.58333-2.03651e-05 4.58359 58.305-4.58307 58.3051-4.58333 2.03651e-05ZM13.7502 53.7217 0.000360892 81.2217-13.7498 53.7218Z" transform="matrix(1 0 0 -1 3938.5 2315.72)"/><text font-family="Times New Roman,Times New Roman_MSFontService,sans-serif" font-weight="400" font-size="110" transform="matrix(1 0 0 1 5833.36 2434)">T</text><text font-family="Times New Roman,Times New Roman_MSFontService,sans-serif" font-weight="400" font-size="98" transform="matrix(1 0 0 1 5900.39 2470)">1</text><path d="M4.58333-2.03651e-05 4.58359 58.305-4.58307 58.3051-4.58333 2.03651e-05ZM13.7502 53.7217 0.000360892 81.2217-13.7498 53.7218Z" transform="matrix(1 0 0 -1 5895.5 2315.72)"/><text font-family="Times New Roman,Times New Roman_MSFontService,sans-serif" font-weight="700" font-size="128" transform="matrix(1 0 0 1 6502.52 2113)">…</text><text font-family="Times New Roman,Times New Roman_MSFontService,sans-serif" font-weight="700" font-size="128" transform="matrix(1 0 0 1 6503.58 1683)">…</text><text font-family="Times New Roman,Times New Roman_MSFontService,sans-serif" font-weight="700" font-size="128" transform="matrix(1 0 0 1 6505.94 1282)">…</text><text font-family="Times New Roman,Times New Roman_MSFontService,sans-serif" font-weight="700" font-size="128" transform="matrix(1 0 0 1 6501.93 852)">…</text><text font-family="Times New Roman,Times New Roman_MSFontService,sans-serif" font-weight="700" font-size="110" transform="matrix(1 0 0 1 488.571 894)">C</text><text font-family="Times New Roman,Times New Roman_MSFontService,sans-serif" font-weight="700" font-size="98" transform="matrix(1 0 0 1 568.206 930)">0</text><text font-family="Times New Roman,Times New Roman_MSFontService,sans-serif" font-weight="700" font-size="110" transform="matrix(1 0 0 1 496.729 1311)">C</text><text font-family="Times New Roman,Times New Roman_MSFontService,sans-serif" font-weight="700" font-size="98" transform="matrix(1 0 0 1 576.364 1347)">1</text><text font-family="Times New Roman,Times New Roman_MSFontService,sans-serif" font-weight="700" font-size="110" transform="matrix(1 0 0 1 496.729 1733)">C</text><text font-family="Times New Roman,Times New Roman_MSFontService,sans-serif" font-weight="700" font-size="98" transform="matrix(1 0 0 1 576.364 1769)">2</text><text font-family="Cambria Math,Cambria Math_MSFontService,sans-serif" font-weight="700" font-size="128" transform="matrix(1 0 0 1 525.656 1958)">⋮</text><text font-family="Times New Roman,Times New Roman_MSFontService,sans-serif" font-weight="700" font-size="128" transform="matrix(1 0 0 1 502.748 2153)">Ĉ</text></g></svg>