<svg width="7358" height="2318" xmlns="http://www.w3.org/2000/svg" xmlns:xlink="http://www.w3.org/1999/xlink" xml:space="preserve" overflow="hidden"><g transform="translate(-718 -183)"><path d="M7634.5 848.5 8071.63 848.5" stroke="#000000" stroke-width="6.875" stroke-miterlimit="8" fill="none" fill-rule="evenodd"/><path d="M7595.5 2107.5 8071.71 2107.5" stroke="#000000" stroke-width="6.875" stroke-miterlimit="8" fill="none" fill-rule="evenodd"/><text font-family="Times New Roman,Times New Roman_MSFontService,sans-serif" font-weight="700" font-size="110" transform="matrix(1 0 0 1 789.973 887)">C</text><text font-family="Times New Roman,Times New Roman_MSFontService,sans-serif" font-weight="700" font-size="98" transform="matrix(1 0 0 1 869.608 923)">0</text><text font-family="Times New Roman,Times New Roman_MSFontService,sans-serif" font-weight="700" font-size="110" transform="matrix(1 0 0 1 789.973 1304)">C</text><text font-family="Times New Roman,Times New Roman_MSFontService,sans-serif" font-weight="700" font-size="98" transform="matrix(1 0 0 1 869.609 1340)">1</text><text font-family="Times New Roman,Times New Roman_MSFontService,sans-serif" font-weight="700" font-size="110" transform="matrix(1 0 0 1 789.973 1726)">C</text><text font-family="Times New Roman,Times New Roman_MSFontService,sans-serif" font-weight="700" font-size="98" transform="matrix(1 0 0 1 869.608 1762)">2</text><path d="M1035.5 766.668C1035.5 743.932 1053.93 725.5 1076.67 725.5L1280.33 725.5C1303.07 725.5 1321.5 743.932 1321.5 766.668L1321.5 931.333C1321.5 954.069 1303.07 972.5 1280.33 972.5L1076.67 972.5C1053.93 972.5 1035.5 954.069 1035.5 931.333Z" stroke="#000000" stroke-width="9.16667" stroke-miterlimit="8" fill="#FFFFFF" fill-rule="evenodd"/><text font-family="Times New Roman,Times New Roman_MSFontService,sans-serif" font-weight="400" font-size="92" transform="matrix(1 0 0 1 1126.14 882)">U</text><text font-family="Times New Roman,Times New Roman_MSFontService,sans-serif" font-weight="400" font-size="73" transform="matrix(1 0 0 1 1192.6 909)">0</text><path d="M1384.5 766.668C1384.5 743.931 1402.93 725.5 1425.67 725.5L1707.33 725.5C1730.07 725.5 1748.5 743.931 1748.5 766.668L1748.5 931.333C1748.5 954.069 1730.07 972.5 1707.33 972.5L1425.67 972.5C1402.93 972.5 1384.5 954.069 1384.5 931.333Z" stroke="#2A642C" stroke-width="9.16667" stroke-miterlimit="8" fill="#BEE4BF" fill-rule="evenodd"/><text font-family="Times New Roman,Times New Roman_MSFontService,sans-serif" font-weight="400" font-size="92" transform="matrix(1 0 0 1 1505.14 827)">IR</text><text font-family="Times New Roman,Times New Roman_MSFontService,sans-serif" font-weight="400" font-size="92" transform="matrix(1 0 0 1 1596.81 827)">-</text><text font-family="Times New Roman,Times New Roman_MSFontService,sans-serif" font-weight="400" font-size="92" transform="matrix(1 0 0 1 1438.11 915)">PREP</text><text font-family="Times New Roman,Times New Roman_MSFontService,sans-serif" font-weight="400" font-size="73" transform="matrix(1 0 0 1 1657.54 942)">0</text><path d="M3307.5 2024.67C3307.5 2001.93 3325.93 1983.5 3348.67 1983.5L3682.33 1983.5C3705.07 1983.5 3723.5 2001.93 3723.5 2024.67L3723.5 2189.33C3723.5 2212.07 3705.07 2230.5 3682.33 2230.5L3348.67 2230.5C3325.93 2230.5 3307.5 2212.07 3307.5 2189.33Z" stroke="#2A642C" stroke-width="9.16667" stroke-miterlimit="8" fill="#BEE4BF" fill-rule="evenodd"/><text font-family="Times New Roman,Times New Roman_MSFontService,sans-serif" font-weight="400" font-size="92" transform="matrix(1 0 0 1 3402.53 2086)">FREE </text><text font-family="Times New Roman,Times New Roman_MSFontService,sans-serif" font-weight="400" font-size="92" transform="matrix(1 0 0 1 3387.52 2174)">IOVA</text><text font-family="Times New Roman,Times New Roman_MSFontService,sans-serif" font-weight="400" font-size="73" transform="matrix(1 0 0 1 3605.43 2201)">0</text><path d="M1865.5 2024.67C1865.5 2001.93 1883.93 1983.5 1906.67 1983.5L3227.33 1983.5C3250.07 1983.5 3268.5 2001.93 3268.5 2024.67L3268.5 2189.33C3268.5 2212.07 3250.07 2230.5 3227.33 2230.5L1906.67 2230.5C1883.93 2230.5 1865.5 2212.07 1865.5 2189.33Z" stroke="#AA2020" stroke-width="9.16667" stroke-miterlimit="8" fill="#EFAAAA" fill-rule="evenodd"/><text font-family="Times New Roman,Times New Roman_MSFontService,sans-serif" font-weight="400" font-size="92" transform="matrix(1 0 0 1 2415.89 2141)">IR</text><text font-family="Times New Roman,Times New Roman_MSFontService,sans-serif" font-weight="400" font-size="92" transform="matrix(1 0 0 1 2507.56 2141)">-</text><text font-family="Times New Roman,Times New Roman_MSFontService,sans-serif" font-weight="400" font-size="92" transform="matrix(1 0 0 1 2537.92 2141)">SUB</text><path d="M3762 613 3762 2320.56" stroke="#000000" stroke-width="8.02083" stroke-miterlimit="8" stroke-dasharray="32.0833 24.0625" stroke-opacity="0.988235" fill="none" fill-rule="evenodd"/><path d="M1943.5 1185.67C1943.5 1162.93 1961.93 1144.5 1984.67 1144.5L2188.33 1144.5C2211.07 1144.5 2229.5 1162.93 2229.5 1185.67L2229.5 1350.33C2229.5 1373.07 2211.07 1391.5 2188.33 1391.5L1984.67 1391.5C1961.93 1391.5 1943.5 1373.07 1943.5 1350.33Z" stroke="#000000" stroke-width="9.16667" stroke-miterlimit="8" fill="#FFFFFF" fill-rule="evenodd"/><text font-family="Times New Roman,Times New Roman_MSFontService,sans-serif" font-weight="400" font-size="92" transform="matrix(1 0 0 1 2034.65 1301)">U</text><text font-family="Times New Roman,Times New Roman_MSFontService,sans-serif" font-weight="400" font-size="73" transform="matrix(1 0 0 1 2101.11 1328)">1</text><path d="M2293.5 1185.67C2293.5 1162.93 2311.93 1144.5 2334.67 1144.5L2616.33 1144.5C2639.07 1144.5 2657.5 1162.93 2657.5 1185.67L2657.5 1350.33C2657.5 1373.07 2639.07 1391.5 2616.33 1391.5L2334.67 1391.5C2311.93 1391.5 2293.5 1373.07 2293.5 1350.33Z" stroke="#2A642C" stroke-width="9.16667" stroke-miterlimit="8" fill="#BEE4BF" fill-rule="evenodd"/><text font-family="Times New Roman,Times New Roman_MSFontService,sans-serif" font-weight="400" font-size="92" transform="matrix(1 0 0 1 2413.65 1246)">IR</text><text font-family="Times New Roman,Times New Roman_MSFontService,sans-serif" font-weight="400" font-size="92" transform="matrix(1 0 0 1 2505.32 1246)">-</text><text font-family="Times New Roman,Times New Roman_MSFontService,sans-serif" font-weight="400" font-size="92" transform="matrix(1 0 0 1 2346.62 1334)">PREP</text><text font-family="Times New Roman,Times New Roman_MSFontService,sans-serif" font-weight="400" font-size="73" transform="matrix(1 0 0 1 2566.05 1361)">1</text><path d="M2005.5 1603.67C2005.5 1580.93 2023.93 1562.5 2046.67 1562.5L2250.33 1562.5C2273.07 1562.5 2291.5 1580.93 2291.5 1603.67L2291.5 1768.33C2291.5 1791.07 2273.07 1809.5 2250.33 1809.5L2046.67 1809.5C2023.93 1809.5 2005.5 1791.07 2005.5 1768.33Z" stroke="#000000" stroke-width="9.16667" stroke-miterlimit="8" fill="#FFFFFF" fill-rule="evenodd"/><text font-family="Times New Roman,Times New Roman_MSFontService,sans-serif" font-weight="400" font-size="92" transform="matrix(1 0 0 1 2096.75 1720)">U</text><text font-family="Times New Roman,Times New Roman_MSFontService,sans-serif" font-weight="400" font-size="73" transform="matrix(1 0 0 1 2163.2 1747)">2</text><path d="M2355.5 1603.67C2355.5 1580.93 2373.93 1562.5 2396.67 1562.5L2678.33 1562.5C2701.07 1562.5 2719.5 1580.93 2719.5 1603.67L2719.5 1768.33C2719.5 1791.07 2701.07 1809.5 2678.33 1809.5L2396.67 1809.5C2373.93 1809.5 2355.5 1791.07 2355.5 1768.33Z" stroke="#2A642C" stroke-width="9.16667" stroke-miterlimit="8" fill="#BEE4BF" fill-rule="evenodd"/><text font-family="Times New Roman,Times New Roman_MSFontService,sans-serif" font-weight="400" font-size="92" transform="matrix(1 0 0 1 2475.75 1665)">IR</text><text font-family="Times New Roman,Times New Roman_MSFontService,sans-serif" font-weight="400" font-size="92" transform="matrix(1 0 0 1 2567.42 1665)">-</text><text font-family="Times New Roman,Times New Roman_MSFontService,sans-serif" font-weight="400" font-size="92" transform="matrix(1 0 0 1 2408.72 1753)">PREP</text><text font-family="Times New Roman,Times New Roman_MSFontService,sans-serif" font-weight="400" font-size="73" transform="matrix(1 0 0 1 2628.15 1780)">2</text><path d="M5243.5 2024.67C5243.5 2001.93 5261.93 1983.5 5284.67 1983.5L5618.33 1983.5C5641.07 1983.5 5659.5 2001.93 5659.5 2024.67L5659.5 2189.33C5659.5 2212.07 5641.07 2230.5 5618.33 2230.5L5284.67 2230.5C5261.93 2230.5 5243.5 2212.07 5243.5 2189.33Z" stroke="#2A642C" stroke-width="9.16667" stroke-miterlimit="8" fill="#BEE4BF" fill-rule="evenodd"/><text font-family="Times New Roman,Times New Roman_MSFontService,sans-serif" font-weight="400" font-size="92" transform="matrix(1 0 0 1 5338.66 2086)">FREE </text><text font-family="Times New Roman,Times New Roman_MSFontService,sans-serif" font-weight="400" font-size="92" transform="matrix(1 0 0 1 5296.15 2174)">IOVA</text><text font-family="Times New Roman,Times New Roman_MSFontService,sans-serif" font-weight="400" font-size="73" transform="matrix(1 0 0 1 5514.06 2201)">1,2</text><path d="M3801 2024.17C3801 2001.43 3819.43 1983 3842.17 1983L5162.83 1983C5185.57 1983 5204 2001.43 5204 2024.17L5204 2188.83C5204 2211.57 5185.57 2230 5162.83 2230L3842.17 2230C3819.43 2230 3801 2211.57 3801 2188.83Z" stroke="#AA2020" stroke-width="10.3125" stroke-miterlimit="8" fill="#EFAAAA" fill-rule="evenodd"/><text font-family="Times New Roman,Times New Roman_MSFontService,sans-serif" font-weight="400" font-size="92" transform="matrix(1 0 0 1 4352.02 2141)">IR</text><text font-family="Times New Roman,Times New Roman_MSFontService,sans-serif" font-weight="400" font-size="92" transform="matrix(1 0 0 1 4443.69 2141)">-</text><text font-family="Times New Roman,Times New Roman_MSFontService,sans-serif" font-weight="400" font-size="92" transform="matrix(1 0 0 1 4474.05 2141)">SUB</text><path d="M5698 613 5698 2320.56" stroke="#000000" stroke-width="8.02083" stroke-miterlimit="8" stroke-dasharray="32.0833 24.0625" stroke-opacity="0.988235" fill="none" fill-rule="evenodd"/><path d="M7634 613 7634 2320.56" stroke="#000000" stroke-width="8.02083" stroke-miterlimit="8" stroke-dasharray="32.0833 24.0625" stroke-opacity="0.988235" fill="none" fill-rule="evenodd"/><path d="M5737.5 2024.67C5737.5 2001.93 5755.93 1983.5 5778.67 1983.5L7099.33 1983.5C7122.07 1983.5 7140.5 2001.93 7140.5 2024.67L7140.5 2189.33C7140.5 2212.07 7122.07 2230.5 7099.33 2230.5L5778.67 2230.5C5755.93 2230.5 5737.5 2212.07 5737.5 2189.33Z" stroke="#AA2020" stroke-width="9.16667" stroke-miterlimit="8" fill="#EFAAAA" fill-rule="evenodd"/><text font-family="Times New Roman,Times New Roman_MSFontService,sans-serif" font-weight="400" font-size="92" transform="matrix(1 0 0 1 6288.15 2141)">IR</text><text font-family="Times New Roman,Times New Roman_MSFontService,sans-serif" font-weight="400" font-size="92" transform="matrix(1 0 0 1 6379.81 2141)">-</text><text font-family="Times New Roman,Times New Roman_MSFontService,sans-serif" font-weight="400" font-size="92" transform="matrix(1 0 0 1 6410.18 2141)">SUB</text><path d="M7179.5 2024.67C7179.5 2001.93 7197.93 1983.5 7220.67 1983.5L7554.33 1983.5C7577.07 1983.5 7595.5 2001.93 7595.5 2024.67L7595.5 2189.33C7595.5 2212.07 7577.07 2230.5 7554.33 2230.5L7220.67 2230.5C7197.93 2230.5 7179.5 2212.07 7179.5 2189.33Z" stroke="#2A642C" stroke-width="9.16667" stroke-miterlimit="8" fill="#BEE4BF" fill-rule="evenodd"/><text font-family="Times New Roman,Times New Roman_MSFontService,sans-serif" font-weight="400" font-size="92" transform="matrix(1 0 0 1 7274.78 2086)">FREE </text><text font-family="Times New Roman,Times New Roman_MSFontService,sans-serif" font-weight="400" font-size="92" transform="matrix(1 0 0 1 7259.77 2174)">IOVA</text><text font-family="Times New Roman,Times New Roman_MSFontService,sans-serif" font-weight="400" font-size="73" transform="matrix(1 0 0 1 7477.69 2201)">3</text><path d="M3801.5 766.668C3801.5 743.931 3819.93 725.5 3842.67 725.5L4124.33 725.5C4147.07 725.5 4165.5 743.931 4165.5 766.668L4165.5 931.333C4165.5 954.069 4147.07 972.5 4124.33 972.5L3842.67 972.5C3819.93 972.5 3801.5 954.069 3801.5 931.333Z" stroke="#235D7F" stroke-width="9.16667" stroke-miterlimit="8" fill="#C3DEEE" fill-rule="evenodd"/><text font-family="Times New Roman,Times New Roman_MSFontService,sans-serif" font-weight="400" font-size="92" transform="matrix(1 0 0 1 3870.43 827)">FREE </text><text font-family="Times New Roman,Times New Roman_MSFontService,sans-serif" font-weight="400" font-size="92" transform="matrix(1 0 0 1 3880.17 915)">PFN</text><text font-family="Times New Roman,Times New Roman_MSFontService,sans-serif" font-weight="400" font-size="73" transform="matrix(1 0 0 1 4048.61 942)">0</text><path d="M7673.5 766.668C7673.5 743.931 7691.93 725.5 7714.67 725.5L7996.33 725.5C8019.07 725.5 8037.5 743.931 8037.5 766.668L8037.5 931.333C8037.5 954.069 8019.07 972.5 7996.33 972.5L7714.67 972.5C7691.93 972.5 7673.5 954.069 7673.5 931.333Z" stroke="#235D7F" stroke-width="9.16667" stroke-miterlimit="8" fill="#C3DEEE" fill-rule="evenodd"/><text font-family="Times New Roman,Times New Roman_MSFontService,sans-serif" font-weight="400" font-size="92" transform="matrix(1 0 0 1 7742.69 827)">FREE </text><text font-family="Times New Roman,Times New Roman_MSFontService,sans-serif" font-weight="400" font-size="92" transform="matrix(1 0 0 1 7752.43 915)">PFN</text><text font-family="Times New Roman,Times New Roman_MSFontService,sans-serif" font-weight="400" font-size="73" transform="matrix(1 0 0 1 7920.87 942)">3</text><path d="M4867.5 767.667C4867.5 744.931 4885.93 726.5 4908.67 726.5L5112.33 726.5C5135.07 726.5 5153.5 744.931 5153.5 767.667L5153.5 932.332C5153.5 955.069 5135.07 973.5 5112.33 973.5L4908.67 973.5C4885.93 973.5 4867.5 955.069 4867.5 932.332Z" stroke="#000000" stroke-width="9.16667" stroke-miterlimit="8" fill="#FFFFFF" fill-rule="evenodd"/><text font-family="Times New Roman,Times New Roman_MSFontService,sans-serif" font-weight="400" font-size="92" transform="matrix(1 0 0 1 4958.31 883)">U</text><text font-family="Times New Roman,Times New Roman_MSFontService,sans-serif" font-weight="400" font-size="73" transform="matrix(1 0 0 1 5024.77 910)">3</text><path d="M5216.5 767.667C5216.5 744.931 5234.93 726.5 5257.67 726.5L5539.33 726.5C5562.07 726.5 5580.5 744.931 5580.5 767.667L5580.5 932.333C5580.5 955.069 5562.07 973.5 5539.33 973.5L5257.67 973.5C5234.93 973.5 5216.5 955.069 5216.5 932.333Z" stroke="#2A642C" stroke-width="9.16667" stroke-miterlimit="8" fill="#BEE4BF" fill-rule="evenodd"/><text font-family="Times New Roman,Times New Roman_MSFontService,sans-serif" font-weight="400" font-size="92" transform="matrix(1 0 0 1 5337.31 828)">IR</text><text font-family="Times New Roman,Times New Roman_MSFontService,sans-serif" font-weight="400" font-size="92" transform="matrix(1 0 0 1 5428.98 828)">-</text><text font-family="Times New Roman,Times New Roman_MSFontService,sans-serif" font-weight="400" font-size="92" transform="matrix(1 0 0 1 5270.28 916)">PREP</text><text font-family="Times New Roman,Times New Roman_MSFontService,sans-serif" font-weight="400" font-size="73" transform="matrix(1 0 0 1 5489.71 943)">3</text><text font-family="Times New Roman,Times New Roman_MSFontService,sans-serif" font-weight="400" font-size="110" transform="matrix(1 0 0 1 5532.73 652)">T</text><text font-family="Times New Roman,Times New Roman_MSFontService,sans-serif" font-weight="400" font-size="98" transform="matrix(1 0 0 1 5599.76 688)">1</text><text font-family="Times New Roman,Times New Roman_MSFontService,sans-serif" font-weight="400" font-size="110" transform="matrix(1 0 0 1 3596.6 657)">T</text><text font-family="Times New Roman,Times New Roman_MSFontService,sans-serif" font-weight="400" font-size="98" transform="matrix(1 0 0 1 3663.63 693)">0</text><text font-family="Times New Roman,Times New Roman_MSFontService,sans-serif" font-weight="400" font-size="110" transform="matrix(1 0 0 1 3596.6 2383)">T</text><text font-family="Times New Roman,Times New Roman_MSFontService,sans-serif" font-weight="400" font-size="98" transform="matrix(1 0 0 1 3663.63 2419)">0</text><text font-family="Times New Roman,Times New Roman_MSFontService,sans-serif" font-weight="400" font-size="110" transform="matrix(1 0 0 1 5532.73 2375)">T</text><text font-family="Times New Roman,Times New Roman_MSFontService,sans-serif" font-weight="400" font-size="98" transform="matrix(1 0 0 1 5599.76 2411)">1</text><text font-family="Times New Roman,Times New Roman_MSFontService,sans-serif" font-weight="400" font-size="110" transform="matrix(1 0 0 1 7478.86 657)">T</text><text font-family="Times New Roman,Times New Roman_MSFontService,sans-serif" font-weight="400" font-size="98" transform="matrix(1 0 0 1 7545.9 693)">2</text><text font-family="Times New Roman,Times New Roman_MSFontService,sans-serif" font-weight="400" font-size="110" transform="matrix(1 0 0 1 7478.86 2383)">T</text><text font-family="Times New Roman,Times New Roman_MSFontService,sans-serif" font-weight="400" font-size="98" transform="matrix(1 0 0 1 7545.9 2419)">2</text><path d="M967.5 1265.5 1943.75 1268.08" stroke="#000000" stroke-width="6.875" stroke-miterlimit="8" fill="none" fill-rule="evenodd"/><path d="M2229.5 1267.5 2293.15 1267.5" stroke="#000000" stroke-width="6.875" stroke-miterlimit="8" fill="none" fill-rule="evenodd"/><path d="M0 0 2373.26 4.23543" stroke="#000000" stroke-width="6.875" stroke-miterlimit="8" fill="none" fill-rule="evenodd" transform="matrix(1 0 0 -1 5698.5 1685.74)"/><path d="M5698.5 1267.5 8071.76 1267.5" stroke="#000000" stroke-width="6.875" stroke-miterlimit="8" fill="none" fill-rule="evenodd"/><path d="M967.5 1686.5 2003.33 1686.5" stroke="#000000" stroke-width="6.875" stroke-miterlimit="8" fill="none" fill-rule="evenodd"/><path d="M967.5 2100.5 1865.83 2107.42" stroke="#000000" stroke-width="6.875" stroke-miterlimit="8" fill="none" fill-rule="evenodd"/><path d="M1748.5 848.5 3801.29 848.5" stroke="#000000" stroke-width="6.875" stroke-miterlimit="8" fill="none" fill-rule="evenodd"/><path d="M967.5 848.5 1036.25 848.733" stroke="#000000" stroke-width="6.875" stroke-miterlimit="8" fill="none" fill-rule="evenodd"/><path d="M4165.5 848.5 4867.84 849.507" stroke="#000000" stroke-width="6.875" stroke-miterlimit="8" fill="none" fill-rule="evenodd"/><path d="M2719.5 1675.04 5629.98 1675.04 5629.98 1697.96 2719.5 1697.96ZM5629.98 1686.5 5584.15 1629.21 5698.73 1686.5 5584.15 1743.79Z" fill="#AA2020"/><path d="M2657.5 1256.04 5630.08 1256.04 5630.08 1278.96 2657.5 1278.96ZM5630.08 1267.5 5584.25 1210.21 5698.83 1267.5 5584.25 1324.79Z" fill="#AA2020"/><path d="M5580.5 838.042 7565.55 838.042 7565.55 860.959 5580.5 860.958ZM7565.55 849.5 7519.72 792.209 7634.3 849.5 7519.72 906.792Z" fill="#AA2020"/><path d="M1321.5 848.5 1385.15 848.5" stroke="#000000" stroke-width="6.875" stroke-miterlimit="8" fill="none" fill-rule="evenodd"/><path d="M2291.5 1686.5 2355.15 1686.5" stroke="#000000" stroke-width="6.875" stroke-miterlimit="8" fill="none" fill-rule="evenodd"/><path d="M3268.5 2107.5 3307.58 2107.5" stroke="#000000" stroke-width="6.875" stroke-miterlimit="8" fill="none" fill-rule="evenodd"/><path d="M3723.5 2107.5 3801.65 2107.5" stroke="#000000" stroke-width="6.875" stroke-miterlimit="8" fill="none" fill-rule="evenodd"/><path d="M5204.5 2107.5 5243.58 2107.5" stroke="#000000" stroke-width="6.875" stroke-miterlimit="8" fill="none" fill-rule="evenodd"/><path d="M5659.5 2107.5 5737.65 2107.5" stroke="#000000" stroke-width="6.875" stroke-miterlimit="8" fill="none" fill-rule="evenodd"/><path d="M7140.5 2107.5 7179.58 2107.5" stroke="#000000" stroke-width="6.875" stroke-miterlimit="8" fill="none" fill-rule="evenodd"/><path d="M5153.5 849.5 5217.15 849.5" stroke="#000000" stroke-width="6.875" stroke-miterlimit="8" fill="none" fill-rule="evenodd"/><path d="M5737.5 1599.5C5737.5 1576.86 5755.86 1558.5 5778.5 1558.5L6060.5 1558.5C6083.14 1558.5 6101.5 1576.86 6101.5 1599.5L6101.5 1763.5C6101.5 1786.14 6083.14 1804.5 6060.5 1804.5L5778.5 1804.5C5755.86 1804.5 5737.5 1786.14 5737.5 1763.5Z" stroke="#235D7F" stroke-width="9.16667" stroke-miterlimit="8" fill="#C3DEEE" fill-rule="evenodd"/><text font-family="Times New Roman,Times New Roman_MSFontService,sans-serif" font-weight="400" font-size="92" transform="matrix(1 0 0 1 5806.56 1660)">FREE </text><text font-family="Times New Roman,Times New Roman_MSFontService,sans-serif" font-weight="400" font-size="92" transform="matrix(1 0 0 1 5816.3 1748)">PFN</text><text font-family="Times New Roman,Times New Roman_MSFontService,sans-serif" font-weight="400" font-size="73" transform="matrix(1 0 0 1 5984.74 1775)">2</text><path d="M5737.5 1185.67C5737.5 1162.93 5755.93 1144.5 5778.67 1144.5L6060.33 1144.5C6083.07 1144.5 6101.5 1162.93 6101.5 1185.67L6101.5 1350.33C6101.5 1373.07 6083.07 1391.5 6060.33 1391.5L5778.67 1391.5C5755.93 1391.5 5737.5 1373.07 5737.5 1350.33Z" stroke="#235D7F" stroke-width="9.16667" stroke-miterlimit="8" fill="#C3DEEE" fill-rule="evenodd"/><text font-family="Times New Roman,Times New Roman_MSFontService,sans-serif" font-weight="400" font-size="92" transform="matrix(1 0 0 1 5806.56 1246)">FREE </text><text font-family="Times New Roman,Times New Roman_MSFontService,sans-serif" font-weight="400" font-size="92" transform="matrix(1 0 0 1 5816.3 1334)">PFN</text><text font-family="Times New Roman,Times New Roman_MSFontService,sans-serif" font-weight="400" font-size="73" transform="matrix(1 0 0 1 5984.74 1361)">1</text><path d="M1748.5 837.042 3693.46 837.042 3693.46 859.959 1748.5 859.958ZM3693.46 848.5 3647.62 791.209 3762.21 848.5 3647.62 905.792Z" fill="#AA2020"/><text font-family="Times New Roman,Times New Roman_MSFontService,sans-serif" font-weight="400" font-size="92" transform="matrix(1 0 0 1 2429.13 803)">Wait till completion</text><text font-family="Times New Roman,Times New Roman_MSFontService,sans-serif" font-weight="400" font-size="92" transform="matrix(1 0 0 1 3848.36 1215)">Wait till completion</text><text font-family="Times New Roman,Times New Roman_MSFontService,sans-serif" font-weight="400" font-size="92" transform="matrix(1 0 0 1 3847.91 1635)">Wait till completion</text><text font-family="Times New Roman,Times New Roman_MSFontService,sans-serif" font-weight="400" font-size="92" transform="matrix(1 0 0 1 6307.07 803)">Wait till completion</text><rect x="1521.5" y="186.5" width="5755" height="247" stroke="#042433" stroke-width="6.875" stroke-miterlimit="8" fill="#FFFFFF"/><text font-family="Times New Roman,Times New Roman_MSFontService,sans-serif" font-weight="400" font-size="92" transform="matrix(1 0 0 1 1923.39 341)">IOMMU Subsystem</text><path d="M1588 265.834C1588 254.328 1597.33 245 1608.83 245L1866.17 245C1877.67 245 1887 254.328 1887 265.834L1887 349.166C1887 360.672 1877.67 370 1866.17 370L1608.83 370C1597.33 370 1588 360.672 1588 349.166Z" stroke="#2A642C" stroke-width="10.3125" stroke-miterlimit="8" fill="#BEE4BF" fill-rule="evenodd"/><text font-family="Times New Roman,Times New Roman_MSFontService,sans-serif" font-weight="400" font-size="92" transform="matrix(1 0 0 1 4481.48 348)">NIC Driver</text><path d="M4148.5 273.334C4148.5 261.828 4157.83 252.5 4169.33 252.5L4426.67 252.5C4438.17 252.5 4447.5 261.828 4447.5 273.334L4447.5 356.666C4447.5 368.172 4438.17 377.5 4426.67 377.5L4169.33 377.5C4157.83 377.5 4148.5 368.172 4148.5 356.666Z" stroke="#235D7F" stroke-width="9.16667" stroke-miterlimit="8" fill="#C3DEEE" fill-rule="evenodd"/><text font-family="Times New Roman,Times New Roman_MSFontService,sans-serif" font-weight="400" font-size="92" transform="matrix(1 0 0 1 3122.06 348)">VM Exit + IOMMU HW</text><path d="M2789.5 273.334C2789.5 261.828 2798.83 252.5 2810.33 252.5L3067.67 252.5C3079.17 252.5 3088.5 261.828 3088.5 273.334L3088.5 356.666C3088.5 368.172 3079.17 377.5 3067.67 377.5L2810.33 377.5C2798.83 377.5 2789.5 368.172 2789.5 356.666Z" stroke="#AA2020" stroke-width="9.16667" stroke-miterlimit="8" fill="#EFAAAA" fill-rule="evenodd"/><text font-family="Times New Roman,Times New Roman_MSFontService,sans-serif" font-weight="400" font-size="92" transform="matrix(1 0 0 1 5330.42 348)">Wait</text><path d="M5019.5 305.188 5256.44 305.188 5256.44 325.813 5019.5 325.813ZM5256.44 315.5 5215.19 263.938 5318.32 315.5 5215.19 367.063Z" fill="#AA2020"/><text font-family="Times New Roman,Times New Roman_MSFontService,sans-serif" font-weight="400" font-size="92" transform="matrix(1 0 0 1 6887.8 348)">Timeline</text><path d="M6557.5 315.5 6856.32 315.5" stroke="#000000" stroke-width="6.875" stroke-miterlimit="8" fill="none" fill-rule="evenodd"/><text font-family="Times New Roman,Times New Roman_MSFontService,sans-serif" font-weight="400" font-size="92" transform="matrix(1 0 0 1 5943.16 348)">Coordination</text><path d="M5612.5 312.063 5633.12 312.063 5633.12 318.938 5612.5 318.938ZM5640 312.063 5660.62 312.063 5660.62 318.938 5640 318.938ZM5667.5 312.063 5688.12 312.063 5688.12 318.938 5667.5 318.938ZM5695 312.063 5715.62 312.063 5715.62 318.938 5695 318.938ZM5722.5 312.063 5743.12 312.063 5743.12 318.938 5722.5 318.938ZM5750 312.063 5770.62 312.063 5770.62 318.938 5750 318.938ZM5777.5 312.063 5798.12 312.063 5798.12 318.938 5777.5 318.938ZM5805 312.063 5825.62 312.063 5825.62 318.938 5805 318.938ZM5832.5 312.063 5853.12 312.063 5853.12 318.938 5832.5 318.938ZM5860 312.063 5880.62 312.063 5880.62 318.938 5860 318.938ZM5883.82 315.5 5865.49 292.584 5911.32 315.5 5865.49 338.417Z" fill="#747474"/><path d="M1751.92 848.183 1753.83 868.72 1746.98 869.354 1745.08 848.817ZM1754.46 875.565 1756.36 896.102 1749.52 896.737 1747.62 876.2ZM1757 902.948 1758.9 923.485 1752.06 924.119 1750.15 903.582ZM1759.54 930.33 1761.44 950.867 1754.6 951.502 1752.69 930.965ZM1762.08 957.713 1763.98 978.25 1757.13 978.885 1755.23 958.348ZM1764.61 985.096 1766.52 1005.63 1759.67 1006.27 1757.77 985.73ZM1767.15 1012.48 1769.06 1033.02 1762.21 1033.65 1760.31 1013.11ZM1769.69 1039.86 1771.59 1060.4 1764.75 1061.03 1762.84 1040.5ZM1772.23 1067.24 1774.13 1087.78 1767.29 1088.42 1765.38 1067.88ZM1774.77 1094.63 1776.67 1115.16 1769.82 1115.8 1767.92 1095.26ZM1777.31 1122.01 1779.21 1142.55 1772.36 1143.18 1770.46 1122.64ZM1779.84 1149.39 1781.75 1169.93 1774.9 1170.56 1773 1150.03ZM1782.38 1176.77 1784.29 1197.31 1777.44 1197.95 1775.54 1177.41ZM1784.92 1204.16 1786.82 1224.69 1779.98 1225.33 1778.07 1204.79ZM1787.46 1231.54 1789.36 1252.08 1782.52 1252.71 1780.61 1232.17ZM1790 1258.92 1791.9 1279.46 1785.05 1280.09 1783.15 1259.56ZM1792.53 1286.3 1794.44 1306.84 1787.59 1307.48 1785.69 1286.94ZM1795.07 1313.69 1796.98 1334.22 1790.13 1334.86 1788.23 1314.32ZM1797.61 1341.07 1799.51 1361.61 1792.67 1362.24 1790.77 1341.7ZM1800.15 1368.45 1802.05 1388.99 1795.21 1389.62 1793.3 1369.09ZM1802.69 1395.83 1804.59 1416.37 1797.75 1417.01 1795.84 1396.47ZM1805.23 1423.22 1807.13 1443.75 1800.28 1444.39 1798.38 1423.85ZM1807.76 1450.6 1809.67 1471.14 1802.82 1471.77 1800.92 1451.23ZM1810.3 1477.98 1812.21 1498.52 1805.36 1499.15 1803.46 1478.62ZM1812.84 1505.37 1814.74 1525.9 1807.9 1526.54 1805.99 1506ZM1815.38 1532.75 1817.28 1553.28 1810.44 1553.92 1808.53 1533.38ZM1817.92 1560.13 1819.82 1580.67 1812.97 1581.3 1811.07 1560.76ZM1820.45 1587.51 1822.36 1608.05 1815.51 1608.68 1813.61 1588.15ZM1822.99 1614.9 1824.9 1635.43 1818.05 1636.07 1816.15 1615.53ZM1825.53 1642.28 1827.44 1662.82 1820.59 1663.45 1818.69 1642.91ZM1828.07 1669.66 1829.97 1690.2 1823.13 1690.83 1821.22 1670.3ZM1830.61 1697.04 1832.51 1717.58 1825.67 1718.21 1823.76 1697.68ZM1833.15 1724.43 1835.05 1744.96 1828.2 1745.6 1826.3 1725.06ZM1835.68 1751.81 1837.59 1772.35 1830.74 1772.98 1828.84 1752.44ZM1838.22 1779.19 1840.13 1799.73 1833.28 1800.36 1831.38 1779.83ZM1840.76 1806.57 1842.66 1827.11 1835.82 1827.75 1833.92 1807.21ZM1843.3 1833.96 1845.2 1854.49 1838.36 1855.13 1836.45 1834.59ZM1845.84 1861.34 1847.74 1881.88 1840.9 1882.51 1838.99 1861.97ZM1848.38 1888.72 1850.28 1909.26 1843.43 1909.89 1841.53 1889.36ZM1850.91 1916.1 1852.82 1936.64 1845.97 1937.28 1844.07 1916.74ZM1853.45 1943.49 1855.36 1964.02 1848.51 1964.66 1846.61 1944.12ZM1855.99 1970.87 1857.89 1991.41 1851.05 1992.04 1849.14 1971.5ZM1858.53 1998.25 1860.43 2018.79 1853.59 2019.42 1851.68 1998.89ZM1861.07 2025.63 1862.97 2046.17 1856.12 2046.81 1854.22 2026.27ZM1863.6 2053.02 1865.51 2073.55 1858.66 2074.19 1856.76 2053.65ZM1862.62 2079.61 1883.74 2059.24 1865.16 2107 1838.11 2063.47Z" fill="#747474"/><text font-family="Cambria Math,Cambria Math_MSFontService,sans-serif" font-weight="700" font-size="128" transform="matrix(1 0 0 1 818.9 1951)">⋮</text><text font-family="Times New Roman,Times New Roman_MSFontService,sans-serif" font-weight="700" font-size="128" transform="matrix(1 0 0 1 795.992 2146)">Ĉ</text></g></svg>