<svg width="1768" height="961" xmlns="http://www.w3.org/2000/svg" xmlns:xlink="http://www.w3.org/1999/xlink" xml:space="preserve" overflow="hidden"><g transform="translate(-1557 -468)"><path d="M1631.5 872.5C1631.5 850.961 1648.96 833.5 1670.5 833.5 1692.04 833.5 1709.5 850.961 1709.5 872.5 1709.5 894.039 1692.04 911.5 1670.5 911.5 1648.96 911.5 1631.5 894.039 1631.5 872.5Z" stroke="#000000" stroke-width="4.58333" stroke-miterlimit="8" fill="#FFFFFF" fill-rule="evenodd"/><text font-family="Times New Roman,Times New Roman_MSFontService,sans-serif" font-weight="400" font-size="46" transform="matrix(1 0 0 1 1645.99 889)">H</text><text font-family="Times New Roman,Times New Roman_MSFontService,sans-serif" font-weight="400" font-size="31" transform="matrix(1 0 0 1 1679.21 899)">3</text><path d="M1617.5 887.5C1617.5 865.961 1634.96 848.5 1656.5 848.5 1678.04 848.5 1695.5 865.961 1695.5 887.5 1695.5 909.039 1678.04 926.5 1656.5 926.5 1634.96 926.5 1617.5 909.039 1617.5 887.5Z" stroke="#000000" stroke-width="4.58333" stroke-miterlimit="8" fill="#FFFFFF" fill-rule="evenodd"/><text font-family="Times New Roman,Times New Roman_MSFontService,sans-serif" font-weight="400" font-size="46" transform="matrix(1 0 0 1 1631.46 903)">H</text><text font-family="Times New Roman,Times New Roman_MSFontService,sans-serif" font-weight="400" font-size="31" transform="matrix(1 0 0 1 1664.69 913)">2</text><rect x="1732.5" y="940.5" width="123" height="220" stroke="#000000" stroke-width="4.58333" stroke-miterlimit="8" fill="#FFFFFF"/><rect x="1706.5" y="966.5" width="123" height="220" stroke="#000000" stroke-width="4.58333" stroke-miterlimit="8" fill="#FFFFFF"/><rect x="2460.5" y="712.5" width="361" height="46.9998" stroke="#D9D9D9" stroke-width="4.58333" stroke-miterlimit="8" fill="#D9D9D9"/><path d="M1602.5 901.5C1602.5 879.961 1619.96 862.5 1641.5 862.5 1663.04 862.5 1680.5 879.961 1680.5 901.5 1680.5 923.039 1663.04 940.5 1641.5 940.5 1619.96 940.5 1602.5 923.039 1602.5 901.5Z" stroke="#000000" stroke-width="4.58333" stroke-miterlimit="8" fill="#FFFFFF" fill-rule="evenodd"/><text font-family="Times New Roman,Times New Roman_MSFontService,sans-serif" font-weight="400" font-size="46" transform="matrix(1 0 0 1 1616.93 918)">H</text><text font-family="Times New Roman,Times New Roman_MSFontService,sans-serif" font-weight="400" font-size="31" transform="matrix(1 0 0 1 1650.16 928)">1</text><path d="M0-1.14583 235.03-1.14583 235.03 16.064 232.738 16.064 232.738 0 233.884 1.14583 0 1.14583ZM243.051 11.4807 233.884 38.9807 224.718 11.4807Z" transform="matrix(1.83697e-16 1 1 -1.83697e-16 1641 940)"/><path d="M1642.15 759 1642.15 840.032 1639.85 840.032 1639.85 759ZM1650.17 835.449 1641 862.949 1631.83 835.449Z"/><text font-family="Times New Roman,Times New Roman_MSFontService,sans-serif" font-weight="400" font-size="46" transform="matrix(1 0 0 1 1585.48 751)">PUD</text><text font-family="Times New Roman,Times New Roman_MSFontService,sans-serif" font-weight="400" font-size="46" transform="matrix(1 0 0 1 1677.15 751)">-</text><text font-family="Times New Roman,Times New Roman_MSFontService,sans-serif" font-weight="400" font-size="46" transform="matrix(1 0 0 1 1692.62 751)">VPN [</text><text font-family="Times New Roman,Times New Roman_MSFontService,sans-serif" font-weight="400" font-size="46" transform="matrix(1 0 0 1 1811.21 751)">47:3</text><text font-family="Times New Roman,Times New Roman_MSFontService,sans-serif" font-weight="400" font-size="46" transform="matrix(1 0 0 1 1892.57 751)">3</text><text font-family="Times New Roman,Times New Roman_MSFontService,sans-serif" font-weight="400" font-size="46" transform="matrix(1 0 0 1 1915.48 751)">]</text><path d="M2564.5 913.5C2564.5 891.961 2599.42 874.5 2642.5 874.5 2685.58 874.5 2720.5 891.961 2720.5 913.5 2720.5 935.039 2685.58 952.5 2642.5 952.5 2599.42 952.5 2564.5 935.039 2564.5 913.5Z" stroke="#000000" stroke-width="4.58333" stroke-miterlimit="8" fill="#FFFFFF" fill-rule="evenodd"/><text font-family="Times New Roman,Times New Roman_MSFontService,sans-serif" font-weight="400" font-size="46" transform="matrix(1 0 0 1 2586.78 929)">Hash</text><text font-family="Times New Roman,Times New Roman_MSFontService,sans-serif" font-weight="400" font-size="31" transform="matrix(1 0 0 1 2681.31 939)">2</text><path d="M2798.5 913.5C2798.5 891.961 2833.42 874.5 2876.5 874.5 2919.58 874.5 2954.5 891.961 2954.5 913.5 2954.5 935.039 2919.58 952.5 2876.5 952.5 2833.42 952.5 2798.5 935.039 2798.5 913.5Z" stroke="#000000" stroke-width="4.58333" stroke-miterlimit="8" fill="#FFFFFF" fill-rule="evenodd"/><text font-family="Times New Roman,Times New Roman_MSFontService,sans-serif" font-weight="400" font-size="46" transform="matrix(1 0 0 1 2820.67 929)">Hash</text><text font-family="Times New Roman,Times New Roman_MSFontService,sans-serif" font-weight="400" font-size="31" transform="matrix(1 0 0 1 2915.2 939)">3</text><path d="M2643.15 762 2643.15 850.576 2640.85 850.576 2640.85 762ZM2651.17 845.993 2642 873.493 2632.83 845.993Z"/><path d="M2642.49 760.966 2855.69 862.598 2854.7 864.666 2641.51 763.034ZM2855 853.385 2875.88 873.493 2847.12 869.934Z"/><text font-family="Times New Roman,Times New Roman_MSFontService,sans-serif" font-weight="400" font-size="46" transform="matrix(1 0 0 1 2474.2 751)">PTE</text><text font-family="Times New Roman,Times New Roman_MSFontService,sans-serif" font-weight="400" font-size="46" transform="matrix(1 0 0 1 2555.56 751)">-</text><text font-family="Times New Roman,Times New Roman_MSFontService,sans-serif" font-weight="400" font-size="46" transform="matrix(1 0 0 1 2571.03 751)">VPN [</text><text font-family="Times New Roman,Times New Roman_MSFontService,sans-serif" font-weight="400" font-size="46" transform="matrix(1 0 0 1 2689.62 751)">47:1</text><text font-family="Times New Roman,Times New Roman_MSFontService,sans-serif" font-weight="400" font-size="46" transform="matrix(1 0 0 1 2770.97 751)">5</text><text font-family="Times New Roman,Times New Roman_MSFontService,sans-serif" font-weight="400" font-size="46" transform="matrix(1 0 0 1 2793.89 751)">]</text><rect x="2694.5" y="1004.5" width="156" height="267" stroke="#000000" stroke-width="4.58333" stroke-miterlimit="8" fill="#FFFFFF"/><rect x="2694.5" y="1160.5" width="156" height="51.9999" stroke="#000000" stroke-width="4.58333" stroke-miterlimit="8" fill="#FFFFFF"/><text font-family="Times New Roman,Times New Roman_MSFontService,sans-serif" font-weight="400" font-size="50" transform="matrix(1 0 0 1 2723.02 1204)">Miss</text><rect x="2928.5" y="1004.5" width="156" height="267" stroke="#000000" stroke-width="4.58333" stroke-miterlimit="8" fill="#FFFFFF"/><rect x="1680.5" y="992.5" width="121" height="231" stroke="#000000" stroke-width="4.58333" stroke-miterlimit="8" fill="#FFFFFF"/><rect x="1680.5" y="1148.5" width="121" height="51.9999" stroke="#000000" stroke-width="4.58333" stroke-miterlimit="8" fill="#FFFFFF"/><text font-family="Times New Roman,Times New Roman_MSFontService,sans-serif" font-weight="400" font-size="50" transform="matrix(1 0 0 1 1691.81 1193)">Miss</text><rect x="3162.5" y="1004.5" width="155" height="265" stroke="#000000" stroke-width="4.58333" stroke-miterlimit="8" fill="#FFFFFF"/><rect x="3162.5" y="1108.5" width="155" height="51.9999" stroke="#000000" stroke-width="4.58333" stroke-miterlimit="8" fill="#D9D9D9"/><text font-family="Times New Roman,Times New Roman_MSFontService,sans-serif" font-weight="400" font-size="50" transform="matrix(1 0 0 1 3207.12 1152)">PA</text><path d="M0 0 4.61379 0 4.61379 18.9638 144.724 18.9638" stroke="#000000" stroke-width="2.29167" stroke-miterlimit="8" fill="none" fill-rule="evenodd" transform="matrix(1.83697e-16 1 1 -1.83697e-16 3084 1108)"/><path d="M3103 1250.85 3139.08 1250.85 3139.08 1253.15 3103 1253.15ZM3134.5 1242.83 3162 1252 3134.5 1261.17Z"/><path d="M0-1.14583 486.694-1.14583 486.694 19.6228 484.403 19.6228 484.403 0 485.549 1.14583 0 1.14583ZM494.715 15.0395 485.549 42.5395 476.382 15.0395Z" transform="matrix(1.83697e-16 1 1 -1.83697e-16 3119 648)"/><text font-family="Times New Roman,Times New Roman_MSFontService,sans-serif" font-weight="400" font-size="48" transform="matrix(1 0 0 1 1659.17 1283)">PUD (1GB)</text><text font-family="Times New Roman,Times New Roman_MSFontService,sans-serif" font-weight="400" font-size="48" transform="matrix(1 0 0 1 2708.41 1318)">Way 2</text><text font-family="Times New Roman,Times New Roman_MSFontService,sans-serif" font-weight="400" font-size="48" transform="matrix(1 0 0 1 2942.29 1318)">Way 3</text><text font-family="Times New Roman,Times New Roman_MSFontService,sans-serif" font-weight="400" font-size="48" transform="matrix(1 0 0 1 2661.43 1388)">PTE (4KB)</text><path d="M0-1.14583 235.03-1.14583 235.03 29.0576 232.738 29.0576 232.738 0 233.884 1.14583 0 1.14583ZM243.051 24.4743 233.884 51.9743 224.718 24.4743Z" transform="matrix(1.83697e-16 1 1 -1.83697e-16 2642 952)"/><path d="M0-1.14583 157.069-1.14583 157.069 29.0576 154.777 29.0576 154.777 0 155.923 1.14583 0 1.14583ZM165.09 24.4743 155.923 51.9743 146.756 24.4743Z" transform="matrix(1.83697e-16 1 1 -1.83697e-16 2876 952)"/><rect x="1846.5" y="584.5" width="770" height="61.0002" stroke="#000000" stroke-width="4.58333" stroke-miterlimit="8" fill="#D9D9D9"/><text font-family="Times New Roman,Times New Roman_MSFontService,sans-serif" font-weight="400" font-size="55" transform="matrix(1 0 0 1 2073.17 634)">PTE VPN Tag</text><rect x="2616.5" y="584.5" width="260" height="61.0002" stroke="#000000" stroke-width="4.58333" stroke-miterlimit="8" fill="#FFFFFF"/><text font-family="Times New Roman,Times New Roman_MSFontService,sans-serif" font-weight="400" font-size="50" transform="matrix(1 0 0 1 2631.67 633)">PTE Offset</text><rect x="1635.5" y="584.5" width="211" height="61.0002" stroke="#000000" stroke-width="4.58333" stroke-miterlimit="8" fill="#FFFFFF"/><text font-family="Times New Roman,Times New Roman_MSFontService,sans-serif" font-weight="400" font-size="46" transform="matrix(1 0 0 1 1631.35 576)">63</text><text font-family="Times New Roman,Times New Roman_MSFontService,sans-serif" font-weight="400" font-size="46" transform="matrix(1 0 0 1 1789.81 576)">48</text><text font-family="Times New Roman,Times New Roman_MSFontService,sans-serif" font-weight="400" font-size="46" transform="matrix(1 0 0 1 1849.22 576)">47</text><text font-family="Times New Roman,Times New Roman_MSFontService,sans-serif" font-weight="400" font-size="46" transform="matrix(1 0 0 1 2566.84 576)">15</text><text font-family="Times New Roman,Times New Roman_MSFontService,sans-serif" font-weight="400" font-size="46" transform="matrix(1 0 0 1 2618.82 576)">14</text><text font-family="Times New Roman,Times New Roman_MSFontService,sans-serif" font-weight="400" font-size="46" transform="matrix(1 0 0 1 2826.71 576)">12</text><text font-family="Times New Roman,Times New Roman_MSFontService,sans-serif" font-weight="400" font-size="46" transform="matrix(1 0 0 1 2878.69 576)">11</text><text font-family="Times New Roman,Times New Roman_MSFontService,sans-serif" font-weight="400" font-size="46" transform="matrix(1 0 0 1 3274.45 576)">0</text><text font-family="Times New Roman,Times New Roman_MSFontService,sans-serif" font-weight="400" font-size="50" transform="matrix(1 0 0 1 2034.64 533)">Virtual Address (VA) of a 4KB Page</text><rect x="2876.5" y="584.5" width="415" height="61.0002" stroke="#000000" stroke-width="4.58333" stroke-miterlimit="8" fill="#FFFFFF"/><text font-family="Times New Roman,Times New Roman_MSFontService,sans-serif" font-weight="400" font-size="50" transform="matrix(1 0 0 1 2965.49 633)">Page Offset</text><path d="M2021.5 872.5C2021.5 850.961 2038.96 833.5 2060.5 833.5 2082.04 833.5 2099.5 850.961 2099.5 872.5 2099.5 894.039 2082.04 911.5 2060.5 911.5 2038.96 911.5 2021.5 894.039 2021.5 872.5Z" stroke="#000000" stroke-width="4.58333" stroke-miterlimit="8" fill="#FFFFFF" fill-rule="evenodd"/><text font-family="Times New Roman,Times New Roman_MSFontService,sans-serif" font-weight="400" font-size="46" transform="matrix(1 0 0 1 2035.79 889)">H</text><text font-family="Times New Roman,Times New Roman_MSFontService,sans-serif" font-weight="400" font-size="31" transform="matrix(1 0 0 1 2069.02 899)">3</text><path d="M2007.5 887.5C2007.5 865.961 2024.96 848.5 2046.5 848.5 2068.04 848.5 2085.5 865.961 2085.5 887.5 2085.5 909.039 2068.04 926.5 2046.5 926.5 2024.96 926.5 2007.5 909.039 2007.5 887.5Z" stroke="#000000" stroke-width="4.58333" stroke-miterlimit="8" fill="#FFFFFF" fill-rule="evenodd"/><text font-family="Times New Roman,Times New Roman_MSFontService,sans-serif" font-weight="400" font-size="46" transform="matrix(1 0 0 1 2021.26 903)">H</text><text font-family="Times New Roman,Times New Roman_MSFontService,sans-serif" font-weight="400" font-size="31" transform="matrix(1 0 0 1 2054.49 913)">2</text><rect x="2122.5" y="940.5" width="123" height="220" stroke="#000000" stroke-width="4.58333" stroke-miterlimit="8" fill="#FFFFFF"/><rect x="2096.5" y="966.5" width="123" height="220" stroke="#000000" stroke-width="4.58333" stroke-miterlimit="8" fill="#FFFFFF"/><path d="M1992.5 901.5C1992.5 879.961 2009.96 862.5 2031.5 862.5 2053.04 862.5 2070.5 879.961 2070.5 901.5 2070.5 923.039 2053.04 940.5 2031.5 940.5 2009.96 940.5 1992.5 923.039 1992.5 901.5Z" stroke="#000000" stroke-width="4.58333" stroke-miterlimit="8" fill="#FFFFFF" fill-rule="evenodd"/><text font-family="Times New Roman,Times New Roman_MSFontService,sans-serif" font-weight="400" font-size="46" transform="matrix(1 0 0 1 2006.73 918)">H</text><text font-family="Times New Roman,Times New Roman_MSFontService,sans-serif" font-weight="400" font-size="31" transform="matrix(1 0 0 1 2039.96 928)">1</text><path d="M0-1.14583 142.28-1.14583 142.28 16.064 139.989 16.064 139.989 0 141.135 1.14583 0 1.14583ZM150.301 11.4807 141.135 38.9807 131.968 11.4807Z" transform="matrix(1.83697e-16 1 1 -1.83697e-16 2031 940)"/><path d="M2032.15 759 2032.15 840.032 2029.85 840.032 2029.85 759ZM2040.17 835.449 2031 862.949 2021.83 835.449Z"/><text font-family="Times New Roman,Times New Roman_MSFontService,sans-serif" font-weight="400" font-size="46" transform="matrix(1 0 0 1 1971.57 751)">P</text><text font-family="Times New Roman,Times New Roman_MSFontService,sans-serif" font-weight="400" font-size="46" transform="matrix(1 0 0 1 1996.78 751)">M</text><text font-family="Times New Roman,Times New Roman_MSFontService,sans-serif" font-weight="400" font-size="46" transform="matrix(1 0 0 1 2037.45 751)">D</text><text font-family="Times New Roman,Times New Roman_MSFontService,sans-serif" font-weight="400" font-size="46" transform="matrix(1 0 0 1 2070.68 751)">-</text><text font-family="Times New Roman,Times New Roman_MSFontService,sans-serif" font-weight="400" font-size="46" transform="matrix(1 0 0 1 2086.15 751)">VPN [</text><text font-family="Times New Roman,Times New Roman_MSFontService,sans-serif" font-weight="400" font-size="46" transform="matrix(1 0 0 1 2204.74 751)">47:2</text><text font-family="Times New Roman,Times New Roman_MSFontService,sans-serif" font-weight="400" font-size="46" transform="matrix(1 0 0 1 2286.1 751)">4</text><text font-family="Times New Roman,Times New Roman_MSFontService,sans-serif" font-weight="400" font-size="46" transform="matrix(1 0 0 1 2309.01 751)">]</text><rect x="2070.5" y="992.5" width="121" height="231" stroke="#000000" stroke-width="4.58333" stroke-miterlimit="8" fill="#FFFFFF"/><rect x="2070.5" y="1056.5" width="121" height="52.0002" stroke="#000000" stroke-width="4.58333" stroke-miterlimit="8" fill="#FFFFFF"/><text font-family="Times New Roman,Times New Roman_MSFontService,sans-serif" font-weight="400" font-size="50" transform="matrix(1 0 0 1 2081.62 1100)">Miss</text><text font-family="Times New Roman,Times New Roman_MSFontService,sans-serif" font-weight="400" font-size="48" transform="matrix(1 0 0 1 2040.95 1283)">PMD (2MB)</text><path d="M2330.5 913.5C2330.5 891.961 2365.42 874.5 2408.5 874.5 2451.58 874.5 2486.5 891.961 2486.5 913.5 2486.5 935.039 2451.58 952.5 2408.5 952.5 2365.42 952.5 2330.5 935.039 2330.5 913.5Z" stroke="#000000" stroke-width="4.58333" stroke-miterlimit="8" fill="#FFFFFF" fill-rule="evenodd"/><text font-family="Times New Roman,Times New Roman_MSFontService,sans-serif" font-weight="400" font-size="46" transform="matrix(1 0 0 1 2352.9 929)">Hash</text><text font-family="Times New Roman,Times New Roman_MSFontService,sans-serif" font-weight="400" font-size="31" transform="matrix(1 0 0 1 2447.43 939)">1</text><rect x="2460.5" y="1004.5" width="156" height="267" stroke="#000000" stroke-width="4.58333" stroke-miterlimit="8" fill="#FFFFFF"/><rect x="2460.5" y="1160.5" width="156" height="51.9999" stroke="#000000" stroke-width="4.58333" stroke-miterlimit="8" fill="#FFFFFF"/><text font-family="Times New Roman,Times New Roman_MSFontService,sans-serif" font-weight="400" font-size="50" transform="matrix(1 0 0 1 2489.13 1204)">Miss</text><text font-family="Times New Roman,Times New Roman_MSFontService,sans-serif" font-weight="400" font-size="48" transform="matrix(1 0 0 1 2474.53 1318)">Way 1</text><path d="M0-1.14583 235.03-1.14583 235.03 29.0576 232.738 29.0576 232.738 0 233.884 1.14583 0 1.14583ZM243.051 24.4743 233.884 51.9743 224.718 24.4743Z" transform="matrix(1.83697e-16 1 1 -1.83697e-16 2408 952)"/><path d="M0.493063-1.03432 213.691 100.597 212.705 102.666-0.493063 1.03432ZM213.005 91.3849 233.884 111.493 205.116 107.934Z" transform="matrix(-1 0 0 1 2641.88 762)"/><rect x="2928.5" y="1082.5" width="156" height="51.9999" stroke="#000000" stroke-width="4.58333" stroke-miterlimit="8" fill="#D9D9D9"/><text font-family="Times New Roman,Times New Roman_MSFontService,sans-serif" font-weight="400" font-size="50" transform="matrix(1 0 0 1 2973.52 1126)">Hit</text><path d="M1846 647 2460.22 711.807" stroke="#BFBFBF" stroke-width="2.29167" stroke-miterlimit="8" fill="none" fill-rule="evenodd"/><path d="M2614 648 2821.9 712.071" stroke="#BFBFBF" stroke-width="2.29167" stroke-miterlimit="8" fill="none" fill-rule="evenodd"/><path d="M3059.15 995 3059.15 1058.22 3056.85 1058.22 3056.85 995ZM3067.17 1053.63 3058 1081.13 3048.83 1053.63Z"/><path d="M0 0 30.9214 0 30.9214 311.893 404.94 311.893" stroke="#000000" stroke-width="2.29167" stroke-miterlimit="8" fill="none" fill-rule="evenodd" transform="matrix(1.83697e-16 1 1 -1.83697e-16 2746 645)"/></g></svg>