<svg width="1812" height="985" xmlns="http://www.w3.org/2000/svg" xmlns:xlink="http://www.w3.org/1999/xlink" xml:space="preserve" overflow="hidden"><g transform="translate(-1557 -470)"><path d="M1631.5 872.5C1631.5 850.961 1648.96 833.5 1670.5 833.5 1692.04 833.5 1709.5 850.961 1709.5 872.5 1709.5 894.039 1692.04 911.5 1670.5 911.5 1648.96 911.5 1631.5 894.039 1631.5 872.5Z" stroke="#000000" stroke-width="4.58333" stroke-miterlimit="8" fill="#FFFFFF" fill-rule="evenodd"/><text font-family="Times,Times_MSFontService,sans-serif" font-weight="400" font-size="46" transform="matrix(1 0 0 1 1645.99 889)">H</text><text font-family="Times,Times_MSFontService,sans-serif" font-weight="400" font-size="31" transform="matrix(1 0 0 1 1679.21 899)">3</text><path d="M1617.5 887.5C1617.5 865.961 1634.96 848.5 1656.5 848.5 1678.04 848.5 1695.5 865.961 1695.5 887.5 1695.5 909.039 1678.04 926.5 1656.5 926.5 1634.96 926.5 1617.5 909.039 1617.5 887.5Z" stroke="#000000" stroke-width="4.58333" stroke-miterlimit="8" fill="#FFFFFF" fill-rule="evenodd"/><text font-family="Times,Times_MSFontService,sans-serif" font-weight="400" font-size="46" transform="matrix(1 0 0 1 1631.46 903)">H</text><text font-family="Times,Times_MSFontService,sans-serif" font-weight="400" font-size="31" transform="matrix(1 0 0 1 1664.69 913)">2</text><rect x="1732.5" y="940.5" width="123" height="286" stroke="#000000" stroke-width="4.58333" stroke-miterlimit="8" fill="#FFFFFF"/><rect x="1706.5" y="966.5" width="123" height="286" stroke="#000000" stroke-width="4.58333" stroke-miterlimit="8" fill="#FFFFFF"/><rect x="2460.5" y="712.5" width="361" height="46.9998" stroke="#D9D9D9" stroke-width="4.58333" stroke-miterlimit="8" fill="#D9D9D9"/><path d="M1602.5 901.5C1602.5 879.961 1619.96 862.5 1641.5 862.5 1663.04 862.5 1680.5 879.961 1680.5 901.5 1680.5 923.039 1663.04 940.5 1641.5 940.5 1619.96 940.5 1602.5 923.039 1602.5 901.5Z" stroke="#000000" stroke-width="4.58333" stroke-miterlimit="8" fill="#FFFFFF" fill-rule="evenodd"/><text font-family="Times,Times_MSFontService,sans-serif" font-weight="400" font-size="46" transform="matrix(1 0 0 1 1616.93 918)">H</text><text font-family="Times,Times_MSFontService,sans-serif" font-weight="400" font-size="31" transform="matrix(1 0 0 1 1650.16 928)">1</text><path d="M0-1.14583 235.03-1.14583 235.03 16.064 232.738 16.064 232.738 0 233.884 1.14583 0 1.14583ZM243.051 11.4807 233.884 38.9807 224.718 11.4807Z" transform="matrix(1.83697e-16 1 1 -1.83697e-16 1641 940)"/><path d="M1642.15 759 1642.15 840.032 1639.85 840.032 1639.85 759ZM1650.17 835.449 1641 862.949 1631.83 835.449Z"/><text font-family="Times,Times_MSFontService,sans-serif" font-weight="400" font-size="46" transform="matrix(1 0 0 1 1585.48 751)">PUD</text><text font-family="Times,Times_MSFontService,sans-serif" font-weight="400" font-size="46" transform="matrix(1 0 0 1 1677.15 751)">-</text><text font-family="Times,Times_MSFontService,sans-serif" font-weight="400" font-size="46" transform="matrix(1 0 0 1 1692.62 751)">VPN [47:30]</text><path d="M2564.5 913.5C2564.5 891.961 2599.42 874.5 2642.5 874.5 2685.58 874.5 2720.5 891.961 2720.5 913.5 2720.5 935.039 2685.58 952.5 2642.5 952.5 2599.42 952.5 2564.5 935.039 2564.5 913.5Z" stroke="#000000" stroke-width="4.58333" stroke-miterlimit="8" fill="#FFFFFF" fill-rule="evenodd"/><text font-family="Times,Times_MSFontService,sans-serif" font-weight="400" font-size="46" transform="matrix(1 0 0 1 2586.78 929)">Hash</text><text font-family="Times,Times_MSFontService,sans-serif" font-weight="400" font-size="31" transform="matrix(1 0 0 1 2681.31 939)">2</text><path d="M2798.5 913.5C2798.5 891.961 2833.42 874.5 2876.5 874.5 2919.58 874.5 2954.5 891.961 2954.5 913.5 2954.5 935.039 2919.58 952.5 2876.5 952.5 2833.42 952.5 2798.5 935.039 2798.5 913.5Z" stroke="#000000" stroke-width="4.58333" stroke-miterlimit="8" fill="#FFFFFF" fill-rule="evenodd"/><text font-family="Times,Times_MSFontService,sans-serif" font-weight="400" font-size="46" transform="matrix(1 0 0 1 2820.67 929)">Hash</text><text font-family="Times,Times_MSFontService,sans-serif" font-weight="400" font-size="31" transform="matrix(1 0 0 1 2915.2 939)">3</text><path d="M2643.15 762 2643.15 850.576 2640.85 850.576 2640.85 762ZM2651.17 845.993 2642 873.493 2632.83 845.993Z"/><path d="M2642.49 760.966 2855.69 862.598 2854.7 864.666 2641.51 763.034ZM2855 853.385 2875.88 873.493 2847.12 869.934Z"/><text font-family="Times,Times_MSFontService,sans-serif" font-weight="400" font-size="46" transform="matrix(1 0 0 1 2474.2 751)">PTE</text><text font-family="Times,Times_MSFontService,sans-serif" font-weight="400" font-size="46" transform="matrix(1 0 0 1 2555.56 751)">-</text><text font-family="Times,Times_MSFontService,sans-serif" font-weight="400" font-size="46" transform="matrix(1 0 0 1 2571.03 751)">VPN [47:12]</text><rect x="2694.5" y="1004.5" width="156" height="285" stroke="#000000" stroke-width="4.58333" stroke-miterlimit="8" fill="#FFFFFF"/><rect x="2694.5" y="1160.5" width="156" height="51.9999" stroke="#000000" stroke-width="4.58333" stroke-miterlimit="8" fill="#FFFFFF"/><text font-family="Times,Times_MSFontService,sans-serif" font-weight="400" font-size="50" transform="matrix(1 0 0 1 2723.02 1203)">Miss</text><rect x="2928.5" y="1004.5" width="156" height="285" stroke="#000000" stroke-width="4.58333" stroke-miterlimit="8" fill="#FFFFFF"/><rect x="1680.5" y="992.5" width="121" height="286" stroke="#000000" stroke-width="4.58333" stroke-miterlimit="8" fill="#FFFFFF"/><rect x="1680.5" y="1148.5" width="121" height="51.9999" stroke="#000000" stroke-width="4.58333" stroke-miterlimit="8" fill="#FFFFFF"/><text font-family="Times,Times_MSFontService,sans-serif" font-weight="400" font-size="50" transform="matrix(1 0 0 1 1691.81 1192)">Miss</text><rect x="3162.5" y="1004.5" width="155" height="285" stroke="#000000" stroke-width="4.58333" stroke-miterlimit="8" fill="#FFFFFF"/><rect x="3162.5" y="1108.5" width="155" height="51.9999" stroke="#000000" stroke-width="4.58333" stroke-miterlimit="8" fill="#D9D9D9"/><text font-family="Times,Times_MSFontService,sans-serif" font-weight="400" font-size="50" transform="matrix(1 0 0 1 3207.12 1151)">PA</text><text font-family="Times,Times_MSFontService,sans-serif" font-weight="400" font-size="48" transform="matrix(1 0 0 1 3158.13 1345)">Physical</text><text font-family="Times,Times_MSFontService,sans-serif" font-weight="400" font-size="48" transform="matrix(1 0 0 1 3192.78 1391)">Page</text><path d="M3084 1108 3102.96 1108 3102.96 1289.91" stroke="#000000" stroke-width="2.29167" stroke-miterlimit="8" fill="none" fill-rule="evenodd"/><path d="M3103 1287.85 3139.08 1287.85 3139.08 1290.15 3103 1290.15ZM3134.5 1279.83 3162 1289 3134.5 1298.17Z"/><text font-family="Times,Times_MSFontService,sans-serif" font-weight="400" font-size="46" transform="matrix(1 0 0 1 2970.86 751)">Page Offset [11:0]</text><path d="M0-1.14583 364.966-1.14583 364.966 17.5993 362.674 17.5993 362.674 0 363.82 1.14583 0 1.14583ZM372.987 13.0159 363.82 40.5159 354.653 13.0159Z" transform="matrix(1.83697e-16 1 1 -1.83697e-16 3121 770)"/><text font-family="Times,Times_MSFontService,sans-serif" font-weight="400" font-size="48" transform="matrix(1 0 0 1 1659.17 1413)">PUD (1GB)</text><text font-family="Times,Times_MSFontService,sans-serif" font-weight="400" font-size="48" transform="matrix(1 0 0 1 2708.41 1343)">Way 2</text><text font-family="Times,Times_MSFontService,sans-serif" font-weight="400" font-size="48" transform="matrix(1 0 0 1 2942.29 1343)">Way 3</text><text font-family="Times,Times_MSFontService,sans-serif" font-weight="400" font-size="48" transform="matrix(1 0 0 1 2661.43 1413)">PTE (4KB)</text><path d="M0-1.14583 235.03-1.14583 235.03 29.0576 232.738 29.0576 232.738 0 233.884 1.14583 0 1.14583ZM243.051 24.4743 233.884 51.9743 224.718 24.4743Z" transform="matrix(1.83697e-16 1 1 -1.83697e-16 2642 952)"/><path d="M0-1.14583 157.069-1.14583 157.069 29.0576 154.777 29.0576 154.777 0 155.923 1.14583 0 1.14583ZM165.09 24.4743 155.923 51.9743 146.756 24.4743Z" transform="matrix(1.83697e-16 1 1 -1.83697e-16 2876 952)"/><rect x="1846.5" y="536.5" width="1030" height="60.9998" stroke="#000000" stroke-width="4.58333" stroke-miterlimit="8" fill="#D9D9D9"/><text font-family="Times,Times_MSFontService,sans-serif" font-weight="400" font-size="55" transform="matrix(1 0 0 1 2203.13 586)">PTE VPN Tag</text><rect x="1635.5" y="536.5" width="211" height="60.9998" stroke="#000000" stroke-width="4.58333" stroke-miterlimit="8" fill="#FFFFFF"/><text font-family="Times,Times_MSFontService,sans-serif" font-weight="400" font-size="46" transform="matrix(1 0 0 1 1631.35 528)">63</text><text font-family="Times,Times_MSFontService,sans-serif" font-weight="400" font-size="46" transform="matrix(1 0 0 1 1789.81 528)">48</text><text font-family="Times,Times_MSFontService,sans-serif" font-weight="400" font-size="46" transform="matrix(1 0 0 1 1849.22 528)">47</text><text font-family="Times,Times_MSFontService,sans-serif" font-weight="400" font-size="46" transform="matrix(1 0 0 1 2826.71 528)">12</text><text font-family="Times,Times_MSFontService,sans-serif" font-weight="400" font-size="46" transform="matrix(1 0 0 1 2878.69 528)">11</text><text font-family="Times,Times_MSFontService,sans-serif" font-weight="400" font-size="46" transform="matrix(1 0 0 1 3274.45 528)">0</text><text font-family="Times,Times_MSFontService,sans-serif" font-weight="400" font-size="50" transform="matrix(1 0 0 1 2031.57 653)">Virtual Address (VA) of a 4KB Page</text><rect x="2876.5" y="536.5" width="415" height="60.9998" stroke="#000000" stroke-width="4.58333" stroke-miterlimit="8" fill="#FFFFFF"/><text font-family="Times,Times_MSFontService,sans-serif" font-weight="400" font-size="50" transform="matrix(1 0 0 1 2965.49 584)">Page Offset</text><path d="M2021.5 872.5C2021.5 850.961 2038.96 833.5 2060.5 833.5 2082.04 833.5 2099.5 850.961 2099.5 872.5 2099.5 894.039 2082.04 911.5 2060.5 911.5 2038.96 911.5 2021.5 894.039 2021.5 872.5Z" stroke="#000000" stroke-width="4.58333" stroke-miterlimit="8" fill="#FFFFFF" fill-rule="evenodd"/><text font-family="Times,Times_MSFontService,sans-serif" font-weight="400" font-size="46" transform="matrix(1 0 0 1 2035.79 889)">H</text><text font-family="Times,Times_MSFontService,sans-serif" font-weight="400" font-size="31" transform="matrix(1 0 0 1 2069.02 899)">3</text><path d="M2007.5 887.5C2007.5 865.961 2024.96 848.5 2046.5 848.5 2068.04 848.5 2085.5 865.961 2085.5 887.5 2085.5 909.039 2068.04 926.5 2046.5 926.5 2024.96 926.5 2007.5 909.039 2007.5 887.5Z" stroke="#000000" stroke-width="4.58333" stroke-miterlimit="8" fill="#FFFFFF" fill-rule="evenodd"/><text font-family="Times,Times_MSFontService,sans-serif" font-weight="400" font-size="46" transform="matrix(1 0 0 1 2021.26 903)">H</text><text font-family="Times,Times_MSFontService,sans-serif" font-weight="400" font-size="31" transform="matrix(1 0 0 1 2054.49 913)">2</text><rect x="2122.5" y="940.5" width="123" height="286" stroke="#000000" stroke-width="4.58333" stroke-miterlimit="8" fill="#FFFFFF"/><rect x="2096.5" y="966.5" width="123" height="286" stroke="#000000" stroke-width="4.58333" stroke-miterlimit="8" fill="#FFFFFF"/><path d="M1992.5 901.5C1992.5 879.961 2009.96 862.5 2031.5 862.5 2053.04 862.5 2070.5 879.961 2070.5 901.5 2070.5 923.039 2053.04 940.5 2031.5 940.5 2009.96 940.5 1992.5 923.039 1992.5 901.5Z" stroke="#000000" stroke-width="4.58333" stroke-miterlimit="8" fill="#FFFFFF" fill-rule="evenodd"/><text font-family="Times,Times_MSFontService,sans-serif" font-weight="400" font-size="46" transform="matrix(1 0 0 1 2006.73 918)">H</text><text font-family="Times,Times_MSFontService,sans-serif" font-weight="400" font-size="31" transform="matrix(1 0 0 1 2039.96 928)">1</text><path d="M0-1.14583 142.28-1.14583 142.28 16.064 139.989 16.064 139.989 0 141.135 1.14583 0 1.14583ZM150.301 11.4807 141.135 38.9807 131.968 11.4807Z" transform="matrix(1.83697e-16 1 1 -1.83697e-16 2031 940)"/><path d="M2032.15 759 2032.15 840.032 2029.85 840.032 2029.85 759ZM2040.17 835.449 2031 862.949 2021.83 835.449Z"/><text font-family="Times,Times_MSFontService,sans-serif" font-weight="400" font-size="46" transform="matrix(1 0 0 1 1971.57 751)">P</text><text font-family="Times,Times_MSFontService,sans-serif" font-weight="400" font-size="46" transform="matrix(1 0 0 1 1996.78 751)">M</text><text font-family="Times,Times_MSFontService,sans-serif" font-weight="400" font-size="46" transform="matrix(1 0 0 1 2037.45 751)">D</text><text font-family="Times,Times_MSFontService,sans-serif" font-weight="400" font-size="46" transform="matrix(1 0 0 1 2070.68 751)">-</text><text font-family="Times,Times_MSFontService,sans-serif" font-weight="400" font-size="46" transform="matrix(1 0 0 1 2086.15 751)">VPN [47:21]</text><rect x="2070.5" y="992.5" width="121" height="286" stroke="#000000" stroke-width="4.58333" stroke-miterlimit="8" fill="#FFFFFF"/><rect x="2070.5" y="1056.5" width="121" height="52.0002" stroke="#000000" stroke-width="4.58333" stroke-miterlimit="8" fill="#FFFFFF"/><text font-family="Times,Times_MSFontService,sans-serif" font-weight="400" font-size="50" transform="matrix(1 0 0 1 2081.62 1099)">Miss</text><text font-family="Times,Times_MSFontService,sans-serif" font-weight="400" font-size="48" transform="matrix(1 0 0 1 2040.95 1413)">PMD (2MB)</text><path d="M2330.5 913.5C2330.5 891.961 2365.42 874.5 2408.5 874.5 2451.58 874.5 2486.5 891.961 2486.5 913.5 2486.5 935.039 2451.58 952.5 2408.5 952.5 2365.42 952.5 2330.5 935.039 2330.5 913.5Z" stroke="#000000" stroke-width="4.58333" stroke-miterlimit="8" fill="#FFFFFF" fill-rule="evenodd"/><text font-family="Times,Times_MSFontService,sans-serif" font-weight="400" font-size="46" transform="matrix(1 0 0 1 2352.9 929)">Hash</text><text font-family="Times,Times_MSFontService,sans-serif" font-weight="400" font-size="31" transform="matrix(1 0 0 1 2447.43 939)">1</text><rect x="2460.5" y="1004.5" width="156" height="285" stroke="#000000" stroke-width="4.58333" stroke-miterlimit="8" fill="#FFFFFF"/><rect x="2460.5" y="1160.5" width="156" height="51.9999" stroke="#000000" stroke-width="4.58333" stroke-miterlimit="8" fill="#FFFFFF"/><text font-family="Times,Times_MSFontService,sans-serif" font-weight="400" font-size="50" transform="matrix(1 0 0 1 2489.13 1203)">Miss</text><text font-family="Times,Times_MSFontService,sans-serif" font-weight="400" font-size="48" transform="matrix(1 0 0 1 2474.53 1343)">Way 1</text><path d="M0-1.14583 235.03-1.14583 235.03 29.0576 232.738 29.0576 232.738 0 233.884 1.14583 0 1.14583ZM243.051 24.4743 233.884 51.9743 224.718 24.4743Z" transform="matrix(1.83697e-16 1 1 -1.83697e-16 2408 952)"/><path d="M0.493063-1.03432 213.691 100.597 212.705 102.666-0.493063 1.03432ZM213.005 91.3849 233.884 111.493 205.116 107.934Z" transform="matrix(-1 0 0 1 2641.88 762)"/><rect x="2928.5" y="1082.5" width="156" height="51.9999" stroke="#000000" stroke-width="4.58333" stroke-miterlimit="8" fill="#D9D9D9"/><text font-family="Times,Times_MSFontService,sans-serif" font-weight="400" font-size="50" transform="matrix(1 0 0 1 2973.52 1125)">Hit</text></g></svg>