<svg width="360" height="719" xmlns="http://www.w3.org/2000/svg" xmlns:xlink="http://www.w3.org/1999/xlink" xml:space="preserve" overflow="hidden"><defs><clipPath id="clip0"><rect x="2376" y="80" width="360" height="719"/></clipPath></defs><g clip-path="url(#clip0)" transform="translate(-2376 -80)"><rect x="2486.5" y="172.5" width="234" height="624" stroke="#000000" stroke-width="4.58333" stroke-miterlimit="8" fill="#FFFFFF"/><rect x="2486.5" y="354.5" width="234" height="52.0003" stroke="#000000" stroke-width="4.58333" stroke-miterlimit="8" fill="#FFC000" fill-opacity="0.501961"/><text font-family="Times,Times_MSFontService,sans-serif" font-weight="400" font-size="46" transform="matrix(1 0 0 1 2534.62 396)">Entry 7</text><rect x="2486.5" y="302.5" width="234" height="51.9999" stroke="#000000" stroke-width="4.58333" stroke-miterlimit="8" fill="#FFC000" fill-opacity="0.501961"/><text font-family="Times,Times_MSFontService,sans-serif" font-weight="400" font-size="46" transform="matrix(1 0 0 1 2579.88 333)">…</text><rect x="2486.5" y="250.5" width="234" height="51.9999" stroke="#000000" stroke-width="4.58333" stroke-miterlimit="8" fill="#FFC000" fill-opacity="0.501961"/><text font-family="Times,Times_MSFontService,sans-serif" font-weight="400" font-size="46" transform="matrix(1 0 0 1 2534.62 292)">Entry 0</text><rect x="2486.5" y="510.5" width="234" height="51.9999" stroke="#000000" stroke-width="4.58333" stroke-miterlimit="8" fill="#70AD47" fill-opacity="0.501961"/><text font-family="Times,Times_MSFontService,sans-serif" font-weight="400" font-size="46" transform="matrix(1 0 0 1 2541.78 552)">Empty</text><rect x="2486.5" y="458.5" width="234" height="51.9999" stroke="#000000" stroke-width="4.58333" stroke-miterlimit="8" fill="#70AD47" fill-opacity="0.501961"/><text font-family="Times,Times_MSFontService,sans-serif" font-weight="400" font-size="46" transform="matrix(1 0 0 1 2579.88 489)">…</text><rect x="2486.5" y="406.5" width="234" height="51.9999" stroke="#000000" stroke-width="4.58333" stroke-miterlimit="8" fill="#70AD47" fill-opacity="0.501961"/><text font-family="Times,Times_MSFontService,sans-serif" font-weight="400" font-size="46" transform="matrix(1 0 0 1 2541.78 448)">Empty</text><rect x="2486.5" y="666.5" width="234" height="51.9999" stroke="#000000" stroke-width="4.58333" stroke-miterlimit="8" fill="#5B9BD5" fill-opacity="0.501961"/><text font-family="Times,Times_MSFontService,sans-serif" font-weight="400" font-size="46" transform="matrix(1 0 0 1 2523.17 708)">Entry 39</text><rect x="2486.5" y="614.5" width="234" height="51.9999" stroke="#000000" stroke-width="4.58333" stroke-miterlimit="8" fill="#5B9BD5" fill-opacity="0.501961"/><text font-family="Times,Times_MSFontService,sans-serif" font-weight="400" font-size="46" transform="matrix(1 0 0 1 2579.88 645)">…</text><rect x="2486.5" y="562.5" width="234" height="52.0002" stroke="#000000" stroke-width="4.58333" stroke-miterlimit="8" fill="#5B9BD5" fill-opacity="0.501961"/><text font-family="Times,Times_MSFontService,sans-serif" font-weight="400" font-size="46" transform="matrix(1 0 0 1 2523.17 604)">Entry 32</text><path d="M2460 406C2452.82 406 2447 397.27 2447 386.5L2447 347.5C2447 336.73 2441.18 328 2434 328 2441.18 328 2447 319.27 2447 308.5L2447 269.5C2447 258.73 2452.82 250 2460 250" stroke="#000000" stroke-width="2.29167" stroke-miterlimit="8" fill="none" fill-rule="evenodd"/><text font-family="Times,Times_MSFontService,sans-serif" font-weight="400" font-size="37" transform="matrix(-1.83697e-16 -1 1 -1.83697e-16 2422.46 395)">Cluster 1</text><path d="M2460 562C2452.82 562 2447 553.27 2447 542.5L2447 503.5C2447 492.73 2441.18 484 2434 484 2441.18 484 2447 475.27 2447 464.5L2447 425.5C2447 414.73 2452.82 406 2460 406" stroke="#000000" stroke-width="2.29167" stroke-miterlimit="8" fill="none" fill-rule="evenodd"/><text font-family="Times,Times_MSFontService,sans-serif" font-weight="400" font-size="37" transform="matrix(-1.83697e-16 -1 1 -1.83697e-16 2422.46 551)">Cluster 2</text><path d="M2460 718C2452.82 718 2447 709.27 2447 698.5L2447 659.5C2447 648.731 2441.18 640 2434 640 2441.18 640 2447 631.27 2447 620.5L2447 581.5C2447 570.731 2452.82 562 2460 562" stroke="#000000" stroke-width="2.29167" stroke-miterlimit="8" fill="none" fill-rule="evenodd"/><text font-family="Times,Times_MSFontService,sans-serif" font-weight="400" font-size="37" transform="matrix(-1.83697e-16 -1 1 -1.83697e-16 2422.46 707)">Cluster 3</text><text font-family="Times,Times_MSFontService,sans-serif" font-weight="400" font-size="46" transform="matrix(1 0 0 1 2497.67 138)">ECPT Way</text></g></svg>