<svg width="2073" height="776" xmlns="http://www.w3.org/2000/svg" xmlns:xlink="http://www.w3.org/1999/xlink" xml:space="preserve" overflow="hidden"><defs><clipPath id="clip0"><rect x="2247" y="158" width="2073" height="776"/></clipPath></defs><g clip-path="url(#clip0)" transform="translate(-2247 -158)"><rect x="2382.5" y="484.5" width="182" height="286" stroke="#000000" stroke-width="4.58333" stroke-miterlimit="8" fill="#FFFFFF"/><path d="M2252.5 393.5C2252.5 371.961 2287.42 354.5 2330.5 354.5 2373.58 354.5 2408.5 371.961 2408.5 393.5 2408.5 415.039 2373.58 432.5 2330.5 432.5 2287.42 432.5 2252.5 415.039 2252.5 393.5Z" stroke="#000000" stroke-width="4.58333" stroke-miterlimit="8" fill="#FFFFFF" fill-rule="evenodd"/><text font-family="Times,Times_MSFontService,sans-serif" font-weight="400" font-size="46" transform="matrix(1 0 0 1 2274.94 409)">Hash</text><text font-family="Times,Times_MSFontService,sans-serif" font-weight="400" font-size="31" transform="matrix(1 0 0 1 2369.47 419)">1</text><path d="M2538.5 393.5C2538.5 371.961 2573.42 354.5 2616.5 354.5 2659.58 354.5 2694.5 371.961 2694.5 393.5 2694.5 415.039 2659.58 432.5 2616.5 432.5 2573.42 432.5 2538.5 415.039 2538.5 393.5Z" stroke="#000000" stroke-width="4.58333" stroke-miterlimit="8" fill="#FFFFFF" fill-rule="evenodd"/><text font-family="Times,Times_MSFontService,sans-serif" font-weight="400" font-size="46" transform="matrix(1 0 0 1 2560.79 409)">Hash</text><text font-family="Times,Times_MSFontService,sans-serif" font-weight="400" font-size="31" transform="matrix(1 0 0 1 2655.33 419)">2</text><rect x="2668.5" y="484.5" width="182" height="286" stroke="#000000" stroke-width="4.58333" stroke-miterlimit="8" fill="#FFFFFF"/><path d="M0-1.14583 235.03-1.14583 235.03 29.0576 232.738 29.0576 232.738 0 233.884 1.14583 0 1.14583ZM247.634 24.4743 233.884 51.9743 220.134 24.4743Z" transform="matrix(1.83697e-16 1 1 -1.83697e-16 2330 432)"/><path d="M0-1.14583 157.069-1.14583 157.069 29.0576 154.777 29.0576 154.777 0 155.923 1.14583 0 1.14583ZM169.673 24.4743 155.923 51.9743 142.173 24.4743Z" transform="matrix(1.83697e-16 1 1 -1.83697e-16 2616 432)"/><path d="M0.512432-1.02486 135.938 66.6879 134.913 68.7376-0.512432 1.02486ZM137.475 53.3647 155.923 77.9614 125.177 77.9614Z" transform="matrix(-1 0 0 1 2485.92 276)"/><path d="M2486.59 275.017 2596.87 341.188 2595.7 343.153 2485.41 276.983ZM2599.43 328.022 2615.94 353.961 2585.28 351.603Z"/><text font-family="Times,Times_MSFontService,sans-serif" font-weight="400" font-size="46" transform="matrix(1 0 0 1 2346.93 216)">PUD VPN Tag</text><text font-family="Times,Times_MSFontService,sans-serif" font-weight="400" font-size="46" transform="matrix(1 0 0 1 2385.01 271)">VA[47:30]</text><rect x="2954.5" y="484.5" width="182" height="286" stroke="#000000" stroke-width="4.58333" stroke-miterlimit="8" fill="#FFFFFF"/><path d="M2824.5 393.5C2824.5 371.961 2859.42 354.5 2902.5 354.5 2945.58 354.5 2980.5 371.961 2980.5 393.5 2980.5 415.039 2945.58 432.5 2902.5 432.5 2859.42 432.5 2824.5 415.039 2824.5 393.5Z" stroke="#000000" stroke-width="4.58333" stroke-miterlimit="8" fill="#FFFFFF" fill-rule="evenodd"/><text font-family="Times,Times_MSFontService,sans-serif" font-weight="400" font-size="46" transform="matrix(1 0 0 1 2846.65 409)">Hash</text><text font-family="Times,Times_MSFontService,sans-serif" font-weight="400" font-size="31" transform="matrix(1 0 0 1 2941.18 419)">1</text><path d="M3110.5 393.5C3110.5 371.961 3145.2 354.5 3188 354.5 3230.8 354.5 3265.5 371.961 3265.5 393.5 3265.5 415.039 3230.8 432.5 3188 432.5 3145.2 432.5 3110.5 415.039 3110.5 393.5Z" stroke="#000000" stroke-width="4.58333" stroke-miterlimit="8" fill="#FFFFFF" fill-rule="evenodd"/><text font-family="Times,Times_MSFontService,sans-serif" font-weight="400" font-size="46" transform="matrix(1 0 0 1 3132.51 409)">Hash</text><text font-family="Times,Times_MSFontService,sans-serif" font-weight="400" font-size="31" transform="matrix(1 0 0 1 3227.04 419)">2</text><rect x="3239.5" y="484.5" width="182" height="286" stroke="#000000" stroke-width="4.58333" stroke-miterlimit="8" fill="#FFFFFF"/><rect x="3239.5" y="562.5" width="182" height="52.0002" stroke="#000000" stroke-width="4.58333" stroke-miterlimit="8" fill="#FFFFFF"/><text font-family="Times,Times_MSFontService,sans-serif" font-weight="400" font-size="50" transform="matrix(1 0 0 1 3281.74 606)">Miss</text><path d="M0-1.14583 218.926-1.14583 218.926 29.0576 216.634 29.0576 216.634 0 217.78 1.14583 0 1.14583ZM231.53 24.4743 217.78 51.9743 204.03 24.4743Z" transform="matrix(1.83697e-16 1 1 -1.83697e-16 2902 432)"/><path d="M0-1.14583 157.069-1.14583 157.069 29.0576 154.777 29.0576 154.777 0 155.923 1.14583 0 1.14583ZM169.673 24.4743 155.923 51.9743 142.173 24.4743Z" transform="matrix(1.83697e-16 1 1 -1.83697e-16 3188 432)"/><path d="M0.512432-1.02486 135.938 66.6879 134.913 68.7376-0.512432 1.02486ZM137.475 53.3647 155.923 77.9614 125.177 77.9614Z" transform="matrix(-1 0 0 1 3057.92 276)"/><path d="M3058.59 275.017 3168.87 341.188 3167.7 343.153 3057.41 276.983ZM3171.43 328.022 3187.94 353.961 3157.28 351.603Z"/><text font-family="Times,Times_MSFontService,sans-serif" font-weight="400" font-size="46" transform="matrix(1 0 0 1 2914.92 216)">PMD VPN Tag</text><text font-family="Times,Times_MSFontService,sans-serif" font-weight="400" font-size="46" transform="matrix(1 0 0 1 2956.74 271)">VA[47:21]</text><rect x="3525.5" y="484.5" width="182" height="286" stroke="#000000" stroke-width="4.58333" stroke-miterlimit="8" fill="#FFFFFF"/><path d="M3395.5 393.5C3395.5 371.961 3430.42 354.5 3473.5 354.5 3516.58 354.5 3551.5 371.961 3551.5 393.5 3551.5 415.039 3516.58 432.5 3473.5 432.5 3430.42 432.5 3395.5 415.039 3395.5 393.5Z" stroke="#000000" stroke-width="4.58333" stroke-miterlimit="8" fill="#FFFFFF" fill-rule="evenodd"/><text font-family="Times,Times_MSFontService,sans-serif" font-weight="400" font-size="46" transform="matrix(1 0 0 1 3418.37 409)">Hash</text><text font-family="Times,Times_MSFontService,sans-serif" font-weight="400" font-size="31" transform="matrix(1 0 0 1 3512.9 419)">1</text><path d="M3681.5 393.5C3681.5 371.961 3716.42 354.5 3759.5 354.5 3802.58 354.5 3837.5 371.961 3837.5 393.5 3837.5 415.039 3802.58 432.5 3759.5 432.5 3716.42 432.5 3681.5 415.039 3681.5 393.5Z" stroke="#000000" stroke-width="4.58333" stroke-miterlimit="8" fill="#FFFFFF" fill-rule="evenodd"/><text font-family="Times,Times_MSFontService,sans-serif" font-weight="400" font-size="46" transform="matrix(1 0 0 1 3704.23 409)">Hash</text><text font-family="Times,Times_MSFontService,sans-serif" font-weight="400" font-size="31" transform="matrix(1 0 0 1 3798.76 419)">2</text><rect x="3811.5" y="484.5" width="182" height="286" stroke="#000000" stroke-width="4.58333" stroke-miterlimit="8" fill="#FFFFFF"/><path d="M0-1.14583 235.03-1.14583 235.03 29.0576 232.738 29.0576 232.738 0 233.884 1.14583 0 1.14583ZM247.634 24.4743 233.884 51.9743 220.134 24.4743Z" transform="matrix(1.83697e-16 1 1 -1.83697e-16 3473 432)"/><path d="M0-1.14583 157.069-1.14583 157.069 29.0576 154.777 29.0576 154.777 0 155.923 1.14583 0 1.14583ZM169.673 24.4743 155.923 51.9743 142.173 24.4743Z" transform="matrix(1.83697e-16 1 1 -1.83697e-16 3759 432)"/><path d="M0.512432-1.02486 135.938 66.6879 134.913 68.7376-0.512432 1.02486ZM137.475 53.3647 155.923 77.9614 125.177 77.9614Z" transform="matrix(-1 0 0 1 3628.92 276)"/><path d="M3629.59 275.017 3739.87 341.188 3738.7 343.153 3628.41 276.983ZM3742.43 328.022 3758.94 353.961 3728.28 351.603Z"/><text font-family="Times,Times_MSFontService,sans-serif" font-weight="400" font-size="46" transform="matrix(1 0 0 1 3495.52 216)">PTE VPN Tag</text><text font-family="Times,Times_MSFontService,sans-serif" font-weight="400" font-size="46" transform="matrix(1 0 0 1 3528.45 271)">VA[47:12]</text><text font-family="Times,Times_MSFontService,sans-serif" font-weight="400" font-size="46" transform="matrix(1 0 0 1 2414.13 840)">Way 1              Way 2</text><text font-family="Times,Times_MSFontService,sans-serif" font-weight="400" font-size="46" transform="matrix(1 0 0 1 2505.5 895)">PUD (1</text><text font-family="Times,Times_MSFontService,sans-serif" font-weight="400" font-size="46" transform="matrix(1 0 0 1 2647.01 895)">G</text><text font-family="Times,Times_MSFontService,sans-serif" font-weight="400" font-size="46" transform="matrix(1 0 0 1 2680.24 895)">B)</text><text font-family="Times,Times_MSFontService,sans-serif" font-weight="400" font-size="46" transform="matrix(1 0 0 1 2985.84 840)">Way 1              Way 2</text><text font-family="Times,Times_MSFontService,sans-serif" font-weight="400" font-size="46" transform="matrix(1 0 0 1 3069.77 895)">PMD (2MB)</text><text font-family="Times,Times_MSFontService,sans-serif" font-weight="400" font-size="46" transform="matrix(1 0 0 1 3557.56 840)">Way 1              Way 2</text><text font-family="Times,Times_MSFontService,sans-serif" font-weight="400" font-size="46" transform="matrix(1 0 0 1 3654.09 895)">PTE (4KB)</text><rect x="3525.5" y="640.5" width="182" height="52.0002" stroke="#000000" stroke-width="4.58333" stroke-miterlimit="8" fill="#FFFFFF"/><text font-family="Times,Times_MSFontService,sans-serif" font-weight="400" font-size="50" transform="matrix(1 0 0 1 3567.6 684)">Miss</text><rect x="3811.5" y="562.5" width="182" height="52.0002" stroke="#000000" stroke-width="4.58333" stroke-miterlimit="8" fill="#FFFFFF"/><text font-family="Times,Times_MSFontService,sans-serif" font-weight="400" font-size="50" transform="matrix(1 0 0 1 3870.07 606)">Hit</text><rect x="2382.5" y="640.5" width="182" height="52.0002" stroke="#000000" stroke-width="4.58333" stroke-miterlimit="8" fill="#FFFFFF"/><text font-family="Times,Times_MSFontService,sans-serif" font-weight="400" font-size="50" transform="matrix(1 0 0 1 2424.17 684)">Miss</text><rect x="2668.5" y="562.5" width="182" height="52.0002" stroke="#000000" stroke-width="4.58333" stroke-miterlimit="8" fill="#FFFFFF"/><text font-family="Times,Times_MSFontService,sans-serif" font-weight="400" font-size="50" transform="matrix(1 0 0 1 2710.03 606)">Miss</text><rect x="2954.5" y="640.5" width="182" height="52.0002" stroke="#000000" stroke-width="4.58333" stroke-miterlimit="8" fill="#FFFFFF"/><text font-family="Times,Times_MSFontService,sans-serif" font-weight="400" font-size="50" transform="matrix(1 0 0 1 2995.88 684)">Miss</text><rect x="4123.5" y="484.5" width="182" height="291" stroke="#000000" stroke-width="4.58333" stroke-miterlimit="8" fill="#FFFFFF"/><rect x="4123.5" y="588.5" width="182" height="51.9999" stroke="#000000" stroke-width="4.58333" stroke-miterlimit="8" fill="#FFFFFF"/><text font-family="Times,Times_MSFontService,sans-serif" font-weight="400" font-size="50" transform="matrix(1 0 0 1 4181.63 632)">PA</text><text font-family="Times,Times_MSFontService,sans-serif" font-weight="400" font-size="46" transform="matrix(1 0 0 1 4136.37 840)">Physical</text><text font-family="Times,Times_MSFontService,sans-serif" font-weight="400" font-size="46" transform="matrix(1 0 0 1 4169.3 895)">Page</text><path d="M3993 588 4044.97 588 4044.97 769.91" stroke="#000000" stroke-width="2.29167" stroke-miterlimit="8" fill="none" fill-rule="evenodd"/><path d="M4045 768.854 4100.04 768.854 4100.04 771.146 4045 771.146ZM4095.46 756.25 4122.96 770 4095.46 783.75Z"/><text font-family="Times,Times_MSFontService,sans-serif" font-weight="400" font-size="46" transform="matrix(1 0 0 1 3963.08 216)">Page Offset</text><text font-family="Times,Times_MSFontService,sans-serif" font-weight="400" font-size="46" transform="matrix(1 0 0 1 3981.69 271)">VA[12:0]</text><text font-family="Times,Times_MSFontService,sans-serif" font-weight="400" font-size="46" transform="matrix(1 0 0 1 3869.12 326)">(Page size dependent)</text><path d="M0-1.14583 276.316-1.14583 276.316 29.0576 274.024 29.0576 274.024 0 275.17 1.14583 0 1.14583ZM288.92 24.4743 275.17 51.9743 261.42 24.4743Z" transform="matrix(1.83697e-16 1 1 -1.83697e-16 4071 339)"/></g></svg>