<svg width="1803" height="769" xmlns="http://www.w3.org/2000/svg" xmlns:xlink="http://www.w3.org/1999/xlink" xml:space="preserve" overflow="hidden"><defs><clipPath id="clip0"><rect x="64" y="28" width="1803" height="769"/></clipPath></defs><g clip-path="url(#clip0)" transform="translate(-64 -28)"><text font-family="Times,Times_MSFontService,sans-serif" font-weight="400" font-size="46" transform="matrix(1 0 0 1 374.768 86)">Before Rehash</text><rect x="303.5" y="250.5" width="182" height="312" stroke="#000000" stroke-width="4.58333" stroke-miterlimit="8" fill="#FFFFFF"/><rect x="303.5" y="250.5" width="182" height="51.9999" stroke="#000000" stroke-width="4.58333" stroke-miterlimit="8" fill="#FFFFFF"/><text font-family="Times,Times_MSFontService,sans-serif" font-weight="400" font-size="46" transform="matrix(1 0 0 1 325.717 292)">Entry 1</text><rect x="303.5" y="302.5" width="182" height="51.9999" stroke="#000000" stroke-width="4.58333" stroke-miterlimit="8" fill="#FFFFFF"/><rect x="303.5" y="458.5" width="182" height="51.9999" stroke="#000000" stroke-width="4.58333" stroke-miterlimit="8" fill="#FFFFFF"/><rect x="303.5" y="510.5" width="182" height="51.9999" stroke="#000000" stroke-width="4.58333" stroke-miterlimit="8" fill="#FFFFFF"/><rect x="537.5" y="250.5" width="182" height="312" stroke="#000000" stroke-width="4.58333" stroke-miterlimit="8" fill="#FFFFFF"/><rect x="537.5" y="250.5" width="182" height="51.9999" stroke="#000000" stroke-width="4.58333" stroke-miterlimit="8" fill="#FFFFFF"/><rect x="537.5" y="406.5" width="182" height="51.9999" stroke="#000000" stroke-width="4.58333" stroke-miterlimit="8" fill="#FFFFFF"/><text font-family="Times,Times_MSFontService,sans-serif" font-weight="400" font-size="46" transform="matrix(1 0 0 1 333.165 216)">Way</text><text font-family="Times,Times_MSFontService,sans-serif" font-weight="400" font-size="46" transform="matrix(1 0 0 1 431.706 216)">1</text><text font-family="Times,Times_MSFontService,sans-serif" font-weight="400" font-size="46" transform="matrix(1 0 0 1 567.049 216)">Way</text><text font-family="Times,Times_MSFontService,sans-serif" font-weight="400" font-size="46" transform="matrix(1 0 0 1 665.591 216)">2</text><path d="M251.003 274.854 280.06 274.924 280.055 277.216 250.997 277.146ZM275.508 262.309 302.974 276.126 275.441 289.809Z"/><text font-family="Times,Times_MSFontService,sans-serif" font-weight="400" font-size="46" transform="matrix(1 0 0 1 92.4054 264)">Rehash</text><text font-family="Times,Times_MSFontService,sans-serif" font-weight="400" font-size="46" transform="matrix(1 0 0 1 93.8492 319)">Pointer</text><path d="M7.95629e-06-1.14583 29.0576-1.14563 29.0576 1.14604-7.95629e-06 1.14583ZM24.4744-13.7498 51.9743 0.000360892 24.4742 13.7502Z" transform="matrix(-1 0 0 1 770.974 276)"/><path d="M823 68.0001 823 795.64" stroke="#000000" stroke-width="2.29167" stroke-miterlimit="8" stroke-dasharray="9.16667 6.875" fill="none" fill-rule="evenodd"/><text font-family="Times,Times_MSFontService,sans-serif" font-weight="400" font-size="46" transform="matrix(1 0 0 1 1272.37 86)">After Rehash</text><rect x="927.5" y="250.5" width="182" height="312" stroke="#000000" stroke-width="4.58333" stroke-miterlimit="8" fill="#FFFFFF"/><rect x="927.5" y="250.5" width="182" height="51.9999" stroke="#000000" stroke-width="4.58333" stroke-miterlimit="8" fill="#BFBFBF"/><text font-family="Times,Times_MSFontService,sans-serif" font-weight="400" font-size="46" transform="matrix(1 0 0 1 952.559 292)">Moved</text><rect x="927.5" y="458.5" width="182" height="51.9999" stroke="#000000" stroke-width="4.58333" stroke-miterlimit="8" fill="#FFFFFF"/><rect x="927.5" y="510.5" width="182" height="51.9999" stroke="#000000" stroke-width="4.58333" stroke-miterlimit="8" fill="#FFFFFF"/><rect x="1161.5" y="250.5" width="181" height="312" stroke="#000000" stroke-width="4.58333" stroke-miterlimit="8" fill="#FFFFFF"/><rect x="1161.5" y="406.5" width="181" height="51.9999" stroke="#000000" stroke-width="4.58333" stroke-miterlimit="8" fill="#FFFFFF"/><text font-family="Times,Times_MSFontService,sans-serif" font-weight="400" font-size="46" transform="matrix(1 0 0 1 983.21 164)">Old</text><text font-family="Times,Times_MSFontService,sans-serif" font-weight="400" font-size="46" transform="matrix(1 0 0 1 956.856 219)">Way 1</text><text font-family="Times,Times_MSFontService,sans-serif" font-weight="400" font-size="46" transform="matrix(1 0 0 1 1217.09 164)">Old</text><text font-family="Times,Times_MSFontService,sans-serif" font-weight="400" font-size="46" transform="matrix(1 0 0 1 1190.74 219)">Way 2</text><path d="M875.003 426.854 904.06 426.924 904.055 429.216 874.997 429.146ZM899.507 414.309 926.974 428.126 899.441 441.809Z"/><path d="M7.95629e-06-1.14583 29.0576-1.14563 29.0576 1.14604-7.95629e-06 1.14583ZM24.4744-13.7498 51.9743 0.000360892 24.4742 13.7502Z" transform="matrix(-1 0 0 1 1393.97 432)"/><rect x="1446.5" y="250.5" width="182" height="520" stroke="#000000" stroke-width="4.58333" stroke-miterlimit="8" fill="#FFFFFF"/><rect x="1446.5" y="250.5" width="182" height="51.9999" stroke="#000000" stroke-width="4.58333" stroke-miterlimit="8" fill="#FFFFFF"/><rect x="1446.5" y="302.5" width="182" height="51.9999" stroke="#000000" stroke-width="4.58333" stroke-miterlimit="8" fill="#FFFFFF"/><rect x="1446.5" y="458.5" width="182" height="51.9999" stroke="#000000" stroke-width="4.58333" stroke-miterlimit="8" fill="#FFFFFF"/><text font-family="Times,Times_MSFontService,sans-serif" font-weight="400" font-size="46" transform="matrix(1 0 0 1 1493.79 164)">New </text><text font-family="Times,Times_MSFontService,sans-serif" font-weight="400" font-size="46" transform="matrix(1 0 0 1 1476.6 219)">Way 1</text><text font-family="Times,Times_MSFontService,sans-serif" font-weight="400" font-size="46" transform="matrix(1 0 0 1 1727.67 164)">Ne</text><text font-family="Times,Times_MSFontService,sans-serif" font-weight="400" font-size="46" transform="matrix(1 0 0 1 1781.52 164)">w</text><text font-family="Times,Times_MSFontService,sans-serif" font-weight="400" font-size="46" transform="matrix(1 0 0 1 1710.48 219)">Way 2</text><rect x="303.5" y="354.5" width="182" height="52.0003" stroke="#000000" stroke-width="4.58333" stroke-miterlimit="8" fill="#FFFFFF"/><text font-family="Times,Times_MSFontService,sans-serif" font-weight="400" font-size="46" transform="matrix(1 0 0 1 325.717 396)">Entry 2</text><rect x="303.5" y="406.5" width="182" height="51.9999" stroke="#000000" stroke-width="4.58333" stroke-miterlimit="8" fill="#FFFFFF"/><text font-family="Times,Times_MSFontService,sans-serif" font-weight="400" font-size="46" transform="matrix(1 0 0 1 325.717 448)">Entry 3</text><rect x="537.5" y="302.5" width="182" height="51.9999" stroke="#000000" stroke-width="4.58333" stroke-miterlimit="8" fill="#FFFFFF"/><text font-family="Times,Times_MSFontService,sans-serif" font-weight="400" font-size="46" transform="matrix(1 0 0 1 559.601 344)">Entry 4</text><rect x="537.5" y="354.5" width="182" height="52.0003" stroke="#000000" stroke-width="4.58333" stroke-miterlimit="8" fill="#FFFFFF"/><text font-family="Times,Times_MSFontService,sans-serif" font-weight="400" font-size="46" transform="matrix(1 0 0 1 559.601 396)">Entry 5</text><rect x="537.5" y="458.5" width="182" height="51.9999" stroke="#000000" stroke-width="4.58333" stroke-miterlimit="8" fill="#FFFFFF"/><text font-family="Times,Times_MSFontService,sans-serif" font-weight="400" font-size="46" transform="matrix(1 0 0 1 559.601 500)">Entry 6</text><rect x="537.5" y="510.5" width="182" height="51.9999" stroke="#000000" stroke-width="4.58333" stroke-miterlimit="8" fill="#FFFFFF"/><text font-family="Times,Times_MSFontService,sans-serif" font-weight="400" font-size="46" transform="matrix(1 0 0 1 559.601 552)">Entry 7</text><rect x="1446.5" y="302.5" width="182" height="51.9999" stroke="#000000" stroke-width="4.58333" stroke-miterlimit="8" fill="#FFFFFF"/><text font-family="Times,Times_MSFontService,sans-serif" font-weight="400" font-size="46" transform="matrix(1 0 0 1 1469.15 344)">Entry 2</text><rect x="927.5" y="406.5" width="182" height="51.9999" stroke="#000000" stroke-width="4.58333" stroke-miterlimit="8" fill="#FFFFFF"/><text font-family="Times,Times_MSFontService,sans-serif" font-weight="400" font-size="46" transform="matrix(1 0 0 1 949.408 448)">Entry 3</text><rect x="1161.5" y="458.5" width="181" height="51.9999" stroke="#000000" stroke-width="4.58333" stroke-miterlimit="8" fill="#FFFFFF"/><text font-family="Times,Times_MSFontService,sans-serif" font-weight="400" font-size="46" transform="matrix(1 0 0 1 1183.29 500)">Entry 6</text><rect x="1161.5" y="510.5" width="181" height="51.9999" stroke="#000000" stroke-width="4.58333" stroke-miterlimit="8" fill="#FFFFFF"/><text font-family="Times,Times_MSFontService,sans-serif" font-weight="400" font-size="46" transform="matrix(1 0 0 1 1183.29 552)">Entry 7</text><rect x="1446.5" y="510.5" width="182" height="51.9999" stroke="#000000" stroke-width="4.58333" stroke-miterlimit="8" fill="#FFFFFF"/><rect x="1446.5" y="562.5" width="182" height="52.0002" stroke="#000000" stroke-width="4.58333" stroke-miterlimit="8" fill="#FFFFFF"/><rect x="1446.5" y="718.5" width="182" height="51.9999" stroke="#000000" stroke-width="4.58333" stroke-miterlimit="8" fill="#FFFFFF"/><rect x="1446.5" y="666.5" width="182" height="51.9999" stroke="#000000" stroke-width="4.58333" stroke-miterlimit="8" fill="#FFFFFF"/><rect x="1680.5" y="250.5" width="182" height="520" stroke="#000000" stroke-width="4.58333" stroke-miterlimit="8" fill="#FFFFFF"/><rect x="1680.5" y="250.5" width="182" height="51.9999" stroke="#000000" stroke-width="4.58333" stroke-miterlimit="8" fill="#FFFFFF"/><rect x="1680.5" y="302.5" width="182" height="51.9999" stroke="#000000" stroke-width="4.58333" stroke-miterlimit="8" fill="#FFFFFF"/><rect x="1446.5" y="614.5" width="182" height="51.9999" stroke="#000000" stroke-width="4.58333" stroke-miterlimit="8" fill="#FFFFFF"/><text font-family="Times,Times_MSFontService,sans-serif" font-weight="400" font-size="46" transform="matrix(1 0 0 1 1469.15 656)">Entry 4</text><rect x="1680.5" y="510.5" width="182" height="51.9999" stroke="#000000" stroke-width="4.58333" stroke-miterlimit="8" fill="#FFFFFF"/><rect x="1680.5" y="562.5" width="182" height="52.0002" stroke="#000000" stroke-width="4.58333" stroke-miterlimit="8" fill="#FFFFFF"/><rect x="1680.5" y="718.5" width="182" height="51.9999" stroke="#000000" stroke-width="4.58333" stroke-miterlimit="8" fill="#FFFFFF"/><rect x="1680.5" y="614.5" width="182" height="51.9999" stroke="#000000" stroke-width="4.58333" stroke-miterlimit="8" fill="#FFFFFF"/><rect x="1680.5" y="666.5" width="182" height="51.9999" stroke="#000000" stroke-width="4.58333" stroke-miterlimit="8" fill="#FFFFFF"/><rect x="927.5" y="302.5" width="182" height="51.9999" stroke="#000000" stroke-width="4.58333" stroke-miterlimit="8" fill="#BFBFBF"/><text font-family="Times,Times_MSFontService,sans-serif" font-weight="400" font-size="46" transform="matrix(1 0 0 1 952.559 344)">Moved</text><rect x="1161.5" y="250.5" width="181" height="51.9999" stroke="#000000" stroke-width="4.58333" stroke-miterlimit="8" fill="#BFBFBF"/><text font-family="Times,Times_MSFontService,sans-serif" font-weight="400" font-size="46" transform="matrix(1 0 0 1 1186.44 292)">Moved</text><rect x="1161.5" y="302.5" width="181" height="51.9999" stroke="#000000" stroke-width="4.58333" stroke-miterlimit="8" fill="#BFBFBF"/><text font-family="Times,Times_MSFontService,sans-serif" font-weight="400" font-size="46" transform="matrix(1 0 0 1 1186.44 344)">Moved</text><rect x="1680.5" y="406.5" width="182" height="51.9999" stroke="#000000" stroke-width="4.58333" stroke-miterlimit="8" fill="#FFFFFF"/><rect x="1446.5" y="354.5" width="182" height="52.0003" stroke="#000000" stroke-width="4.58333" stroke-miterlimit="8" fill="#FFFFFF"/><rect x="1680.5" y="354.5" width="182" height="52.0003" stroke="#000000" stroke-width="4.58333" stroke-miterlimit="8" fill="#FFFFFF"/><text font-family="Times,Times_MSFontService,sans-serif" font-weight="400" font-size="46" transform="matrix(1 0 0 1 1703.03 396)">Entry 1</text><rect x="1680.5" y="458.5" width="182" height="51.9999" stroke="#000000" stroke-width="4.58333" stroke-miterlimit="8" fill="#FFFFFF"/><text font-family="Times,Times_MSFontService,sans-serif" font-weight="400" font-size="46" transform="matrix(1 0 0 1 1703.03 500)">Entry 5</text><rect x="927.5" y="354.5" width="182" height="52.0003" stroke="#000000" stroke-width="4.58333" stroke-miterlimit="8" fill="#BFBFBF"/><text font-family="Times,Times_MSFontService,sans-serif" font-weight="400" font-size="46" transform="matrix(1 0 0 1 952.559 396)">Moved</text><rect x="1161.5" y="354.5" width="181" height="52.0003" stroke="#000000" stroke-width="4.58333" stroke-miterlimit="8" fill="#BFBFBF"/><text font-family="Times,Times_MSFontService,sans-serif" font-weight="400" font-size="46" transform="matrix(1 0 0 1 1186.44 396)">Moved</text></g></svg>