<svg width="2692" height="1339" xmlns="http://www.w3.org/2000/svg" xmlns:xlink="http://www.w3.org/1999/xlink" xml:space="preserve" overflow="hidden"><g transform="translate(-99 -278)"><text font-family="Consolas,Consolas_MSFontService,sans-serif" font-weight="700" font-size="73" transform="matrix(1 0 0 1 143 425)">void </text><text font-family="Consolas,Consolas_MSFontService,sans-serif" font-weight="700" font-size="73" transform="matrix(1 0 0 1 343.521 425)">walk</text><text font-family="Consolas,Consolas_MSFontService,sans-serif" font-weight="700" font-size="73" transform="matrix(1 0 0 1 503.937 425)">_</text><text font-family="Consolas,Consolas_MSFontService,sans-serif" font-weight="700" font-size="73" transform="matrix(1 0 0 1 544.042 425)">addr</text><text font-family="Consolas,Consolas_MSFontService,sans-serif" font-weight="700" font-size="73" transform="matrix(1 0 0 1 704.458 425)">_</text><text font-family="Consolas,Consolas_MSFontService,sans-serif" font-weight="700" font-size="73" transform="matrix(1 0 0 1 744.562 425)">range</text><text font-family="Consolas,Consolas_MSFontService,sans-serif" font-weight="700" font-size="73" transform="matrix(1 0 0 1 945.083 425)">(</text><text font-family="Consolas,Consolas_MSFontService,sans-serif" font-weight="700" font-size="73" transform="matrix(1 0 0 1 985.187 425)">pma</text><text font-family="Consolas,Consolas_MSFontService,sans-serif" font-weight="700" font-size="73" transform="matrix(1 0 0 1 1105.5 425)">p</text><text font-family="Consolas,Consolas_MSFontService,sans-serif" font-weight="700" font-size="73" transform="matrix(1 0 0 1 1145.6 425)">, </text><text font-family="Consolas,Consolas_MSFontService,sans-serif" font-weight="700" font-size="73" transform="matrix(1 0 0 1 1225.81 425)">addr,</text><text font-family="Consolas,Consolas_MSFontService,sans-serif" font-weight="700" font-size="73" transform="matrix(1 0 0 1 1466.44 425)">end)</text><text font-family="Consolas,Consolas_MSFontService,sans-serif" font-weight="700" font-size="73" transform="matrix(1 0 0 1 1666.96 425)">{</text><text fill="#6A737D" font-family="Consolas,Consolas_MSFontService,sans-serif" font-weight="400" font-size="73" transform="matrix(1 0 0 1 223.208 513)">...</text><text fill="#24292E" font-family="Consolas,Consolas_MSFontService,sans-serif" font-weight="400" font-size="73" transform="matrix(1 0 0 1 223.208 601)">err = </text><text fill="#C00000" font-family="Consolas,Consolas_MSFontService,sans-serif" font-weight="700" font-size="73" transform="matrix(1 0 0 1 463.833 601)">pmap_pte_entr</text><text fill="#C00000" font-family="Consolas,Consolas_MSFontService,sans-serif" font-weight="700" font-size="73" transform="matrix(1 0 0 1 985.187 601)">y</text><text fill="#24292E" font-family="Consolas,Consolas_MSFontService,sans-serif" font-weight="400" font-size="73" transform="matrix(1 0 0 1 1025.29 601)">(</text><text fill="#24292E" font-family="Consolas,Consolas_MSFontService,sans-serif" font-weight="400" font-size="73" transform="matrix(1 0 0 1 1065.4 601)">pmap</text><text fill="#24292E" font-family="Consolas,Consolas_MSFontService,sans-serif" font-weight="400" font-size="73" transform="matrix(1 0 0 1 1225.81 601)">, </text><text fill="#24292E" font-family="Consolas,Consolas_MSFontService,sans-serif" font-weight="400" font-size="73" transform="matrix(1 0 0 1 1306.02 601)">addr</text><text fill="#24292E" font-family="Consolas,Consolas_MSFontService,sans-serif" font-weight="400" font-size="73" transform="matrix(1 0 0 1 1466.44 601)">, end, walk);</text><text fill="#6A737D" font-family="Consolas,Consolas_MSFontService,sans-serif" font-weight="400" font-size="73" transform="matrix(1 0 0 1 223.208 689)">...</text><text fill="#24292E" font-family="Consolas,Consolas_MSFontService,sans-serif" font-weight="400" font-size="73" transform="matrix(1 0 0 1 143 777)">}</text><text font-family="Consolas,Consolas_MSFontService,sans-serif" font-weight="700" font-size="73" transform="matrix(1 0 0 1 143 953)">void </text><text font-family="Consolas,Consolas_MSFontService,sans-serif" font-weight="700" font-size="73" transform="matrix(1 0 0 1 343.521 953)">walk_addr_range</text><text font-family="Consolas,Consolas_MSFontService,sans-serif" font-weight="700" font-size="73" transform="matrix(1 0 0 1 945.083 953)">(</text><text font-family="Consolas,Consolas_MSFontService,sans-serif" font-weight="700" font-size="73" transform="matrix(1 0 0 1 985.187 953)">pmap</text><text font-family="Consolas,Consolas_MSFontService,sans-serif" font-weight="700" font-size="73" transform="matrix(1 0 0 1 1145.6 953)">, </text><text font-family="Consolas,Consolas_MSFontService,sans-serif" font-weight="700" font-size="73" transform="matrix(1 0 0 1 1225.81 953)">addr</text><text font-family="Consolas,Consolas_MSFontService,sans-serif" font-weight="700" font-size="73" transform="matrix(1 0 0 1 1386.23 953)">,</text><text font-family="Consolas,Consolas_MSFontService,sans-serif" font-weight="700" font-size="73" transform="matrix(1 0 0 1 1466.44 953)">end)</text><text font-family="Consolas,Consolas_MSFontService,sans-serif" font-weight="700" font-size="73" transform="matrix(1 0 0 1 1666.96 953)">{</text><text fill="#093C92" font-family="Consolas,Consolas_MSFontService,sans-serif" font-weight="400" font-size="73" transform="matrix(1 0 0 1 223.208 1041)">for</text><text fill="#24292E" font-family="Consolas,Consolas_MSFontService,sans-serif" font-weight="400" font-size="73" transform="matrix(1 0 0 1 383.625 1041)">(; </text><text fill="#24292E" font-family="Consolas,Consolas_MSFontService,sans-serif" font-weight="400" font-size="73" transform="matrix(1 0 0 1 503.937 1041)">addr</text><text fill="#24292E" font-family="Consolas,Consolas_MSFontService,sans-serif" font-weight="400" font-size="73" transform="matrix(1 0 0 1 704.458 1041)">&lt; end; </text><text fill="#24292E" font-family="Consolas,Consolas_MSFontService,sans-serif" font-weight="400" font-size="73" transform="matrix(1 0 0 1 985.187 1041)">addr</text><text fill="#24292E" font-family="Consolas,Consolas_MSFontService,sans-serif" font-weight="400" font-size="73" transform="matrix(1 0 0 1 1185.71 1041)">+= PAGE_SIZE) </text><text fill="#24292E" font-family="Consolas,Consolas_MSFontService,sans-serif" font-weight="400" font-size="73" transform="matrix(1 0 0 1 1747.17 1041)">{</text><text fill="#24292E" font-family="Consolas,Consolas_MSFontService,sans-serif" font-weight="400" font-size="73" transform="matrix(1 0 0 1 303.417 1129)">...</text><text fill="#C00000" font-family="Consolas,Consolas_MSFontService,sans-serif" font-weight="700" font-size="73" transform="matrix(1 0 0 1 303.417 1217)">pmap_enter</text><text fill="#24292E" font-family="Consolas,Consolas_MSFontService,sans-serif" font-weight="400" font-size="73" transform="matrix(1 0 0 1 704.458 1217)">(</text><text fill="#24292E" font-family="Consolas,Consolas_MSFontService,sans-serif" font-weight="400" font-size="73" transform="matrix(1 0 0 1 744.562 1217)">pmap</text><text fill="#24292E" font-family="Consolas,Consolas_MSFontService,sans-serif" font-weight="400" font-size="73" transform="matrix(1 0 0 1 904.979 1217)">,</text><text fill="#24292E" font-family="Consolas,Consolas_MSFontService,sans-serif" font-weight="400" font-size="73" transform="matrix(1 0 0 1 985.187 1217)">addr</text><text fill="#24292E" font-family="Consolas,Consolas_MSFontService,sans-serif" font-weight="400" font-size="73" transform="matrix(1 0 0 1 1145.6 1217)">,</text><text fill="#24292E" font-family="Consolas,Consolas_MSFontService,sans-serif" font-weight="400" font-size="73" transform="matrix(1 0 0 1 1225.81 1217)">...);</text><text fill="#24292E" font-family="Consolas,Consolas_MSFontService,sans-serif" font-weight="400" font-size="73" transform="matrix(1 0 0 1 303.417 1305)">...</text><text fill="#24292E" font-family="Consolas,Consolas_MSFontService,sans-serif" font-weight="400" font-size="73" transform="matrix(1 0 0 1 223.208 1393)">}</text><text fill="#24292E" font-family="Consolas,Consolas_MSFontService,sans-serif" font-weight="400" font-size="73" transform="matrix(1 0 0 1 143 1481)">}</text><rect x="1494.5" y="1010.5" width="1117" height="204" stroke="#000000" stroke-width="4.58333" stroke-linejoin="round" stroke-miterlimit="10" fill="#FCEBE7"/><text font-family="Times,Times_MSFontService,sans-serif" font-weight="400" font-size="83" transform="matrix(1 0 0 1 1526.57 1091)">Use </text><text font-family="Consolas,Consolas_MSFontService,sans-serif" font-weight="400" font-size="83" transform="matrix(1 0 0 1 1675.53 1091)">PMAP_LOCK(</text><text font-family="Consolas,Consolas_MSFontService,sans-serif" font-weight="400" font-size="83" transform="matrix(1 0 0 1 2128.14 1091)">pmap</text><text font-family="Consolas,Consolas_MSFontService,sans-serif" font-weight="400" font-size="83" transform="matrix(1 0 0 1 2309.18 1091)">)</text><text font-family="Times,Times_MSFontService,sans-serif" font-weight="400" font-size="83" transform="matrix(1 0 0 1 2375.06 1091)">to </text><text font-family="Times,Times_MSFontService,sans-serif" font-weight="400" font-size="83" transform="matrix(1 0 0 1 1526.57 1191)">lock the entire </text><text font-family="Times,Times_MSFontService,sans-serif" font-weight="400" font-size="83" transform="matrix(1 0 0 1 2019.28 1191)">pmap</text><text font-family="Times,Times_MSFontService,sans-serif" font-weight="400" font-size="83" transform="matrix(1 0 0 1 2223.24 1191)">internally</text><rect x="1246.5" y="292.5" width="1417" height="220" stroke="#000000" stroke-width="4.58333" stroke-linejoin="round" stroke-miterlimit="10" fill="#FCEBE7"/><text font-family="Times,Times_MSFontService,sans-serif" font-weight="400" font-size="83" transform="matrix(1 0 0 1 1278.63 382)">No low</text><text font-family="Times,Times_MSFontService,sans-serif" font-weight="400" font-size="83" transform="matrix(1 0 0 1 1523.84 382)">-</text><text font-family="Times,Times_MSFontService,sans-serif" font-weight="400" font-size="83" transform="matrix(1 0 0 1 1551.34 382)">level exposure, need to add a </text><text font-family="Times,Times_MSFontService,sans-serif" font-weight="400" font-size="83" transform="matrix(1 0 0 1 1278.63 481)">new </text><text font-family="Times,Times_MSFontService,sans-serif" font-weight="400" font-size="83" transform="matrix(1 0 0 1 1436.76 481)">pmap</text><text font-family="Times,Times_MSFontService,sans-serif" font-weight="400" font-size="83" transform="matrix(1 0 0 1 1640.72 481)">function for the same pattern</text><path d="M1244.72 486.5 1244.72 485.969 948.5 485.969 948.5 538.468" stroke="#000000" stroke-width="4.58333" stroke-linejoin="round" stroke-miterlimit="10" fill="none" fill-rule="evenodd"/><path d="M0 0 857.48 0.000360892" stroke="#000000" stroke-width="4.58333" stroke-linejoin="round" stroke-miterlimit="10" fill="none" fill-rule="evenodd" transform="matrix(-1 0 0 1 1494.98 1110.5)"/><path d="M0 0 0.000360892 519.685" stroke="#000000" stroke-width="4.58333" stroke-linejoin="round" stroke-miterlimit="10" fill="none" fill-rule="evenodd" transform="matrix(1 0 0 -1 637.5 1162.19)"/><rect x="803.5" y="1264.5" width="1575" height="220" stroke="#000000" stroke-width="4.58333" stroke-linejoin="round" stroke-miterlimit="10" fill="#FAE2DD" fill-opacity="0.701961"/><text font-family="Times,Times_MSFontService,sans-serif" font-weight="400" font-size="83" transform="matrix(1 0 0 1 834.99 1354)">Explicitly implement the task, may need </text><text font-family="Times,Times_MSFontService,sans-serif" font-weight="400" font-size="83" transform="matrix(1 0 0 1 834.99 1453)">repetitive walk in the page table data structure</text><path d="M507.5 1262.5 504.48 1262.5 504.48 1314.47 803.317 1314.47" stroke="#000000" stroke-width="4.58333" stroke-linejoin="round" stroke-miterlimit="10" fill="none" fill-rule="evenodd"/><path d="M143.5 850.5 2612 850.5" stroke="#3C81F3" stroke-width="6.875" stroke-linejoin="round" stroke-miterlimit="10" fill="none" fill-rule="evenodd"/><rect x="870" y="798" width="962" height="78.0001" fill="#FFFFFF"/><text font-family="Times,Times_MSFontService,sans-serif" font-weight="400" font-size="83" transform="matrix(1 0 0 1 902.953 867)">Alternative Implementation</text></g></svg>