<svg width="1590" height="771" xmlns="http://www.w3.org/2000/svg" xmlns:xlink="http://www.w3.org/1999/xlink" xml:space="preserve" overflow="hidden"><g transform="translate(-171 -132)"><rect x="225.5" y="224.5" width="312" height="624" stroke="#000000" stroke-width="4.58333" stroke-miterlimit="8" fill="#5B9BD5" fill-opacity="0.501961"/><text font-family="Times,Times_MSFontService,sans-serif" font-weight="400" font-size="46" transform="matrix(1 0 0 1 272.619 782)">Application</text><text font-family="Times,Times_MSFontService,sans-serif" font-weight="400" font-size="46" transform="matrix(1 0 0 1 327.046 837)">Layer</text><rect x="1005.5" y="224.5" width="311" height="624" stroke="#000000" stroke-width="4.58333" stroke-miterlimit="8" fill="#70AD47" fill-opacity="0.501961"/><text font-family="Times,Times_MSFontService,sans-serif" font-weight="400" font-size="46" transform="matrix(1 0 0 1 1106.94 782)">Logic</text><text font-family="Times,Times_MSFontService,sans-serif" font-weight="400" font-size="46" transform="matrix(1 0 0 1 1106.66 837)">Layer</text><rect x="1394.5" y="224.5" width="312" height="624" stroke="#000000" stroke-width="4.58333" stroke-miterlimit="8" fill="#FFC000" fill-opacity="0.501961"/><text font-family="Times,Times_MSFontService,sans-serif" font-weight="400" font-size="46" transform="matrix(1 0 0 1 1458.37 782)">Operation</text><text font-family="Times,Times_MSFontService,sans-serif" font-weight="400" font-size="46" transform="matrix(1 0 0 1 1496.48 837)">Layer</text><rect x="1420.5" y="276.5" width="260" height="156" stroke="#000000" stroke-width="4.58333" stroke-miterlimit="8" fill="#FFFFFF"/><text font-family="Times,Times_MSFontService,sans-serif" font-weight="400" font-size="46" transform="matrix(1 0 0 1 1447.49 343)">Page </text><text font-family="Times,Times_MSFontService,sans-serif" font-weight="400" font-size="46" transform="matrix(1 0 0 1 1548.33 343)">Table</text><text font-family="Times,Times_MSFontService,sans-serif" font-weight="400" font-size="46" transform="matrix(1 0 0 1 1447.2 398)">Structuring</text><rect x="1420.5" y="458.5" width="260" height="156" stroke="#000000" stroke-width="4.58333" stroke-miterlimit="8" fill="#FFFFFF"/><text font-family="Times,Times_MSFontService,sans-serif" font-weight="400" font-size="46" transform="matrix(1 0 0 1 1509.63 525)">PTE </text><text font-family="Times,Times_MSFontService,sans-serif" font-weight="400" font-size="46" transform="matrix(1 0 0 1 1435.45 580)">Read/Writes</text><rect x="1031.5" y="276.5" width="259" height="156" stroke="#000000" stroke-width="4.58333" stroke-miterlimit="8" fill="#FFFFFF"/><text font-family="Times,Times_MSFontService,sans-serif" font-weight="400" font-size="46" transform="matrix(1 0 0 1 1057.68 343)">Page</text><text font-family="Times,Times_MSFontService,sans-serif" font-weight="400" font-size="46" transform="matrix(1 0 0 1 1158.51 343)">Table</text><text font-family="Times,Times_MSFontService,sans-serif" font-weight="400" font-size="46" transform="matrix(1 0 0 1 1092.62 398)">Iterat</text><text font-family="Times,Times_MSFontService,sans-serif" font-weight="400" font-size="46" transform="matrix(1 0 0 1 1190.02 398)">or</text><rect x="1031.5" y="458.5" width="259" height="156" stroke="#000000" stroke-width="4.58333" stroke-miterlimit="8" fill="#FFFFFF"/><text font-family="Times,Times_MSFontService,sans-serif" font-weight="400" font-size="46" transform="matrix(1 0 0 1 1115.83 497)">Page </text><text font-family="Times,Times_MSFontService,sans-serif" font-weight="400" font-size="46" transform="matrix(1 0 0 1 1055.1 552)">Presence &amp; </text><text font-family="Times,Times_MSFontService,sans-serif" font-weight="400" font-size="46" transform="matrix(1 0 0 1 1075.45 607)">Counting</text><rect x="251.5" y="276.5" width="260" height="156" stroke="#000000" stroke-width="4.58333" stroke-miterlimit="8" fill="#FFFFFF"/><text font-family="Times,Times_MSFontService,sans-serif" font-weight="400" font-size="46" transform="matrix(1 0 0 1 283.504 343)">Page Fault </text><text font-family="Times,Times_MSFontService,sans-serif" font-weight="400" font-size="46" transform="matrix(1 0 0 1 306.719 398)">Handler</text><rect x="251.5" y="458.5" width="260" height="156" stroke="#000000" stroke-width="4.58333" stroke-miterlimit="8" fill="#FFFFFF"/><text font-family="Times,Times_MSFontService,sans-serif" font-weight="400" font-size="46" transform="matrix(1 0 0 1 310.718 525)">NUMA </text><text font-family="Times,Times_MSFontService,sans-serif" font-weight="400" font-size="46" transform="matrix(1 0 0 1 308.426 580)">Support</text><text font-family="Cambria Math,Cambria Math_MSFontService,sans-serif" font-weight="400" font-size="46" transform="matrix(6.12323e-17 1 -1 6.12323e-17 366.45 659)">⋯</text><text font-family="Cambria Math,Cambria Math_MSFontService,sans-serif" font-weight="400" font-size="46" transform="matrix(6.12323e-17 1 -1 6.12323e-17 1146.06 659)">⋯</text><text font-family="Cambria Math,Cambria Math_MSFontService,sans-serif" font-weight="400" font-size="46" transform="matrix(6.12323e-17 1 -1 6.12323e-17 1532.31 659)">⋯</text><rect x="173.5" y="146.5" width="1585" height="754" stroke="#000000" stroke-width="4.58333" stroke-miterlimit="8" fill="none"/><text font-family="Times,Times_MSFontService,sans-serif" font-weight="400" font-size="46" transform="matrix(1 0 0 1 829.257 190)">EMT Interface</text><rect x="615.5" y="224.5" width="312" height="624" stroke="#000000" stroke-width="4.58333" stroke-miterlimit="8" fill="#ED7D31" fill-opacity="0.501961"/><text font-family="Times,Times_MSFontService,sans-serif" font-weight="400" font-size="46" transform="matrix(1 0 0 1 726.02 782)">Task</text><text font-family="Times,Times_MSFontService,sans-serif" font-weight="400" font-size="46" transform="matrix(1 0 0 1 716.853 837)">Layer</text><rect x="641.5" y="276.5" width="260" height="156" stroke="#000000" stroke-width="4.58333" stroke-miterlimit="8" fill="#FFFFFF"/><text font-family="Times,Times_MSFontService,sans-serif" font-weight="400" font-size="46" transform="matrix(1 0 0 1 669.301 343)">Anon Page </text><text font-family="Times,Times_MSFontService,sans-serif" font-weight="400" font-size="46" transform="matrix(1 0 0 1 661.853 398)">Major Fault</text><rect x="641.5" y="458.5" width="260" height="156" stroke="#000000" stroke-width="4.58333" stroke-miterlimit="8" fill="#FFFFFF"/><text font-family="Times,Times_MSFontService,sans-serif" font-weight="400" font-size="46" transform="matrix(1 0 0 1 670.447 525)">Huge Page </text><text font-family="Times,Times_MSFontService,sans-serif" font-weight="400" font-size="46" transform="matrix(1 0 0 1 717.151 580)">COW</text><text font-family="Cambria Math,Cambria Math_MSFontService,sans-serif" font-weight="400" font-size="46" transform="matrix(6.12323e-17 1 -1 6.12323e-17 756.257 659)">⋯</text></g></svg>