<svg width="2717" height="1247" xmlns="http://www.w3.org/2000/svg" xmlns:xlink="http://www.w3.org/1999/xlink" xml:space="preserve" overflow="hidden"><g transform="translate(-99 -299)"><text font-family="Consolas,Consolas_MSFontService,sans-serif" font-weight="700" font-size="73" transform="matrix(1 0 0 1 143 425)">void walk_pte_range(mm, addr,</text><text font-family="Consolas,Consolas_MSFontService,sans-serif" font-weight="700" font-size="73" transform="matrix(1 0 0 1 1346.12 425)">end)</text><text font-family="Consolas,Consolas_MSFontService,sans-serif" font-weight="700" font-size="73" transform="matrix(1 0 0 1 1546.65 425)">{</text><text fill="#093C92" font-family="Consolas,Consolas_MSFontService,sans-serif" font-weight="400" font-size="73" transform="matrix(1 0 0 1 223.208 513)">spinlock_t *</text><text fill="#24292E" font-family="Consolas,Consolas_MSFontService,sans-serif" font-weight="400" font-size="73" transform="matrix(1 0 0 1 704.458 513)">ptl;</text><text fill="#093C92" font-family="Consolas,Consolas_MSFontService,sans-serif" font-weight="400" font-size="73" transform="matrix(1 0 0 1 223.208 601)">pte_t *</text><text fill="#24292E" font-family="Consolas,Consolas_MSFontService,sans-serif" font-weight="400" font-size="73" transform="matrix(1 0 0 1 503.937 601)">pte </text><text fill="#D73A49" font-family="Consolas,Consolas_MSFontService,sans-serif" font-weight="400" font-size="73" transform="matrix(1 0 0 1 664.354 601)">=</text><text fill="#C00000" font-family="Consolas,Consolas_MSFontService,sans-serif" font-weight="700" font-size="73" transform="matrix(1 0 0 1 744.562 601)">pte_offset_map_lock</text><text fill="#24292E" font-family="Consolas,Consolas_MSFontService,sans-serif" font-weight="700" font-size="73" transform="matrix(1 0 0 1 1506.54 601)">(mm, </text><text fill="#24292E" font-family="Consolas,Consolas_MSFontService,sans-serif" font-weight="700" font-size="73" transform="matrix(1 0 0 1 1707.06 601)">pmd</text><text fill="#24292E" font-family="Consolas,Consolas_MSFontService,sans-serif" font-weight="700" font-size="73" transform="matrix(1 0 0 1 1827.37 601)">, addr, &amp;ptl)</text><text fill="#24292E" font-family="Consolas,Consolas_MSFontService,sans-serif" font-weight="400" font-size="73" transform="matrix(1 0 0 1 2348.73 601)">;</text><text fill="#093C92" font-family="Consolas,Consolas_MSFontService,sans-serif" font-weight="400" font-size="73" transform="matrix(1 0 0 1 223.208 689)">for </text><text fill="#24292E" font-family="Consolas,Consolas_MSFontService,sans-serif" font-weight="400" font-size="73" transform="matrix(1 0 0 1 383.625 689)">(;;)</text><text fill="#24292E" font-family="Consolas,Consolas_MSFontService,sans-serif" font-weight="400" font-size="73" transform="matrix(1 0 0 1 584.146 689)">{</text><text fill="#6A737D" font-family="Consolas,Consolas_MSFontService,sans-serif" font-weight="400" font-size="73" transform="matrix(1 0 0 1 303.417 777)">...</text><text fill="#24292E" font-family="Consolas,Consolas_MSFontService,sans-serif" font-weight="400" font-size="73" transform="matrix(1 0 0 1 303.417 865)">err </text><text fill="#24292E" font-family="Consolas,Consolas_MSFontService,sans-serif" font-weight="400" font-size="73" transform="matrix(1 0 0 1 463.833 865)">= ops</text><text fill="#24292E" font-family="Consolas,Consolas_MSFontService,sans-serif" font-weight="400" font-size="73" transform="matrix(1 0 0 1 664.354 865)">-</text><text fill="#24292E" font-family="Consolas,Consolas_MSFontService,sans-serif" font-weight="400" font-size="73" transform="matrix(1 0 0 1 704.458 865)">&gt;</text><text fill="#C00000" font-family="Consolas,Consolas_MSFontService,sans-serif" font-weight="700" font-size="73" transform="matrix(1 0 0 1 744.562 865)">pte_entry</text><text fill="#24292E" font-family="Consolas,Consolas_MSFontService,sans-serif" font-weight="400" font-size="73" transform="matrix(1 0 0 1 1105.5 865)">(pte, addr, addr + PAGE_SIZE, walk);</text><text fill="#6A737D" font-family="Consolas,Consolas_MSFontService,sans-serif" font-weight="400" font-size="73" transform="matrix(1 0 0 1 303.417 953)">...</text><text fill="#24292E" font-family="Consolas,Consolas_MSFontService,sans-serif" font-weight="400" font-size="73" transform="matrix(1 0 0 1 303.417 1041)">addr += PAGE_SIZE;</text><text fill="#C00000" font-family="Consolas,Consolas_MSFontService,sans-serif" font-weight="700" font-size="73" transform="matrix(1 0 0 1 303.417 1129)">pte++</text><text fill="#24292E" font-family="Consolas,Consolas_MSFontService,sans-serif" font-weight="400" font-size="73" transform="matrix(1 0 0 1 503.937 1129)">;</text><text fill="#6A737D" font-family="Consolas,Consolas_MSFontService,sans-serif" font-weight="400" font-size="73" transform="matrix(1 0 0 1 303.417 1217)">...</text><text fill="#24292E" font-family="Consolas,Consolas_MSFontService,sans-serif" font-weight="400" font-size="73" transform="matrix(1 0 0 1 223.208 1305)">}</text><text fill="#24292E" font-family="Consolas,Consolas_MSFontService,sans-serif" font-weight="400" font-size="73" transform="matrix(1 0 0 1 223.208 1393)">pte_unmap_unlock(pte, ptl);</text><text fill="#24292E" font-family="Consolas,Consolas_MSFontService,sans-serif" font-weight="400" font-size="73" transform="matrix(1 0 0 1 143 1481)">}</text><text fill="#7F7F7F" font-family="Consolas,Consolas_MSFontService,sans-serif" font-weight="400" font-size="73" transform="matrix(1 0 0 1 220.866 1482)">/* mm/</text><text fill="#7F7F7F" font-family="Consolas,Consolas_MSFontService,sans-serif" font-weight="400" font-size="73" transform="matrix(1 0 0 1 461.491 1482)">pagewalk.c</text><text fill="#7F7F7F" font-family="Consolas,Consolas_MSFontService,sans-serif" font-weight="400" font-size="73" transform="matrix(1 0 0 1 902.637 1482)">*/</text><rect x="1624.5" y="321.5" width="1117" height="204" stroke="#000000" stroke-width="4.58333" stroke-linejoin="round" stroke-miterlimit="10" fill="#B8FFC1" fill-opacity="0.639216"/><text font-family="Times,Times_MSFontService,sans-serif" font-weight="400" font-size="83" transform="matrix(1 0 0 1 1677.12 403)">Lock </text><text font-family="Times,Times_MSFontService,sans-serif" font-weight="400" font-size="83" transform="matrix(1 0 0 1 1867.33 403)">address </text><text font-family="Times,Times_MSFontService,sans-serif" font-weight="400" font-size="83" transform="matrix(1 0 0 1 2135.45 403)">range only</text><text font-family="Times,Times_MSFontService,sans-serif" font-weight="400" font-size="83" transform="matrix(1 0 0 1 1677.12 502)">once for batched operations</text><rect x="1374.5" y="904.5" width="1417" height="221" stroke="#000000" stroke-width="4.58333" stroke-linejoin="round" stroke-miterlimit="10" fill="#B8FFC1" fill-opacity="0.639216"/><text font-family="Times,Times_MSFontService,sans-serif" font-weight="400" font-size="83" transform="matrix(1 0 0 1 1406.64 994)">A custom function uses entry pointers to </text><text font-family="Times,Times_MSFontService,sans-serif" font-weight="400" font-size="83" transform="matrix(1 0 0 1 1406.64 1093)">perform in</text><text font-family="Times,Times_MSFontService,sans-serif" font-weight="400" font-size="83" transform="matrix(1 0 0 1 1757.27 1093)">-</text><text font-family="Times,Times_MSFontService,sans-serif" font-weight="400" font-size="83" transform="matrix(1 0 0 1 1784.77 1093)">place attribute updates</text><rect x="453.5" y="1194.5" width="2338" height="131" stroke="#000000" stroke-width="4.58333" stroke-linejoin="round" stroke-miterlimit="10" fill="#B8FFC1" fill-opacity="0.639216"/><text font-family="Times,Times_MSFontService,sans-serif" font-weight="400" font-size="83" transform="matrix(1 0 0 1 505.674 1290)">Exploit page table entry adjacency to reduce page walk overhead</text><path d="M0 0-1.55215 0-1.55215 46.4598 488.062 46.4598" stroke="#000000" stroke-width="4.58333" stroke-linejoin="round" stroke-miterlimit="10" fill="none" fill-rule="evenodd" transform="matrix(1 0 0 -1 1136.5 536.96)"/><path d="M1078.5 902.5 1075.48 902.5 1075.48 954.468 1374.32 954.468" stroke="#000000" stroke-width="4.58333" stroke-linejoin="round" stroke-miterlimit="10" fill="none" fill-rule="evenodd"/><path d="M429.5 1162.5 482.345 1162.5 482.345 1193.66 481.468 1193.66" stroke="#000000" stroke-width="4.58333" stroke-linejoin="round" stroke-miterlimit="10" fill="none" fill-rule="evenodd"/></g></svg>