<svg width="1100" height="888" xmlns="http://www.w3.org/2000/svg" xmlns:xlink="http://www.w3.org/1999/xlink" xml:space="preserve" overflow="hidden"><g transform="translate(-2200 -400)"><path d="M2241.25 412.436 2562.08 412.436 2562.08 455.436 2241.25 455.436Z" fill="#FFFFFF" fill-rule="evenodd"/><path d="M2241.25 463.459 2702.45 463.459 2702.45 506.459 2241.25 506.459Z" fill="#FFFFFF" fill-rule="evenodd"/><path d="M2702.45 463.459 2782.66 463.459 2782.66 506.459 2702.45 506.459Z" fill="#FFFFFF" fill-rule="evenodd"/><path d="M2782.66 463.459 3183.7 463.459 3183.7 506.459 2782.66 506.459Z" fill="#FFFFFF" fill-rule="evenodd"/><path d="M2241.25 564.436 2301.41 564.436 2301.41 607.436 2241.25 607.436Z" fill="#FFFFFF" fill-rule="evenodd"/><path d="M2301.41 564.436 2381.61 564.436 2381.61 607.436 2301.41 607.436Z" fill="#FFFFFF" fill-rule="evenodd"/><path d="M2381.61 564.436 2401.67 564.436 2401.67 607.436 2381.61 607.436Z" fill="#FFFFFF" fill-rule="evenodd"/><path d="M2401.67 564.436 2421.72 564.436 2421.72 607.436 2401.67 607.436Z" fill="#FFFFFF" fill-rule="evenodd"/><path d="M2421.72 564.436 2441.77 564.436 2441.77 607.436 2421.72 607.436Z" fill="#FFFFFF" fill-rule="evenodd"/><path d="M2441.77 564.436 2461.82 564.436 2461.82 607.436 2441.77 607.436Z" fill="#FFFFFF" fill-rule="evenodd"/><path d="M2461.82 564.436 2501.93 564.436 2501.93 607.436 2461.82 607.436Z" fill="#FFFFFF" fill-rule="evenodd"/><path d="M2501.93 564.436 2842.81 564.436 2842.81 607.436 2501.93 607.436Z" fill="#FFFFFF" fill-rule="evenodd"/><path d="M2842.81 564.436 2862.86 564.436 2862.86 607.436 2842.81 607.436Z" fill="#FFFFFF" fill-rule="evenodd"/><path d="M2862.86 564.436 2943.07 564.436 2943.07 607.436 2862.86 607.436Z" fill="#FFFFFF" fill-rule="evenodd"/><path d="M2943.07 564.436 3023.28 564.436 3023.28 607.436 2943.07 607.436Z" fill="#FFFFFF" fill-rule="evenodd"/><path d="M3023.28 564.436 3063.39 564.436 3063.39 607.436 3023.28 607.436Z" fill="#FFFFFF" fill-rule="evenodd"/><path d="M3063.39 564.436 3143.59 564.436 3143.59 607.436 3063.39 607.436Z" fill="#FFFFFF" fill-rule="evenodd"/><path d="M3143.59 564.436 3183.7 564.436 3183.7 607.436 3143.59 607.436Z" fill="#FFFFFF" fill-rule="evenodd"/><path d="M2241.25 614.436 2341.51 614.436 2341.51 657.436 2241.25 657.436Z" fill="#FFFFFF" fill-rule="evenodd"/><path d="M2341.51 614.436 2361.56 614.436 2361.56 657.436 2341.51 657.436Z" fill="#FFFFFF" fill-rule="evenodd"/><path d="M2361.56 614.436 2381.61 614.436 2381.61 657.436 2361.56 657.436Z" fill="#FFFFFF" fill-rule="evenodd"/><path d="M2381.61 614.436 2782.66 614.436 2782.66 657.436 2381.61 657.436Z" fill="#FFFFFF" fill-rule="evenodd"/><path d="M2782.66 614.436 2802.71 614.436 2802.71 657.436 2782.66 657.436Z" fill="#FFFFFF" fill-rule="evenodd"/><path d="M2802.71 614.436 2822.76 614.436 2822.76 657.436 2802.71 657.436Z" fill="#FFFFFF" fill-rule="evenodd"/><path d="M2822.76 614.436 2902.97 614.436 2902.97 657.436 2822.76 657.436Z" fill="#FFFFFF" fill-rule="evenodd"/><path d="M2241.25 665.436 2261.3 665.436 2261.3 708.436 2241.25 708.436Z" fill="#FFFFFF" fill-rule="evenodd"/><path d="M2261.3 665.436 2281.35 665.436 2281.35 708.436 2261.3 708.436Z" fill="#FFFFFF" fill-rule="evenodd"/><path d="M2281.35 665.436 2421.72 665.436 2421.72 708.436 2281.35 708.436Z" fill="#FFFFFF" fill-rule="evenodd"/><path d="M2421.72 665.436 2441.77 665.436 2441.77 708.436 2421.72 708.436Z" fill="#FFFFFF" fill-rule="evenodd"/><path d="M2441.77 665.436 3023.28 665.436 3023.28 708.436 2441.77 708.436Z" fill="#FFFFFF" fill-rule="evenodd"/><path d="M2241.25 716.459 2261.3 716.459 2261.3 759.459 2241.25 759.459Z" fill="#FFFFFF" fill-rule="evenodd"/><path d="M2261.3 716.459 2281.35 716.459 2281.35 759.459 2261.3 759.459Z" fill="#FFFFFF" fill-rule="evenodd"/><path d="M2281.35 716.459 2401.67 716.459 2401.67 759.459 2281.35 759.459Z" fill="#FFFFFF" fill-rule="evenodd"/><path d="M2401.67 716.459 2421.72 716.459 2421.72 759.459 2401.67 759.459Z" fill="#FFFFFF" fill-rule="evenodd"/><path d="M2421.72 716.459 2501.93 716.459 2501.93 759.459 2421.72 759.459Z" fill="#FFFFFF" fill-rule="evenodd"/><path d="M2501.93 716.459 2521.98 716.459 2521.98 759.459 2501.93 759.459Z" fill="#FFFFFF" fill-rule="evenodd"/><path d="M2241.25 766.436 2281.35 766.436 2281.35 809.436 2241.25 809.436Z" fill="#FFFFFF" fill-rule="evenodd"/><path d="M2281.35 766.436 2401.67 766.436 2401.67 809.436 2281.35 809.436Z" fill="#FFFFFF" fill-rule="evenodd"/><path d="M2401.67 766.436 2421.72 766.436 2421.72 809.436 2401.67 809.436Z" fill="#FFFFFF" fill-rule="evenodd"/><path d="M2421.72 766.436 2441.77 766.436 2441.77 809.436 2421.72 809.436Z" fill="#FFFFFF" fill-rule="evenodd"/><path d="M2441.77 766.436 2501.93 766.436 2501.93 809.436 2441.77 809.436Z" fill="#FFFFFF" fill-rule="evenodd"/><path d="M2501.93 766.436 2521.98 766.436 2521.98 809.436 2501.93 809.436Z" fill="#FFFFFF" fill-rule="evenodd"/><path d="M2521.98 766.436 2562.08 766.436 2562.08 809.436 2521.98 809.436Z" fill="#FFFFFF" fill-rule="evenodd"/><path d="M2562.08 766.436 2882.92 766.436 2882.92 809.436 2562.08 809.436Z" fill="#FFFFFF" fill-rule="evenodd"/><path d="M2882.92 766.436 2902.97 766.436 2902.97 809.436 2882.92 809.436Z" fill="#FFFFFF" fill-rule="evenodd"/><path d="M2902.97 766.436 2923.02 766.436 2923.02 809.436 2902.97 809.436Z" fill="#FFFFFF" fill-rule="evenodd"/><path d="M2923.02 766.436 3063.39 766.436 3063.39 809.436 2923.02 809.436Z" fill="#FFFFFF" fill-rule="evenodd"/><path d="M3063.39 766.436 3103.49 766.436 3103.49 809.436 3063.39 809.436Z" fill="#FFFFFF" fill-rule="evenodd"/><path d="M2241.25 817.436 2261.3 817.436 2261.3 860.436 2241.25 860.436Z" fill="#FFFFFF" fill-rule="evenodd"/><path d="M2261.3 817.436 2281.35 817.436 2281.35 860.436 2261.3 860.436Z" fill="#FFFFFF" fill-rule="evenodd"/><path d="M2281.35 817.436 2401.67 817.436 2401.67 860.436 2281.35 860.436Z" fill="#FFFFFF" fill-rule="evenodd"/><path d="M2401.67 817.436 2421.72 817.436 2421.72 860.436 2401.67 860.436Z" fill="#FFFFFF" fill-rule="evenodd"/><path d="M2421.72 817.436 2461.82 817.436 2461.82 860.436 2421.72 860.436Z" fill="#FFFFFF" fill-rule="evenodd"/><path d="M2461.82 817.436 2481.87 817.436 2481.87 860.436 2461.82 860.436Z" fill="#FFFFFF" fill-rule="evenodd"/><path d="M2481.87 817.436 2542.03 817.436 2542.03 860.436 2481.87 860.436Z" fill="#FFFFFF" fill-rule="evenodd"/><path d="M2542.03 817.436 2602.19 817.436 2602.19 860.436 2542.03 860.436Z" fill="#FFFFFF" fill-rule="evenodd"/><path d="M2602.19 817.436 2622.24 817.436 2622.24 860.436 2602.19 860.436Z" fill="#FFFFFF" fill-rule="evenodd"/><path d="M2241.25 867.436 2261.3 867.436 2261.3 910.436 2241.25 910.436Z" fill="#FFFFFF" fill-rule="evenodd"/><path d="M2261.3 867.436 2281.35 867.436 2281.35 910.436 2261.3 910.436Z" fill="#FFFFFF" fill-rule="evenodd"/><path d="M2281.35 867.436 2381.61 867.436 2381.61 910.436 2281.35 910.436Z" fill="#FFFFFF" fill-rule="evenodd"/><path d="M2381.61 867.436 2702.45 867.436 2702.45 910.436 2381.61 910.436Z" fill="#FFFFFF" fill-rule="evenodd"/><path d="M2702.45 867.436 2722.5 867.436 2722.5 910.436 2702.45 910.436Z" fill="#FFFFFF" fill-rule="evenodd"/><path d="M2722.5 867.436 2762.6 867.436 2762.6 910.436 2722.5 910.436Z" fill="#FFFFFF" fill-rule="evenodd"/><path d="M2762.6 867.436 3003.23 867.436 3003.23 910.436 2762.6 910.436Z" fill="#FFFFFF" fill-rule="evenodd"/><path d="M2241.25 969.459 2261.3 969.459 2261.3 1012.46 2241.25 1012.46Z" fill="#FFFFFF" fill-rule="evenodd"/><path d="M2261.3 969.459 2281.35 969.459 2281.35 1012.46 2261.3 1012.46Z" fill="#FFFFFF" fill-rule="evenodd"/><path d="M2281.35 969.459 2321.46 969.459 2321.46 1012.46 2281.35 1012.46Z" fill="#FFFFFF" fill-rule="evenodd"/><path d="M2321.46 969.459 2341.51 969.459 2341.51 1012.46 2321.46 1012.46Z" fill="#FFFFFF" fill-rule="evenodd"/><path d="M2341.51 969.459 2361.56 969.459 2361.56 1012.46 2341.51 1012.46Z" fill="#FFFFFF" fill-rule="evenodd"/><path d="M2361.56 969.459 2682.4 969.459 2682.4 1012.46 2361.56 1012.46Z" fill="#FFFFFF" fill-rule="evenodd"/><path d="M2682.4 969.459 2702.45 969.459 2702.45 1012.46 2682.4 1012.46Z" fill="#FFFFFF" fill-rule="evenodd"/><path d="M2702.45 969.459 2742.55 969.459 2742.55 1012.46 2702.45 1012.46Z" fill="#FFFFFF" fill-rule="evenodd"/><path d="M2742.55 969.459 3063.39 969.459 3063.39 1012.46 2742.55 1012.46Z" fill="#FFFFFF" fill-rule="evenodd"/><path d="M2241.25 1019.44 2261.3 1019.44 2261.3 1062.44 2241.25 1062.44Z" fill="#FFFFFF" fill-rule="evenodd"/><path d="M2261.3 1019.44 2281.35 1019.44 2281.35 1062.44 2261.3 1062.44Z" fill="#FFFFFF" fill-rule="evenodd"/><path d="M2281.35 1019.44 2301.41 1019.44 2301.41 1062.44 2281.35 1062.44Z" fill="#FFFFFF" fill-rule="evenodd"/><path d="M2301.41 1019.44 2321.46 1019.44 2321.46 1062.44 2301.41 1062.44Z" fill="#FFFFFF" fill-rule="evenodd"/><path d="M2321.46 1019.44 2361.56 1019.44 2361.56 1062.44 2321.46 1062.44Z" fill="#FFFFFF" fill-rule="evenodd"/><path d="M2361.56 1019.44 2381.61 1019.44 2381.61 1062.44 2361.56 1062.44Z" fill="#FFFFFF" fill-rule="evenodd"/><path d="M2381.61 1019.44 2542.03 1019.44 2542.03 1062.44 2381.61 1062.44Z" fill="#FFFFFF" fill-rule="evenodd"/><path d="M2542.03 1019.44 2862.86 1019.44 2862.86 1062.44 2542.03 1062.44Z" fill="#FFFFFF" fill-rule="evenodd"/><path d="M2862.86 1019.44 2882.92 1019.44 2882.92 1062.44 2862.86 1062.44Z" fill="#FFFFFF" fill-rule="evenodd"/><path d="M2882.92 1019.44 2923.02 1019.44 2923.02 1062.44 2882.92 1062.44Z" fill="#FFFFFF" fill-rule="evenodd"/><path d="M2923.02 1019.44 3163.65 1019.44 3163.65 1062.44 2923.02 1062.44Z" fill="#FFFFFF" fill-rule="evenodd"/><path d="M2241.25 1070.44 2261.3 1070.44 2261.3 1113.44 2241.25 1113.44Z" fill="#FFFFFF" fill-rule="evenodd"/><path d="M2261.3 1070.44 2281.35 1070.44 2281.35 1113.44 2261.3 1113.44Z" fill="#FFFFFF" fill-rule="evenodd"/><path d="M2281.35 1070.44 2301.41 1070.44 2301.41 1113.44 2281.35 1113.44Z" fill="#FFFFFF" fill-rule="evenodd"/><path d="M2301.41 1070.44 2321.46 1070.44 2321.46 1113.44 2301.41 1113.44Z" fill="#FFFFFF" fill-rule="evenodd"/><path d="M2321.46 1070.44 2341.51 1070.44 2341.51 1113.44 2321.46 1113.44Z" fill="#FFFFFF" fill-rule="evenodd"/><path d="M2341.51 1070.44 2361.56 1070.44 2361.56 1113.44 2341.51 1113.44Z" fill="#FFFFFF" fill-rule="evenodd"/><path d="M2361.56 1070.44 2421.72 1070.44 2421.72 1113.44 2361.56 1113.44Z" fill="#FFFFFF" fill-rule="evenodd"/><path d="M2241.25 1120.44 2261.3 1120.44 2261.3 1163.44 2241.25 1163.44Z" fill="#FFFFFF" fill-rule="evenodd"/><path d="M2261.3 1120.44 2281.35 1120.44 2281.35 1163.44 2261.3 1163.44Z" fill="#FFFFFF" fill-rule="evenodd"/><path d="M2281.35 1120.44 2301.41 1120.44 2301.41 1163.44 2281.35 1163.44Z" fill="#FFFFFF" fill-rule="evenodd"/><path d="M2241.25 1171.44 2261.3 1171.44 2261.3 1214.44 2241.25 1214.44Z" fill="#FFFFFF" fill-rule="evenodd"/><path d="M2241.25 1222.46 2361.56 1222.46 2361.56 1265.46 2241.25 1265.46Z" fill="#FFFFFF" fill-rule="evenodd"/><path d="M2361.56 1222.46 2542.03 1222.46 2542.03 1265.46 2361.56 1265.46Z" fill="#FFFFFF" fill-rule="evenodd"/><path d="M2542.03 1222.46 2562.08 1222.46 2562.08 1265.46 2542.03 1265.46Z" fill="#FFFFFF" fill-rule="evenodd"/><path d="M2562.08 1222.46 2582.14 1222.46 2582.14 1265.46 2562.08 1265.46Z" fill="#FFFFFF" fill-rule="evenodd"/><path d="M2582.14 1222.46 2622.24 1222.46 2622.24 1265.46 2582.14 1265.46Z" fill="#FFFFFF" fill-rule="evenodd"/><text fill="#008000" font-family="Consolas,Consolas_MSFontService,sans-serif" font-weight="400" font-size="37" transform="matrix(1 0 0 1 2241.25 446)">// EMT interface</text><text fill="#008000" font-family="Consolas,Consolas_MSFontService,sans-serif" font-weight="400" font-size="37" transform="matrix(1 0 0 1 2241.25 497)">// 1 walk for Radix, N(</text><text fill="#008000" font-family="Consolas,Consolas_MSFontService,sans-serif" font-weight="400" font-size="37" transform="matrix(1 0 0 1 2702.45 497)">iter</text><text fill="#008000" font-family="Consolas,Consolas_MSFontService,sans-serif" font-weight="400" font-size="37" transform="matrix(1 0 0 1 2782.66 497)">) / 8 walks for ECPT</text><text fill="#2B91AF" font-family="Consolas,Consolas_MSFontService,sans-serif" font-weight="400" font-size="37" transform="matrix(1 0 0 1 2241.25 598)">te_</text><text fill="#2B91AF" font-family="Consolas,Consolas_MSFontService,sans-serif" font-weight="400" font-size="37" transform="matrix(1 0 0 1 2301.41 598)">iter</text><text font-family="Consolas,Consolas_MSFontService,sans-serif" font-weight="400" font-size="37" transform="matrix(1 0 0 1 2381.61 598)"> </text><text font-family="Consolas,Consolas_MSFontService,sans-serif" font-weight="400" font-size="37" transform="matrix(1 0 0 1 2401.67 598)">*</text><text font-family="Consolas,Consolas_MSFontService,sans-serif" font-weight="400" font-size="37" transform="matrix(1 0 0 1 2421.72 598)">i</text><text font-family="Consolas,Consolas_MSFontService,sans-serif" font-weight="400" font-size="37" transform="matrix(1 0 0 1 2441.77 598)"> </text><text font-family="Consolas,Consolas_MSFontService,sans-serif" font-weight="400" font-size="37" transform="matrix(1 0 0 1 2461.82 598)">= </text><text fill="#74531F" font-family="Consolas,Consolas_MSFontService,sans-serif" font-weight="400" font-size="37" transform="matrix(1 0 0 1 2501.93 598)">tentry_iter_start</text><text font-family="Consolas,Consolas_MSFontService,sans-serif" font-weight="400" font-size="37" transform="matrix(1 0 0 1 2842.81 598)">(</text><text font-family="Consolas,Consolas_MSFontService,sans-serif" font-weight="400" font-size="37" transform="matrix(1 0 0 1 2862.86 598)">mm, </text><text font-family="Consolas,Consolas_MSFontService,sans-serif" font-weight="400" font-size="37" transform="matrix(1 0 0 1 2943.07 598)">addr</text><text font-family="Consolas,Consolas_MSFontService,sans-serif" font-weight="400" font-size="37" transform="matrix(1 0 0 1 3023.28 598)">, </text><text font-family="Consolas,Consolas_MSFontService,sans-serif" font-weight="400" font-size="37" transform="matrix(1 0 0 1 3063.39 598)">cend</text><text font-family="Consolas,Consolas_MSFontService,sans-serif" font-weight="400" font-size="37" transform="matrix(1 0 0 1 3143.59 598)">);</text><text fill="#8F08C4" font-family="Consolas,Consolas_MSFontService,sans-serif" font-weight="400" font-size="37" transform="matrix(1 0 0 1 2241.25 648)">while</text><text font-family="Consolas,Consolas_MSFontService,sans-serif" font-weight="400" font-size="37" transform="matrix(1 0 0 1 2341.51 648)"> </text><text font-family="Consolas,Consolas_MSFontService,sans-serif" font-weight="400" font-size="37" transform="matrix(1 0 0 1 2361.56 648)">(</text><text fill="#74531F" font-family="Consolas,Consolas_MSFontService,sans-serif" font-weight="400" font-size="37" transform="matrix(1 0 0 1 2381.61 648)">tentry_iter_has_next</text><text font-family="Consolas,Consolas_MSFontService,sans-serif" font-weight="400" font-size="37" transform="matrix(1 0 0 1 2782.66 648)">(</text><text font-family="Consolas,Consolas_MSFontService,sans-serif" font-weight="400" font-size="37" transform="matrix(1 0 0 1 2802.71 648)">i</text><text font-family="Consolas,Consolas_MSFontService,sans-serif" font-weight="400" font-size="37" transform="matrix(1 0 0 1 2822.76 648)">)) {</text><text fill="#008000" font-family="Consolas,Consolas_MSFontService,sans-serif" font-weight="400" font-size="37" transform="matrix(1 0 0 1 2241.25 699)"> </text><text fill="#008000" font-family="Consolas,Consolas_MSFontService,sans-serif" font-weight="400" font-size="37" transform="matrix(1 0 0 1 2261.3 699)"> </text><text fill="#008000" font-family="Consolas,Consolas_MSFontService,sans-serif" font-weight="400" font-size="37" transform="matrix(1 0 0 1 2281.35 699)">// arch</text><text fill="#008000" font-family="Consolas,Consolas_MSFontService,sans-serif" font-weight="400" font-size="37" transform="matrix(1 0 0 1 2421.72 699)">-</text><text fill="#008000" font-family="Consolas,Consolas_MSFontService,sans-serif" font-weight="400" font-size="37" transform="matrix(1 0 0 1 2441.77 699)">defined iteration progression</text><text font-family="Consolas,Consolas_MSFontService,sans-serif" font-weight="400" font-size="37" transform="matrix(1 0 0 1 2241.25 750)"> </text><text font-family="Consolas,Consolas_MSFontService,sans-serif" font-weight="400" font-size="37" transform="matrix(1 0 0 1 2261.3 750)"> </text><text fill="#2B91AF" font-family="Consolas,Consolas_MSFontService,sans-serif" font-weight="400" font-size="37" transform="matrix(1 0 0 1 2281.35 750)">size_t</text><text font-family="Consolas,Consolas_MSFontService,sans-serif" font-weight="400" font-size="37" transform="matrix(1 0 0 1 2401.67 750)"> </text><text font-family="Consolas,Consolas_MSFontService,sans-serif" font-weight="400" font-size="37" transform="matrix(1 0 0 1 2421.72 750)">size</text><text font-family="Consolas,Consolas_MSFontService,sans-serif" font-weight="400" font-size="37" transform="matrix(1 0 0 1 2501.93 750)">;</text><text font-family="Consolas,Consolas_MSFontService,sans-serif" font-weight="400" font-size="37" transform="matrix(1 0 0 1 2241.25 800)">  </text><text fill="#2B91AF" font-family="Consolas,Consolas_MSFontService,sans-serif" font-weight="400" font-size="37" transform="matrix(1 0 0 1 2281.35 800)">tentry</text><text font-family="Consolas,Consolas_MSFontService,sans-serif" font-weight="400" font-size="37" transform="matrix(1 0 0 1 2401.67 800)"> </text><text font-family="Consolas,Consolas_MSFontService,sans-serif" font-weight="400" font-size="37" transform="matrix(1 0 0 1 2421.72 800)">*</text><text font-family="Consolas,Consolas_MSFontService,sans-serif" font-weight="400" font-size="37" transform="matrix(1 0 0 1 2441.77 800)">tep</text><text font-family="Consolas,Consolas_MSFontService,sans-serif" font-weight="400" font-size="37" transform="matrix(1 0 0 1 2501.93 800)"> </text><text font-family="Consolas,Consolas_MSFontService,sans-serif" font-weight="400" font-size="37" transform="matrix(1 0 0 1 2521.98 800)">= </text><text fill="#74531F" font-family="Consolas,Consolas_MSFontService,sans-serif" font-weight="400" font-size="37" transform="matrix(1 0 0 1 2562.08 800)">tentry_iter_next</text><text font-family="Consolas,Consolas_MSFontService,sans-serif" font-weight="400" font-size="37" transform="matrix(1 0 0 1 2882.92 800)">(</text><text font-family="Consolas,Consolas_MSFontService,sans-serif" font-weight="400" font-size="37" transform="matrix(1 0 0 1 2902.97 800)">i</text><text font-family="Consolas,Consolas_MSFontService,sans-serif" font-weight="400" font-size="37" transform="matrix(1 0 0 1 2923.02 800)">, &amp;size</text><text font-family="Consolas,Consolas_MSFontService,sans-serif" font-weight="400" font-size="37" transform="matrix(1 0 0 1 3063.39 800)">);</text><text font-family="Consolas,Consolas_MSFontService,sans-serif" font-weight="400" font-size="37" transform="matrix(1 0 0 1 2241.25 851)"> </text><text font-family="Consolas,Consolas_MSFontService,sans-serif" font-weight="400" font-size="37" transform="matrix(1 0 0 1 2261.3 851)"> </text><text fill="#2B91AF" font-family="Consolas,Consolas_MSFontService,sans-serif" font-weight="400" font-size="37" transform="matrix(1 0 0 1 2281.35 851)">tentry</text><text font-family="Consolas,Consolas_MSFontService,sans-serif" font-weight="400" font-size="37" transform="matrix(1 0 0 1 2401.67 851)"> </text><text font-family="Consolas,Consolas_MSFontService,sans-serif" font-weight="400" font-size="37" transform="matrix(1 0 0 1 2421.72 851)">te</text><text font-family="Consolas,Consolas_MSFontService,sans-serif" font-weight="400" font-size="37" transform="matrix(1 0 0 1 2461.82 851)"> </text><text font-family="Consolas,Consolas_MSFontService,sans-serif" font-weight="400" font-size="37" transform="matrix(1 0 0 1 2481.87 851)">= *</text><text font-family="Consolas,Consolas_MSFontService,sans-serif" font-weight="400" font-size="37" transform="matrix(1 0 0 1 2542.03 851)">tep</text><text font-family="Consolas,Consolas_MSFontService,sans-serif" font-weight="400" font-size="37" transform="matrix(1 0 0 1 2602.19 851)">;</text><text font-family="Consolas,Consolas_MSFontService,sans-serif" font-weight="400" font-size="37" transform="matrix(1 0 0 1 2241.25 901)"> </text><text font-family="Consolas,Consolas_MSFontService,sans-serif" font-weight="400" font-size="37" transform="matrix(1 0 0 1 2261.3 901)"> </text><text font-family="Consolas,Consolas_MSFontService,sans-serif" font-weight="400" font-size="37" transform="matrix(1 0 0 1 2281.35 901)">pa = </text><text fill="#74531F" font-family="Consolas,Consolas_MSFontService,sans-serif" font-weight="400" font-size="37" transform="matrix(1 0 0 1 2381.61 901)">read_tentry_attr</text><text font-family="Consolas,Consolas_MSFontService,sans-serif" font-weight="400" font-size="37" transform="matrix(1 0 0 1 2702.45 901)">(</text><text font-family="Consolas,Consolas_MSFontService,sans-serif" font-weight="400" font-size="37" transform="matrix(1 0 0 1 2722.5 901)">te</text><text font-family="Consolas,Consolas_MSFontService,sans-serif" font-weight="400" font-size="37" transform="matrix(1 0 0 1 2762.6 901)">, TE_PADDR);</text><text font-family="Consolas,Consolas_MSFontService,sans-serif" font-weight="400" font-size="37" transform="matrix(1 0 0 1 2241.25 1003)"> </text><text font-family="Consolas,Consolas_MSFontService,sans-serif" font-weight="400" font-size="37" transform="matrix(1 0 0 1 2261.3 1003)"> </text><text fill="#8F08C4" font-family="Consolas,Consolas_MSFontService,sans-serif" font-weight="400" font-size="37" transform="matrix(1 0 0 1 2281.35 1003)">if</text><text font-family="Consolas,Consolas_MSFontService,sans-serif" font-weight="400" font-size="37" transform="matrix(1 0 0 1 2321.46 1003)"> </text><text font-family="Consolas,Consolas_MSFontService,sans-serif" font-weight="400" font-size="37" transform="matrix(1 0 0 1 2341.51 1003)">(</text><text fill="#74531F" font-family="Consolas,Consolas_MSFontService,sans-serif" font-weight="400" font-size="37" transform="matrix(1 0 0 1 2361.56 1003)">read_tentry_attr</text><text font-family="Consolas,Consolas_MSFontService,sans-serif" font-weight="400" font-size="37" transform="matrix(1 0 0 1 2682.4 1003)">(</text><text font-family="Consolas,Consolas_MSFontService,sans-serif" font-weight="400" font-size="37" transform="matrix(1 0 0 1 2702.45 1003)">te</text><text font-family="Consolas,Consolas_MSFontService,sans-serif" font-weight="400" font-size="37" transform="matrix(1 0 0 1 2742.55 1003)">, TE_PRESENT)) {</text><text font-family="Consolas,Consolas_MSFontService,sans-serif" font-weight="400" font-size="37" transform="matrix(1 0 0 1 2241.25 1053)"> </text><text font-family="Consolas,Consolas_MSFontService,sans-serif" font-weight="400" font-size="37" transform="matrix(1 0 0 1 2261.3 1053)"> </text><text font-family="Consolas,Consolas_MSFontService,sans-serif" font-weight="400" font-size="37" transform="matrix(1 0 0 1 2281.35 1053)"> </text><text font-family="Consolas,Consolas_MSFontService,sans-serif" font-weight="400" font-size="37" transform="matrix(1 0 0 1 2301.41 1053)"> </text><text fill="#8F08C4" font-family="Consolas,Consolas_MSFontService,sans-serif" font-weight="400" font-size="37" transform="matrix(1 0 0 1 2321.46 1053)">if</text><text font-family="Consolas,Consolas_MSFontService,sans-serif" font-weight="400" font-size="37" transform="matrix(1 0 0 1 2361.56 1053)"> </text><text font-family="Consolas,Consolas_MSFontService,sans-serif" font-weight="400" font-size="37" transform="matrix(1 0 0 1 2381.61 1053)">(... &amp;&amp; </text><text fill="#74531F" font-family="Consolas,Consolas_MSFontService,sans-serif" font-weight="400" font-size="37" transform="matrix(1 0 0 1 2542.03 1053)">read_tentry_attr</text><text font-family="Consolas,Consolas_MSFontService,sans-serif" font-weight="400" font-size="37" transform="matrix(1 0 0 1 2862.86 1053)">(</text><text font-family="Consolas,Consolas_MSFontService,sans-serif" font-weight="400" font-size="37" transform="matrix(1 0 0 1 2882.92 1053)">te</text><text font-family="Consolas,Consolas_MSFontService,sans-serif" font-weight="400" font-size="37" transform="matrix(1 0 0 1 2923.02 1053)">, TE_DIRTY))</text><text font-family="Consolas,Consolas_MSFontService,sans-serif" font-weight="400" font-size="37" transform="matrix(1 0 0 1 2241.25 1104)"> </text><text font-family="Consolas,Consolas_MSFontService,sans-serif" font-weight="400" font-size="37" transform="matrix(1 0 0 1 2261.3 1104)"> </text><text font-family="Consolas,Consolas_MSFontService,sans-serif" font-weight="400" font-size="37" transform="matrix(1 0 0 1 2281.35 1104)"> </text><text font-family="Consolas,Consolas_MSFontService,sans-serif" font-weight="400" font-size="37" transform="matrix(1 0 0 1 2301.41 1104)"> </text><text font-family="Consolas,Consolas_MSFontService,sans-serif" font-weight="400" font-size="37" transform="matrix(1 0 0 1 2321.46 1104)"> </text><text font-family="Consolas,Consolas_MSFontService,sans-serif" font-weight="400" font-size="37" transform="matrix(1 0 0 1 2341.51 1104)"> </text><text font-family="Consolas,Consolas_MSFontService,sans-serif" font-weight="400" font-size="37" transform="matrix(1 0 0 1 2361.56 1104)">...</text><text font-family="Consolas,Consolas_MSFontService,sans-serif" font-weight="400" font-size="37" transform="matrix(1 0 0 1 2241.25 1154)"> </text><text font-family="Consolas,Consolas_MSFontService,sans-serif" font-weight="400" font-size="37" transform="matrix(1 0 0 1 2261.3 1154)"> </text><text font-family="Consolas,Consolas_MSFontService,sans-serif" font-weight="400" font-size="37" transform="matrix(1 0 0 1 2281.35 1154)">}</text><text font-family="Consolas,Consolas_MSFontService,sans-serif" font-weight="400" font-size="37" transform="matrix(1 0 0 1 2241.25 1205)">}</text><text fill="#74531F" font-family="Consolas,Consolas_MSFontService,sans-serif" font-weight="400" font-size="37" transform="matrix(1 0 0 1 2241.25 1256)">tentry</text><text fill="#74531F" font-family="Consolas,Consolas_MSFontService,sans-serif" font-weight="400" font-size="37" transform="matrix(1 0 0 1 2361.56 1256)">_iter_end</text><text font-family="Consolas,Consolas_MSFontService,sans-serif" font-weight="400" font-size="37" transform="matrix(1 0 0 1 2542.03 1256)">(</text><text font-family="Consolas,Consolas_MSFontService,sans-serif" font-weight="400" font-size="37" transform="matrix(1 0 0 1 2562.08 1256)">i</text><text font-family="Consolas,Consolas_MSFontService,sans-serif" font-weight="400" font-size="37" transform="matrix(1 0 0 1 2582.14 1256)">);</text><rect x="2897" y="590" width="403" height="130" fill="#000000" fill-opacity="0.501961"/><text fill="#FFFFFF" font-family="Times New Roman,Times New Roman_MSFontService,sans-serif" font-weight="400" font-size="41" transform="matrix(1 0 0 1 2954.82 646)">Arch. may define</text><text fill="#FFFFFF" font-family="Times New Roman,Times New Roman_MSFontService,sans-serif" font-weight="400" font-size="41" transform="matrix(1 0 0 1 2951.38 695)">optimized iterator</text><path d="M1.71281-1.5225 90.4248 98.2785 86.9992 101.323-1.71281 1.5225ZM95.9439 87.2404 103.937 116.929 75.3901 105.51Z" fill="#000000" fill-opacity="0.501961" transform="matrix(-1 0 0 1 2897.44 655.5)"/><rect x="2975" y="876" width="260" height="78" fill="#000000" fill-opacity="0.501961"/><text fill="#FFFFFF" font-family="Times New Roman,Times New Roman_MSFontService,sans-serif" font-weight="400" font-size="41" transform="matrix(1 0 0 1 2996.84 930)">In</text><text fill="#FFFFFF" font-family="Times New Roman,Times New Roman_MSFontService,sans-serif" font-weight="400" font-size="41" transform="matrix(1 0 0 1 3031.21 930)">-</text><text fill="#FFFFFF" font-family="Times New Roman,Times New Roman_MSFontService,sans-serif" font-weight="400" font-size="41" transform="matrix(1 0 0 1 3044.96 930)">place read</text><path d="M2975.23 917.781 2738.27 905.933 2738.5 901.355 2975.46 913.203ZM2742.28 917.606 2715.5 902.5 2743.65 890.14Z" fill="#000000" fill-opacity="0.501961"/><path d="M0.467395-2.2435 289.844 58.0432 288.909 62.5302-0.467395 2.2435ZM287.693 45.8909 311.811 64.9606 282.085 72.8129Z" fill="#000000" fill-opacity="0.501961" transform="matrix(-1 0 0 1 2975.31 915.5)"/><path d="M1.90678-1.27119 67.1476 96.5901 63.3341 99.1325-1.90678 1.27119ZM74.1392 86.4206 77.9528 116.929 51.2578 101.675Z" fill="#000000" fill-opacity="0.501961" transform="matrix(-1 0 0 1 2975.45 915.5)"/></g></svg>