<svg width="2807" height="1323" xmlns="http://www.w3.org/2000/svg" xmlns:xlink="http://www.w3.org/1999/xlink" xml:space="preserve" overflow="hidden"><g transform="translate(-99 -223)"><text font-family="Consolas,Consolas_MSFontService,sans-serif" font-weight="700" font-size="73" transform="matrix(1 0 0 1 143 425)">void </text><text font-family="Consolas,Consolas_MSFontService,sans-serif" font-weight="700" font-size="73" transform="matrix(1 0 0 1 343.521 425)">walk_add</text><text font-family="Consolas,Consolas_MSFontService,sans-serif" font-weight="700" font-size="73" transform="matrix(1 0 0 1 664.354 425)">r</text><text font-family="Consolas,Consolas_MSFontService,sans-serif" font-weight="700" font-size="73" transform="matrix(1 0 0 1 704.458 425)">_range</text><text font-family="Consolas,Consolas_MSFontService,sans-serif" font-weight="700" font-size="73" transform="matrix(1 0 0 1 945.083 425)">(mm, </text><text font-family="Consolas,Consolas_MSFontService,sans-serif" font-weight="700" font-size="73" transform="matrix(1 0 0 1 1145.6 425)">addr</text><text font-family="Consolas,Consolas_MSFontService,sans-serif" font-weight="700" font-size="73" transform="matrix(1 0 0 1 1306.02 425)">,</text><text font-family="Consolas,Consolas_MSFontService,sans-serif" font-weight="700" font-size="73" transform="matrix(1 0 0 1 1386.23 425)">end)</text><text font-family="Consolas,Consolas_MSFontService,sans-serif" font-weight="700" font-size="73" transform="matrix(1 0 0 1 1586.75 425)">{</text><text fill="#093C92" font-family="Consolas,Consolas_MSFontService,sans-serif" font-weight="400" font-size="73" transform="matrix(1 0 0 1 223.208 513)">alock_t</text><text fill="#24292E" font-family="Consolas,Consolas_MSFontService,sans-serif" font-weight="400" font-size="73" transform="matrix(1 0 0 1 544.042 513)">*lock </text><text font-family="Consolas,Consolas_MSFontService,sans-serif" font-weight="700" font-size="73" transform="matrix(1 0 0 1 784.667 513)">= </text><text fill="#C00000" font-family="Consolas,Consolas_MSFontService,sans-serif" font-weight="700" font-size="73" transform="matrix(1 0 0 1 864.875 513)">aspace_lock</text><text fill="#24292E" font-family="Consolas,Consolas_MSFontService,sans-serif" font-weight="400" font-size="73" transform="matrix(1 0 0 1 1306.02 513)">(mm, </text><text fill="#24292E" font-family="Consolas,Consolas_MSFontService,sans-serif" font-weight="400" font-size="73" transform="matrix(1 0 0 1 1506.54 513)">addr</text><text fill="#24292E" font-family="Consolas,Consolas_MSFontService,sans-serif" font-weight="400" font-size="73" transform="matrix(1 0 0 1 1666.96 513)">, </text><text fill="#24292E" font-family="Consolas,Consolas_MSFontService,sans-serif" font-weight="400" font-size="73" transform="matrix(1 0 0 1 1747.17 513)">end);</text><text fill="#093C92" font-family="Consolas,Consolas_MSFontService,sans-serif" font-weight="400" font-size="73" transform="matrix(1 0 0 1 223.208 601)">titer_t</text><text fill="#24292E" font-family="Consolas,Consolas_MSFontService,sans-serif" font-weight="400" font-size="73" transform="matrix(1 0 0 1 544.042 601)">*</text><text fill="#24292E" font-family="Consolas,Consolas_MSFontService,sans-serif" font-weight="400" font-size="73" transform="matrix(1 0 0 1 584.146 601)">iter</text><text fill="#24292E" font-family="Consolas,Consolas_MSFontService,sans-serif" font-weight="400" font-size="73" transform="matrix(1 0 0 1 784.667 601)">= </text><text fill="#24292E" font-family="Consolas,Consolas_MSFontService,sans-serif" font-weight="400" font-size="73" transform="matrix(1 0 0 1 864.875 601)">tentry_iter_start</text><text fill="#24292E" font-family="Consolas,Consolas_MSFontService,sans-serif" font-weight="400" font-size="73" transform="matrix(1 0 0 1 1546.65 601)">(mm, </text><text fill="#24292E" font-family="Consolas,Consolas_MSFontService,sans-serif" font-weight="400" font-size="73" transform="matrix(1 0 0 1 1747.17 601)">addr</text><text fill="#24292E" font-family="Consolas,Consolas_MSFontService,sans-serif" font-weight="400" font-size="73" transform="matrix(1 0 0 1 1907.58 601)">, end);</text><text fill="#093C92" font-family="Consolas,Consolas_MSFontService,sans-serif" font-weight="400" font-size="73" transform="matrix(1 0 0 1 223.208 689)">while</text><text fill="#24292E" font-family="Consolas,Consolas_MSFontService,sans-serif" font-weight="400" font-size="73" transform="matrix(1 0 0 1 463.833 689)">(</text><text fill="#24292E" font-family="Consolas,Consolas_MSFontService,sans-serif" font-weight="400" font-size="73" transform="matrix(1 0 0 1 503.937 689)">tentry_iter_has_next</text><text fill="#24292E" font-family="Consolas,Consolas_MSFontService,sans-serif" font-weight="400" font-size="73" transform="matrix(1 0 0 1 1306.02 689)">(</text><text fill="#24292E" font-family="Consolas,Consolas_MSFontService,sans-serif" font-weight="400" font-size="73" transform="matrix(1 0 0 1 1346.12 689)">iter</text><text fill="#24292E" font-family="Consolas,Consolas_MSFontService,sans-serif" font-weight="400" font-size="73" transform="matrix(1 0 0 1 1506.54 689)">)</text><text fill="#24292E" font-family="Consolas,Consolas_MSFontService,sans-serif" font-weight="400" font-size="73" transform="matrix(1 0 0 1 1546.65 689)">)</text><text fill="#24292E" font-family="Consolas,Consolas_MSFontService,sans-serif" font-weight="400" font-size="73" transform="matrix(1 0 0 1 1626.85 689)">{</text><text fill="#093C92" font-family="Consolas,Consolas_MSFontService,sans-serif" font-weight="400" font-size="73" transform="matrix(1 0 0 1 303.417 777)">size</text><text fill="#093C92" font-family="Consolas,Consolas_MSFontService,sans-serif" font-weight="400" font-size="73" transform="matrix(1 0 0 1 463.833 777)">_t</text><text fill="#24292E" font-family="Consolas,Consolas_MSFontService,sans-serif" font-weight="400" font-size="73" transform="matrix(1 0 0 1 584.146 777)">size;</text><text fill="#093C92" font-family="Consolas,Consolas_MSFontService,sans-serif" font-weight="400" font-size="73" transform="matrix(1 0 0 1 303.417 865)">tentry</text><text fill="#093C92" font-family="Consolas,Consolas_MSFontService,sans-serif" font-weight="400" font-size="73" transform="matrix(1 0 0 1 544.042 865)">_t</text><text fill="#24292E" font-family="Consolas,Consolas_MSFontService,sans-serif" font-weight="400" font-size="73" transform="matrix(1 0 0 1 664.354 865)">*</text><text fill="#24292E" font-family="Consolas,Consolas_MSFontService,sans-serif" font-weight="400" font-size="73" transform="matrix(1 0 0 1 704.458 865)">tentry</text><text fill="#24292E" font-family="Consolas,Consolas_MSFontService,sans-serif" font-weight="400" font-size="73" transform="matrix(1 0 0 1 985.187 865)">= </text><text fill="#C00000" font-family="Consolas,Consolas_MSFontService,sans-serif" font-weight="700" font-size="73" transform="matrix(1 0 0 1 1065.4 865)">tentey_iter_next</text><text fill="#24292E" font-family="Consolas,Consolas_MSFontService,sans-serif" font-weight="400" font-size="73" transform="matrix(1 0 0 1 1707.06 865)">(</text><text fill="#24292E" font-family="Consolas,Consolas_MSFontService,sans-serif" font-weight="400" font-size="73" transform="matrix(1 0 0 1 1747.17 865)">iter</text><text fill="#24292E" font-family="Consolas,Consolas_MSFontService,sans-serif" font-weight="400" font-size="73" transform="matrix(1 0 0 1 1907.58 865)">, &amp;size);</text><text fill="#6A737D" font-family="Consolas,Consolas_MSFontService,sans-serif" font-weight="400" font-size="73" transform="matrix(1 0 0 1 303.417 953)">...</text><text fill="#24292E" font-family="Consolas,Consolas_MSFontService,sans-serif" font-weight="400" font-size="73" transform="matrix(1 0 0 1 303.417 1041)">err </text><text fill="#24292E" font-family="Consolas,Consolas_MSFontService,sans-serif" font-weight="400" font-size="73" transform="matrix(1 0 0 1 463.833 1041)">= ops</text><text fill="#24292E" font-family="Consolas,Consolas_MSFontService,sans-serif" font-weight="400" font-size="73" transform="matrix(1 0 0 1 664.354 1041)">-</text><text fill="#24292E" font-family="Consolas,Consolas_MSFontService,sans-serif" font-weight="400" font-size="73" transform="matrix(1 0 0 1 704.458 1041)">&gt;</text><text fill="#C00000" font-family="Consolas,Consolas_MSFontService,sans-serif" font-weight="700" font-size="73" transform="matrix(1 0 0 1 744.562 1041)">tentry</text><text fill="#24292E" font-family="Consolas,Consolas_MSFontService,sans-serif" font-weight="400" font-size="73" transform="matrix(1 0 0 1 985.187 1041)">(</text><text fill="#24292E" font-family="Consolas,Consolas_MSFontService,sans-serif" font-weight="400" font-size="73" transform="matrix(1 0 0 1 1025.29 1041)">tentry</text><text fill="#24292E" font-family="Consolas,Consolas_MSFontService,sans-serif" font-weight="400" font-size="73" transform="matrix(1 0 0 1 1265.92 1041)">, </text><text fill="#24292E" font-family="Consolas,Consolas_MSFontService,sans-serif" font-weight="400" font-size="73" transform="matrix(1 0 0 1 1346.12 1041)">addr, addr + </text><text fill="#24292E" font-family="Consolas,Consolas_MSFontService,sans-serif" font-weight="400" font-size="73" transform="matrix(1 0 0 1 1867.48 1041)">size</text><text fill="#24292E" font-family="Consolas,Consolas_MSFontService,sans-serif" font-weight="400" font-size="73" transform="matrix(1 0 0 1 2027.9 1041)">, </text><text fill="#24292E" font-family="Consolas,Consolas_MSFontService,sans-serif" font-weight="400" font-size="73" transform="matrix(1 0 0 1 2108.1 1041)">walk);</text><text fill="#6A737D" font-family="Consolas,Consolas_MSFontService,sans-serif" font-weight="400" font-size="73" transform="matrix(1 0 0 1 303.417 1129)">...</text><text fill="#24292E" font-family="Consolas,Consolas_MSFontService,sans-serif" font-weight="400" font-size="73" transform="matrix(1 0 0 1 223.208 1217)">}</text><text fill="#24292E" font-family="Consolas,Consolas_MSFontService,sans-serif" font-weight="400" font-size="73" transform="matrix(1 0 0 1 223.208 1305)">tentry_iter_end</text><text fill="#24292E" font-family="Consolas,Consolas_MSFontService,sans-serif" font-weight="400" font-size="73" transform="matrix(1 0 0 1 824.771 1305)">(</text><text fill="#24292E" font-family="Consolas,Consolas_MSFontService,sans-serif" font-weight="400" font-size="73" transform="matrix(1 0 0 1 864.875 1305)">iter</text><text fill="#24292E" font-family="Consolas,Consolas_MSFontService,sans-serif" font-weight="400" font-size="73" transform="matrix(1 0 0 1 1025.29 1305)">);</text><text fill="#24292E" font-family="Consolas,Consolas_MSFontService,sans-serif" font-weight="400" font-size="73" transform="matrix(1 0 0 1 223.208 1393)">aspace</text><text fill="#24292E" font-family="Consolas,Consolas_MSFontService,sans-serif" font-weight="400" font-size="73" transform="matrix(1 0 0 1 463.833 1393)">_</text><text fill="#24292E" font-family="Consolas,Consolas_MSFontService,sans-serif" font-weight="400" font-size="73" transform="matrix(1 0 0 1 503.937 1393)">unlock</text><text fill="#24292E" font-family="Consolas,Consolas_MSFontService,sans-serif" font-weight="400" font-size="73" transform="matrix(1 0 0 1 744.562 1393)">(</text><text fill="#24292E" font-family="Consolas,Consolas_MSFontService,sans-serif" font-weight="400" font-size="73" transform="matrix(1 0 0 1 784.667 1393)">lock</text><text fill="#24292E" font-family="Consolas,Consolas_MSFontService,sans-serif" font-weight="400" font-size="73" transform="matrix(1 0 0 1 945.083 1393)">);</text><text fill="#24292E" font-family="Consolas,Consolas_MSFontService,sans-serif" font-weight="400" font-size="73" transform="matrix(1 0 0 1 143 1481)">}</text><text fill="#7F7F7F" font-family="Consolas,Consolas_MSFontService,sans-serif" font-weight="400" font-size="73" transform="matrix(1 0 0 1 220.866 1482)">/* </text><text fill="#7F7F7F" font-family="Consolas,Consolas_MSFontService,sans-serif" font-weight="400" font-size="73" transform="matrix(1 0 0 1 341.179 1482)">TODO </text><text fill="#7F7F7F" font-family="Consolas,Consolas_MSFontService,sans-serif" font-weight="400" font-size="73" transform="matrix(1 0 0 1 541.699 1482)">*/</text><rect x="1624.5" y="245.5" width="1117" height="204" stroke="#000000" stroke-width="4.58333" stroke-linejoin="round" stroke-miterlimit="10" fill="#B8FFC1" fill-opacity="0.639216"/><text font-family="Times,Times_MSFontService,sans-serif" font-weight="400" font-size="83" transform="matrix(1 0 0 1 1677.12 327)">Lock </text><text font-family="Times,Times_MSFontService,sans-serif" font-weight="400" font-size="83" transform="matrix(1 0 0 1 1867.33 327)">address </text><text font-family="Times,Times_MSFontService,sans-serif" font-weight="400" font-size="83" transform="matrix(1 0 0 1 2135.45 327)">range only</text><text font-family="Times,Times_MSFontService,sans-serif" font-weight="400" font-size="83" transform="matrix(1 0 0 1 1677.12 426)">once for batched operations</text><rect x="1192.5" y="1071.5" width="1418" height="221" stroke="#000000" stroke-width="4.58333" stroke-linejoin="round" stroke-miterlimit="10" fill="#B8FFC1" fill-opacity="0.639216"/><text font-family="Times,Times_MSFontService,sans-serif" font-weight="400" font-size="83" transform="matrix(1 0 0 1 1224.75 1162)">A custom function uses entry pointers to </text><text font-family="Times,Times_MSFontService,sans-serif" font-weight="400" font-size="83" transform="matrix(1 0 0 1 1224.75 1261)">perform in</text><text font-family="Times,Times_MSFontService,sans-serif" font-weight="400" font-size="83" transform="matrix(1 0 0 1 1575.38 1261)">-</text><text font-family="Times,Times_MSFontService,sans-serif" font-weight="400" font-size="83" transform="matrix(1 0 0 1 1602.88 1261)">place attribute updates</text><rect x="1520.5" y="486.5" width="1351" height="312" stroke="#000000" stroke-width="4.58333" stroke-linejoin="round" stroke-miterlimit="10" fill="#D2FFD7"/><text font-family="Times,Times_MSFontService,sans-serif" font-weight="400" font-size="83" transform="matrix(1 0 0 1 1552.56 573)">Exploit </text><text font-family="Times,Times_MSFontService,sans-serif" font-weight="400" font-size="83" transform="matrix(1 0 0 1 1816.1 573)">page table entry adjacency </text><text font-family="Times,Times_MSFontService,sans-serif" font-weight="400" font-size="83" transform="matrix(1 0 0 1 2714.43 573)">to</text><text font-family="Times,Times_MSFontService,sans-serif" font-weight="400" font-size="83" transform="matrix(1 0 0 1 1552.56 672)">reduce </text><text font-family="Times,Times_MSFontService,sans-serif" font-weight="400" font-size="83" transform="matrix(1 0 0 1 1793.18 672)">page walk </text><text font-family="Times,Times_MSFontService,sans-serif" font-weight="400" font-size="83" transform="matrix(1 0 0 1 2150.68 672)">overhead</text><text font-family="Times,Times_MSFontService,sans-serif" font-weight="400" font-size="83" transform="matrix(1 0 0 1 2453.18 672)">.</text><text font-family="Times,Times_MSFontService,sans-serif" font-weight="400" font-size="83" transform="matrix(1 0 0 1 1552.56 770)">Can internally implement it as a </text><text font-family="Consolas,Consolas_MSFontService,sans-serif" font-weight="400" font-size="83" transform="matrix(1 0 0 1 2629.64 770)">pte</text><text font-family="Consolas,Consolas_MSFontService,sans-serif" font-weight="400" font-size="83" transform="matrix(1 0 0 1 2765.42 770)">++</text><path d="M0 0-1.55215 0-1.55215 46.4598 488.062 46.4598" stroke="#000000" stroke-width="4.58333" stroke-linejoin="round" stroke-miterlimit="10" fill="none" fill-rule="evenodd" transform="matrix(1 0 0 -1 1136.5 460.96)"/><path d="M896.5 1069.5 893.48 1069.5 893.48 1121.47 1192.32 1121.47" stroke="#000000" stroke-width="4.58333" stroke-linejoin="round" stroke-miterlimit="10" fill="none" fill-rule="evenodd"/><path d="M0 0-1.14037 0-1.14037 85.748 358.583 85.748" stroke="#000000" stroke-width="4.58333" stroke-linejoin="round" stroke-miterlimit="10" fill="none" fill-rule="evenodd" transform="matrix(1 0 0 -1 1161.5 806.248)"/></g></svg>