<svg width="1098" height="866" xmlns="http://www.w3.org/2000/svg" xmlns:xlink="http://www.w3.org/1999/xlink" xml:space="preserve" overflow="hidden"><g transform="translate(-1102 -400)"><path d="M1143.22 412.436 1203.38 412.436 1203.38 455.436 1143.22 455.436Z" fill="#FFFFFF" fill-rule="evenodd"/><path d="M1203.38 412.436 1283.58 412.436 1283.58 455.436 1203.38 455.436Z" fill="#FFFFFF" fill-rule="evenodd"/><path d="M1283.58 412.436 1303.64 412.436 1303.64 455.436 1283.58 455.436Z" fill="#FFFFFF" fill-rule="evenodd"/><path d="M1303.64 412.436 1484.11 412.436 1484.11 455.436 1303.64 455.436Z" fill="#FFFFFF" fill-rule="evenodd"/><path d="M1143.22 463.459 1243.48 463.459 1243.48 506.459 1143.22 506.459Z" fill="#FFFFFF" fill-rule="evenodd"/><path d="M1243.48 463.459 1323.69 463.459 1323.69 506.459 1243.48 506.459Z" fill="#FFFFFF" fill-rule="evenodd"/><path d="M1323.69 463.459 1925.25 463.459 1925.25 506.459 1323.69 506.459Z" fill="#FFFFFF" fill-rule="evenodd"/><path d="M1143.22 564.436 1203.38 564.436 1203.38 607.436 1143.22 607.436Z" fill="#FFFFFF" fill-rule="evenodd"/><path d="M1203.38 564.436 1223.43 564.436 1223.43 607.436 1203.38 607.436Z" fill="#FFFFFF" fill-rule="evenodd"/><path d="M1223.43 564.436 1464.05 564.436 1464.05 607.436 1223.43 607.436Z" fill="#FFFFFF" fill-rule="evenodd"/><path d="M1464.05 564.436 1604.42 564.436 1604.42 607.436 1464.05 607.436Z" fill="#FFFFFF" fill-rule="evenodd"/><path d="M1143.22 614.436 1163.27 614.436 1163.27 657.436 1143.22 657.436Z" fill="#FFFFFF" fill-rule="evenodd"/><path d="M1163.27 614.436 1183.32 614.436 1183.32 657.436 1163.27 657.436Z" fill="#FFFFFF" fill-rule="evenodd"/><path d="M1183.32 614.436 1243.48 614.436 1243.48 657.436 1183.32 657.436Z" fill="#FFFFFF" fill-rule="evenodd"/><path d="M1143.22 665.436 1163.27 665.436 1163.27 708.436 1143.22 708.436Z" fill="#FFFFFF" fill-rule="evenodd"/><path d="M1163.27 665.436 1183.32 665.436 1183.32 708.436 1163.27 708.436Z" fill="#FFFFFF" fill-rule="evenodd"/><path d="M1183.32 665.436 1243.48 665.436 1243.48 708.436 1183.32 708.436Z" fill="#FFFFFF" fill-rule="evenodd"/><path d="M1243.48 665.436 1263.53 665.436 1263.53 708.436 1243.48 708.436Z" fill="#FFFFFF" fill-rule="evenodd"/><path d="M1263.53 665.436 1323.69 665.436 1323.69 708.436 1263.53 708.436Z" fill="#FFFFFF" fill-rule="evenodd"/><path d="M1323.69 665.436 1403.9 665.436 1403.9 708.436 1323.69 708.436Z" fill="#FFFFFF" fill-rule="evenodd"/><path d="M1403.9 665.436 1423.95 665.436 1423.95 708.436 1403.9 708.436Z" fill="#FFFFFF" fill-rule="evenodd"/><path d="M1423.95 665.436 1464.05 665.436 1464.05 708.436 1423.95 708.436Z" fill="#FFFFFF" fill-rule="evenodd"/><path d="M1464.05 665.436 1544.26 665.436 1544.26 708.436 1464.05 708.436Z" fill="#FFFFFF" fill-rule="evenodd"/><path d="M1544.26 665.436 1584.37 665.436 1584.37 708.436 1544.26 708.436Z" fill="#FFFFFF" fill-rule="evenodd"/><path d="M1584.37 665.436 1664.57 665.436 1664.57 708.436 1584.37 708.436Z" fill="#FFFFFF" fill-rule="evenodd"/><path d="M1664.57 665.436 1684.63 665.436 1684.63 708.436 1664.57 708.436Z" fill="#FFFFFF" fill-rule="evenodd"/><path d="M1684.63 665.436 1985.41 665.436 1985.41 708.436 1684.63 708.436Z" fill="#FFFFFF" fill-rule="evenodd"/><path d="M1143.22 716.459 1163.27 716.459 1163.27 759.459 1143.22 759.459Z" fill="#FFFFFF" fill-rule="evenodd"/><path d="M1163.27 716.459 1183.32 716.459 1183.32 759.459 1163.27 759.459Z" fill="#FFFFFF" fill-rule="evenodd"/><path d="M1183.32 716.459 1203.38 716.459 1203.38 759.459 1183.32 759.459Z" fill="#FFFFFF" fill-rule="evenodd"/><path d="M1203.38 716.459 1223.43 716.459 1223.43 759.459 1203.38 759.459Z" fill="#FFFFFF" fill-rule="evenodd"/><path d="M1223.43 716.459 1444 716.459 1444 759.459 1223.43 759.459Z" fill="#FFFFFF" fill-rule="evenodd"/><path d="M1444 716.459 1464.05 716.459 1464.05 759.459 1444 759.459Z" fill="#FFFFFF" fill-rule="evenodd"/><path d="M1464.05 716.459 1504.16 716.459 1504.16 759.459 1464.05 759.459Z" fill="#FFFFFF" fill-rule="evenodd"/><path d="M1504.16 716.459 1744.78 716.459 1744.78 759.459 1504.16 759.459Z" fill="#FFFFFF" fill-rule="evenodd"/><path d="M1744.78 716.459 1764.83 716.459 1764.83 759.459 1744.78 759.459Z" fill="#FFFFFF" fill-rule="evenodd"/><path d="M1764.83 716.459 1845.04 716.459 1845.04 759.459 1764.83 759.459Z" fill="#FFFFFF" fill-rule="evenodd"/><path d="M1845.04 716.459 1885.15 716.459 1885.15 759.459 1845.04 759.459Z" fill="#FFFFFF" fill-rule="evenodd"/><path d="M1885.15 716.459 1965.36 716.459 1965.36 759.459 1885.15 759.459Z" fill="#FFFFFF" fill-rule="evenodd"/><path d="M1965.36 716.459 2105.72 716.459 2105.72 759.459 1965.36 759.459Z" fill="#FFFFFF" fill-rule="evenodd"/><path d="M1143.22 766.436 1163.27 766.436 1163.27 809.436 1143.22 809.436Z" fill="#FFFFFF" fill-rule="evenodd"/><path d="M1163.27 766.436 1183.32 766.436 1183.32 809.436 1163.27 809.436Z" fill="#FFFFFF" fill-rule="evenodd"/><path d="M1183.32 766.436 1203.38 766.436 1203.38 809.436 1183.32 809.436Z" fill="#FFFFFF" fill-rule="evenodd"/><path d="M1203.38 766.436 1223.43 766.436 1223.43 809.436 1203.38 809.436Z" fill="#FFFFFF" fill-rule="evenodd"/><path d="M1223.43 766.436 1283.58 766.436 1283.58 809.436 1223.43 809.436Z" fill="#FFFFFF" fill-rule="evenodd"/><path d="M1143.22 817.436 1163.27 817.436 1163.27 860.436 1143.22 860.436Z" fill="#FFFFFF" fill-rule="evenodd"/><path d="M1163.27 817.436 1183.32 817.436 1183.32 860.436 1163.27 860.436Z" fill="#FFFFFF" fill-rule="evenodd"/><path d="M1183.32 817.436 1203.38 817.436 1203.38 860.436 1183.32 860.436Z" fill="#FFFFFF" fill-rule="evenodd"/><path d="M1203.38 817.436 1223.43 817.436 1223.43 860.436 1203.38 860.436Z" fill="#FFFFFF" fill-rule="evenodd"/><path d="M1223.43 817.436 1604.42 817.436 1604.42 860.436 1223.43 860.436Z" fill="#FFFFFF" fill-rule="evenodd"/><path d="M1604.42 817.436 1684.63 817.436 1684.63 860.436 1604.42 860.436Z" fill="#FFFFFF" fill-rule="evenodd"/><path d="M1143.22 867.436 1163.27 867.436 1163.27 910.436 1143.22 910.436Z" fill="#FFFFFF" fill-rule="evenodd"/><path d="M1163.27 867.436 1183.32 867.436 1183.32 910.436 1163.27 910.436Z" fill="#FFFFFF" fill-rule="evenodd"/><path d="M1183.32 867.436 1203.38 867.436 1203.38 910.436 1183.32 910.436Z" fill="#FFFFFF" fill-rule="evenodd"/><path d="M1203.38 867.436 1223.43 867.436 1223.43 910.436 1203.38 910.436Z" fill="#FFFFFF" fill-rule="evenodd"/><path d="M1223.43 867.436 1283.58 867.436 1283.58 910.436 1223.43 910.436Z" fill="#FFFFFF" fill-rule="evenodd"/><path d="M1143.22 918.436 1163.27 918.436 1163.27 961.436 1143.22 961.436Z" fill="#FFFFFF" fill-rule="evenodd"/><path d="M1163.27 918.436 1183.32 918.436 1183.32 961.436 1163.27 961.436Z" fill="#FFFFFF" fill-rule="evenodd"/><path d="M1183.32 918.436 1203.38 918.436 1203.38 961.436 1183.32 961.436Z" fill="#FFFFFF" fill-rule="evenodd"/><path d="M1203.38 918.436 1223.43 918.436 1223.43 961.436 1203.38 961.436Z" fill="#FFFFFF" fill-rule="evenodd"/><path d="M1223.43 918.436 1263.53 918.436 1263.53 961.436 1223.43 961.436Z" fill="#FFFFFF" fill-rule="evenodd"/><path d="M1263.53 918.436 1283.58 918.436 1283.58 961.436 1263.53 961.436Z" fill="#FFFFFF" fill-rule="evenodd"/><path d="M1283.58 918.436 1403.9 918.436 1403.9 961.436 1283.58 961.436Z" fill="#FFFFFF" fill-rule="evenodd"/><path d="M1403.9 918.436 1484.11 918.436 1484.11 961.436 1403.9 961.436Z" fill="#FFFFFF" fill-rule="evenodd"/><path d="M1484.11 918.436 1544.26 918.436 1544.26 961.436 1484.11 961.436Z" fill="#FFFFFF" fill-rule="evenodd"/><path d="M1143.22 969.459 1163.27 969.459 1163.27 1012.46 1143.22 1012.46Z" fill="#FFFFFF" fill-rule="evenodd"/><path d="M1163.27 969.459 1183.32 969.459 1183.32 1012.46 1163.27 1012.46Z" fill="#FFFFFF" fill-rule="evenodd"/><path d="M1183.32 969.459 1203.38 969.459 1203.38 1012.46 1183.32 1012.46Z" fill="#FFFFFF" fill-rule="evenodd"/><path d="M1203.38 969.459 1223.43 969.459 1223.43 1012.46 1203.38 1012.46Z" fill="#FFFFFF" fill-rule="evenodd"/><path d="M1223.43 969.459 1243.48 969.459 1243.48 1012.46 1223.43 1012.46Z" fill="#FFFFFF" fill-rule="evenodd"/><path d="M1243.48 969.459 1263.53 969.459 1263.53 1012.46 1243.48 1012.46Z" fill="#FFFFFF" fill-rule="evenodd"/><path d="M1263.53 969.459 1303.64 969.459 1303.64 1012.46 1263.53 1012.46Z" fill="#FFFFFF" fill-rule="evenodd"/><path d="M1303.64 969.459 1323.69 969.459 1323.69 1012.46 1303.64 1012.46Z" fill="#FFFFFF" fill-rule="evenodd"/><path d="M1323.69 969.459 1343.74 969.459 1343.74 1012.46 1323.69 1012.46Z" fill="#FFFFFF" fill-rule="evenodd"/><path d="M1343.74 969.459 1423.95 969.459 1423.95 1012.46 1343.74 1012.46Z" fill="#FFFFFF" fill-rule="evenodd"/><path d="M1423.95 969.459 1484.11 969.459 1484.11 1012.46 1423.95 1012.46Z" fill="#FFFFFF" fill-rule="evenodd"/><path d="M1484.11 969.459 1804.94 969.459 1804.94 1012.46 1484.11 1012.46Z" fill="#FFFFFF" fill-rule="evenodd"/><path d="M1804.94 969.459 1885.15 969.459 1885.15 1012.46 1804.94 1012.46Z" fill="#FFFFFF" fill-rule="evenodd"/><path d="M1143.22 1019.44 1163.27 1019.44 1163.27 1062.44 1143.22 1062.44Z" fill="#FFFFFF" fill-rule="evenodd"/><path d="M1163.27 1019.44 1183.32 1019.44 1183.32 1062.44 1163.27 1062.44Z" fill="#FFFFFF" fill-rule="evenodd"/><path d="M1183.32 1019.44 1203.38 1019.44 1203.38 1062.44 1183.32 1062.44Z" fill="#FFFFFF" fill-rule="evenodd"/><path d="M1203.38 1019.44 1223.43 1019.44 1223.43 1062.44 1203.38 1062.44Z" fill="#FFFFFF" fill-rule="evenodd"/><path d="M1223.43 1019.44 1243.48 1019.44 1243.48 1062.44 1223.43 1062.44Z" fill="#FFFFFF" fill-rule="evenodd"/><path d="M1243.48 1019.44 1263.53 1019.44 1263.53 1062.44 1243.48 1062.44Z" fill="#FFFFFF" fill-rule="evenodd"/><path d="M1263.53 1019.44 1283.58 1019.44 1283.58 1062.44 1263.53 1062.44Z" fill="#FFFFFF" fill-rule="evenodd"/><path d="M1283.58 1019.44 1303.64 1019.44 1303.64 1062.44 1283.58 1062.44Z" fill="#FFFFFF" fill-rule="evenodd"/><path d="M1303.64 1019.44 1363.79 1019.44 1363.79 1062.44 1303.64 1062.44Z" fill="#FFFFFF" fill-rule="evenodd"/><path d="M1143.22 1070.44 1163.27 1070.44 1163.27 1113.44 1143.22 1113.44Z" fill="#FFFFFF" fill-rule="evenodd"/><path d="M1163.27 1070.44 1183.32 1070.44 1183.32 1113.44 1163.27 1113.44Z" fill="#FFFFFF" fill-rule="evenodd"/><path d="M1183.32 1070.44 1203.38 1070.44 1203.38 1113.44 1183.32 1113.44Z" fill="#FFFFFF" fill-rule="evenodd"/><path d="M1203.38 1070.44 1223.43 1070.44 1223.43 1113.44 1203.38 1113.44Z" fill="#FFFFFF" fill-rule="evenodd"/><path d="M1223.43 1070.44 1243.48 1070.44 1243.48 1113.44 1223.43 1113.44Z" fill="#FFFFFF" fill-rule="evenodd"/><path d="M1143.22 1120.44 1163.27 1120.44 1163.27 1163.44 1143.22 1163.44Z" fill="#FFFFFF" fill-rule="evenodd"/><path d="M1163.27 1120.44 1183.32 1120.44 1183.32 1163.44 1163.27 1163.44Z" fill="#FFFFFF" fill-rule="evenodd"/><path d="M1183.32 1120.44 1203.38 1120.44 1203.38 1163.44 1183.32 1163.44Z" fill="#FFFFFF" fill-rule="evenodd"/><path d="M1143.22 1171.44 1183.32 1171.44 1183.32 1214.44 1143.22 1214.44Z" fill="#FFFFFF" fill-rule="evenodd"/><path d="M1183.32 1171.44 1243.48 1171.44 1243.48 1214.44 1183.32 1214.44Z" fill="#FFFFFF" fill-rule="evenodd"/><path d="M1243.48 1171.44 1343.74 1171.44 1343.74 1214.44 1243.48 1214.44Z" fill="#FFFFFF" fill-rule="evenodd"/><path d="M1343.74 1171.44 1423.95 1171.44 1423.95 1214.44 1343.74 1214.44Z" fill="#FFFFFF" fill-rule="evenodd"/><path d="M1423.95 1171.44 1464.05 1171.44 1464.05 1214.44 1423.95 1214.44Z" fill="#FFFFFF" fill-rule="evenodd"/><path d="M1464.05 1171.44 1484.11 1171.44 1484.11 1214.44 1464.05 1214.44Z" fill="#FFFFFF" fill-rule="evenodd"/><path d="M1484.11 1171.44 1664.57 1171.44 1664.57 1214.44 1484.11 1214.44Z" fill="#FFFFFF" fill-rule="evenodd"/><text fill="#008000" font-family="Consolas,Consolas_MSFontService,sans-serif" font-weight="400" font-size="37" transform="matrix(1 0 0 1 1143.22 446)">// </text><text fill="#008000" font-family="Consolas,Consolas_MSFontService,sans-serif" font-weight="400" font-size="37" transform="matrix(1 0 0 1 1203.38 446)">pmap</text><text fill="#008000" font-family="Consolas,Consolas_MSFontService,sans-serif" font-weight="400" font-size="37" transform="matrix(1 0 0 1 1283.58 446)"> </text><text fill="#008000" font-family="Consolas,Consolas_MSFontService,sans-serif" font-weight="400" font-size="37" transform="matrix(1 0 0 1 1303.64 446)">interface</text><text fill="#008000" font-family="Consolas,Consolas_MSFontService,sans-serif" font-weight="400" font-size="37" transform="matrix(1 0 0 1 1143.22 497)">// N(</text><text fill="#008000" font-family="Consolas,Consolas_MSFontService,sans-serif" font-weight="400" font-size="37" transform="matrix(1 0 0 1 1243.48 497)">iter</text><text fill="#008000" font-family="Consolas,Consolas_MSFontService,sans-serif" font-weight="400" font-size="37" transform="matrix(1 0 0 1 1323.69 497)">) * 2 walks for Radix and ECPT</text><text fill="#0000FF" font-family="Consolas,Consolas_MSFontService,sans-serif" font-weight="400" font-size="37" transform="matrix(1 0 0 1 1143.22 598)">int</text><text font-family="Consolas,Consolas_MSFontService,sans-serif" font-weight="400" font-size="37" transform="matrix(1 0 0 1 1203.38 598)"> </text><text fill="#74531F" font-family="Consolas,Consolas_MSFontService,sans-serif" font-weight="400" font-size="37" transform="matrix(1 0 0 1 1223.43 598)">kern_mincore</text><text font-family="Consolas,Consolas_MSFontService,sans-serif" font-weight="400" font-size="37" transform="matrix(1 0 0 1 1464.05 598)">(...) {</text><text font-family="Consolas,Consolas_MSFontService,sans-serif" font-weight="400" font-size="37" transform="matrix(1 0 0 1 1143.22 648)"> </text><text font-family="Consolas,Consolas_MSFontService,sans-serif" font-weight="400" font-size="37" transform="matrix(1 0 0 1 1163.27 648)"> </text><text font-family="Consolas,Consolas_MSFontService,sans-serif" font-weight="400" font-size="37" transform="matrix(1 0 0 1 1183.32 648)">...</text><text font-family="Consolas,Consolas_MSFontService,sans-serif" font-weight="400" font-size="37" transform="matrix(1 0 0 1 1143.22 699)"> </text><text font-family="Consolas,Consolas_MSFontService,sans-serif" font-weight="400" font-size="37" transform="matrix(1 0 0 1 1163.27 699)"> </text><text fill="#8F08C4" font-family="Consolas,Consolas_MSFontService,sans-serif" font-weight="400" font-size="37" transform="matrix(1 0 0 1 1183.32 699)">for</text><text font-family="Consolas,Consolas_MSFontService,sans-serif" font-weight="400" font-size="37" transform="matrix(1 0 0 1 1243.48 699)"> </text><text font-family="Consolas,Consolas_MSFontService,sans-serif" font-weight="400" font-size="37" transform="matrix(1 0 0 1 1263.53 699)">(; </text><text font-family="Consolas,Consolas_MSFontService,sans-serif" font-weight="400" font-size="37" transform="matrix(1 0 0 1 1323.69 699)">addr</text><text font-family="Consolas,Consolas_MSFontService,sans-serif" font-weight="400" font-size="37" transform="matrix(1 0 0 1 1403.9 699)"> </text><text font-family="Consolas,Consolas_MSFontService,sans-serif" font-weight="400" font-size="37" transform="matrix(1 0 0 1 1423.95 699)">&lt; </text><text font-family="Consolas,Consolas_MSFontService,sans-serif" font-weight="400" font-size="37" transform="matrix(1 0 0 1 1464.05 699)">cend</text><text font-family="Consolas,Consolas_MSFontService,sans-serif" font-weight="400" font-size="37" transform="matrix(1 0 0 1 1544.26 699)">; </text><text font-family="Consolas,Consolas_MSFontService,sans-serif" font-weight="400" font-size="37" transform="matrix(1 0 0 1 1584.37 699)">addr</text><text font-family="Consolas,Consolas_MSFontService,sans-serif" font-weight="400" font-size="37" transform="matrix(1 0 0 1 1664.57 699)"> </text><text font-family="Consolas,Consolas_MSFontService,sans-serif" font-weight="400" font-size="37" transform="matrix(1 0 0 1 1684.63 699)">+= PAGE_SIZE) {</text><text font-family="Consolas,Consolas_MSFontService,sans-serif" font-weight="400" font-size="37" transform="matrix(1 0 0 1 1143.22 750)"> </text><text font-family="Consolas,Consolas_MSFontService,sans-serif" font-weight="400" font-size="37" transform="matrix(1 0 0 1 1163.27 750)"> </text><text font-family="Consolas,Consolas_MSFontService,sans-serif" font-weight="400" font-size="37" transform="matrix(1 0 0 1 1183.32 750)"> </text><text font-family="Consolas,Consolas_MSFontService,sans-serif" font-weight="400" font-size="37" transform="matrix(1 0 0 1 1203.38 750)"> </text><text font-family="Consolas,Consolas_MSFontService,sans-serif" font-weight="400" font-size="37" transform="matrix(1 0 0 1 1223.43 750)">mincoreinfo</text><text font-family="Consolas,Consolas_MSFontService,sans-serif" font-weight="400" font-size="37" transform="matrix(1 0 0 1 1444 750)"> </text><text font-family="Consolas,Consolas_MSFontService,sans-serif" font-weight="400" font-size="37" transform="matrix(1 0 0 1 1464.05 750)">= </text><text fill="#74531F" font-family="Consolas,Consolas_MSFontService,sans-serif" font-weight="400" font-size="37" transform="matrix(1 0 0 1 1504.16 750)">pmap_mincore</text><text font-family="Consolas,Consolas_MSFontService,sans-serif" font-weight="400" font-size="37" transform="matrix(1 0 0 1 1744.78 750)">(</text><text font-family="Consolas,Consolas_MSFontService,sans-serif" font-weight="400" font-size="37" transform="matrix(1 0 0 1 1764.83 750)">pmap</text><text font-family="Consolas,Consolas_MSFontService,sans-serif" font-weight="400" font-size="37" transform="matrix(1 0 0 1 1845.04 750)">, </text><text font-family="Consolas,Consolas_MSFontService,sans-serif" font-weight="400" font-size="37" transform="matrix(1 0 0 1 1885.15 750)">addr</text><text font-family="Consolas,Consolas_MSFontService,sans-serif" font-weight="400" font-size="37" transform="matrix(1 0 0 1 1965.36 750)">, &amp;pa);</text><text font-family="Consolas,Consolas_MSFontService,sans-serif" font-weight="400" font-size="37" transform="matrix(1 0 0 1 1143.22 800)"> </text><text font-family="Consolas,Consolas_MSFontService,sans-serif" font-weight="400" font-size="37" transform="matrix(1 0 0 1 1163.27 800)"> </text><text font-family="Consolas,Consolas_MSFontService,sans-serif" font-weight="400" font-size="37" transform="matrix(1 0 0 1 1183.32 800)"> </text><text font-family="Consolas,Consolas_MSFontService,sans-serif" font-weight="400" font-size="37" transform="matrix(1 0 0 1 1203.38 800)"> </text><text font-family="Consolas,Consolas_MSFontService,sans-serif" font-weight="400" font-size="37" transform="matrix(1 0 0 1 1223.43 800)">...</text><text font-family="Consolas,Consolas_MSFontService,sans-serif" font-weight="400" font-size="37" transform="matrix(1 0 0 1 1143.22 851)"> </text><text font-family="Consolas,Consolas_MSFontService,sans-serif" font-weight="400" font-size="37" transform="matrix(1 0 0 1 1163.27 851)"> </text><text font-family="Consolas,Consolas_MSFontService,sans-serif" font-weight="400" font-size="37" transform="matrix(1 0 0 1 1183.32 851)"> </text><text font-family="Consolas,Consolas_MSFontService,sans-serif" font-weight="400" font-size="37" transform="matrix(1 0 0 1 1203.38 851)"> </text><text fill="#008000" font-family="Consolas,Consolas_MSFontService,sans-serif" font-weight="400" font-size="37" transform="matrix(1 0 0 1 1223.43 851)">// Get page m from </text><text fill="#008000" font-family="Consolas,Consolas_MSFontService,sans-serif" font-weight="400" font-size="37" transform="matrix(1 0 0 1 1604.42 851)">addr</text><text font-family="Consolas,Consolas_MSFontService,sans-serif" font-weight="400" font-size="37" transform="matrix(1 0 0 1 1143.22 901)"> </text><text font-family="Consolas,Consolas_MSFontService,sans-serif" font-weight="400" font-size="37" transform="matrix(1 0 0 1 1163.27 901)"> </text><text font-family="Consolas,Consolas_MSFontService,sans-serif" font-weight="400" font-size="37" transform="matrix(1 0 0 1 1183.32 901)"> </text><text font-family="Consolas,Consolas_MSFontService,sans-serif" font-weight="400" font-size="37" transform="matrix(1 0 0 1 1203.38 901)"> </text><text font-family="Consolas,Consolas_MSFontService,sans-serif" font-weight="400" font-size="37" transform="matrix(1 0 0 1 1223.43 901)">...</text><text font-family="Consolas,Consolas_MSFontService,sans-serif" font-weight="400" font-size="37" transform="matrix(1 0 0 1 1143.22 952)"> </text><text font-family="Consolas,Consolas_MSFontService,sans-serif" font-weight="400" font-size="37" transform="matrix(1 0 0 1 1163.27 952)"> </text><text font-family="Consolas,Consolas_MSFontService,sans-serif" font-weight="400" font-size="37" transform="matrix(1 0 0 1 1183.32 952)"> </text><text font-family="Consolas,Consolas_MSFontService,sans-serif" font-weight="400" font-size="37" transform="matrix(1 0 0 1 1203.38 952)"> </text><text fill="#8F08C4" font-family="Consolas,Consolas_MSFontService,sans-serif" font-weight="400" font-size="37" transform="matrix(1 0 0 1 1223.43 952)">if</text><text font-family="Consolas,Consolas_MSFontService,sans-serif" font-weight="400" font-size="37" transform="matrix(1 0 0 1 1263.53 952)"> </text><text font-family="Consolas,Consolas_MSFontService,sans-serif" font-weight="400" font-size="37" transform="matrix(1 0 0 1 1283.58 952)">(m != </text><text fill="#0000FF" font-family="Consolas,Consolas_MSFontService,sans-serif" font-weight="400" font-size="37" transform="matrix(1 0 0 1 1403.9 952)">NULL</text><text font-family="Consolas,Consolas_MSFontService,sans-serif" font-weight="400" font-size="37" transform="matrix(1 0 0 1 1484.11 952)">) {</text><text font-family="Consolas,Consolas_MSFontService,sans-serif" font-weight="400" font-size="37" transform="matrix(1 0 0 1 1143.22 1003)"> </text><text font-family="Consolas,Consolas_MSFontService,sans-serif" font-weight="400" font-size="37" transform="matrix(1 0 0 1 1163.27 1003)"> </text><text font-family="Consolas,Consolas_MSFontService,sans-serif" font-weight="400" font-size="37" transform="matrix(1 0 0 1 1183.32 1003)"> </text><text font-family="Consolas,Consolas_MSFontService,sans-serif" font-weight="400" font-size="37" transform="matrix(1 0 0 1 1203.38 1003)"> </text><text font-family="Consolas,Consolas_MSFontService,sans-serif" font-weight="400" font-size="37" transform="matrix(1 0 0 1 1223.43 1003)"> </text><text font-family="Consolas,Consolas_MSFontService,sans-serif" font-weight="400" font-size="37" transform="matrix(1 0 0 1 1243.48 1003)"> </text><text fill="#8F08C4" font-family="Consolas,Consolas_MSFontService,sans-serif" font-weight="400" font-size="37" transform="matrix(1 0 0 1 1263.53 1003)">if</text><text font-family="Consolas,Consolas_MSFontService,sans-serif" font-weight="400" font-size="37" transform="matrix(1 0 0 1 1303.64 1003)"> </text><text font-family="Consolas,Consolas_MSFontService,sans-serif" font-weight="400" font-size="37" transform="matrix(1 0 0 1 1323.69 1003)">(</text><text fill="#1F377F" font-family="Consolas,Consolas_MSFontService,sans-serif" font-weight="400" font-size="37" transform="matrix(1 0 0 1 1343.74 1003)">... </text><text font-family="Consolas,Consolas_MSFontService,sans-serif" font-weight="400" font-size="37" transform="matrix(1 0 0 1 1423.95 1003)">&amp;&amp; </text><text fill="#74531F" font-family="Consolas,Consolas_MSFontService,sans-serif" font-weight="400" font-size="37" transform="matrix(1 0 0 1 1484.11 1003)">pmap_is_modified</text><text font-family="Consolas,Consolas_MSFontService,sans-serif" font-weight="400" font-size="37" transform="matrix(1 0 0 1 1804.94 1003)">(m))</text><text font-family="Consolas,Consolas_MSFontService,sans-serif" font-weight="400" font-size="37" transform="matrix(1 0 0 1 1143.22 1053)"> </text><text font-family="Consolas,Consolas_MSFontService,sans-serif" font-weight="400" font-size="37" transform="matrix(1 0 0 1 1163.27 1053)"> </text><text font-family="Consolas,Consolas_MSFontService,sans-serif" font-weight="400" font-size="37" transform="matrix(1 0 0 1 1183.32 1053)"> </text><text font-family="Consolas,Consolas_MSFontService,sans-serif" font-weight="400" font-size="37" transform="matrix(1 0 0 1 1203.38 1053)"> </text><text font-family="Consolas,Consolas_MSFontService,sans-serif" font-weight="400" font-size="37" transform="matrix(1 0 0 1 1223.43 1053)"> </text><text font-family="Consolas,Consolas_MSFontService,sans-serif" font-weight="400" font-size="37" transform="matrix(1 0 0 1 1243.48 1053)"> </text><text font-family="Consolas,Consolas_MSFontService,sans-serif" font-weight="400" font-size="37" transform="matrix(1 0 0 1 1263.53 1053)"> </text><text font-family="Consolas,Consolas_MSFontService,sans-serif" font-weight="400" font-size="37" transform="matrix(1 0 0 1 1283.58 1053)"> </text><text fill="#74531F" font-family="Consolas,Consolas_MSFontService,sans-serif" font-weight="400" font-size="37" transform="matrix(1 0 0 1 1303.64 1053)">...</text><text font-family="Consolas,Consolas_MSFontService,sans-serif" font-weight="400" font-size="37" transform="matrix(1 0 0 1 1143.22 1104)"> </text><text font-family="Consolas,Consolas_MSFontService,sans-serif" font-weight="400" font-size="37" transform="matrix(1 0 0 1 1163.27 1104)"> </text><text font-family="Consolas,Consolas_MSFontService,sans-serif" font-weight="400" font-size="37" transform="matrix(1 0 0 1 1183.32 1104)"> </text><text font-family="Consolas,Consolas_MSFontService,sans-serif" font-weight="400" font-size="37" transform="matrix(1 0 0 1 1203.38 1104)"> </text><text font-family="Consolas,Consolas_MSFontService,sans-serif" font-weight="400" font-size="37" transform="matrix(1 0 0 1 1223.43 1104)">}</text><text font-family="Consolas,Consolas_MSFontService,sans-serif" font-weight="400" font-size="37" transform="matrix(1 0 0 1 1143.22 1154)"> </text><text font-family="Consolas,Consolas_MSFontService,sans-serif" font-weight="400" font-size="37" transform="matrix(1 0 0 1 1163.27 1154)"> </text><text font-family="Consolas,Consolas_MSFontService,sans-serif" font-weight="400" font-size="37" transform="matrix(1 0 0 1 1183.32 1154)">}</text><text font-family="Consolas,Consolas_MSFontService,sans-serif" font-weight="400" font-size="37" transform="matrix(1 0 0 1 1143.22 1205)">} </text><text fill="#7F7F7F" font-family="Consolas,Consolas_MSFontService,sans-serif" font-weight="400" font-size="37" transform="matrix(1 0 0 1 1183.32 1205)">// </text><text fill="#7F7F7F" font-family="Consolas,Consolas_MSFontService,sans-serif" font-weight="400" font-size="37" transform="matrix(1 0 0 1 1243.48 1205)">from </text><text fill="#7F7F7F" font-family="Consolas,Consolas_MSFontService,sans-serif" font-weight="400" font-size="37" transform="matrix(1 0 0 1 1343.74 1205)">sys/</text><text fill="#7F7F7F" font-family="Consolas,Consolas_MSFontService,sans-serif" font-weight="400" font-size="37" transform="matrix(1 0 0 1 1423.95 1205)">vm</text><text fill="#7F7F7F" font-family="Consolas,Consolas_MSFontService,sans-serif" font-weight="400" font-size="37" transform="matrix(1 0 0 1 1464.05 1205)">/</text><text fill="#7F7F7F" font-family="Consolas,Consolas_MSFontService,sans-serif" font-weight="400" font-size="37" transform="matrix(1 0 0 1 1484.11 1205)">vm_mmap.c</text><rect x="1650" y="821" width="442" height="81.0001" fill="#000000" fill-opacity="0.501961"/><text fill="#FFFFFF" font-family="Times New Roman,Times New Roman_MSFontService,sans-serif" font-weight="400" font-size="41" transform="matrix(1 0 0 1 1673.21 877)">Need to walk </text><text fill="#FFFFFF" font-family="Times New Roman,Times New Roman_MSFontService,sans-serif" font-weight="400" font-size="41" transform="matrix(1 0 0 1 1903.52 877)">everytime</text><path d="M1870.79 823.683 1698.05 777.619 1699.23 773.191 1871.97 819.254ZM1699.53 789.872 1676.5 769.5 1706.61 763.3Z" fill="#000000" fill-opacity="0.501961"/><rect x="1598" y="1084" width="442" height="130" fill="#000000" fill-opacity="0.501961"/><text fill="#FFFFFF" font-family="Times New Roman,Times New Roman_MSFontService,sans-serif" font-weight="400" font-size="41" transform="matrix(1 0 0 1 1730.1 1139)">No pointer</text><text fill="#FFFFFF" font-family="Times New Roman,Times New Roman_MSFontService,sans-serif" font-weight="400" font-size="41" transform="matrix(1 0 0 1 1617.23 1188)">Need to </text><text fill="#FFFFFF" font-family="Times New Roman,Times New Roman_MSFontService,sans-serif" font-weight="400" font-size="41" transform="matrix(1 0 0 1 1757.02 1188)">rewalk</text><text fill="#FFFFFF" font-family="Times New Roman,Times New Roman_MSFontService,sans-serif" font-weight="400" font-size="41" transform="matrix(1 0 0 1 1879.63 1188)">the table</text><path d="M1818.38 1086.19 1745.36 1023.2 1748.35 1019.73 1821.37 1082.72ZM1741.34 1034.87 1729.5 1006.5 1759.3 1014.05Z" fill="#000000" fill-opacity="0.501961"/></g></svg>