<svg width="1102" height="866" xmlns="http://www.w3.org/2000/svg" xmlns:xlink="http://www.w3.org/1999/xlink" xml:space="preserve" overflow="hidden"><defs><clipPath id="clip0"><rect x="2" y="400" width="1102" height="866"/></clipPath></defs><g clip-path="url(#clip0)" transform="translate(-2 -400)"><path d="M43.2234 412.436 404.161 412.436 404.161 455.436 43.2234 455.436Z" fill="#FFFFFF" fill-rule="evenodd"/><path d="M43.2234 463.459 785.15 463.459 785.15 506.459 43.2233 506.459Z" fill="#FFFFFF" fill-rule="evenodd"/><path d="M43.2234 564.436 143.484 564.436 143.484 607.436 43.2234 607.436Z" fill="#FFFFFF" fill-rule="evenodd"/><path d="M143.484 564.436 163.536 564.436 163.536 607.436 143.484 607.436Z" fill="#FFFFFF" fill-rule="evenodd"/><path d="M163.536 564.436 183.588 564.436 183.588 607.436 163.536 607.436Z" fill="#FFFFFF" fill-rule="evenodd"/><path d="M183.588 564.436 263.796 564.436 263.796 607.436 183.588 607.436Z" fill="#FFFFFF" fill-rule="evenodd"/><path d="M263.796 564.436 283.848 564.436 283.848 607.436 263.796 607.436Z" fill="#FFFFFF" fill-rule="evenodd"/><path d="M283.848 564.436 323.953 564.436 323.953 607.436 283.848 607.436Z" fill="#FFFFFF" fill-rule="evenodd"/><path d="M323.953 564.436 604.682 564.436 604.682 607.436 323.953 607.436Z" fill="#FFFFFF" fill-rule="evenodd"/><path d="M604.682 564.436 624.734 564.436 624.734 607.436 604.682 607.436Z" fill="#FFFFFF" fill-rule="evenodd"/><path d="M624.734 564.436 684.89 564.436 684.89 607.436 624.734 607.436Z" fill="#FFFFFF" fill-rule="evenodd"/><path d="M684.89 564.436 724.994 564.436 724.994 607.436 684.89 607.436Z" fill="#FFFFFF" fill-rule="evenodd"/><path d="M724.994 564.436 765.098 564.436 765.098 607.436 724.994 607.436Z" fill="#FFFFFF" fill-rule="evenodd"/><path d="M765.098 564.436 805.203 564.436 805.203 607.436 765.098 607.436Z" fill="#FFFFFF" fill-rule="evenodd"/><path d="M43.2234 665.436 103.38 665.436 103.38 708.436 43.2234 708.436Z" fill="#FFFFFF" fill-rule="evenodd"/><path d="M103.38 665.436 123.432 665.436 123.432 708.436 103.38 708.436Z" fill="#FFFFFF" fill-rule="evenodd"/><path d="M123.432 665.436 183.588 665.436 183.588 708.436 123.432 708.436Z" fill="#FFFFFF" fill-rule="evenodd"/><path d="M183.588 665.436 263.796 665.436 263.796 708.436 183.588 708.436Z" fill="#FFFFFF" fill-rule="evenodd"/><path d="M263.796 665.436 283.848 665.436 283.848 708.436 263.796 708.436Z" fill="#FFFFFF" fill-rule="evenodd"/><path d="M283.848 665.436 323.953 665.436 323.953 708.436 283.848 708.436Z" fill="#FFFFFF" fill-rule="evenodd"/><path d="M323.953 665.436 404.161 665.436 404.161 708.436 323.953 708.436Z" fill="#FFFFFF" fill-rule="evenodd"/><path d="M404.161 665.436 444.265 665.436 444.265 708.436 404.161 708.436Z" fill="#FFFFFF" fill-rule="evenodd"/><path d="M444.265 665.436 524.473 665.436 524.473 708.436 444.265 708.436Z" fill="#FFFFFF" fill-rule="evenodd"/><path d="M524.473 665.436 544.525 665.436 544.525 708.436 524.473 708.436Z" fill="#FFFFFF" fill-rule="evenodd"/><path d="M544.525 665.436 825.255 665.436 825.255 708.436 544.525 708.436Z" fill="#FFFFFF" fill-rule="evenodd"/><path d="M825.255 665.436 905.463 665.436 905.463 708.436 825.255 708.436Z" fill="#FFFFFF" fill-rule="evenodd"/><path d="M905.463 665.436 1005.72 665.436 1005.72 708.436 905.463 708.436Z" fill="#FFFFFF" fill-rule="evenodd"/><path d="M43.2234 716.459 63.2754 716.459 63.2754 759.459 43.2234 759.459Z" fill="#FFFFFF" fill-rule="evenodd"/><path d="M63.2754 716.459 83.3275 716.459 83.3275 759.459 63.2754 759.459Z" fill="#FFFFFF" fill-rule="evenodd"/><path d="M83.3275 716.459 183.588 716.459 183.588 759.459 83.3275 759.459Z" fill="#FFFFFF" fill-rule="evenodd"/><path d="M183.588 716.459 203.64 716.459 203.64 759.459 183.588 759.459Z" fill="#FFFFFF" fill-rule="evenodd"/><path d="M203.64 716.459 263.796 716.459 263.796 759.459 203.64 759.459Z" fill="#FFFFFF" fill-rule="evenodd"/><path d="M263.796 716.459 283.848 716.459 283.848 759.459 263.796 759.459Z" fill="#FFFFFF" fill-rule="evenodd"/><path d="M283.848 716.459 344.005 716.459 344.005 759.459 283.848 759.459Z" fill="#FFFFFF" fill-rule="evenodd"/><path d="M344.005 716.459 424.213 716.459 424.213 759.459 344.005 759.459Z" fill="#FFFFFF" fill-rule="evenodd"/><path d="M424.213 716.459 444.265 716.459 444.265 759.459 424.213 759.459Z" fill="#FFFFFF" fill-rule="evenodd"/><path d="M43.2234 766.436 63.2754 766.436 63.2754 809.436 43.2234 809.436Z" fill="#FFFFFF" fill-rule="evenodd"/><path d="M63.2754 766.436 83.3275 766.436 83.3275 809.436 63.2754 809.436Z" fill="#FFFFFF" fill-rule="evenodd"/><path d="M83.3275 766.436 183.588 766.436 183.588 809.436 83.3275 809.436Z" fill="#FFFFFF" fill-rule="evenodd"/><path d="M183.588 766.436 323.953 766.436 323.953 809.436 183.588 809.436Z" fill="#FFFFFF" fill-rule="evenodd"/><path d="M323.953 766.436 344.005 766.436 344.005 809.436 323.953 809.436Z" fill="#FFFFFF" fill-rule="evenodd"/><path d="M344.005 766.436 404.161 766.436 404.161 809.436 344.005 809.436Z" fill="#FFFFFF" fill-rule="evenodd"/><path d="M404.161 766.436 724.994 766.436 724.994 809.436 404.161 809.436Z" fill="#FFFFFF" fill-rule="evenodd"/><path d="M43.2234 867.436 63.2754 867.436 63.2754 910.436 43.2234 910.436Z" fill="#FFFFFF" fill-rule="evenodd"/><path d="M63.2754 867.436 83.3275 867.436 83.3275 910.436 63.2754 910.436Z" fill="#FFFFFF" fill-rule="evenodd"/><path d="M83.3275 867.436 123.432 867.436 123.432 910.436 83.3275 910.436Z" fill="#FFFFFF" fill-rule="evenodd"/><path d="M123.432 867.436 143.484 867.436 143.484 910.436 123.432 910.436Z" fill="#FFFFFF" fill-rule="evenodd"/><path d="M143.484 867.436 183.588 867.436 183.588 910.436 143.484 910.436Z" fill="#FFFFFF" fill-rule="evenodd"/><path d="M183.588 867.436 344.005 867.436 344.005 910.436 183.588 910.436Z" fill="#FFFFFF" fill-rule="evenodd"/><path d="M344.005 867.436 364.057 867.436 364.057 910.436 344.005 910.436Z" fill="#FFFFFF" fill-rule="evenodd"/><path d="M364.057 867.436 424.213 867.436 424.213 910.436 364.057 910.436Z" fill="#FFFFFF" fill-rule="evenodd"/><path d="M424.213 867.436 504.421 867.436 504.421 910.436 424.213 910.436Z" fill="#FFFFFF" fill-rule="evenodd"/><path d="M43.2234 918.436 63.2754 918.436 63.2754 961.436 43.2234 961.436Z" fill="#FFFFFF" fill-rule="evenodd"/><path d="M63.2754 918.436 83.3275 918.436 83.3275 961.436 63.2754 961.436Z" fill="#FFFFFF" fill-rule="evenodd"/><path d="M83.3275 918.436 103.38 918.436 103.38 961.436 83.3275 961.436Z" fill="#FFFFFF" fill-rule="evenodd"/><path d="M103.38 918.436 123.432 918.436 123.432 961.436 103.38 961.436Z" fill="#FFFFFF" fill-rule="evenodd"/><path d="M123.432 918.436 163.536 918.436 163.536 961.436 123.432 961.436Z" fill="#FFFFFF" fill-rule="evenodd"/><path d="M163.536 918.436 183.588 918.436 183.588 961.436 163.536 961.436Z" fill="#FFFFFF" fill-rule="evenodd"/><path d="M183.588 918.436 344.005 918.436 344.005 961.436 183.588 961.436Z" fill="#FFFFFF" fill-rule="evenodd"/><path d="M344.005 918.436 524.473 918.436 524.473 961.436 344.005 961.436Z" fill="#FFFFFF" fill-rule="evenodd"/><path d="M524.473 918.436 544.525 918.436 544.525 961.436 524.473 961.436Z" fill="#FFFFFF" fill-rule="evenodd"/><path d="M544.525 918.436 604.682 918.436 604.682 961.436 544.525 961.436Z" fill="#FFFFFF" fill-rule="evenodd"/><path d="M604.682 918.436 644.786 918.436 644.786 961.436 604.682 961.436Z" fill="#FFFFFF" fill-rule="evenodd"/><path d="M43.2234 969.459 63.2754 969.459 63.2754 1012.46 43.2234 1012.46Z" fill="#FFFFFF" fill-rule="evenodd"/><path d="M63.2754 969.459 83.3275 969.459 83.3275 1012.46 63.2754 1012.46Z" fill="#FFFFFF" fill-rule="evenodd"/><path d="M83.3275 969.459 103.38 969.459 103.38 1012.46 83.3275 1012.46Z" fill="#FFFFFF" fill-rule="evenodd"/><path d="M103.38 969.459 123.432 969.459 123.432 1012.46 103.38 1012.46Z" fill="#FFFFFF" fill-rule="evenodd"/><path d="M123.432 969.459 143.484 969.459 143.484 1012.46 123.432 1012.46Z" fill="#FFFFFF" fill-rule="evenodd"/><path d="M143.484 969.459 163.536 969.459 163.536 1012.46 143.484 1012.46Z" fill="#FFFFFF" fill-rule="evenodd"/><path d="M163.536 969.459 223.692 969.459 223.692 1012.46 163.536 1012.46Z" fill="#FFFFFF" fill-rule="evenodd"/><path d="M43.2234 1019.44 63.2754 1019.44 63.2754 1062.44 43.2234 1062.44Z" fill="#FFFFFF" fill-rule="evenodd"/><path d="M63.2754 1019.44 83.3275 1019.44 83.3275 1062.44 63.2754 1062.44Z" fill="#FFFFFF" fill-rule="evenodd"/><path d="M83.3275 1019.44 103.38 1019.44 103.38 1062.44 83.3275 1062.44Z" fill="#FFFFFF" fill-rule="evenodd"/><path d="M43.2234 1070.44 63.2754 1070.44 63.2754 1113.44 43.2234 1113.44Z" fill="#FFFFFF" fill-rule="evenodd"/><text fill="#008000" font-family="Consolas,Consolas_MSFontService,sans-serif" font-weight="400" font-size="37" transform="matrix(1 0 0 1 43.2234 446)">// Linux interface</text><text fill="#008000" font-family="Consolas,Consolas_MSFontService,sans-serif" font-weight="400" font-size="37" transform="matrix(1 0 0 1 43.2234 497)">// 1 walk for Radix, ECPT unsupported</text><text fill="#2B91AF" font-family="Consolas,Consolas_MSFontService,sans-serif" font-weight="400" font-size="37" transform="matrix(1 0 0 1 43.2234 598)">pte_t</text><text font-family="Consolas,Consolas_MSFontService,sans-serif" font-weight="400" font-size="37" transform="matrix(1 0 0 1 143.484 598)"> </text><text font-family="Consolas,Consolas_MSFontService,sans-serif" font-weight="400" font-size="37" transform="matrix(1 0 0 1 163.536 598)">*</text><text font-family="Consolas,Consolas_MSFontService,sans-serif" font-weight="400" font-size="37" transform="matrix(1 0 0 1 183.588 598)">ptep</text><text font-family="Consolas,Consolas_MSFontService,sans-serif" font-weight="400" font-size="37" transform="matrix(1 0 0 1 263.796 598)"> </text><text font-family="Consolas,Consolas_MSFontService,sans-serif" font-weight="400" font-size="37" transform="matrix(1 0 0 1 283.848 598)">= </text><text fill="#74531F" font-family="Consolas,Consolas_MSFontService,sans-serif" font-weight="400" font-size="37" transform="matrix(1 0 0 1 323.953 598)">pte_offset_map</text><text font-family="Consolas,Consolas_MSFontService,sans-serif" font-weight="400" font-size="37" transform="matrix(1 0 0 1 604.682 598)">(</text><text font-family="Consolas,Consolas_MSFontService,sans-serif" font-weight="400" font-size="37" transform="matrix(1 0 0 1 624.734 598)">pmd</text><text font-family="Consolas,Consolas_MSFontService,sans-serif" font-weight="400" font-size="37" transform="matrix(1 0 0 1 684.89 598)">, </text><text font-family="Consolas,Consolas_MSFontService,sans-serif" font-weight="400" font-size="37" transform="matrix(1 0 0 1 724.994 598)">va</text><text font-family="Consolas,Consolas_MSFontService,sans-serif" font-weight="400" font-size="37" transform="matrix(1 0 0 1 765.098 598)">);</text><text fill="#8F08C4" font-family="Consolas,Consolas_MSFontService,sans-serif" font-weight="400" font-size="37" transform="matrix(1 0 0 1 43.2234 699)">for</text><text font-family="Consolas,Consolas_MSFontService,sans-serif" font-weight="400" font-size="37" transform="matrix(1 0 0 1 103.38 699)"> </text><text font-family="Consolas,Consolas_MSFontService,sans-serif" font-weight="400" font-size="37" transform="matrix(1 0 0 1 123.432 699)">(; </text><text font-family="Consolas,Consolas_MSFontService,sans-serif" font-weight="400" font-size="37" transform="matrix(1 0 0 1 183.588 699)">addr</text><text font-family="Consolas,Consolas_MSFontService,sans-serif" font-weight="400" font-size="37" transform="matrix(1 0 0 1 263.796 699)"> </text><text font-family="Consolas,Consolas_MSFontService,sans-serif" font-weight="400" font-size="37" transform="matrix(1 0 0 1 283.848 699)">&lt; </text><text font-family="Consolas,Consolas_MSFontService,sans-serif" font-weight="400" font-size="37" transform="matrix(1 0 0 1 323.953 699)">cend</text><text font-family="Consolas,Consolas_MSFontService,sans-serif" font-weight="400" font-size="37" transform="matrix(1 0 0 1 404.161 699)">; </text><text font-family="Consolas,Consolas_MSFontService,sans-serif" font-weight="400" font-size="37" transform="matrix(1 0 0 1 444.265 699)">addr</text><text font-family="Consolas,Consolas_MSFontService,sans-serif" font-weight="400" font-size="37" transform="matrix(1 0 0 1 524.473 699)"> </text><text font-family="Consolas,Consolas_MSFontService,sans-serif" font-weight="400" font-size="37" transform="matrix(1 0 0 1 544.525 699)">+= PAGE_SIZE, </text><text font-family="Consolas,Consolas_MSFontService,sans-serif" font-weight="400" font-size="37" transform="matrix(1 0 0 1 825.255 699)">ptep</text><text font-family="Consolas,Consolas_MSFontService,sans-serif" font-weight="400" font-size="37" transform="matrix(1 0 0 1 905.463 699)">++) {</text><text font-family="Consolas,Consolas_MSFontService,sans-serif" font-weight="400" font-size="37" transform="matrix(1 0 0 1 43.2234 750)"> </text><text font-family="Consolas,Consolas_MSFontService,sans-serif" font-weight="400" font-size="37" transform="matrix(1 0 0 1 63.2754 750)"> </text><text fill="#2B91AF" font-family="Consolas,Consolas_MSFontService,sans-serif" font-weight="400" font-size="37" transform="matrix(1 0 0 1 83.3275 750)">pte_t</text><text font-family="Consolas,Consolas_MSFontService,sans-serif" font-weight="400" font-size="37" transform="matrix(1 0 0 1 183.588 750)"> </text><text font-family="Consolas,Consolas_MSFontService,sans-serif" font-weight="400" font-size="37" transform="matrix(1 0 0 1 203.64 750)">pte</text><text font-family="Consolas,Consolas_MSFontService,sans-serif" font-weight="400" font-size="37" transform="matrix(1 0 0 1 263.796 750)"> </text><text font-family="Consolas,Consolas_MSFontService,sans-serif" font-weight="400" font-size="37" transform="matrix(1 0 0 1 283.848 750)">= *</text><text font-family="Consolas,Consolas_MSFontService,sans-serif" font-weight="400" font-size="37" transform="matrix(1 0 0 1 344.005 750)">ptep</text><text font-family="Consolas,Consolas_MSFontService,sans-serif" font-weight="400" font-size="37" transform="matrix(1 0 0 1 424.213 750)">;</text><text font-family="Consolas,Consolas_MSFontService,sans-serif" font-weight="400" font-size="37" transform="matrix(1 0 0 1 43.2234 800)"> </text><text font-family="Consolas,Consolas_MSFontService,sans-serif" font-weight="400" font-size="37" transform="matrix(1 0 0 1 63.2754 800)"> </text><text font-family="Consolas,Consolas_MSFontService,sans-serif" font-weight="400" font-size="37" transform="matrix(1 0 0 1 83.3275 800)">pa = </text><text fill="#74531F" font-family="Consolas,Consolas_MSFontService,sans-serif" font-weight="400" font-size="37" transform="matrix(1 0 0 1 183.588 800)">pte_pfn</text><text font-family="Consolas,Consolas_MSFontService,sans-serif" font-weight="400" font-size="37" transform="matrix(1 0 0 1 323.953 800)">(</text><text font-family="Consolas,Consolas_MSFontService,sans-serif" font-weight="400" font-size="37" transform="matrix(1 0 0 1 344.005 800)">pte</text><text font-family="Consolas,Consolas_MSFontService,sans-serif" font-weight="400" font-size="37" transform="matrix(1 0 0 1 404.161 800)">) &lt;&lt; PAGE_SHIFT;</text><text font-family="Consolas,Consolas_MSFontService,sans-serif" font-weight="400" font-size="37" transform="matrix(1 0 0 1 43.2234 901)"> </text><text font-family="Consolas,Consolas_MSFontService,sans-serif" font-weight="400" font-size="37" transform="matrix(1 0 0 1 63.2754 901)"> </text><text fill="#8F08C4" font-family="Consolas,Consolas_MSFontService,sans-serif" font-weight="400" font-size="37" transform="matrix(1 0 0 1 83.3275 901)">if</text><text font-family="Consolas,Consolas_MSFontService,sans-serif" font-weight="400" font-size="37" transform="matrix(1 0 0 1 123.432 901)"> </text><text font-family="Consolas,Consolas_MSFontService,sans-serif" font-weight="400" font-size="37" transform="matrix(1 0 0 1 143.484 901)">(!</text><text fill="#74531F" font-family="Consolas,Consolas_MSFontService,sans-serif" font-weight="400" font-size="37" transform="matrix(1 0 0 1 183.588 901)">pte_none</text><text font-family="Consolas,Consolas_MSFontService,sans-serif" font-weight="400" font-size="37" transform="matrix(1 0 0 1 344.005 901)">(</text><text font-family="Consolas,Consolas_MSFontService,sans-serif" font-weight="400" font-size="37" transform="matrix(1 0 0 1 364.057 901)">pte</text><text font-family="Consolas,Consolas_MSFontService,sans-serif" font-weight="400" font-size="37" transform="matrix(1 0 0 1 424.213 901)">)) {</text><text font-family="Consolas,Consolas_MSFontService,sans-serif" font-weight="400" font-size="37" transform="matrix(1 0 0 1 43.2234 952)"> </text><text font-family="Consolas,Consolas_MSFontService,sans-serif" font-weight="400" font-size="37" transform="matrix(1 0 0 1 63.2754 952)"> </text><text font-family="Consolas,Consolas_MSFontService,sans-serif" font-weight="400" font-size="37" transform="matrix(1 0 0 1 83.3275 952)"> </text><text font-family="Consolas,Consolas_MSFontService,sans-serif" font-weight="400" font-size="37" transform="matrix(1 0 0 1 103.38 952)"> </text><text fill="#8F08C4" font-family="Consolas,Consolas_MSFontService,sans-serif" font-weight="400" font-size="37" transform="matrix(1 0 0 1 123.432 952)">if</text><text font-family="Consolas,Consolas_MSFontService,sans-serif" font-weight="400" font-size="37" transform="matrix(1 0 0 1 163.536 952)"> </text><text font-family="Consolas,Consolas_MSFontService,sans-serif" font-weight="400" font-size="37" transform="matrix(1 0 0 1 183.588 952)">(... &amp;&amp; </text><text fill="#74531F" font-family="Consolas,Consolas_MSFontService,sans-serif" font-weight="400" font-size="37" transform="matrix(1 0 0 1 344.005 952)">pte_dirty</text><text font-family="Consolas,Consolas_MSFontService,sans-serif" font-weight="400" font-size="37" transform="matrix(1 0 0 1 524.473 952)">(</text><text font-family="Consolas,Consolas_MSFontService,sans-serif" font-weight="400" font-size="37" transform="matrix(1 0 0 1 544.525 952)">pte</text><text font-family="Consolas,Consolas_MSFontService,sans-serif" font-weight="400" font-size="37" transform="matrix(1 0 0 1 604.682 952)">))</text><text font-family="Consolas,Consolas_MSFontService,sans-serif" font-weight="400" font-size="37" transform="matrix(1 0 0 1 43.2234 1003)"> </text><text font-family="Consolas,Consolas_MSFontService,sans-serif" font-weight="400" font-size="37" transform="matrix(1 0 0 1 63.2754 1003)"> </text><text font-family="Consolas,Consolas_MSFontService,sans-serif" font-weight="400" font-size="37" transform="matrix(1 0 0 1 83.3275 1003)"> </text><text font-family="Consolas,Consolas_MSFontService,sans-serif" font-weight="400" font-size="37" transform="matrix(1 0 0 1 103.38 1003)"> </text><text font-family="Consolas,Consolas_MSFontService,sans-serif" font-weight="400" font-size="37" transform="matrix(1 0 0 1 123.432 1003)"> </text><text font-family="Consolas,Consolas_MSFontService,sans-serif" font-weight="400" font-size="37" transform="matrix(1 0 0 1 143.484 1003)"> </text><text font-family="Consolas,Consolas_MSFontService,sans-serif" font-weight="400" font-size="37" transform="matrix(1 0 0 1 163.536 1003)">...</text><text font-family="Consolas,Consolas_MSFontService,sans-serif" font-weight="400" font-size="37" transform="matrix(1 0 0 1 43.2234 1053)"> </text><text font-family="Consolas,Consolas_MSFontService,sans-serif" font-weight="400" font-size="37" transform="matrix(1 0 0 1 63.2754 1053)"> </text><text font-family="Consolas,Consolas_MSFontService,sans-serif" font-weight="400" font-size="37" transform="matrix(1 0 0 1 83.3275 1053)">}</text><text font-family="Consolas,Consolas_MSFontService,sans-serif" font-weight="400" font-size="37" transform="matrix(1 0 0 1 43.2234 1104)">}</text><rect x="689" y="460" width="415" height="78.0001" fill="#000000" fill-opacity="0.501961"/><text fill="#FFFFFF" font-family="Times New Roman,Times New Roman_MSFontService,sans-serif" font-weight="400" font-size="41" transform="matrix(1 0 0 1 717.707 515)">Assumes radix layout</text><rect x="585" y="720" width="495" height="130" fill="#000000" fill-opacity="0.501961"/><text fill="#FFFFFF" font-family="Times New Roman,Times New Roman_MSFontService,sans-serif" font-weight="400" font-size="41" transform="matrix(1 0 0 1 602.979 776)">Use pointer to in</text><text fill="#FFFFFF" font-family="Times New Roman,Times New Roman_MSFontService,sans-serif" font-weight="400" font-size="41" transform="matrix(1 0 0 1 879.125 776)">-</text><text fill="#FFFFFF" font-family="Times New Roman,Times New Roman_MSFontService,sans-serif" font-weight="400" font-size="41" transform="matrix(1 0 0 1 892.875 776)">place read</text><text fill="#FFFFFF" font-family="Times New Roman,Times New Roman_MSFontService,sans-serif" font-weight="400" font-size="41" transform="matrix(1 0 0 1 680.323 825)">No need to </text><text fill="#FFFFFF" font-family="Times New Roman,Times New Roman_MSFontService,sans-serif" font-weight="400" font-size="41" transform="matrix(1 0 0 1 871.677 825)">rewalk</text><path d="M2.01184-1.09737 68.9909 121.698 64.9672 123.892-2.01184 1.09737ZM76.8554 112.187 77.9528 142.913 52.7133 125.355Z" fill="#000000" fill-opacity="0.501961" transform="matrix(-1 0 0 1 585.453 785.5)"/><path d="M2.12776-0.851104 45.5852 107.793 41.3297 109.495-2.12776 0.851104ZM54.5218 99.2815 51.9685 129.921 28.9887 109.495Z" fill="#000000" fill-opacity="0.501961" transform="matrix(-1 0 0 1 896.469 538.5)"/><path d="M0.190313-2.28375 289.164 21.7974 288.783 26.3649-0.190313 2.28375ZM285.548 9.998 311.811 25.9843 283.264 37.403Z" fill="#000000" fill-opacity="0.501961" transform="matrix(-1 0 0 1 897.311 538.5)"/><path d="M5.30478e-06-2.29167 132.989-2.29136 132.989 2.29197-5.30478e-06 2.29167ZM128.406-13.7497 155.906 0.000360892 128.405 13.7503Z" fill="#000000" fill-opacity="0.501961" transform="matrix(-1 0 0 1 585.405 785.5)"/><path d="M1.1547-1.97949 137.265 77.4184 134.956 81.3773-1.1547 1.97949ZM139.08 65.2115 155.906 90.9449 125.223 88.9654Z" fill="#000000" fill-opacity="0.501961" transform="matrix(-1 0 0 1 585.405 785.5)"/></g></svg>