<svg width="1177" height="700" xmlns="http://www.w3.org/2000/svg" xmlns:xlink="http://www.w3.org/1999/xlink" xml:space="preserve" overflow="hidden"><g transform="translate(-110 -339)"><path d="M143 356.649 223.209 356.649 223.209 399.649 143 399.649Z" fill="#FFFFFF" fill-rule="evenodd"/><path d="M223.209 356.649 243.261 356.649 243.261 399.649 223.209 399.649Z" fill="#FFFFFF" fill-rule="evenodd"/><path d="M243.261 356.649 443.782 356.649 443.782 399.649 243.261 399.649Z" fill="#FFFFFF" fill-rule="evenodd"/><path d="M443.782 356.649 544.042 356.649 544.042 399.649 443.782 399.649Z" fill="#FFFFFF" fill-rule="evenodd"/><path d="M544.042 356.649 624.25 356.649 624.25 399.649 544.042 399.649Z" fill="#FFFFFF" fill-rule="evenodd"/><path d="M624.25 356.649 784.667 356.649 784.667 399.649 624.25 399.649Z" fill="#FFFFFF" fill-rule="evenodd"/><path d="M143 400.649 163.052 400.649 163.052 443.649 143 443.649Z" fill="#FFFFFF" fill-rule="evenodd"/><path d="M163.052 400.649 183.105 400.649 183.105 443.649 163.052 443.649Z" fill="#FFFFFF" fill-rule="evenodd"/><path d="M183.105 400.649 363.573 400.649 363.573 443.649 183.105 443.649Z" fill="#FFFFFF" fill-rule="evenodd"/><path d="M363.573 400.649 383.625 400.649 383.625 443.649 363.573 443.649Z" fill="#FFFFFF" fill-rule="evenodd"/><path d="M383.625 400.649 544.042 400.649 544.042 443.649 383.625 443.649Z" fill="#FFFFFF" fill-rule="evenodd"/><path d="M544.042 400.649 844.823 400.649 844.823 443.649 544.042 443.649Z" fill="#FFFFFF" fill-rule="evenodd"/><path d="M844.823 400.649 945.084 400.649 945.084 443.649 844.823 443.649Z" fill="#FFFFFF" fill-rule="evenodd"/><path d="M945.084 400.649 1025.29 400.649 1025.29 443.649 945.084 443.649Z" fill="#FFFFFF" fill-rule="evenodd"/><path d="M1025.29 400.649 1165.66 400.649 1165.66 443.649 1025.29 443.649Z" fill="#FFFFFF" fill-rule="evenodd"/><path d="M143 444.649 163.052 444.649 163.052 487.649 143 487.649Z" fill="#FFFFFF" fill-rule="evenodd"/><path d="M163.052 444.649 183.105 444.649 183.105 487.649 163.052 487.649Z" fill="#FFFFFF" fill-rule="evenodd"/><path d="M183.105 444.649 323.469 444.649 323.469 487.649 183.105 487.649Z" fill="#FFFFFF" fill-rule="evenodd"/><path d="M323.469 444.649 343.521 444.649 343.521 487.649 323.469 487.649Z" fill="#FFFFFF" fill-rule="evenodd"/><path d="M343.521 444.649 363.573 444.649 363.573 487.649 343.521 487.649Z" fill="#FFFFFF" fill-rule="evenodd"/><path d="M363.573 444.649 383.625 444.649 383.625 487.649 363.573 487.649Z" fill="#FFFFFF" fill-rule="evenodd"/><path d="M383.625 444.649 403.677 444.649 403.677 487.649 383.625 487.649Z" fill="#FFFFFF" fill-rule="evenodd"/><path d="M403.677 444.649 443.782 444.649 443.782 487.649 403.677 487.649Z" fill="#FFFFFF" fill-rule="evenodd"/><path d="M443.782 444.649 784.667 444.649 784.667 487.649 443.782 487.649Z" fill="#FFFFFF" fill-rule="evenodd"/><path d="M784.667 444.649 884.927 444.649 884.927 487.649 784.667 487.649Z" fill="#FFFFFF" fill-rule="evenodd"/><path d="M884.927 444.649 965.136 444.649 965.136 487.649 884.927 487.649Z" fill="#FFFFFF" fill-rule="evenodd"/><path d="M965.136 444.649 1105.5 444.649 1105.5 487.649 965.136 487.649Z" fill="#FFFFFF" fill-rule="evenodd"/><path d="M143 488.649 163.052 488.649 163.052 531.649 143 531.649Z" fill="#FFFFFF" fill-rule="evenodd"/><path d="M163.052 488.649 183.105 488.649 183.105 531.649 163.052 531.649Z" fill="#FFFFFF" fill-rule="evenodd"/><path d="M183.105 488.649 283.365 488.649 283.365 531.649 183.105 531.649Z" fill="#FFFFFF" fill-rule="evenodd"/><path d="M283.365 488.649 303.417 488.649 303.417 531.649 283.365 531.649Z" fill="#FFFFFF" fill-rule="evenodd"/><path d="M303.417 488.649 323.469 488.649 323.469 531.649 303.417 531.649Z" fill="#FFFFFF" fill-rule="evenodd"/><path d="M323.469 488.649 724.511 488.649 724.511 531.649 323.469 531.649Z" fill="#FFFFFF" fill-rule="evenodd"/><path d="M724.511 488.649 744.563 488.649 744.563 531.649 724.511 531.649Z" fill="#FFFFFF" fill-rule="evenodd"/><path d="M744.563 488.649 764.615 488.649 764.615 531.649 744.563 531.649Z" fill="#FFFFFF" fill-rule="evenodd"/><path d="M764.615 488.649 844.823 488.649 844.823 531.649 764.615 531.649Z" fill="#FFFFFF" fill-rule="evenodd"/><path d="M143 532.649 163.052 532.649 163.052 575.649 143 575.649Z" fill="#FFFFFF" fill-rule="evenodd"/><path d="M163.052 532.649 183.105 532.649 183.105 575.649 163.052 575.649Z" fill="#FFFFFF" fill-rule="evenodd"/><path d="M183.105 532.649 203.157 532.649 203.157 575.649 183.105 575.649Z" fill="#FFFFFF" fill-rule="evenodd"/><path d="M203.157 532.649 223.209 532.649 223.209 575.649 203.157 575.649Z" fill="#FFFFFF" fill-rule="evenodd"/><path d="M223.209 532.649 343.521 532.649 343.521 575.649 223.209 575.649Z" fill="#FFFFFF" fill-rule="evenodd"/><path d="M343.521 532.649 363.573 532.649 363.573 575.649 343.521 575.649Z" fill="#FFFFFF" fill-rule="evenodd"/><path d="M363.573 532.649 463.834 532.649 463.834 575.649 363.573 575.649Z" fill="#FFFFFF" fill-rule="evenodd"/><path d="M143 576.649 163.052 576.649 163.052 619.649 143 619.649Z" fill="#FFFFFF" fill-rule="evenodd"/><path d="M163.052 576.649 183.105 576.649 183.105 619.649 163.052 619.649Z" fill="#FFFFFF" fill-rule="evenodd"/><path d="M183.105 576.649 203.157 576.649 203.157 619.649 183.105 619.649Z" fill="#FFFFFF" fill-rule="evenodd"/><path d="M203.157 576.649 223.209 576.649 223.209 619.649 203.157 619.649Z" fill="#FFFFFF" fill-rule="evenodd"/><path d="M223.209 576.649 343.521 576.649 343.521 619.649 223.209 619.649Z" fill="#FFFFFF" fill-rule="evenodd"/><path d="M343.521 576.649 363.573 576.649 363.573 619.649 343.521 619.649Z" fill="#FFFFFF" fill-rule="evenodd"/><path d="M363.573 576.649 383.625 576.649 383.625 619.649 363.573 619.649Z" fill="#FFFFFF" fill-rule="evenodd"/><path d="M383.625 576.649 423.729 576.649 423.729 619.649 383.625 619.649Z" fill="#FFFFFF" fill-rule="evenodd"/><path d="M423.73 576.649 443.782 576.649 443.782 619.649 423.73 619.649Z" fill="#FFFFFF" fill-rule="evenodd"/><path d="M443.782 576.649 483.886 576.649 483.886 619.649 443.782 619.649Z" fill="#FFFFFF" fill-rule="evenodd"/><path d="M483.886 576.649 804.719 576.649 804.719 619.649 483.886 619.649Z" fill="#FFFFFF" fill-rule="evenodd"/><path d="M804.719 576.649 824.771 576.649 824.771 619.649 804.719 619.649Z" fill="#FFFFFF" fill-rule="evenodd"/><path d="M824.771 576.649 844.823 576.649 844.823 619.649 824.771 619.649Z" fill="#FFFFFF" fill-rule="evenodd"/><path d="M844.823 576.649 1025.29 576.649 1025.29 619.649 844.823 619.649Z" fill="#FFFFFF" fill-rule="evenodd"/><path d="M143 620.649 163.052 620.649 163.052 663.649 143 663.649Z" fill="#FFFFFF" fill-rule="evenodd"/><path d="M163.052 620.649 183.105 620.649 183.105 663.649 163.052 663.649Z" fill="#FFFFFF" fill-rule="evenodd"/><path d="M183.105 620.649 203.157 620.649 203.157 663.649 183.105 663.649Z" fill="#FFFFFF" fill-rule="evenodd"/><path d="M203.157 620.649 223.209 620.649 223.209 663.649 203.157 663.649Z" fill="#FFFFFF" fill-rule="evenodd"/><path d="M223.209 620.649 283.365 620.649 283.365 663.649 223.209 663.649Z" fill="#FFFFFF" fill-rule="evenodd"/><path d="M143 664.649 163.052 664.649 163.052 707.649 143 707.649Z" fill="#FFFFFF" fill-rule="evenodd"/><path d="M163.052 664.649 183.105 664.649 183.105 707.649 163.052 707.649Z" fill="#FFFFFF" fill-rule="evenodd"/><path d="M183.105 664.649 203.157 664.649 203.157 707.649 183.105 707.649Z" fill="#FFFFFF" fill-rule="evenodd"/><path d="M203.157 664.649 223.209 664.649 223.209 707.649 203.157 707.649Z" fill="#FFFFFF" fill-rule="evenodd"/><path d="M223.209 664.649 985.188 664.649 985.188 707.649 223.209 707.649Z" fill="#FFFFFF" fill-rule="evenodd"/><path d="M143 708.649 163.052 708.649 163.052 751.649 143 751.649Z" fill="#FFFFFF" fill-rule="evenodd"/><path d="M163.052 708.649 183.105 708.649 183.105 751.649 163.052 751.649Z" fill="#FFFFFF" fill-rule="evenodd"/><path d="M183.105 708.649 203.157 708.649 203.157 751.649 183.105 751.649Z" fill="#FFFFFF" fill-rule="evenodd"/><path d="M203.157 708.649 223.209 708.649 223.209 751.649 203.157 751.649Z" fill="#FFFFFF" fill-rule="evenodd"/><path d="M223.209 708.649 303.417 708.649 303.417 751.649 223.209 751.649Z" fill="#FFFFFF" fill-rule="evenodd"/><path d="M303.417 708.649 343.521 708.649 343.521 751.649 303.417 751.649Z" fill="#FFFFFF" fill-rule="evenodd"/><path d="M343.521 708.649 403.677 708.649 403.677 751.649 343.521 751.649Z" fill="#FFFFFF" fill-rule="evenodd"/><path d="M403.677 708.649 423.73 708.649 423.73 751.649 403.677 751.649Z" fill="#FFFFFF" fill-rule="evenodd"/><path d="M423.73 708.649 443.782 708.649 443.782 751.649 423.73 751.649Z" fill="#FFFFFF" fill-rule="evenodd"/><path d="M443.782 708.649 564.094 708.649 564.094 751.649 443.782 751.649Z" fill="#FFFFFF" fill-rule="evenodd"/><path d="M564.094 708.649 584.146 708.649 584.146 751.649 564.094 751.649Z" fill="#FFFFFF" fill-rule="evenodd"/><path d="M584.146 708.649 624.25 708.649 624.25 751.649 584.146 751.649Z" fill="#FFFFFF" fill-rule="evenodd"/><path d="M624.25 708.649 664.355 708.649 664.355 751.649 624.25 751.649Z" fill="#FFFFFF" fill-rule="evenodd"/><path d="M664.354 708.649 744.563 708.649 744.563 751.649 664.354 751.649Z" fill="#FFFFFF" fill-rule="evenodd"/><path d="M744.563 708.649 784.667 708.649 784.667 751.649 744.563 751.649Z" fill="#FFFFFF" fill-rule="evenodd"/><path d="M784.667 708.649 864.875 708.649 864.875 751.649 784.667 751.649Z" fill="#FFFFFF" fill-rule="evenodd"/><path d="M864.875 708.649 884.927 708.649 884.927 751.649 864.875 751.649Z" fill="#FFFFFF" fill-rule="evenodd"/><path d="M884.927 708.649 1165.66 708.649 1165.66 751.649 884.927 751.649Z" fill="#FFFFFF" fill-rule="evenodd"/><path d="M143 752.649 163.052 752.649 163.052 795.649 143 795.649Z" fill="#FFFFFF" fill-rule="evenodd"/><path d="M163.052 752.649 183.105 752.649 183.105 795.649 163.052 795.649Z" fill="#FFFFFF" fill-rule="evenodd"/><path d="M183.105 752.649 203.157 752.649 203.157 795.649 183.105 795.649Z" fill="#FFFFFF" fill-rule="evenodd"/><path d="M203.157 752.649 223.209 752.649 223.209 795.649 203.157 795.649Z" fill="#FFFFFF" fill-rule="evenodd"/><path d="M223.209 752.649 303.417 752.649 303.417 795.649 223.209 795.649Z" fill="#FFFFFF" fill-rule="evenodd"/><path d="M303.417 752.649 323.469 752.649 323.469 795.649 303.417 795.649Z" fill="#FFFFFF" fill-rule="evenodd"/><path d="M323.469 752.649 483.886 752.649 483.886 795.649 323.469 795.649Z" fill="#FFFFFF" fill-rule="evenodd"/><path d="M143 796.649 163.052 796.649 163.052 839.649 143 839.649Z" fill="#FFFFFF" fill-rule="evenodd"/><path d="M163.052 796.649 183.105 796.649 183.105 839.649 163.052 839.649Z" fill="#FFFFFF" fill-rule="evenodd"/><path d="M183.105 796.649 203.157 796.649 203.157 839.649 183.105 839.649Z" fill="#FFFFFF" fill-rule="evenodd"/><path d="M203.157 796.649 223.209 796.649 223.209 839.649 203.157 839.649Z" fill="#FFFFFF" fill-rule="evenodd"/><path d="M223.209 796.649 283.365 796.649 283.365 839.649 223.209 839.649Z" fill="#FFFFFF" fill-rule="evenodd"/><path d="M143 840.649 163.052 840.649 163.052 883.649 143 883.649Z" fill="#FFFFFF" fill-rule="evenodd"/><path d="M163.052 840.649 183.105 840.649 183.105 883.649 163.052 883.649Z" fill="#FFFFFF" fill-rule="evenodd"/><path d="M183.105 840.649 203.157 840.649 203.157 883.649 183.105 883.649Z" fill="#FFFFFF" fill-rule="evenodd"/><path d="M143 884.649 163.052 884.649 163.052 927.649 143 927.649Z" fill="#FFFFFF" fill-rule="evenodd"/><path d="M163.052 884.649 183.105 884.649 183.105 927.649 163.052 927.649Z" fill="#FFFFFF" fill-rule="evenodd"/><path d="M183.105 884.649 483.886 884.649 483.886 927.649 183.105 927.649Z" fill="#FFFFFF" fill-rule="evenodd"/><path d="M483.886 884.649 503.938 884.649 503.938 927.649 483.886 927.649Z" fill="#FFFFFF" fill-rule="evenodd"/><path d="M503.938 884.649 523.99 884.649 523.99 927.649 503.938 927.649Z" fill="#FFFFFF" fill-rule="evenodd"/><path d="M523.99 884.649 564.094 884.649 564.094 927.649 523.99 927.649Z" fill="#FFFFFF" fill-rule="evenodd"/><path d="M143 928.649 163.052 928.649 163.052 971.649 143 971.649Z" fill="#FFFFFF" fill-rule="evenodd"/><path d="M163.052 928.649 183.105 928.649 183.105 971.649 163.052 971.649Z" fill="#FFFFFF" fill-rule="evenodd"/><path d="M183.105 928.649 523.99 928.649 523.99 971.649 183.105 971.649Z" fill="#FFFFFF" fill-rule="evenodd"/><path d="M523.99 928.649 664.354 928.649 664.354 971.649 523.99 971.649Z" fill="#FFFFFF" fill-rule="evenodd"/><path d="M143 972.649 163.052 972.649 163.052 1015.65 143 1015.65Z" fill="#FFFFFF" fill-rule="evenodd"/><text fill="#0000FF" font-family="Consolas,Consolas_MSFontService,sans-serif" font-weight="400" font-size="37" transform="matrix(1 0 0 1 143 391)">void</text><text font-family="Consolas,Consolas_MSFontService,sans-serif" font-weight="400" font-size="37" transform="matrix(1 0 0 1 223.209 391)"> </text><text fill="#74531F" font-family="Consolas,Consolas_MSFontService,sans-serif" font-weight="400" font-size="37" transform="matrix(1 0 0 1 243.261 391)">walk_range</text><text font-family="Consolas,Consolas_MSFontService,sans-serif" font-weight="400" font-size="37" transform="matrix(1 0 0 1 443.782 391)">(mm, </text><text font-family="Consolas,Consolas_MSFontService,sans-serif" font-weight="400" font-size="37" transform="matrix(1 0 0 1 544.042 391)">addr</text><text font-family="Consolas,Consolas_MSFontService,sans-serif" font-weight="400" font-size="37" transform="matrix(1 0 0 1 624.25 391)">, end) {</text><text font-family="Consolas,Consolas_MSFontService,sans-serif" font-weight="400" font-size="37" transform="matrix(1 0 0 1 143 435)"> </text><text font-family="Consolas,Consolas_MSFontService,sans-serif" font-weight="400" font-size="37" transform="matrix(1 0 0 1 163.052 435)"> </text><text fill="#2B91AF" font-family="Consolas,Consolas_MSFontService,sans-serif" font-weight="400" font-size="37" transform="matrix(1 0 0 1 183.105 435)">addr_lock</text><text font-family="Consolas,Consolas_MSFontService,sans-serif" font-weight="400" font-size="37" transform="matrix(1 0 0 1 363.573 435)"> </text><text font-family="Consolas,Consolas_MSFontService,sans-serif" font-weight="400" font-size="37" transform="matrix(1 0 0 1 383.625 435)">*lock = </text><text fill="#74531F" font-family="Consolas,Consolas_MSFontService,sans-serif" font-weight="400" font-size="37" transform="matrix(1 0 0 1 544.042 435)">addr_lock_range</text><text font-family="Consolas,Consolas_MSFontService,sans-serif" font-weight="400" font-size="37" transform="matrix(1 0 0 1 844.823 435)">(mm, </text><text font-family="Consolas,Consolas_MSFontService,sans-serif" font-weight="400" font-size="37" transform="matrix(1 0 0 1 945.084 435)">addr</text><text font-family="Consolas,Consolas_MSFontService,sans-serif" font-weight="400" font-size="37" transform="matrix(1 0 0 1 1025.29 435)">, end);</text><text font-family="Consolas,Consolas_MSFontService,sans-serif" font-weight="400" font-size="37" transform="matrix(1 0 0 1 143 479)"> </text><text font-family="Consolas,Consolas_MSFontService,sans-serif" font-weight="400" font-size="37" transform="matrix(1 0 0 1 163.052 479)"> </text><text fill="#2B91AF" font-family="Consolas,Consolas_MSFontService,sans-serif" font-weight="400" font-size="37" transform="matrix(1 0 0 1 183.105 479)">te_iter</text><text font-family="Consolas,Consolas_MSFontService,sans-serif" font-weight="400" font-size="37" transform="matrix(1 0 0 1 323.469 479)"> </text><text font-family="Consolas,Consolas_MSFontService,sans-serif" font-weight="400" font-size="37" transform="matrix(1 0 0 1 343.521 479)">*</text><text font-family="Consolas,Consolas_MSFontService,sans-serif" font-weight="400" font-size="37" transform="matrix(1 0 0 1 363.573 479)">i</text><text font-family="Consolas,Consolas_MSFontService,sans-serif" font-weight="400" font-size="37" transform="matrix(1 0 0 1 383.625 479)"> </text><text font-family="Consolas,Consolas_MSFontService,sans-serif" font-weight="400" font-size="37" transform="matrix(1 0 0 1 403.677 479)">= </text><text fill="#74531F" font-family="Consolas,Consolas_MSFontService,sans-serif" font-weight="400" font-size="37" transform="matrix(1 0 0 1 443.782 479)">tentry_iter_start</text><text font-family="Consolas,Consolas_MSFontService,sans-serif" font-weight="400" font-size="37" transform="matrix(1 0 0 1 784.667 479)">(mm, </text><text font-family="Consolas,Consolas_MSFontService,sans-serif" font-weight="400" font-size="37" transform="matrix(1 0 0 1 884.927 479)">addr</text><text font-family="Consolas,Consolas_MSFontService,sans-serif" font-weight="400" font-size="37" transform="matrix(1 0 0 1 965.136 479)">, end);</text><text font-family="Consolas,Consolas_MSFontService,sans-serif" font-weight="400" font-size="37" transform="matrix(1 0 0 1 143 523)"> </text><text font-family="Consolas,Consolas_MSFontService,sans-serif" font-weight="400" font-size="37" transform="matrix(1 0 0 1 163.052 523)"> </text><text fill="#8F08C4" font-family="Consolas,Consolas_MSFontService,sans-serif" font-weight="400" font-size="37" transform="matrix(1 0 0 1 183.105 523)">while</text><text font-family="Consolas,Consolas_MSFontService,sans-serif" font-weight="400" font-size="37" transform="matrix(1 0 0 1 283.365 523)"> </text><text font-family="Consolas,Consolas_MSFontService,sans-serif" font-weight="400" font-size="37" transform="matrix(1 0 0 1 303.417 523)">(</text><text fill="#74531F" font-family="Consolas,Consolas_MSFontService,sans-serif" font-weight="400" font-size="37" transform="matrix(1 0 0 1 323.469 523)">tentry_iter_has_next</text><text font-family="Consolas,Consolas_MSFontService,sans-serif" font-weight="400" font-size="37" transform="matrix(1 0 0 1 724.511 523)">(</text><text font-family="Consolas,Consolas_MSFontService,sans-serif" font-weight="400" font-size="37" transform="matrix(1 0 0 1 744.563 523)">i</text><text font-family="Consolas,Consolas_MSFontService,sans-serif" font-weight="400" font-size="37" transform="matrix(1 0 0 1 764.615 523)">)) {</text><text font-family="Consolas,Consolas_MSFontService,sans-serif" font-weight="400" font-size="37" transform="matrix(1 0 0 1 143 567)"> </text><text font-family="Consolas,Consolas_MSFontService,sans-serif" font-weight="400" font-size="37" transform="matrix(1 0 0 1 163.052 567)"> </text><text font-family="Consolas,Consolas_MSFontService,sans-serif" font-weight="400" font-size="37" transform="matrix(1 0 0 1 183.105 567)"> </text><text font-family="Consolas,Consolas_MSFontService,sans-serif" font-weight="400" font-size="37" transform="matrix(1 0 0 1 203.157 567)"> </text><text fill="#0000FF" font-family="Consolas,Consolas_MSFontService,sans-serif" font-weight="400" font-size="37" transform="matrix(1 0 0 1 223.209 567)">size_t</text><text font-family="Consolas,Consolas_MSFontService,sans-serif" font-weight="400" font-size="37" transform="matrix(1 0 0 1 343.521 567)"> </text><text font-family="Consolas,Consolas_MSFontService,sans-serif" font-weight="400" font-size="37" transform="matrix(1 0 0 1 363.573 567)">size;</text><text font-family="Consolas,Consolas_MSFontService,sans-serif" font-weight="400" font-size="37" transform="matrix(1 0 0 1 143 611)"> </text><text font-family="Consolas,Consolas_MSFontService,sans-serif" font-weight="400" font-size="37" transform="matrix(1 0 0 1 163.052 611)"> </text><text font-family="Consolas,Consolas_MSFontService,sans-serif" font-weight="400" font-size="37" transform="matrix(1 0 0 1 183.105 611)"> </text><text font-family="Consolas,Consolas_MSFontService,sans-serif" font-weight="400" font-size="37" transform="matrix(1 0 0 1 203.157 611)"> </text><text fill="#2B91AF" font-family="Consolas,Consolas_MSFontService,sans-serif" font-weight="400" font-size="37" transform="matrix(1 0 0 1 223.209 611)">tentry</text><text font-family="Consolas,Consolas_MSFontService,sans-serif" font-weight="400" font-size="37" transform="matrix(1 0 0 1 343.521 611)"> </text><text font-family="Consolas,Consolas_MSFontService,sans-serif" font-weight="400" font-size="37" transform="matrix(1 0 0 1 363.573 611)">*</text><text font-family="Consolas,Consolas_MSFontService,sans-serif" font-weight="400" font-size="37" transform="matrix(1 0 0 1 383.625 611)">te</text><text font-family="Consolas,Consolas_MSFontService,sans-serif" font-weight="400" font-size="37" transform="matrix(1 0 0 1 423.73 611)"> </text><text font-family="Consolas,Consolas_MSFontService,sans-serif" font-weight="400" font-size="37" transform="matrix(1 0 0 1 443.782 611)">= </text><text fill="#74531F" font-family="Consolas,Consolas_MSFontService,sans-serif" font-weight="400" font-size="37" transform="matrix(1 0 0 1 483.886 611)">tentry_iter_next</text><text font-family="Consolas,Consolas_MSFontService,sans-serif" font-weight="400" font-size="37" transform="matrix(1 0 0 1 804.719 611)">(</text><text font-family="Consolas,Consolas_MSFontService,sans-serif" font-weight="400" font-size="37" transform="matrix(1 0 0 1 824.771 611)">i</text><text font-family="Consolas,Consolas_MSFontService,sans-serif" font-weight="400" font-size="37" transform="matrix(1 0 0 1 844.823 611)">, &amp;size);</text><text font-family="Consolas,Consolas_MSFontService,sans-serif" font-weight="400" font-size="37" transform="matrix(1 0 0 1 143 655)"> </text><text font-family="Consolas,Consolas_MSFontService,sans-serif" font-weight="400" font-size="37" transform="matrix(1 0 0 1 163.052 655)"> </text><text font-family="Consolas,Consolas_MSFontService,sans-serif" font-weight="400" font-size="37" transform="matrix(1 0 0 1 183.105 655)"> </text><text font-family="Consolas,Consolas_MSFontService,sans-serif" font-weight="400" font-size="37" transform="matrix(1 0 0 1 203.157 655)"> </text><text font-family="Consolas,Consolas_MSFontService,sans-serif" font-weight="400" font-size="37" transform="matrix(1 0 0 1 223.209 655)">...</text><text fill="#008000" font-family="Consolas,Consolas_MSFontService,sans-serif" font-weight="400" font-size="37" transform="matrix(1 0 0 1 143 699)"> </text><text fill="#008000" font-family="Consolas,Consolas_MSFontService,sans-serif" font-weight="400" font-size="37" transform="matrix(1 0 0 1 163.052 699)"> </text><text fill="#008000" font-family="Consolas,Consolas_MSFontService,sans-serif" font-weight="400" font-size="37" transform="matrix(1 0 0 1 183.105 699)"> </text><text fill="#008000" font-family="Consolas,Consolas_MSFontService,sans-serif" font-weight="400" font-size="37" transform="matrix(1 0 0 1 203.157 699)"> </text><text fill="#008000" font-family="Consolas,Consolas_MSFontService,sans-serif" font-weight="400" font-size="37" transform="matrix(1 0 0 1 223.209 699)">// a custom function to update entries</text><text font-family="Consolas,Consolas_MSFontService,sans-serif" font-weight="400" font-size="37" transform="matrix(1 0 0 1 143 743)"> </text><text font-family="Consolas,Consolas_MSFontService,sans-serif" font-weight="400" font-size="37" transform="matrix(1 0 0 1 163.052 743)"> </text><text font-family="Consolas,Consolas_MSFontService,sans-serif" font-weight="400" font-size="37" transform="matrix(1 0 0 1 183.105 743)"> </text><text font-family="Consolas,Consolas_MSFontService,sans-serif" font-weight="400" font-size="37" transform="matrix(1 0 0 1 203.157 743)"> </text><text font-family="Consolas,Consolas_MSFontService,sans-serif" font-weight="400" font-size="37" transform="matrix(1 0 0 1 223.209 743)">err </text><text font-family="Consolas,Consolas_MSFontService,sans-serif" font-weight="400" font-size="37" transform="matrix(1 0 0 1 303.417 743)">= </text><text fill="#1F377F" font-family="Consolas,Consolas_MSFontService,sans-serif" font-weight="400" font-size="37" transform="matrix(1 0 0 1 343.521 743)">ops</text><text font-family="Consolas,Consolas_MSFontService,sans-serif" font-weight="400" font-size="37" transform="matrix(1 0 0 1 403.677 743)">-</text><text font-family="Consolas,Consolas_MSFontService,sans-serif" font-weight="400" font-size="37" transform="matrix(1 0 0 1 423.73 743)">&gt;</text><text fill="#74531F" font-family="Consolas,Consolas_MSFontService,sans-serif" font-weight="400" font-size="37" transform="matrix(1 0 0 1 443.782 743)">tentry</text><text font-family="Consolas,Consolas_MSFontService,sans-serif" font-weight="400" font-size="37" transform="matrix(1 0 0 1 564.094 743)">(</text><text font-family="Consolas,Consolas_MSFontService,sans-serif" font-weight="400" font-size="37" transform="matrix(1 0 0 1 584.146 743)">te</text><text font-family="Consolas,Consolas_MSFontService,sans-serif" font-weight="400" font-size="37" transform="matrix(1 0 0 1 624.25 743)">, </text><text font-family="Consolas,Consolas_MSFontService,sans-serif" font-weight="400" font-size="37" transform="matrix(1 0 0 1 664.354 743)">addr</text><text font-family="Consolas,Consolas_MSFontService,sans-serif" font-weight="400" font-size="37" transform="matrix(1 0 0 1 744.563 743)">, </text><text font-family="Consolas,Consolas_MSFontService,sans-serif" font-weight="400" font-size="37" transform="matrix(1 0 0 1 784.667 743)">addr</text><text font-family="Consolas,Consolas_MSFontService,sans-serif" font-weight="400" font-size="37" transform="matrix(1 0 0 1 864.875 743)"> </text><text font-family="Consolas,Consolas_MSFontService,sans-serif" font-weight="400" font-size="37" transform="matrix(1 0 0 1 884.927 743)">+ size, walk);</text><text font-family="Consolas,Consolas_MSFontService,sans-serif" font-weight="400" font-size="37" transform="matrix(1 0 0 1 143 787)"> </text><text font-family="Consolas,Consolas_MSFontService,sans-serif" font-weight="400" font-size="37" transform="matrix(1 0 0 1 163.052 787)"> </text><text font-family="Consolas,Consolas_MSFontService,sans-serif" font-weight="400" font-size="37" transform="matrix(1 0 0 1 183.105 787)"> </text><text font-family="Consolas,Consolas_MSFontService,sans-serif" font-weight="400" font-size="37" transform="matrix(1 0 0 1 203.157 787)"> </text><text font-family="Consolas,Consolas_MSFontService,sans-serif" font-weight="400" font-size="37" transform="matrix(1 0 0 1 223.209 787)">addr</text><text font-family="Consolas,Consolas_MSFontService,sans-serif" font-weight="400" font-size="37" transform="matrix(1 0 0 1 303.417 787)"> </text><text font-family="Consolas,Consolas_MSFontService,sans-serif" font-weight="400" font-size="37" transform="matrix(1 0 0 1 323.469 787)">+= size;</text><text font-family="Consolas,Consolas_MSFontService,sans-serif" font-weight="400" font-size="37" transform="matrix(1 0 0 1 143 831)"> </text><text font-family="Consolas,Consolas_MSFontService,sans-serif" font-weight="400" font-size="37" transform="matrix(1 0 0 1 163.052 831)"> </text><text font-family="Consolas,Consolas_MSFontService,sans-serif" font-weight="400" font-size="37" transform="matrix(1 0 0 1 183.105 831)"> </text><text font-family="Consolas,Consolas_MSFontService,sans-serif" font-weight="400" font-size="37" transform="matrix(1 0 0 1 203.157 831)"> </text><text font-family="Consolas,Consolas_MSFontService,sans-serif" font-weight="400" font-size="37" transform="matrix(1 0 0 1 223.209 831)">...</text><text font-family="Consolas,Consolas_MSFontService,sans-serif" font-weight="400" font-size="37" transform="matrix(1 0 0 1 143 875)"> </text><text font-family="Consolas,Consolas_MSFontService,sans-serif" font-weight="400" font-size="37" transform="matrix(1 0 0 1 163.052 875)"> </text><text font-family="Consolas,Consolas_MSFontService,sans-serif" font-weight="400" font-size="37" transform="matrix(1 0 0 1 183.105 875)">}</text><text font-family="Consolas,Consolas_MSFontService,sans-serif" font-weight="400" font-size="37" transform="matrix(1 0 0 1 143 919)"> </text><text font-family="Consolas,Consolas_MSFontService,sans-serif" font-weight="400" font-size="37" transform="matrix(1 0 0 1 163.052 919)"> </text><text fill="#74531F" font-family="Consolas,Consolas_MSFontService,sans-serif" font-weight="400" font-size="37" transform="matrix(1 0 0 1 183.105 919)">tentry_iter_end</text><text font-family="Consolas,Consolas_MSFontService,sans-serif" font-weight="400" font-size="37" transform="matrix(1 0 0 1 483.886 919)">(</text><text font-family="Consolas,Consolas_MSFontService,sans-serif" font-weight="400" font-size="37" transform="matrix(1 0 0 1 503.938 919)">i</text><text font-family="Consolas,Consolas_MSFontService,sans-serif" font-weight="400" font-size="37" transform="matrix(1 0 0 1 523.99 919)">);</text><text font-family="Consolas,Consolas_MSFontService,sans-serif" font-weight="400" font-size="37" transform="matrix(1 0 0 1 143 963)"> </text><text font-family="Consolas,Consolas_MSFontService,sans-serif" font-weight="400" font-size="37" transform="matrix(1 0 0 1 163.052 963)"> </text><text fill="#74531F" font-family="Consolas,Consolas_MSFontService,sans-serif" font-weight="400" font-size="37" transform="matrix(1 0 0 1 183.105 963)">addr_unlock_range</text><text font-family="Consolas,Consolas_MSFontService,sans-serif" font-weight="400" font-size="37" transform="matrix(1 0 0 1 523.99 963)">(lock);</text><text font-family="Consolas,Consolas_MSFontService,sans-serif" font-weight="400" font-size="37" transform="matrix(1 0 0 1 143 1007)">}</text><rect x="870" y="460" width="416" height="78.0001" fill="#000000" fill-opacity="0.501961"/><text fill="#FFFFFF" font-family="Times New Roman,Times New Roman_MSFontService,sans-serif" font-weight="400" font-size="41" transform="matrix(1 0 0 1 915.638 515)">Single batched lock</text><path d="M870.396 501.51 760.972 446.798 763.022 442.699 872.446 497.411ZM759.948 459.097 741.5 434.5 772.246 434.5Z" fill="#000000" fill-opacity="0.501961"/><path d="M1.95983-1.18777 249.925 407.954 246.005 410.33-1.95983 1.18777ZM257.348 398.096 259.843 428.74 233.83 412.349Z" fill="#000000" fill-opacity="0.501961" transform="matrix(-1 0 0 1 871.343 499.5)"/><rect x="870" y="590" width="416" height="78" fill="#000000" fill-opacity="0.501961"/><text fill="#FFFFFF" font-family="Times New Roman,Times New Roman_MSFontService,sans-serif" font-weight="400" font-size="41" transform="matrix(1 0 0 1 895.586 645)">Able to delegate work</text><path d="M0.830606-2.13584 213.331 80.503 211.669 84.7747-0.830606 2.13584ZM213.212 68.1625 233.858 90.9449 203.245 93.7927Z" fill="#000000" fill-opacity="0.501961" transform="matrix(-1 0 0 1 871.358 629.5)"/></g></svg>