<svg width="3005" height="1395" xmlns="http://www.w3.org/2000/svg" xmlns:xlink="http://www.w3.org/1999/xlink" xml:space="preserve" overflow="hidden"><g transform="translate(-99 -333)"><text font-family="Consolas,Consolas_MSFontService,sans-serif" font-weight="700" font-size="73" transform="matrix(1 0 0 1 143 425)">void </text><text font-family="Consolas,Consolas_MSFontService,sans-serif" font-weight="700" font-size="73" transform="matrix(1 0 0 1 343.521 425)">walk_pte_range</text><text font-family="Consolas,Consolas_MSFontService,sans-serif" font-weight="700" font-size="73" transform="matrix(1 0 0 1 904.979 425)">(</text><text font-family="Consolas,Consolas_MSFontService,sans-serif" font-weight="700" font-size="73" transform="matrix(1 0 0 1 945.083 425)">addr</text><text font-family="Consolas,Consolas_MSFontService,sans-serif" font-weight="700" font-size="73" transform="matrix(1 0 0 1 1105.5 425)">,</text><text font-family="Consolas,Consolas_MSFontService,sans-serif" font-weight="700" font-size="73" transform="matrix(1 0 0 1 1185.71 425)">end)</text><text font-family="Consolas,Consolas_MSFontService,sans-serif" font-weight="700" font-size="73" transform="matrix(1 0 0 1 1386.23 425)">{</text><text fill="#093C92" font-family="Consolas,Consolas_MSFontService,sans-serif" font-weight="400" font-size="73" transform="matrix(1 0 0 1 223.208 513)">spinlock_t</text><text fill="#093C92" font-family="Consolas,Consolas_MSFontService,sans-serif" font-weight="400" font-size="73" transform="matrix(1 0 0 1 664.354 513)">*</text><text fill="#24292E" font-family="Consolas,Consolas_MSFontService,sans-serif" font-weight="400" font-size="73" transform="matrix(1 0 0 1 704.458 513)">ptl</text><text fill="#24292E" font-family="Consolas,Consolas_MSFontService,sans-serif" font-weight="400" font-size="73" transform="matrix(1 0 0 1 824.771 513)">;</text><text fill="#6A737D" font-family="Consolas,Consolas_MSFontService,sans-serif" font-weight="400" font-size="73" transform="matrix(1 0 0 1 223.208 601)">// only locked once </text><text fill="#6A737D" font-family="Consolas,Consolas_MSFontService,sans-serif" font-weight="400" font-size="73" transform="matrix(1 0 0 1 1025.29 601)">for</text><text fill="#6A737D" font-family="Consolas,Consolas_MSFontService,sans-serif" font-weight="400" font-size="73" transform="matrix(1 0 0 1 1185.71 601)">batched operations</text><text fill="#093C92" font-family="Consolas,Consolas_MSFontService,sans-serif" font-weight="400" font-size="73" transform="matrix(1 0 0 1 223.208 689)">pte_t</text><text fill="#093C92" font-family="Consolas,Consolas_MSFontService,sans-serif" font-weight="400" font-size="73" transform="matrix(1 0 0 1 463.833 689)">*</text><text fill="#24292E" font-family="Consolas,Consolas_MSFontService,sans-serif" font-weight="400" font-size="73" transform="matrix(1 0 0 1 503.937 689)">pte</text><text fill="#D73A49" font-family="Consolas,Consolas_MSFontService,sans-serif" font-weight="400" font-size="73" transform="matrix(1 0 0 1 664.354 689)">=</text><text fill="#C00000" font-family="Consolas,Consolas_MSFontService,sans-serif" font-weight="700" font-size="73" transform="matrix(1 0 0 1 744.562 689)">pte_offset_map_lock</text><text fill="#24292E" font-family="Consolas,Consolas_MSFontService,sans-serif" font-weight="700" font-size="73" transform="matrix(1 0 0 1 1506.54 689)">(mm, </text><text fill="#24292E" font-family="Consolas,Consolas_MSFontService,sans-serif" font-weight="700" font-size="73" transform="matrix(1 0 0 1 1707.06 689)">pmd</text><text fill="#24292E" font-family="Consolas,Consolas_MSFontService,sans-serif" font-weight="700" font-size="73" transform="matrix(1 0 0 1 1827.37 689)">, </text><text fill="#24292E" font-family="Consolas,Consolas_MSFontService,sans-serif" font-weight="700" font-size="73" transform="matrix(1 0 0 1 1907.58 689)">addr</text><text fill="#24292E" font-family="Consolas,Consolas_MSFontService,sans-serif" font-weight="700" font-size="73" transform="matrix(1 0 0 1 2068 689)">, &amp;</text><text fill="#24292E" font-family="Consolas,Consolas_MSFontService,sans-serif" font-weight="700" font-size="73" transform="matrix(1 0 0 1 2188.31 689)">ptl</text><text fill="#24292E" font-family="Consolas,Consolas_MSFontService,sans-serif" font-weight="700" font-size="73" transform="matrix(1 0 0 1 2308.62 689)">)</text><text fill="#24292E" font-family="Consolas,Consolas_MSFontService,sans-serif" font-weight="400" font-size="73" transform="matrix(1 0 0 1 2348.73 689)">;</text><path d="M745 692.655 745 696.655 755 706.655 765 696.655 775 706.655 785 696.655 795 706.655 805 696.655 815 706.655 825 696.655 835 706.655 845 696.655 855 706.655 865 696.655 875 706.655 885 696.655 895 706.655 905 696.655 915 706.655 925 696.655 935 706.655 945 696.655 955 706.655 965 696.655 975 706.655 985 696.655 995 706.655 1005 696.655 1015 706.655 1025 696.655 1035 706.655 1045 696.655 1055 706.655 1065 696.655 1075 706.655 1085 696.655 1095 706.655 1105 696.655 1115 706.655 1125 696.655 1135 706.655 1145 696.655 1155 706.655 1165 696.655 1175 706.655 1185 696.655 1195 706.655 1205 696.655 1215 706.655 1225 696.655 1235 706.655 1245 696.655 1255 706.655 1265 696.655 1275 706.655 1285 696.655 1295 706.655 1305 696.655 1315 706.655 1325 696.655 1335 706.655 1345 696.655 1355 706.655 1365 696.655 1375 706.655 1385 696.655 1395 706.655 1405 696.655 1415 706.655 1425 696.655 1435 706.655 1445 696.655 1455 706.655 1465 696.655 1475 706.655 1485 696.655 1495 706.655 1505 696.655 1515 706.655 1525 696.655 1525 692.655 1515 702.655 1505 692.655 1495 702.655 1485 692.655 1475 702.655 1465 692.655 1455 702.655 1445 692.655 1435 702.655 1425 692.655 1415 702.655 1405 692.655 1395 702.655 1385 692.655 1375 702.655 1365 692.655 1355 702.655 1345 692.655 1335 702.655 1325 692.655 1315 702.655 1305 692.655 1295 702.655 1285 692.655 1275 702.655 1265 692.655 1255 702.655 1245 692.655 1235 702.655 1225 692.655 1215 702.655 1205 692.655 1195 702.655 1185 692.655 1175 702.655 1165 692.655 1155 702.655 1145 692.655 1135 702.655 1125 692.655 1115 702.655 1105 692.655 1095 702.655 1085 692.655 1075 702.655 1065 692.655 1055 702.655 1045 692.655 1035 702.655 1025 692.655 1015 702.655 1005 692.655 995 702.655 985 692.655 975 702.655 965 692.655 955 702.655 945 692.655 935 702.655 925 692.655 915 702.655 905 692.655 895 702.655 885 692.655 875 702.655 865 692.655 855 702.655 845 692.655 835 702.655 825 692.655 815 702.655 805 692.655 795 702.655 785 692.655 775 702.655 765 692.655 755 702.655 745 692.655Z" fill="#FFAB40" fill-rule="evenodd"/><path d="M1507 692.655 1507 696.655 1517 706.655 1527 696.655 1537 706.655 1547 696.655 1557 706.655 1567 696.655 1577 706.655 1587 696.655 1597 706.655 1607 696.655 1617 706.655 1627 696.655 1637 706.655 1647 696.655 1657 706.655 1667 696.655 1677 706.655 1687 696.655 1697 706.655 1707 696.655 1717 706.655 1727 696.655 1737 706.655 1747 696.655 1757 706.655 1767 696.655 1777 706.655 1787 696.655 1797 706.655 1807 696.655 1817 706.655 1827 696.655 1837 706.655 1847 696.655 1857 706.655 1867 696.655 1877 706.655 1887 696.655 1897 706.655 1907 696.655 1917 706.655 1927 696.655 1937 706.655 1947 696.655 1957 706.655 1967 696.655 1977 706.655 1987 696.655 1997 706.655 2007 696.655 2017 706.655 2027 696.655 2037 706.655 2047 696.655 2057 706.655 2067 696.655 2077 706.655 2087 696.655 2097 706.655 2107 696.655 2117 706.655 2127 696.655 2137 706.655 2147 696.655 2157 706.655 2167 696.655 2177 706.655 2187 696.655 2197 706.655 2207 696.655 2217 706.655 2227 696.655 2237 706.655 2247 696.655 2257 706.655 2267 696.655 2277 706.655 2287 696.655 2297 706.655 2307 696.655 2317 706.655 2327 696.655 2337 706.655 2347 696.655 2357 706.655 2367 696.655 2367 692.655 2357 702.655 2347 692.655 2337 702.655 2327 692.655 2317 702.655 2307 692.655 2297 702.655 2287 692.655 2277 702.655 2267 692.655 2257 702.655 2247 692.655 2237 702.655 2227 692.655 2217 702.655 2207 692.655 2197 702.655 2187 692.655 2177 702.655 2167 692.655 2157 702.655 2147 692.655 2137 702.655 2127 692.655 2117 702.655 2107 692.655 2097 702.655 2087 692.655 2077 702.655 2067 692.655 2057 702.655 2047 692.655 2037 702.655 2027 692.655 2017 702.655 2007 692.655 1997 702.655 1987 692.655 1977 702.655 1967 692.655 1957 702.655 1947 692.655 1937 702.655 1927 692.655 1917 702.655 1907 692.655 1897 702.655 1887 692.655 1877 702.655 1867 692.655 1857 702.655 1847 692.655 1837 702.655 1827 692.655 1817 702.655 1807 692.655 1797 702.655 1787 692.655 1777 702.655 1767 692.655 1757 702.655 1747 692.655 1737 702.655 1727 692.655 1717 702.655 1707 692.655 1697 702.655 1687 692.655 1677 702.655 1667 692.655 1657 702.655 1647 692.655 1637 702.655 1627 692.655 1617 702.655 1607 692.655 1597 702.655 1587 692.655 1577 702.655 1567 692.655 1557 702.655 1547 692.655 1537 702.655 1527 692.655 1517 702.655 1507 692.655Z" fill="#FFAB40" fill-rule="evenodd"/><text fill="#093C92" font-family="Consolas,Consolas_MSFontService,sans-serif" font-weight="400" font-size="73" transform="matrix(1 0 0 1 223.208 777)">for </text><text fill="#24292E" font-family="Consolas,Consolas_MSFontService,sans-serif" font-weight="400" font-size="73" transform="matrix(1 0 0 1 383.625 777)">(;;)</text><text fill="#24292E" font-family="Consolas,Consolas_MSFontService,sans-serif" font-weight="400" font-size="73" transform="matrix(1 0 0 1 584.146 777)">{</text><text fill="#6A737D" font-family="Consolas,Consolas_MSFontService,sans-serif" font-weight="400" font-size="73" transform="matrix(1 0 0 1 303.417 865)">...</text><text fill="#6A737D" font-family="Consolas,Consolas_MSFontService,sans-serif" font-weight="400" font-size="73" transform="matrix(1 0 0 1 303.417 953)">// a custom function to update entries</text><text fill="#093C92" font-family="Consolas,Consolas_MSFontService,sans-serif" font-weight="400" font-size="73" transform="matrix(1 0 0 1 303.417 1041)">int</text><text fill="#24292E" font-family="Consolas,Consolas_MSFontService,sans-serif" font-weight="400" font-size="73" transform="matrix(1 0 0 1 463.833 1041)">err = ops</text><text fill="#24292E" font-family="Consolas,Consolas_MSFontService,sans-serif" font-weight="400" font-size="73" transform="matrix(1 0 0 1 824.771 1041)">-</text><text fill="#24292E" font-family="Consolas,Consolas_MSFontService,sans-serif" font-weight="400" font-size="73" transform="matrix(1 0 0 1 864.875 1041)">&gt;</text><text fill="#C00000" font-family="Consolas,Consolas_MSFontService,sans-serif" font-weight="700" font-size="73" transform="matrix(1 0 0 1 904.979 1041)">pte_entry</text><text fill="#24292E" font-family="Consolas,Consolas_MSFontService,sans-serif" font-weight="400" font-size="73" transform="matrix(1 0 0 1 1265.92 1041)">(</text><text fill="#24292E" font-family="Consolas,Consolas_MSFontService,sans-serif" font-weight="400" font-size="73" transform="matrix(1 0 0 1 1306.02 1041)">pte</text><text fill="#24292E" font-family="Consolas,Consolas_MSFontService,sans-serif" font-weight="400" font-size="73" transform="matrix(1 0 0 1 1426.33 1041)">, </text><text fill="#24292E" font-family="Consolas,Consolas_MSFontService,sans-serif" font-weight="400" font-size="73" transform="matrix(1 0 0 1 1506.54 1041)">addr</text><text fill="#24292E" font-family="Consolas,Consolas_MSFontService,sans-serif" font-weight="400" font-size="73" transform="matrix(1 0 0 1 1666.96 1041)">, </text><text fill="#24292E" font-family="Consolas,Consolas_MSFontService,sans-serif" font-weight="400" font-size="73" transform="matrix(1 0 0 1 1747.17 1041)">addr</text><text fill="#24292E" font-family="Consolas,Consolas_MSFontService,sans-serif" font-weight="400" font-size="73" transform="matrix(1 0 0 1 1947.69 1041)">+ PAGE_SIZE, walk);</text><path d="M905 1044.66 905 1048.66 915 1058.66 925 1048.66 935 1058.66 945 1048.66 955 1058.66 965 1048.66 975 1058.66 985 1048.66 995 1058.66 1005 1048.66 1015 1058.66 1025 1048.66 1035 1058.66 1045 1048.66 1055 1058.66 1065 1048.66 1075 1058.66 1085 1048.66 1095 1058.66 1105 1048.66 1115 1058.66 1125 1048.66 1135 1058.66 1145 1048.66 1155 1058.66 1165 1048.66 1175 1058.66 1185 1048.66 1195 1058.66 1205 1048.66 1215 1058.66 1225 1048.66 1235 1058.66 1245 1048.66 1255 1058.66 1265 1048.66 1275 1058.66 1285 1048.66 1285 1044.66 1275 1054.66 1265 1044.66 1255 1054.66 1245 1044.66 1235 1054.66 1225 1044.66 1215 1054.66 1205 1044.66 1195 1054.66 1185 1044.66 1175 1054.66 1165 1044.66 1155 1054.66 1145 1044.66 1135 1054.66 1125 1044.66 1115 1054.66 1105 1044.66 1095 1054.66 1085 1044.66 1075 1054.66 1065 1044.66 1055 1054.66 1045 1044.66 1035 1054.66 1025 1044.66 1015 1054.66 1005 1044.66 995 1054.66 985 1044.66 975 1054.66 965 1044.66 955 1054.66 945 1044.66 935 1054.66 925 1044.66 915 1054.66 905 1044.66Z" fill="#FFAB40" fill-rule="evenodd"/><text fill="#6A737D" font-family="Consolas,Consolas_MSFontService,sans-serif" font-weight="400" font-size="73" transform="matrix(1 0 0 1 303.417 1129)">...</text><text fill="#24292E" font-family="Consolas,Consolas_MSFontService,sans-serif" font-weight="400" font-size="73" transform="matrix(1 0 0 1 303.417 1217)">addr</text><text fill="#24292E" font-family="Consolas,Consolas_MSFontService,sans-serif" font-weight="400" font-size="73" transform="matrix(1 0 0 1 503.937 1217)">+= PAGE_SIZE;</text><text fill="#C00000" font-family="Consolas,Consolas_MSFontService,sans-serif" font-weight="700" font-size="73" transform="matrix(1 0 0 1 303.417 1305)">pte</text><text fill="#C00000" font-family="Consolas,Consolas_MSFontService,sans-serif" font-weight="700" font-size="73" transform="matrix(1 0 0 1 423.729 1305)">++</text><text fill="#24292E" font-family="Consolas,Consolas_MSFontService,sans-serif" font-weight="400" font-size="73" transform="matrix(1 0 0 1 503.937 1305)">;</text><path d="M303 1308.66 303 1312.66 313 1322.66 323 1312.66 333 1322.66 343 1312.66 353 1322.66 363 1312.66 373 1322.66 383 1312.66 393 1322.66 403 1312.66 413 1322.66 423 1312.66 433 1322.66 443 1312.66 453 1322.66 463 1312.66 473 1322.66 483 1312.66 493 1322.66 503 1312.66 513 1322.66 523 1312.66 523 1308.66 513 1318.66 503 1308.66 493 1318.66 483 1308.66 473 1318.66 463 1308.66 453 1318.66 443 1308.66 433 1318.66 423 1308.66 413 1318.66 403 1308.66 393 1318.66 383 1308.66 373 1318.66 363 1308.66 353 1318.66 343 1308.66 333 1318.66 323 1308.66 313 1318.66 303 1308.66Z" fill="#FFAB40" fill-rule="evenodd"/><text fill="#6A737D" font-family="Consolas,Consolas_MSFontService,sans-serif" font-weight="400" font-size="73" transform="matrix(1 0 0 1 303.417 1393)">...</text><text fill="#24292E" font-family="Consolas,Consolas_MSFontService,sans-serif" font-weight="400" font-size="73" transform="matrix(1 0 0 1 223.208 1481)">}</text><text fill="#24292E" font-family="Consolas,Consolas_MSFontService,sans-serif" font-weight="400" font-size="73" transform="matrix(1 0 0 1 223.208 1569)">pte_unmap_unlock</text><text fill="#24292E" font-family="Consolas,Consolas_MSFontService,sans-serif" font-weight="400" font-size="73" transform="matrix(1 0 0 1 864.875 1569)">(</text><text fill="#24292E" font-family="Consolas,Consolas_MSFontService,sans-serif" font-weight="400" font-size="73" transform="matrix(1 0 0 1 904.979 1569)">pte</text><text fill="#24292E" font-family="Consolas,Consolas_MSFontService,sans-serif" font-weight="400" font-size="73" transform="matrix(1 0 0 1 1025.29 1569)">, </text><text fill="#24292E" font-family="Consolas,Consolas_MSFontService,sans-serif" font-weight="400" font-size="73" transform="matrix(1 0 0 1 1105.5 1569)">ptl</text><text fill="#24292E" font-family="Consolas,Consolas_MSFontService,sans-serif" font-weight="400" font-size="73" transform="matrix(1 0 0 1 1225.81 1569)">);</text><text fill="#24292E" font-family="Consolas,Consolas_MSFontService,sans-serif" font-weight="400" font-size="73" transform="matrix(1 0 0 1 143 1657)">}</text><text fill="#7F7F7F" font-family="Consolas,Consolas_MSFontService,sans-serif" font-weight="700" font-size="73" transform="matrix(1 0 0 1 225.836 1665)">mm/</text><text fill="#7F7F7F" font-family="Consolas,Consolas_MSFontService,sans-serif" font-weight="700" font-size="73" transform="matrix(1 0 0 1 346.148 1665)">pagewalk.c</text><rect x="1862.5" y="719.5" width="1237" height="240" stroke="#163567" stroke-width="9.16667" stroke-linejoin="round" stroke-miterlimit="10" fill="#C00000"/><text fill="#FFFFFF" font-family="Arial,Arial_MSFontService,sans-serif" font-weight="400" font-size="83" transform="matrix(1 0 0 1 1894.9 820)">Lock only once </text><text fill="#FFFFFF" font-family="Arial,Arial_MSFontService,sans-serif" font-weight="400" font-size="83" transform="matrix(1 0 0 1 2467.81 820)">for</text><text fill="#FFFFFF" font-family="Arial,Arial_MSFontService,sans-serif" font-weight="400" font-size="83" transform="matrix(1 0 0 1 2586.98 820)">batched </text><text fill="#FFFFFF" font-family="Arial,Arial_MSFontService,sans-serif" font-weight="400" font-size="83" transform="matrix(1 0 0 1 1894.9 919)">operations to save overhead</text><path d="M1862.89 839.869 1495.5 731.5" stroke="#002060" stroke-width="9.16667" stroke-linejoin="round" stroke-miterlimit="10" fill="none" fill-rule="evenodd"/><rect x="1463.5" y="1108.5" width="1417" height="221" stroke="#002060" stroke-width="9.16667" stroke-linejoin="round" stroke-miterlimit="10" fill="#C00000"/><text fill="#FFFFFF" font-family="Arial,Arial_MSFontService,sans-serif" font-weight="400" font-size="73" transform="matrix(1 0 0 1 1495.79 1201)">A custom function use PTE pointer to </text><text fill="#FFFFFF" font-family="Arial,Arial_MSFontService,sans-serif" font-weight="400" font-size="73" transform="matrix(1 0 0 1 1495.79 1289)">perform in</text><text fill="#FFFFFF" font-family="Arial,Arial_MSFontService,sans-serif" font-weight="400" font-size="73" transform="matrix(1 0 0 1 1826.36 1289)">-</text><text fill="#FFFFFF" font-family="Arial,Arial_MSFontService,sans-serif" font-weight="400" font-size="73" transform="matrix(1 0 0 1 1850.99 1289)">place attribute update</text><path d="M1232.5 1097.5 1463.4 1218.62" stroke="#002060" stroke-width="9.16667" stroke-linejoin="round" stroke-miterlimit="10" fill="none" fill-rule="evenodd"/><rect x="1136.5" y="1351.5" width="1417" height="221" stroke="#002060" stroke-width="9.16667" stroke-linejoin="round" stroke-miterlimit="10" fill="#C00000"/><text fill="#FFFFFF" font-family="Arial,Arial_MSFontService,sans-serif" font-weight="400" font-size="73" transform="matrix(1 0 0 1 1168.95 1445)">Exploit PTE adjacency to reduce </text><text fill="#FFFFFF" font-family="Arial,Arial_MSFontService,sans-serif" font-weight="400" font-size="73" transform="matrix(1 0 0 1 1168.95 1533)">software page walk overhead</text><path d="M634.5 1284.5 1136.37 1462.35" stroke="#002060" stroke-width="9.16667" stroke-linejoin="round" stroke-miterlimit="10" fill="none" fill-rule="evenodd"/></g></svg>