<svg width="1176" height="655" xmlns="http://www.w3.org/2000/svg" xmlns:xlink="http://www.w3.org/1999/xlink" xml:space="preserve" overflow="hidden"><g transform="translate(-110 -339)"><path d="M143 356.649 223.209 356.649 223.209 399.649 143 399.649Z" fill="#FFFFFF" fill-rule="evenodd"/><path d="M223.209 356.649 243.261 356.649 243.261 399.649 223.209 399.649Z" fill="#FFFFFF" fill-rule="evenodd"/><path d="M243.261 356.649 483.886 356.649 483.886 399.649 243.261 399.649Z" fill="#FFFFFF" fill-rule="evenodd"/><path d="M483.886 356.649 584.146 356.649 584.146 399.649 483.886 399.649Z" fill="#FFFFFF" fill-rule="evenodd"/><path d="M584.146 356.649 664.354 356.649 664.354 399.649 584.146 399.649Z" fill="#FFFFFF" fill-rule="evenodd"/><path d="M664.354 356.649 824.771 356.649 824.771 399.649 664.354 399.649Z" fill="#FFFFFF" fill-rule="evenodd"/><path d="M143 400.649 163.052 400.649 163.052 443.649 143 443.649Z" fill="#FFFFFF" fill-rule="evenodd"/><path d="M163.052 400.649 183.105 400.649 183.105 443.649 163.052 443.649Z" fill="#FFFFFF" fill-rule="evenodd"/><path d="M183.105 400.649 323.469 400.649 323.469 443.649 183.105 443.649Z" fill="#FFFFFF" fill-rule="evenodd"/><path d="M323.469 400.649 343.521 400.649 343.521 443.649 323.469 443.649Z" fill="#FFFFFF" fill-rule="evenodd"/><path d="M343.521 400.649 363.573 400.649 363.573 443.649 343.521 443.649Z" fill="#FFFFFF" fill-rule="evenodd"/><path d="M363.573 400.649 383.625 400.649 383.625 443.649 363.573 443.649Z" fill="#FFFFFF" fill-rule="evenodd"/><path d="M383.625 400.649 403.677 400.649 403.677 443.649 383.625 443.649Z" fill="#FFFFFF" fill-rule="evenodd"/><path d="M403.677 400.649 443.782 400.649 443.782 443.649 403.677 443.649Z" fill="#FFFFFF" fill-rule="evenodd"/><path d="M443.782 400.649 784.667 400.649 784.667 443.649 443.782 443.649Z" fill="#FFFFFF" fill-rule="evenodd"/><path d="M784.667 400.649 884.927 400.649 884.927 443.649 784.667 443.649Z" fill="#FFFFFF" fill-rule="evenodd"/><path d="M884.927 400.649 965.136 400.649 965.136 443.649 884.927 443.649Z" fill="#FFFFFF" fill-rule="evenodd"/><path d="M965.136 400.649 1105.5 400.649 1105.5 443.649 965.136 443.649Z" fill="#FFFFFF" fill-rule="evenodd"/><path d="M143 488.649 163.052 488.649 163.052 531.649 143 531.649Z" fill="#FFFFFF" fill-rule="evenodd"/><path d="M163.052 488.649 183.105 488.649 183.105 531.649 163.052 531.649Z" fill="#FFFFFF" fill-rule="evenodd"/><path d="M183.105 488.649 283.365 488.649 283.365 531.649 183.105 531.649Z" fill="#FFFFFF" fill-rule="evenodd"/><path d="M283.365 488.649 303.417 488.649 303.417 531.649 283.365 531.649Z" fill="#FFFFFF" fill-rule="evenodd"/><path d="M303.417 488.649 323.469 488.649 323.469 531.649 303.417 531.649Z" fill="#FFFFFF" fill-rule="evenodd"/><path d="M323.469 488.649 724.511 488.649 724.511 531.649 323.469 531.649Z" fill="#FFFFFF" fill-rule="evenodd"/><path d="M724.511 488.649 744.563 488.649 744.563 531.649 724.511 531.649Z" fill="#FFFFFF" fill-rule="evenodd"/><path d="M744.563 488.649 764.615 488.649 764.615 531.649 744.563 531.649Z" fill="#FFFFFF" fill-rule="evenodd"/><path d="M764.615 488.649 844.823 488.649 844.823 531.649 764.615 531.649Z" fill="#FFFFFF" fill-rule="evenodd"/><path d="M143 532.649 163.052 532.649 163.052 575.649 143 575.649Z" fill="#FFFFFF" fill-rule="evenodd"/><path d="M163.052 532.649 183.105 532.649 183.105 575.649 163.052 575.649Z" fill="#FFFFFF" fill-rule="evenodd"/><path d="M183.105 532.649 203.157 532.649 203.157 575.649 183.105 575.649Z" fill="#FFFFFF" fill-rule="evenodd"/><path d="M203.157 532.649 223.209 532.649 223.209 575.649 203.157 575.649Z" fill="#FFFFFF" fill-rule="evenodd"/><path d="M223.209 532.649 343.521 532.649 343.521 575.649 223.209 575.649Z" fill="#FFFFFF" fill-rule="evenodd"/><path d="M343.521 532.649 363.573 532.649 363.573 575.649 343.521 575.649Z" fill="#FFFFFF" fill-rule="evenodd"/><path d="M363.573 532.649 463.834 532.649 463.834 575.649 363.573 575.649Z" fill="#FFFFFF" fill-rule="evenodd"/><path d="M143 576.649 163.052 576.649 163.052 619.649 143 619.649Z" fill="#FFFFFF" fill-rule="evenodd"/><path d="M163.052 576.649 183.105 576.649 183.105 619.649 163.052 619.649Z" fill="#FFFFFF" fill-rule="evenodd"/><path d="M183.105 576.649 203.157 576.649 203.157 619.649 183.105 619.649Z" fill="#FFFFFF" fill-rule="evenodd"/><path d="M203.157 576.649 223.209 576.649 223.209 619.649 203.157 619.649Z" fill="#FFFFFF" fill-rule="evenodd"/><path d="M223.209 576.649 343.521 576.649 343.521 619.649 223.209 619.649Z" fill="#FFFFFF" fill-rule="evenodd"/><path d="M343.521 576.649 363.573 576.649 363.573 619.649 343.521 619.649Z" fill="#FFFFFF" fill-rule="evenodd"/><path d="M363.573 576.649 383.625 576.649 383.625 619.649 363.573 619.649Z" fill="#FFFFFF" fill-rule="evenodd"/><path d="M383.625 576.649 423.729 576.649 423.729 619.649 383.625 619.649Z" fill="#FFFFFF" fill-rule="evenodd"/><path d="M423.73 576.649 443.782 576.649 443.782 619.649 423.73 619.649Z" fill="#FFFFFF" fill-rule="evenodd"/><path d="M443.782 576.649 483.886 576.649 483.886 619.649 443.782 619.649Z" fill="#FFFFFF" fill-rule="evenodd"/><path d="M483.886 576.649 804.719 576.649 804.719 619.649 483.886 619.649Z" fill="#FFFFFF" fill-rule="evenodd"/><path d="M804.719 576.649 824.771 576.649 824.771 619.649 804.719 619.649Z" fill="#FFFFFF" fill-rule="evenodd"/><path d="M824.771 576.649 844.823 576.649 844.823 619.649 824.771 619.649Z" fill="#FFFFFF" fill-rule="evenodd"/><path d="M844.823 576.649 1025.29 576.649 1025.29 619.649 844.823 619.649Z" fill="#FFFFFF" fill-rule="evenodd"/><path d="M143 620.649 163.052 620.649 163.052 663.649 143 663.649Z" fill="#FFFFFF" fill-rule="evenodd"/><path d="M163.052 620.649 183.105 620.649 183.105 663.649 163.052 663.649Z" fill="#FFFFFF" fill-rule="evenodd"/><path d="M183.105 620.649 203.157 620.649 203.157 663.649 183.105 663.649Z" fill="#FFFFFF" fill-rule="evenodd"/><path d="M203.157 620.649 223.209 620.649 223.209 663.649 203.157 663.649Z" fill="#FFFFFF" fill-rule="evenodd"/><path d="M223.209 620.649 283.365 620.649 283.365 663.649 223.209 663.649Z" fill="#FFFFFF" fill-rule="evenodd"/><path d="M143 664.649 163.052 664.649 163.052 707.649 143 707.649Z" fill="#FFFFFF" fill-rule="evenodd"/><path d="M163.052 664.649 183.105 664.649 183.105 707.649 163.052 707.649Z" fill="#FFFFFF" fill-rule="evenodd"/><path d="M183.105 664.649 203.157 664.649 203.157 707.649 183.105 707.649Z" fill="#FFFFFF" fill-rule="evenodd"/><path d="M203.157 664.649 223.209 664.649 223.209 707.649 203.157 707.649Z" fill="#FFFFFF" fill-rule="evenodd"/><path d="M223.209 664.649 263.313 664.649 263.313 707.649 223.209 707.649Z" fill="#FFFFFF" fill-rule="evenodd"/><path d="M263.313 664.649 283.365 664.649 283.365 707.649 263.313 707.649Z" fill="#FFFFFF" fill-rule="evenodd"/><path d="M283.365 664.649 303.417 664.649 303.417 707.649 283.365 707.649Z" fill="#FFFFFF" fill-rule="evenodd"/><path d="M303.417 664.649 624.25 664.649 624.25 707.649 303.417 707.649Z" fill="#FFFFFF" fill-rule="evenodd"/><path d="M624.25 664.649 664.355 664.649 664.355 707.649 624.25 707.649Z" fill="#FFFFFF" fill-rule="evenodd"/><path d="M664.354 664.649 704.459 664.649 704.459 707.649 664.354 707.649Z" fill="#FFFFFF" fill-rule="evenodd"/><path d="M704.459 664.649 985.188 664.649 985.188 707.649 704.459 707.649Z" fill="#FFFFFF" fill-rule="evenodd"/><path d="M143 708.649 163.052 708.649 163.052 751.649 143 751.649Z" fill="#FFFFFF" fill-rule="evenodd"/><path d="M163.052 708.649 183.105 708.649 183.105 751.649 163.052 751.649Z" fill="#FFFFFF" fill-rule="evenodd"/><path d="M183.105 708.649 203.157 708.649 203.157 751.649 183.105 751.649Z" fill="#FFFFFF" fill-rule="evenodd"/><path d="M203.157 708.649 223.209 708.649 223.209 751.649 203.157 751.649Z" fill="#FFFFFF" fill-rule="evenodd"/><path d="M223.209 708.649 243.261 708.649 243.261 751.649 223.209 751.649Z" fill="#FFFFFF" fill-rule="evenodd"/><path d="M243.261 708.649 263.313 708.649 263.313 751.649 243.261 751.649Z" fill="#FFFFFF" fill-rule="evenodd"/><path d="M263.313 708.649 544.042 708.649 544.042 751.649 263.313 751.649Z" fill="#FFFFFF" fill-rule="evenodd"/><path d="M544.042 708.649 564.094 708.649 564.094 751.649 544.042 751.649Z" fill="#FFFFFF" fill-rule="evenodd"/><path d="M564.094 708.649 824.771 708.649 824.771 751.649 564.094 751.649Z" fill="#FFFFFF" fill-rule="evenodd"/><path d="M824.771 708.649 925.032 708.649 925.032 751.649 824.771 751.649Z" fill="#FFFFFF" fill-rule="evenodd"/><path d="M925.032 708.649 965.136 708.649 965.136 751.649 925.032 751.649Z" fill="#FFFFFF" fill-rule="evenodd"/><path d="M965.136 708.649 1025.29 708.649 1025.29 751.649 965.136 751.649Z" fill="#FFFFFF" fill-rule="evenodd"/><path d="M143 752.649 163.052 752.649 163.052 795.649 143 795.649Z" fill="#FFFFFF" fill-rule="evenodd"/><path d="M163.052 752.649 183.105 752.649 183.105 795.649 163.052 795.649Z" fill="#FFFFFF" fill-rule="evenodd"/><path d="M183.105 752.649 203.157 752.649 203.157 795.649 183.105 795.649Z" fill="#FFFFFF" fill-rule="evenodd"/><path d="M203.157 752.649 223.209 752.649 223.209 795.649 203.157 795.649Z" fill="#FFFFFF" fill-rule="evenodd"/><path d="M223.209 752.649 283.365 752.649 283.365 795.649 223.209 795.649Z" fill="#FFFFFF" fill-rule="evenodd"/><path d="M143 796.649 163.052 796.649 163.052 839.649 143 839.649Z" fill="#FFFFFF" fill-rule="evenodd"/><path d="M163.052 796.649 183.105 796.649 183.105 839.649 163.052 839.649Z" fill="#FFFFFF" fill-rule="evenodd"/><path d="M183.105 796.649 203.157 796.649 203.157 839.649 183.105 839.649Z" fill="#FFFFFF" fill-rule="evenodd"/><path d="M143 884.649 163.052 884.649 163.052 927.649 143 927.649Z" fill="#FFFFFF" fill-rule="evenodd"/><path d="M163.052 884.649 183.105 884.649 183.105 927.649 163.052 927.649Z" fill="#FFFFFF" fill-rule="evenodd"/><path d="M183.105 884.649 483.886 884.649 483.886 927.649 183.105 927.649Z" fill="#FFFFFF" fill-rule="evenodd"/><path d="M483.886 884.649 503.938 884.649 503.938 927.649 483.886 927.649Z" fill="#FFFFFF" fill-rule="evenodd"/><path d="M503.938 884.649 523.99 884.649 523.99 927.649 503.938 927.649Z" fill="#FFFFFF" fill-rule="evenodd"/><path d="M523.99 884.649 564.094 884.649 564.094 927.649 523.99 927.649Z" fill="#FFFFFF" fill-rule="evenodd"/><path d="M143 928.649 163.052 928.649 163.052 971.649 143 971.649Z" fill="#FFFFFF" fill-rule="evenodd"/><text fill="#0000FF" font-family="Consolas,Consolas_MSFontService,sans-serif" font-weight="400" font-size="37" transform="matrix(1 0 0 1 143 391)">void</text><text font-family="Consolas,Consolas_MSFontService,sans-serif" font-weight="400" font-size="37" transform="matrix(1 0 0 1 223.209 391)"> </text><text fill="#74531F" font-family="Consolas,Consolas_MSFontService,sans-serif" font-weight="400" font-size="37" transform="matrix(1 0 0 1 243.261 391)">vunmap_range</text><text font-family="Consolas,Consolas_MSFontService,sans-serif" font-weight="400" font-size="37" transform="matrix(1 0 0 1 483.886 391)">(mm, </text><text font-family="Consolas,Consolas_MSFontService,sans-serif" font-weight="400" font-size="37" transform="matrix(1 0 0 1 584.146 391)">addr</text><text font-family="Consolas,Consolas_MSFontService,sans-serif" font-weight="400" font-size="37" transform="matrix(1 0 0 1 664.354 391)">, end) {</text><text font-family="Consolas,Consolas_MSFontService,sans-serif" font-weight="400" font-size="37" transform="matrix(1 0 0 1 143 435)"> </text><text font-family="Consolas,Consolas_MSFontService,sans-serif" font-weight="400" font-size="37" transform="matrix(1 0 0 1 163.052 435)"> </text><text fill="#2B91AF" font-family="Consolas,Consolas_MSFontService,sans-serif" font-weight="400" font-size="37" transform="matrix(1 0 0 1 183.105 435)">te_iter</text><text font-family="Consolas,Consolas_MSFontService,sans-serif" font-weight="400" font-size="37" transform="matrix(1 0 0 1 323.469 435)"> </text><text font-family="Consolas,Consolas_MSFontService,sans-serif" font-weight="400" font-size="37" transform="matrix(1 0 0 1 343.521 435)">*</text><text font-family="Consolas,Consolas_MSFontService,sans-serif" font-weight="400" font-size="37" transform="matrix(1 0 0 1 363.573 435)">i</text><text font-family="Consolas,Consolas_MSFontService,sans-serif" font-weight="400" font-size="37" transform="matrix(1 0 0 1 383.625 435)"> </text><text font-family="Consolas,Consolas_MSFontService,sans-serif" font-weight="400" font-size="37" transform="matrix(1 0 0 1 403.677 435)">= </text><text fill="#74531F" font-family="Consolas,Consolas_MSFontService,sans-serif" font-weight="400" font-size="37" transform="matrix(1 0 0 1 443.782 435)">tentry_iter_start</text><text font-family="Consolas,Consolas_MSFontService,sans-serif" font-weight="400" font-size="37" transform="matrix(1 0 0 1 784.667 435)">(mm, </text><text font-family="Consolas,Consolas_MSFontService,sans-serif" font-weight="400" font-size="37" transform="matrix(1 0 0 1 884.927 435)">addr</text><text font-family="Consolas,Consolas_MSFontService,sans-serif" font-weight="400" font-size="37" transform="matrix(1 0 0 1 965.136 435)">, end);</text><text font-family="Consolas,Consolas_MSFontService,sans-serif" font-weight="400" font-size="37" transform="matrix(1 0 0 1 143 523)"> </text><text font-family="Consolas,Consolas_MSFontService,sans-serif" font-weight="400" font-size="37" transform="matrix(1 0 0 1 163.052 523)"> </text><text fill="#8F08C4" font-family="Consolas,Consolas_MSFontService,sans-serif" font-weight="400" font-size="37" transform="matrix(1 0 0 1 183.105 523)">while</text><text font-family="Consolas,Consolas_MSFontService,sans-serif" font-weight="400" font-size="37" transform="matrix(1 0 0 1 283.365 523)"> </text><text font-family="Consolas,Consolas_MSFontService,sans-serif" font-weight="400" font-size="37" transform="matrix(1 0 0 1 303.417 523)">(</text><text fill="#74531F" font-family="Consolas,Consolas_MSFontService,sans-serif" font-weight="400" font-size="37" transform="matrix(1 0 0 1 323.469 523)">tentry_iter_has_next</text><text font-family="Consolas,Consolas_MSFontService,sans-serif" font-weight="400" font-size="37" transform="matrix(1 0 0 1 724.511 523)">(</text><text font-family="Consolas,Consolas_MSFontService,sans-serif" font-weight="400" font-size="37" transform="matrix(1 0 0 1 744.563 523)">i</text><text font-family="Consolas,Consolas_MSFontService,sans-serif" font-weight="400" font-size="37" transform="matrix(1 0 0 1 764.615 523)">)) {</text><text font-family="Consolas,Consolas_MSFontService,sans-serif" font-weight="400" font-size="37" transform="matrix(1 0 0 1 143 567)"> </text><text font-family="Consolas,Consolas_MSFontService,sans-serif" font-weight="400" font-size="37" transform="matrix(1 0 0 1 163.052 567)"> </text><text font-family="Consolas,Consolas_MSFontService,sans-serif" font-weight="400" font-size="37" transform="matrix(1 0 0 1 183.105 567)"> </text><text font-family="Consolas,Consolas_MSFontService,sans-serif" font-weight="400" font-size="37" transform="matrix(1 0 0 1 203.157 567)"> </text><text fill="#0000FF" font-family="Consolas,Consolas_MSFontService,sans-serif" font-weight="400" font-size="37" transform="matrix(1 0 0 1 223.209 567)">size_t</text><text font-family="Consolas,Consolas_MSFontService,sans-serif" font-weight="400" font-size="37" transform="matrix(1 0 0 1 343.521 567)"> </text><text font-family="Consolas,Consolas_MSFontService,sans-serif" font-weight="400" font-size="37" transform="matrix(1 0 0 1 363.573 567)">size;</text><text font-family="Consolas,Consolas_MSFontService,sans-serif" font-weight="400" font-size="37" transform="matrix(1 0 0 1 143 611)"> </text><text font-family="Consolas,Consolas_MSFontService,sans-serif" font-weight="400" font-size="37" transform="matrix(1 0 0 1 163.052 611)"> </text><text font-family="Consolas,Consolas_MSFontService,sans-serif" font-weight="400" font-size="37" transform="matrix(1 0 0 1 183.105 611)"> </text><text font-family="Consolas,Consolas_MSFontService,sans-serif" font-weight="400" font-size="37" transform="matrix(1 0 0 1 203.157 611)"> </text><text fill="#2B91AF" font-family="Consolas,Consolas_MSFontService,sans-serif" font-weight="400" font-size="37" transform="matrix(1 0 0 1 223.209 611)">tentry</text><text font-family="Consolas,Consolas_MSFontService,sans-serif" font-weight="400" font-size="37" transform="matrix(1 0 0 1 343.521 611)"> </text><text font-family="Consolas,Consolas_MSFontService,sans-serif" font-weight="400" font-size="37" transform="matrix(1 0 0 1 363.573 611)">*</text><text font-family="Consolas,Consolas_MSFontService,sans-serif" font-weight="400" font-size="37" transform="matrix(1 0 0 1 383.625 611)">te</text><text font-family="Consolas,Consolas_MSFontService,sans-serif" font-weight="400" font-size="37" transform="matrix(1 0 0 1 423.73 611)"> </text><text font-family="Consolas,Consolas_MSFontService,sans-serif" font-weight="400" font-size="37" transform="matrix(1 0 0 1 443.782 611)">= </text><text fill="#74531F" font-family="Consolas,Consolas_MSFontService,sans-serif" font-weight="400" font-size="37" transform="matrix(1 0 0 1 483.886 611)">tentry_iter_next</text><text font-family="Consolas,Consolas_MSFontService,sans-serif" font-weight="400" font-size="37" transform="matrix(1 0 0 1 804.719 611)">(</text><text font-family="Consolas,Consolas_MSFontService,sans-serif" font-weight="400" font-size="37" transform="matrix(1 0 0 1 824.771 611)">i</text><text font-family="Consolas,Consolas_MSFontService,sans-serif" font-weight="400" font-size="37" transform="matrix(1 0 0 1 844.823 611)">, &amp;size);</text><text font-family="Consolas,Consolas_MSFontService,sans-serif" font-weight="400" font-size="37" transform="matrix(1 0 0 1 143 655)"> </text><text font-family="Consolas,Consolas_MSFontService,sans-serif" font-weight="400" font-size="37" transform="matrix(1 0 0 1 163.052 655)"> </text><text font-family="Consolas,Consolas_MSFontService,sans-serif" font-weight="400" font-size="37" transform="matrix(1 0 0 1 183.105 655)"> </text><text font-family="Consolas,Consolas_MSFontService,sans-serif" font-weight="400" font-size="37" transform="matrix(1 0 0 1 203.157 655)"> </text><text font-family="Consolas,Consolas_MSFontService,sans-serif" font-weight="400" font-size="37" transform="matrix(1 0 0 1 223.209 655)">...</text><text font-family="Consolas,Consolas_MSFontService,sans-serif" font-weight="400" font-size="37" transform="matrix(1 0 0 1 143 699)"> </text><text font-family="Consolas,Consolas_MSFontService,sans-serif" font-weight="400" font-size="37" transform="matrix(1 0 0 1 163.052 699)"> </text><text font-family="Consolas,Consolas_MSFontService,sans-serif" font-weight="400" font-size="37" transform="matrix(1 0 0 1 183.105 699)"> </text><text font-family="Consolas,Consolas_MSFontService,sans-serif" font-weight="400" font-size="37" transform="matrix(1 0 0 1 203.157 699)"> </text><text fill="#8F08C4" font-family="Consolas,Consolas_MSFontService,sans-serif" font-weight="400" font-size="37" transform="matrix(1 0 0 1 223.209 699)">if</text><text font-family="Consolas,Consolas_MSFontService,sans-serif" font-weight="400" font-size="37" transform="matrix(1 0 0 1 263.313 699)"> </text><text font-family="Consolas,Consolas_MSFontService,sans-serif" font-weight="400" font-size="37" transform="matrix(1 0 0 1 283.365 699)">(</text><text fill="#74531F" font-family="Consolas,Consolas_MSFontService,sans-serif" font-weight="400" font-size="37" transform="matrix(1 0 0 1 303.417 699)">read_tentry_attr</text><text font-family="Consolas,Consolas_MSFontService,sans-serif" font-weight="400" font-size="37" transform="matrix(1 0 0 1 624.25 699)">(*</text><text font-family="Consolas,Consolas_MSFontService,sans-serif" font-weight="400" font-size="37" transform="matrix(1 0 0 1 664.354 699)">te</text><text font-family="Consolas,Consolas_MSFontService,sans-serif" font-weight="400" font-size="37" transform="matrix(1 0 0 1 704.459 699)">, TE_PRESENT))</text><text font-family="Consolas,Consolas_MSFontService,sans-serif" font-weight="400" font-size="37" transform="matrix(1 0 0 1 143 743)"> </text><text font-family="Consolas,Consolas_MSFontService,sans-serif" font-weight="400" font-size="37" transform="matrix(1 0 0 1 163.052 743)"> </text><text font-family="Consolas,Consolas_MSFontService,sans-serif" font-weight="400" font-size="37" transform="matrix(1 0 0 1 183.105 743)"> </text><text font-family="Consolas,Consolas_MSFontService,sans-serif" font-weight="400" font-size="37" transform="matrix(1 0 0 1 203.157 743)"> </text><text font-family="Consolas,Consolas_MSFontService,sans-serif" font-weight="400" font-size="37" transform="matrix(1 0 0 1 223.209 743)"> </text><text font-family="Consolas,Consolas_MSFontService,sans-serif" font-weight="400" font-size="37" transform="matrix(1 0 0 1 243.261 743)"> </text><text fill="#74531F" font-family="Consolas,Consolas_MSFontService,sans-serif" font-weight="400" font-size="37" transform="matrix(1 0 0 1 263.313 743)">dispose_tentry</text><text font-family="Consolas,Consolas_MSFontService,sans-serif" font-weight="400" font-size="37" transform="matrix(1 0 0 1 544.042 743)">(</text><text fill="#74531F" font-family="Consolas,Consolas_MSFontService,sans-serif" font-weight="400" font-size="37" transform="matrix(1 0 0 1 564.094 743)">delete_tentry</text><text font-family="Consolas,Consolas_MSFontService,sans-serif" font-weight="400" font-size="37" transform="matrix(1 0 0 1 824.771 743)">(mm, </text><text font-family="Consolas,Consolas_MSFontService,sans-serif" font-weight="400" font-size="37" transform="matrix(1 0 0 1 925.032 743)">te</text><text font-family="Consolas,Consolas_MSFontService,sans-serif" font-weight="400" font-size="37" transform="matrix(1 0 0 1 965.136 743)">));</text><text font-family="Consolas,Consolas_MSFontService,sans-serif" font-weight="400" font-size="37" transform="matrix(1 0 0 1 143 787)"> </text><text font-family="Consolas,Consolas_MSFontService,sans-serif" font-weight="400" font-size="37" transform="matrix(1 0 0 1 163.052 787)"> </text><text font-family="Consolas,Consolas_MSFontService,sans-serif" font-weight="400" font-size="37" transform="matrix(1 0 0 1 183.105 787)"> </text><text font-family="Consolas,Consolas_MSFontService,sans-serif" font-weight="400" font-size="37" transform="matrix(1 0 0 1 203.157 787)"> </text><text font-family="Consolas,Consolas_MSFontService,sans-serif" font-weight="400" font-size="37" transform="matrix(1 0 0 1 223.209 787)">...</text><text font-family="Consolas,Consolas_MSFontService,sans-serif" font-weight="400" font-size="37" transform="matrix(1 0 0 1 143 831)"> </text><text font-family="Consolas,Consolas_MSFontService,sans-serif" font-weight="400" font-size="37" transform="matrix(1 0 0 1 163.052 831)"> </text><text font-family="Consolas,Consolas_MSFontService,sans-serif" font-weight="400" font-size="37" transform="matrix(1 0 0 1 183.105 831)">}</text><text font-family="Consolas,Consolas_MSFontService,sans-serif" font-weight="400" font-size="37" transform="matrix(1 0 0 1 143 919)"> </text><text font-family="Consolas,Consolas_MSFontService,sans-serif" font-weight="400" font-size="37" transform="matrix(1 0 0 1 163.052 919)"> </text><text fill="#74531F" font-family="Consolas,Consolas_MSFontService,sans-serif" font-weight="400" font-size="37" transform="matrix(1 0 0 1 183.105 919)">tentry_iter_end</text><text font-family="Consolas,Consolas_MSFontService,sans-serif" font-weight="400" font-size="37" transform="matrix(1 0 0 1 483.886 919)">(</text><text font-family="Consolas,Consolas_MSFontService,sans-serif" font-weight="400" font-size="37" transform="matrix(1 0 0 1 503.938 919)">i</text><text font-family="Consolas,Consolas_MSFontService,sans-serif" font-weight="400" font-size="37" transform="matrix(1 0 0 1 523.99 919)">);</text><text font-family="Consolas,Consolas_MSFontService,sans-serif" font-weight="400" font-size="37" transform="matrix(1 0 0 1 143 963)">}</text><rect x="870" y="460" width="416" height="78.0001" fill="#000000" fill-opacity="0.501961"/><text fill="#FFFFFF" font-family="Times New Roman,Times New Roman_MSFontService,sans-serif" font-weight="400" font-size="41" transform="matrix(1 0 0 1 908.19 515)">Arch</text><text fill="#FFFFFF" font-family="Times New Roman,Times New Roman_MSFontService,sans-serif" font-weight="400" font-size="41" transform="matrix(1 0 0 1 990.69 515)">-</text><text fill="#FFFFFF" font-family="Times New Roman,Times New Roman_MSFontService,sans-serif" font-weight="400" font-size="41" transform="matrix(1 0 0 1 1004.44 515)">neutral iterator</text><path d="M870.524 501.576 735.772 445.43 737.535 441.199 872.287 497.345ZM735.596 457.769 715.5 434.5 746.173 432.385Z" fill="#000000" fill-opacity="0.501961"/><path d="M0.228029-2.28029 107.346 8.43154 106.89 12.9921-0.228029 2.28029ZM103.926-3.42599 129.921 12.9921 101.19 23.9375Z" fill="#000000" fill-opacity="0.501961" transform="matrix(-1 0 0 1 871.421 499.5)"/><path d="M1.31418-1.87741 112.461 75.9256 109.833 79.6804-1.31418 1.87741ZM115.277 63.9102 129.921 90.9449 99.5073 86.4391Z" fill="#000000" fill-opacity="0.501961" transform="matrix(-1 0 0 1 871.421 499.5)"/><path d="M1.86887-1.3263 274.433 382.741 270.695 385.394-1.86887 1.3263ZM281.124 372.372 285.827 402.756 258.698 388.287Z" fill="#000000" fill-opacity="0.501961" transform="matrix(-1 0 0 1 871.327 499.5)"/><rect x="870" y="564" width="416" height="104" fill="#000000" fill-opacity="0.501961"/><text fill="#FFFFFF" font-family="Times New Roman,Times New Roman_MSFontService,sans-serif" font-weight="400" font-size="41" transform="matrix(1 0 0 1 947.721 607)">Direct access </text><text fill="#FFFFFF" font-family="Times New Roman,Times New Roman_MSFontService,sans-serif" font-weight="400" font-size="41" transform="matrix(1 0 0 1 1176.89 607)">to</text><text fill="#FFFFFF" font-family="Times New Roman,Times New Roman_MSFontService,sans-serif" font-weight="400" font-size="41" transform="matrix(1 0 0 1 943.711 656)">translation entr</text><text fill="#FFFFFF" font-family="Times New Roman,Times New Roman_MSFontService,sans-serif" font-weight="400" font-size="41" transform="matrix(1 0 0 1 1192.36 656)">y</text><path d="M1.83333-1.375 66.0361 84.2287 62.3694 86.9787-1.83333 1.375ZM72.4528 73.687 77.9528 103.937 50.4528 90.187Z" fill="#000000" fill-opacity="0.501961" transform="matrix(-1 0 0 1 871.453 616.5)"/><path d="M0.409946-2.2547 263.69 45.6143 262.87 50.1237-0.409946 2.2547ZM261.23 33.5209 285.827 51.9685 256.311 60.5774Z" fill="#000000" fill-opacity="0.501961" transform="matrix(-1 0 0 1 871.327 616.5)"/></g></svg>