<svg width="3411" height="1524" xmlns="http://www.w3.org/2000/svg" xmlns:xlink="http://www.w3.org/1999/xlink" xml:space="preserve" overflow="hidden"><g transform="translate(-456 -371)"><rect x="2772.5" y="1367.5" width="1091" height="494" stroke="#FFFFFF" stroke-width="6.875" stroke-miterlimit="8" fill="#A5A5A5"/><text fill="#FFFFFF" font-family="Calibri,Calibri_MSFontService,sans-serif" font-weight="400" font-size="83" transform="matrix(1 0 0 1 3126.48 1823)">Disk Layout</text><rect x="459.5" y="1367.5" width="2287" height="494" stroke="#FFFFFF" stroke-width="6.875" stroke-miterlimit="8" fill="#A5A5A5"/><text fill="#FFFFFF" font-family="Calibri,Calibri_MSFontService,sans-serif" font-weight="400" font-size="83" transform="matrix(1 0 0 1 1532.69 1823)">CPU</text><rect x="459.5" y="380.5" width="3404" height="961" stroke="#FFFFFF" stroke-width="6.875" stroke-miterlimit="8" fill="#A5A5A5"/><text fill="#FFFFFF" font-family="Calibri,Calibri_MSFontService,sans-serif" font-weight="400" font-size="83" transform="matrix(1 0 0 1 1865.54 473)">Operating System</text><path d="M1758 657.334C1758 633.401 1777.4 614 1801.33 614L2598.67 614C2622.6 614 2642 633.401 2642 657.334L2642 830.666C2642 854.599 2622.6 874 2598.67 874L1801.33 874C1777.4 874 1758 854.599 1758 830.666Z" fill="#ED7D31" fill-rule="evenodd"/><text fill="#FFFFFF" font-family="Calibri,Calibri_MSFontService,sans-serif" font-weight="400" font-size="83" transform="matrix(1 0 0 1 1965.59 722)">EMT Interface</text><text fill="#FFFFFF" font-family="Calibri,Calibri_MSFontService,sans-serif" font-weight="400" font-size="83" transform="matrix(1 0 0 1 1856.02 821)">Essential &amp; Optimize</text><path d="M1758 1073.17C1758 1049.33 1777.33 1030 1801.17 1030L2598.83 1030C2622.67 1030 2642 1049.33 2642 1073.17L2642 1245.83C2642 1269.67 2622.67 1289 2598.83 1289L1801.17 1289C1777.33 1289 1758 1269.67 1758 1245.83Z" fill="#4472C4" fill-rule="evenodd"/><text fill="#FFFFFF" font-family="Calibri,Calibri_MSFontService,sans-serif" font-weight="400" font-size="83" transform="matrix(1 0 0 1 1991.27 1138)">MMU Driver</text><text fill="#FFFFFF" font-family="Calibri,Calibri_MSFontService,sans-serif" font-weight="400" font-size="83" transform="matrix(1 0 0 1 1833.15 1237)">Radix, DMT, ECPT, etc.</text><path d="M1758 1462.33C1758 1438.4 1777.4 1419 1801.33 1419L2598.67 1419C2622.6 1419 2642 1438.4 2642 1462.33L2642 1635.67C2642 1659.6 2622.6 1679 2598.67 1679L1801.33 1679C1777.4 1679 1758 1659.6 1758 1635.67Z" fill="#4472C4" fill-rule="evenodd"/><text fill="#FFFFFF" font-family="Calibri,Calibri_MSFontService,sans-serif" font-weight="400" font-size="83" transform="matrix(1 0 0 1 1929.42 1527)">MMU Hardware</text><text fill="#FFFFFF" font-family="Calibri,Calibri_MSFontService,sans-serif" font-weight="400" font-size="83" transform="matrix(1 0 0 1 1960.98 1626)">x86, ECPT, etc.</text><path d="M1706.5 623.167C1706.5 589.662 1733.66 562.5 1767.17 562.5L2633.83 562.5C2667.34 562.5 2694.5 589.662 2694.5 623.167L2694.5 865.833C2694.5 899.338 2667.34 926.5 2633.83 926.5L1767.17 926.5C1733.66 926.5 1706.5 899.338 1706.5 865.833Z" stroke="#7030A0" stroke-width="9.16667" stroke-miterlimit="8" stroke-dasharray="36.6667 27.5" fill="none" fill-rule="evenodd"/><path d="M1706.5 1104C1706.5 1034.69 1762.69 978.5 1832 978.5L2569 978.5C2638.31 978.5 2694.5 1034.69 2694.5 1104L2694.5 1606C2694.5 1675.31 2638.31 1731.5 2569 1731.5L1832 1731.5C1762.69 1731.5 1706.5 1675.31 1706.5 1606Z" stroke="#7030A0" stroke-width="9.16667" stroke-miterlimit="8" stroke-dasharray="36.6667 27.5" fill="none" fill-rule="evenodd"/><path d="M641 1073.17C641 1049.33 660.327 1030 684.168 1030L1480.83 1030C1504.67 1030 1524 1049.33 1524 1073.17L1524 1245.83C1524 1269.67 1504.67 1289 1480.83 1289L684.168 1289C660.327 1289 641 1269.67 641 1245.83Z" fill="#4472C4" fill-rule="evenodd"/><text fill="#FFFFFF" font-family="Calibri,Calibri_MSFontService,sans-serif" font-weight="400" font-size="83" transform="matrix(1 0 0 1 751.327 1187)">linux</text><text fill="#FFFFFF" font-family="Calibri,Calibri_MSFontService,sans-serif" font-weight="400" font-size="83" transform="matrix(1 0 0 1 911.744 1187)">/arch/*/mm/…</text><path d="M641 1462.33C641 1438.4 660.401 1419 684.334 1419L1480.67 1419C1504.6 1419 1524 1438.4 1524 1462.33L1524 1635.67C1524 1659.6 1504.6 1679 1480.67 1679L684.334 1679C660.401 1679 641 1659.6 641 1635.67Z" fill="#4472C4" fill-rule="evenodd"/><text fill="#FFFFFF" font-family="Calibri,Calibri_MSFontService,sans-serif" font-weight="400" font-size="83" transform="matrix(1 0 0 1 811.976 1577)">MMU Hardware</text><path d="M589.5 727.004C589.5 636.151 663.151 562.5 754.004 562.5L1412 562.5C1502.85 562.5 1576.5 636.151 1576.5 727.004L1576.5 1567C1576.5 1657.85 1502.85 1731.5 1412 1731.5L754.004 1731.5C663.151 1731.5 589.5 1657.85 589.5 1567Z" stroke="#7030A0" stroke-width="9.16667" stroke-miterlimit="8" stroke-dasharray="36.6667 27.5" fill="none" fill-rule="evenodd"/><path d="M641 657.334C641 633.401 660.401 614 684.334 614L1480.67 614C1504.6 614 1524 633.401 1524 657.334L1524 830.665C1524 854.598 1504.6 873.999 1480.67 873.999L684.334 873.999C660.401 873.999 641 854.598 641 830.665Z" fill="#4472C4" fill-rule="evenodd"/><text fill="#FFFFFF" font-family="Calibri,Calibri_MSFontService,sans-serif" font-weight="400" font-size="83" transform="matrix(1 0 0 1 876.016 771)">linux</text><text fill="#FFFFFF" font-family="Calibri,Calibri_MSFontService,sans-serif" font-weight="400" font-size="83" transform="matrix(1 0 0 1 1036.43 771)">/mm/…</text><path d="M2876 657.334C2876 633.401 2895.4 614 2919.33 614L3715.67 614C3739.6 614 3759 633.401 3759 657.334L3759 830.665C3759 854.598 3739.6 873.999 3715.67 873.999L2919.33 873.999C2895.4 873.999 2876 854.598 2876 830.665Z" fill="#4472C4" fill-rule="evenodd"/><text fill="#FFFFFF" font-family="Calibri,Calibri_MSFontService,sans-serif" font-weight="400" font-size="83" transform="matrix(1 0 0 1 3097.65 771)">VFS Interface</text><path d="M2876 1073.17C2876 1049.33 2895.33 1030 2919.17 1030L3715.83 1030C3739.67 1030 3759 1049.33 3759 1073.17L3759 1245.83C3759 1269.67 3739.67 1289 3715.83 1289L2919.17 1289C2895.33 1289 2876 1269.67 2876 1245.83Z" fill="#4472C4" fill-rule="evenodd"/><text fill="#FFFFFF" font-family="Calibri,Calibri_MSFontService,sans-serif" font-weight="400" font-size="83" transform="matrix(1 0 0 1 3114.42 1138)">File Systems</text><text fill="#FFFFFF" font-family="Calibri,Calibri_MSFontService,sans-serif" font-weight="400" font-size="83" transform="matrix(1 0 0 1 2964.36 1237)">ext4, ext3, </text><text fill="#FFFFFF" font-family="Calibri,Calibri_MSFontService,sans-serif" font-weight="400" font-size="83" transform="matrix(1 0 0 1 3333.64 1237)">BtrFS</text><text fill="#FFFFFF" font-family="Calibri,Calibri_MSFontService,sans-serif" font-weight="400" font-size="83" transform="matrix(1 0 0 1 3508.12 1237)">, etc.</text><path d="M2876 1462.33C2876 1438.4 2895.4 1419 2919.33 1419L3715.67 1419C3739.6 1419 3759 1438.4 3759 1462.33L3759 1635.67C3759 1659.6 3739.6 1679 3715.67 1679L2919.33 1679C2895.4 1679 2876 1659.6 2876 1635.67Z" fill="#4472C4" fill-rule="evenodd"/><text fill="#FFFFFF" font-family="Calibri,Calibri_MSFontService,sans-serif" font-weight="400" font-size="83" transform="matrix(1 0 0 1 2937.02 1527)">On</text><text fill="#FFFFFF" font-family="Calibri,Calibri_MSFontService,sans-serif" font-weight="400" font-size="83" transform="matrix(1 0 0 1 3034.99 1527)">-</text><text fill="#FFFFFF" font-family="Calibri,Calibri_MSFontService,sans-serif" font-weight="400" font-size="83" transform="matrix(1 0 0 1 3060.2 1527)">disk Data Structure</text><text fill="#FFFFFF" font-family="Calibri,Calibri_MSFontService,sans-serif" font-weight="400" font-size="83" transform="matrix(1 0 0 1 2965.32 1626)">Extents, </text><text fill="#FFFFFF" font-family="Calibri,Calibri_MSFontService,sans-serif" font-weight="400" font-size="83" transform="matrix(1 0 0 1 3250.95 1626)">B+</text><text fill="#FFFFFF" font-family="Calibri,Calibri_MSFontService,sans-serif" font-weight="400" font-size="83" transform="matrix(1 0 0 1 3336.89 1626)">-</text><text fill="#FFFFFF" font-family="Calibri,Calibri_MSFontService,sans-serif" font-weight="400" font-size="83" transform="matrix(1 0 0 1 3362.1 1626)">Tree, etc.</text><path d="M2824.5 623.167C2824.5 589.662 2851.66 562.5 2885.17 562.5L3750.83 562.5C3784.34 562.5 3811.5 589.662 3811.5 623.167L3811.5 865.832C3811.5 899.338 3784.34 926.5 3750.83 926.5L2885.17 926.5C2851.66 926.5 2824.5 899.338 2824.5 865.832Z" stroke="#7030A0" stroke-width="9.16667" stroke-miterlimit="8" stroke-dasharray="36.6667 27.5" fill="none" fill-rule="evenodd"/><path d="M2824.5 1104C2824.5 1034.69 2880.69 978.5 2950 978.5L3686 978.5C3755.31 978.5 3811.5 1034.69 3811.5 1104L3811.5 1606C3811.5 1675.31 3755.31 1731.5 3686 1731.5L2950 1731.5C2880.69 1731.5 2824.5 1675.31 2824.5 1606Z" stroke="#7030A0" stroke-width="9.16667" stroke-miterlimit="8" stroke-dasharray="36.6667 27.5" fill="none" fill-rule="evenodd"/></g></svg>