<svg width="2552" height="625" xmlns="http://www.w3.org/2000/svg" xmlns:xlink="http://www.w3.org/1999/xlink" xml:space="preserve" overflow="hidden"><g transform="translate(-587 -798)"><rect x="1038" y="1108" width="34.9998" height="124" fill="#D9D9D9"/><text font-family="Times,Times_MSFontService,sans-serif" font-weight="400" font-size="55" transform="matrix(1 0 0 1 963.621 868)">VA [47:15]; 33bits</text><rect x="1305" y="1108" width="35.0001" height="124" fill="#D9D9D9"/><rect x="1570" y="1108" width="35.0001" height="124" fill="#D9D9D9"/><rect x="1833" y="1108" width="35.0001" height="124" fill="#D9D9D9"/><rect x="2099" y="1108" width="35" height="124" fill="#D9D9D9"/><rect x="2367" y="1108" width="35" height="124" fill="#D9D9D9"/><rect x="2633" y="1108" width="34.9998" height="124" fill="#D9D9D9"/><rect x="2900" y="1108" width="34" height="124" fill="#ED7D31"/><text font-family="Times,Times_MSFontService,sans-serif" font-weight="400" font-size="64" transform="matrix(1 0 0 1 1125.03 1369)">Partial VPN Tag (5 bits)</text><rect x="1005.5" y="1108.5" width="2128" height="124" stroke="#172C51" stroke-width="11.4583" stroke-miterlimit="8" fill="none"/><rect x="1006.5" y="909.5" width="324" height="124" stroke="#000000" stroke-width="4.58333" stroke-miterlimit="8" fill="#D9D9D9"/><text font-family="Times,Times_MSFontService,sans-serif" font-weight="400" font-size="64" transform="matrix(1 0 0 1 1055.96 995)">VPN Tag</text><rect x="1321.5" y="912.5" width="232" height="124" stroke="#000000" stroke-width="4.58333" stroke-miterlimit="8" fill="#FFFFFF"/><text font-family="Times,Times_MSFontService,sans-serif" font-weight="400" font-size="64" transform="matrix(1 0 0 1 1355.96 998)">PTE 0</text><rect x="1544.5" y="913.5" width="232" height="124" stroke="#000000" stroke-width="4.58333" stroke-miterlimit="8" fill="#FFFFFF"/><text font-family="Times,Times_MSFontService,sans-serif" font-weight="400" font-size="64" transform="matrix(1 0 0 1 1579.57 999)">PTE 1</text><rect x="1767.5" y="914.5" width="229" height="124" stroke="#000000" stroke-width="4.58333" stroke-miterlimit="8" fill="#FFFFFF"/><text font-family="Times,Times_MSFontService,sans-serif" font-weight="400" font-size="64" transform="matrix(1 0 0 1 1800.86 999)">PTE 2</text><rect x="1987.5" y="911.5" width="232" height="125" stroke="#000000" stroke-width="4.58333" stroke-miterlimit="8" fill="#FFFFFF"/><text font-family="Times,Times_MSFontService,sans-serif" font-weight="400" font-size="64" transform="matrix(1 0 0 1 2022.36 997)">PTE 3</text><rect x="2212.5" y="911.5" width="250" height="125" stroke="#000000" stroke-width="4.58333" stroke-miterlimit="8" fill="#FFFFFF"/><text font-family="Times,Times_MSFontService,sans-serif" font-weight="400" font-size="64" transform="matrix(1 0 0 1 2256.1 997)">PTE 4</text><rect x="2433.5" y="910.5" width="232" height="124" stroke="#000000" stroke-width="4.58333" stroke-miterlimit="8" fill="#FFFFFF"/><text font-family="Times,Times_MSFontService,sans-serif" font-weight="400" font-size="64" transform="matrix(1 0 0 1 2468.48 996)">PTE 5</text><rect x="2668.5" y="910.5" width="229" height="124" stroke="#000000" stroke-width="4.58333" stroke-miterlimit="8" fill="#FFFFFF"/><text font-family="Times,Times_MSFontService,sans-serif" font-weight="400" font-size="64" transform="matrix(1 0 0 1 2701.93 996)">PTE 6</text><rect x="2897.5" y="907.5" width="235" height="124" stroke="#000000" stroke-width="4.58333" stroke-miterlimit="8" fill="#FFFFFF"/><text font-family="Times,Times_MSFontService,sans-serif" font-weight="400" font-size="64" transform="matrix(1 0 0 1 2934.04 992)">PTE 7</text><rect x="1005.5" y="909.5" width="2128" height="124" stroke="#172C51" stroke-width="11.4583" stroke-miterlimit="8" fill="none"/><text font-family="Times,Times_MSFontService,sans-serif" font-weight="400" font-size="73" transform="matrix(1 0 0 1 632.763 998)">Conceptual</text><text font-family="Times,Times_MSFontService,sans-serif" font-weight="400" font-size="73" transform="matrix(1 0 0 1 631.648 1185)">Our </text><text font-family="Times,Times_MSFontService,sans-serif" font-weight="400" font-size="73" transform="matrix(1 0 0 1 763.991 1185)">Impl</text><text font-family="Times,Times_MSFontService,sans-serif" font-weight="400" font-size="73" transform="matrix(1 0 0 1 903.21 1185)">.</text><rect x="1056" y="1289" width="35.0001" height="125" fill="#D9D9D9"/><rect x="2600.5" y="1108.5" width="267" height="124" stroke="#000000" stroke-width="4.58333" stroke-miterlimit="8" fill="none"/><text font-family="Times,Times_MSFontService,sans-serif" font-weight="400" font-size="64" transform="matrix(1 0 0 1 2652.92 1193)">PTE 6</text><rect x="2334.5" y="1108.5" width="267" height="124" stroke="#000000" stroke-width="4.58333" stroke-miterlimit="8" fill="none"/><text font-family="Times,Times_MSFontService,sans-serif" font-weight="400" font-size="64" transform="matrix(1 0 0 1 2386.76 1193)">PTE 5</text><rect x="2067.5" y="1108.5" width="266" height="124" stroke="#000000" stroke-width="4.58333" stroke-miterlimit="8" fill="none"/><text font-family="Times,Times_MSFontService,sans-serif" font-weight="400" font-size="64" transform="matrix(1 0 0 1 2119.3 1193)">PTE 4</text><rect x="1800.5" y="1108.5" width="267" height="124" stroke="#000000" stroke-width="4.58333" stroke-miterlimit="8" fill="none"/><text font-family="Times,Times_MSFontService,sans-serif" font-weight="400" font-size="64" transform="matrix(1 0 0 1 1852.82 1193)">PTE 3</text><rect x="1537.5" y="1108.5" width="267" height="124" stroke="#000000" stroke-width="4.58333" stroke-miterlimit="8" fill="none"/><text font-family="Times,Times_MSFontService,sans-serif" font-weight="400" font-size="64" transform="matrix(1 0 0 1 1589.6 1193)">PTE 2</text><rect x="1273.5" y="1108.5" width="266" height="124" stroke="#000000" stroke-width="4.58333" stroke-miterlimit="8" fill="none"/><text font-family="Times,Times_MSFontService,sans-serif" font-weight="400" font-size="64" transform="matrix(1 0 0 1 1325.09 1193)">PTE 1</text><rect x="1006.5" y="1108.5" width="266" height="124" stroke="#000000" stroke-width="4.58333" stroke-miterlimit="8" fill="none"/><text font-family="Times,Times_MSFontService,sans-serif" font-weight="400" font-size="64" transform="matrix(1 0 0 1 1058.12 1193)">PTE 0</text><rect x="2867.5" y="1108.5" width="266" height="124" stroke="#000000" stroke-width="4.58333" stroke-miterlimit="8" fill="none"/><text font-family="Times,Times_MSFontService,sans-serif" font-weight="400" font-size="64" transform="matrix(1 0 0 1 2919.4 1193)">PTE 7</text><text font-family="Times,Times_MSFontService,sans-serif" font-weight="400" font-size="64" transform="matrix(1 0 0 1 1964.27 1369)">Cluster Counter (5 bits)</text><rect x="1889" y="1289" width="35.0001" height="125" fill="#ED7D31"/></g></svg>