<svg width="1910" height="776" xmlns="http://www.w3.org/2000/svg" xmlns:xlink="http://www.w3.org/1999/xlink" xml:space="preserve" overflow="hidden"><defs><clipPath id="clip0"><rect x="70" y="54" width="1910" height="776"/></clipPath></defs><g clip-path="url(#clip0)" transform="translate(-70 -54)"><rect x="381.5" y="198.5" width="312" height="130" stroke="#000000" stroke-width="4.58333" stroke-miterlimit="8" fill="#FFFFFF"/><text font-family="Times,Times_MSFontService,sans-serif" font-weight="400" font-size="55" transform="matrix(1 0 0 1 430.834 250)">L</text><text font-family="Times,Times_MSFontService,sans-serif" font-weight="400" font-size="37" transform="matrix(1 0 0 1 464.636 263)">4</text><text font-family="Times,Times_MSFontService,sans-serif" font-weight="400" font-size="55" transform="matrix(1 0 0 1 496.719 250)">(PGD)</text><text font-family="Times,Times_MSFontService,sans-serif" font-weight="400" font-size="55" transform="matrix(1 0 0 1 468.555 316)">Offset</text><rect x="693.5" y="198.5" width="312" height="130" stroke="#000000" stroke-width="4.58333" stroke-miterlimit="8" fill="#FFFFFF"/><text font-family="Times,Times_MSFontService,sans-serif" font-weight="400" font-size="55" transform="matrix(1 0 0 1 742.679 250)">L</text><text font-family="Times,Times_MSFontService,sans-serif" font-weight="400" font-size="37" transform="matrix(1 0 0 1 776.481 263)">3</text><text font-family="Times,Times_MSFontService,sans-serif" font-weight="400" font-size="55" transform="matrix(1 0 0 1 808.564 250)">(PUD)</text><text font-family="Times,Times_MSFontService,sans-serif" font-weight="400" font-size="55" transform="matrix(1 0 0 1 780.4 316)">Offset</text><rect x="1005.5" y="198.5" width="311" height="130" stroke="#000000" stroke-width="4.58333" stroke-miterlimit="8" fill="#FFFFFF"/><text font-family="Times,Times_MSFontService,sans-serif" font-weight="400" font-size="55" transform="matrix(1 0 0 1 1049.94 250)">L</text><text font-family="Times,Times_MSFontService,sans-serif" font-weight="400" font-size="37" transform="matrix(1 0 0 1 1083.74 263)">2</text><text font-family="Times,Times_MSFontService,sans-serif" font-weight="400" font-size="55" transform="matrix(1 0 0 1 1115.83 250)">(PMD)</text><text font-family="Times,Times_MSFontService,sans-serif" font-weight="400" font-size="55" transform="matrix(1 0 0 1 1092.25 316)">Offset</text><rect x="1316.5" y="198.5" width="312" height="130" stroke="#000000" stroke-width="4.58333" stroke-miterlimit="8" fill="#FFFFFF"/><text font-family="Times,Times_MSFontService,sans-serif" font-weight="400" font-size="55" transform="matrix(1 0 0 1 1372.1 250)">L</text><text font-family="Times,Times_MSFontService,sans-serif" font-weight="400" font-size="37" transform="matrix(1 0 0 1 1405.9 263)">1</text><text font-family="Times,Times_MSFontService,sans-serif" font-weight="400" font-size="55" transform="matrix(1 0 0 1 1437.98 250)">(PTE)</text><text font-family="Times,Times_MSFontService,sans-serif" font-weight="400" font-size="55" transform="matrix(1 0 0 1 1404.09 316)">Offset</text><rect x="1628.5" y="198.5" width="312" height="130" stroke="#000000" stroke-width="4.58333" stroke-miterlimit="8" fill="#FFFFFF"/><text font-family="Times,Times_MSFontService,sans-serif" font-weight="400" font-size="55" transform="matrix(1 0 0 1 1730.65 250)">Page </text><text font-family="Times,Times_MSFontService,sans-serif" font-weight="400" font-size="55" transform="matrix(1 0 0 1 1715.94 316)">Offset</text><rect x="121.5" y="198.5" width="260" height="130" stroke="#000000" stroke-width="4.58333" stroke-miterlimit="8" fill="#FFFFFF"/><text font-family="Times,Times_MSFontService,sans-serif" font-weight="400" font-size="46" transform="matrix(1 0 0 1 98.112 190)">63</text><text font-family="Times,Times_MSFontService,sans-serif" font-weight="400" font-size="46" transform="matrix(1 0 0 1 331.996 190)">48</text><text font-family="Times,Times_MSFontService,sans-serif" font-weight="400" font-size="46" transform="matrix(1 0 0 1 383.971 190)">47</text><text font-family="Times,Times_MSFontService,sans-serif" font-weight="400" font-size="46" transform="matrix(1 0 0 1 643.842 190)">39</text><text font-family="Times,Times_MSFontService,sans-serif" font-weight="400" font-size="46" transform="matrix(1 0 0 1 695.816 190)">38</text><text font-family="Times,Times_MSFontService,sans-serif" font-weight="400" font-size="46" transform="matrix(1 0 0 1 955.688 190)">30</text><text font-family="Times,Times_MSFontService,sans-serif" font-weight="400" font-size="46" transform="matrix(1 0 0 1 1007.66 190)">29</text><text font-family="Times,Times_MSFontService,sans-serif" font-weight="400" font-size="46" transform="matrix(1 0 0 1 1267.53 190)">21</text><text font-family="Times,Times_MSFontService,sans-serif" font-weight="400" font-size="46" transform="matrix(1 0 0 1 1319.51 190)">20</text><text font-family="Times,Times_MSFontService,sans-serif" font-weight="400" font-size="46" transform="matrix(1 0 0 1 1579.38 190)">12</text><text font-family="Times,Times_MSFontService,sans-serif" font-weight="400" font-size="46" transform="matrix(1 0 0 1 1631.35 190)">11</text><text font-family="Times,Times_MSFontService,sans-serif" font-weight="400" font-size="46" transform="matrix(1 0 0 1 1928.67 190)">0</text><rect x="485.5" y="380.5" width="182" height="286" stroke="#000000" stroke-width="4.58333" stroke-miterlimit="8" fill="#FFFFFF"/><rect x="485.5" y="406.5" width="182" height="51.9999" stroke="#000000" stroke-width="4.58333" stroke-miterlimit="8" fill="#FFFFFF"/><text font-family="Times,Times_MSFontService,sans-serif" font-weight="400" font-size="50" transform="matrix(1 0 0 1 525.101 450)">PGD</text><rect x="797.5" y="380.5" width="182" height="286" stroke="#000000" stroke-width="4.58333" stroke-miterlimit="8" fill="#FFFFFF"/><rect x="1109.5" y="380.5" width="181" height="286" stroke="#000000" stroke-width="4.58333" stroke-miterlimit="8" fill="#FFFFFF"/><rect x="1420.5" y="380.5" width="182" height="286" stroke="#000000" stroke-width="4.58333" stroke-miterlimit="8" fill="#FFFFFF"/><rect x="1732.5" y="375.5" width="182" height="291" stroke="#000000" stroke-width="4.58333" stroke-miterlimit="8" fill="#FFFFFF"/><rect x="1732.5" y="458.5" width="182" height="51.9999" stroke="#000000" stroke-width="4.58333" stroke-miterlimit="8" fill="#FFFFFF"/><text font-family="Times,Times_MSFontService,sans-serif" font-weight="400" font-size="50" transform="matrix(1 0 0 1 1790.82 502)">PA</text><path d="M0-1.14583 105.094-1.14583 105.094 29.0576 102.803 29.0576 102.803 0 103.949 1.14583 0 1.14583ZM117.699 24.4743 103.949 51.9743 90.1986 24.4743Z" transform="matrix(1.83697e-16 1 1 -1.83697e-16 433 328)"/><rect x="797.5" y="536.5" width="182" height="51.9999" stroke="#000000" stroke-width="4.58333" stroke-miterlimit="8" fill="#FFFFFF"/><text font-family="Times,Times_MSFontService,sans-serif" font-weight="400" font-size="50" transform="matrix(1 0 0 1 836.946 580)">PUD</text><rect x="1109.5" y="458.5" width="181" height="51.9999" stroke="#000000" stroke-width="4.58333" stroke-miterlimit="8" fill="#FFFFFF"/><text font-family="Times,Times_MSFontService,sans-serif" font-weight="400" font-size="50" transform="matrix(1 0 0 1 1144.78 502)">PMD</text><rect x="1420.5" y="588.5" width="182" height="51.9999" stroke="#000000" stroke-width="4.58333" stroke-miterlimit="8" fill="#FFFFFF"/><text font-family="Times,Times_MSFontService,sans-serif" font-weight="400" font-size="50" transform="matrix(1 0 0 1 1466.37 632)">PTE</text><path d="M667 432 718.974 432 718.974 665.884" stroke="#000000" stroke-width="2.29167" stroke-miterlimit="8" fill="none" fill-rule="evenodd"/><path d="M979 562 1030.97 562 1030.97 665.949" stroke="#000000" stroke-width="2.29167" stroke-miterlimit="8" fill="none" fill-rule="evenodd"/><path d="M1290 484 1341.97 484 1341.97 665.91" stroke="#000000" stroke-width="2.29167" stroke-miterlimit="8" fill="none" fill-rule="evenodd"/><path d="M1602 614 1653.97 614 1653.97 665.974" stroke="#000000" stroke-width="2.29167" stroke-miterlimit="8" fill="none" fill-rule="evenodd"/><path d="M719 664.854 774.045 664.854 774.045 667.146 719 667.146ZM769.462 652.25 796.962 666 769.461 679.75Z"/><path d="M1031 664.854 1086.04 664.854 1086.04 667.146 1031 667.146ZM1081.46 652.25 1108.96 666 1081.46 679.75Z"/><path d="M1342 664.854 1397.04 664.854 1397.04 667.146 1342 667.146ZM1392.46 652.25 1419.96 666 1392.46 679.75Z"/><path d="M1654 664.854 1709.04 664.854 1709.04 667.146 1654 667.146ZM1704.46 652.25 1731.96 666 1704.46 679.75Z"/><path d="M407 664.854 462.045 664.854 462.045 667.146 407 667.146ZM457.461 652.25 484.961 666 457.461 679.75Z"/><rect x="173.5" y="484.5" width="182" height="52.0003" stroke="#000000" stroke-width="4.58333" stroke-miterlimit="8" fill="#FFFFFF"/><text font-family="Times,Times_MSFontService,sans-serif" font-weight="400" font-size="50" transform="matrix(1 0 0 1 217.552 528)">CR3</text><path d="M355 510 406.974 510 406.974 665.923" stroke="#000000" stroke-width="2.29167" stroke-miterlimit="8" fill="none" fill-rule="evenodd"/><path d="M0-1.14583 235.03-1.14583 235.03 29.0576 232.738 29.0576 232.738 0 233.884 1.14583 0 1.14583ZM247.634 24.4743 233.884 51.9743 220.134 24.4743Z" transform="matrix(1.83697e-16 1 1 -1.83697e-16 745 328)"/><path d="M0-1.14583 157.069-1.14583 157.069 29.0576 154.777 29.0576 154.777 0 155.923 1.14583 0 1.14583ZM169.673 24.4743 155.923 51.9743 142.173 24.4743Z" transform="matrix(1.83697e-16 1 1 -1.83697e-16 1057 328)"/><path d="M0-1.14583 287.004-1.14583 287.004 29.0576 284.713 29.0576 284.713 0 285.859 1.14583 0 1.14583ZM299.609 24.4743 285.859 51.9743 272.109 24.4743Z" transform="matrix(1.83697e-16 1 1 -1.83697e-16 1368 328)"/><path d="M0-1.14583 157.069-1.14583 157.069 29.0576 154.777 29.0576 154.777 0 155.923 1.14583 0 1.14583ZM169.673 24.4743 155.923 51.9743 142.173 24.4743Z" transform="matrix(1.83697e-16 1 1 -1.83697e-16 1680 328)"/><text font-family="Times,Times_MSFontService,sans-serif" font-weight="400" font-size="46" transform="matrix(1 0 0 1 529.982 736)">PGD</text><text font-family="Times,Times_MSFontService,sans-serif" font-weight="400" font-size="46" transform="matrix(1 0 0 1 523.382 791)">Table</text><text font-family="Times,Times_MSFontService,sans-serif" font-weight="400" font-size="46" transform="matrix(1 0 0 1 841.827 736)">PUD</text><text font-family="Times,Times_MSFontService,sans-serif" font-weight="400" font-size="46" transform="matrix(1 0 0 1 835.227 791)">Table</text><text font-family="Times,Times_MSFontService,sans-serif" font-weight="400" font-size="46" transform="matrix(1 0 0 1 1149.94 736)">PMD</text><text font-family="Times,Times_MSFontService,sans-serif" font-weight="400" font-size="46" transform="matrix(1 0 0 1 1147.07 791)">Table</text><text font-family="Times,Times_MSFontService,sans-serif" font-weight="400" font-size="46" transform="matrix(1 0 0 1 1470.68 736)">PTE</text><text font-family="Times,Times_MSFontService,sans-serif" font-weight="400" font-size="46" transform="matrix(1 0 0 1 1458.92 791)">Table</text><text font-family="Times,Times_MSFontService,sans-serif" font-weight="400" font-size="46" transform="matrix(1 0 0 1 1745.56 736)">Physical</text><text font-family="Times,Times_MSFontService,sans-serif" font-weight="400" font-size="46" transform="matrix(1 0 0 1 1778.49 791)">Page</text><text font-family="Times,Times_MSFontService,sans-serif" font-weight="400" font-size="46" transform="matrix(1 0 0 1 858.498 112)">Virtual Address</text></g></svg>