<svg width="1624" height="571" xmlns="http://www.w3.org/2000/svg" xmlns:xlink="http://www.w3.org/1999/xlink" xml:space="preserve" overflow="hidden"><g transform="translate(-1421 -669)"><rect x="1664.5" y="801.5" width="257" height="72.9999" stroke="#000000" stroke-width="4.58333" stroke-miterlimit="8" fill="#D9D9D9"/><text font-family="Times,Times_MSFontService,sans-serif" font-weight="400" font-size="55" transform="matrix(1 0 0 1 1761.95 857)">L4</text><rect x="1921.5" y="801.5" width="257" height="72.9999" stroke="#000000" stroke-width="4.58333" stroke-miterlimit="8" fill="#D9D9D9"/><text font-family="Times,Times_MSFontService,sans-serif" font-weight="400" font-size="55" transform="matrix(1 0 0 1 2018.91 857)">L3</text><rect x="2179.5" y="801.5" width="257" height="72.9999" stroke="#000000" stroke-width="4.58333" stroke-miterlimit="8" fill="#D9D9D9"/><text font-family="Times,Times_MSFontService,sans-serif" font-weight="400" font-size="55" transform="matrix(1 0 0 1 2276.95 857)">L2</text><rect x="2436.5" y="801.5" width="258" height="72.9999" stroke="#000000" stroke-width="4.58333" stroke-miterlimit="8" fill="#D9D9D9"/><text font-family="Times,Times_MSFontService,sans-serif" font-weight="400" font-size="55" transform="matrix(1 0 0 1 2534.24 857)">L1</text><rect x="2694.5" y="801.5" width="312" height="72.9999" stroke="#000000" stroke-width="4.58333" stroke-miterlimit="8" fill="#FFFFFF"/><text font-family="Times,Times_MSFontService,sans-serif" font-weight="400" font-size="55" transform="matrix(1 0 0 1 2720.97 857)">Page Offset</text><rect x="1453.5" y="801.5" width="212" height="72.9999" stroke="#000000" stroke-width="4.58333" stroke-miterlimit="8" fill="#FFFFFF"/><text font-family="Times,Times_MSFontService,sans-serif" font-weight="400" font-size="46" transform="matrix(1 0 0 1 1449.49 788)">63</text><text font-family="Times,Times_MSFontService,sans-serif" font-weight="400" font-size="46" transform="matrix(1 0 0 1 1607.95 788)">48</text><text font-family="Times,Times_MSFontService,sans-serif" font-weight="400" font-size="46" transform="matrix(1 0 0 1 1667.36 788)">47</text><text font-family="Times,Times_MSFontService,sans-serif" font-weight="400" font-size="46" transform="matrix(1 0 0 1 1867.82 788)">39</text><text font-family="Times,Times_MSFontService,sans-serif" font-weight="400" font-size="46" transform="matrix(1 0 0 1 1927.09 788)">38</text><text font-family="Times,Times_MSFontService,sans-serif" font-weight="400" font-size="46" transform="matrix(1 0 0 1 2126.63 788)">30</text><text font-family="Times,Times_MSFontService,sans-serif" font-weight="400" font-size="46" transform="matrix(1 0 0 1 2181.81 788)">29</text><text font-family="Times,Times_MSFontService,sans-serif" font-weight="400" font-size="46" transform="matrix(1 0 0 1 2384.98 788)">21</text><text font-family="Times,Times_MSFontService,sans-serif" font-weight="400" font-size="46" transform="matrix(1 0 0 1 2436.95 788)">20</text><text font-family="Times,Times_MSFontService,sans-serif" font-weight="400" font-size="46" transform="matrix(1 0 0 1 2644.85 788)">12</text><text font-family="Times,Times_MSFontService,sans-serif" font-weight="400" font-size="46" transform="matrix(1 0 0 1 2696.83 788)">11</text><text font-family="Times,Times_MSFontService,sans-serif" font-weight="400" font-size="46" transform="matrix(1 0 0 1 2994.14 788)">0</text><rect x="1732.5" y="926.5" width="151" height="286" stroke="#000000" stroke-width="4.58333" stroke-miterlimit="8" fill="#FFFFFF"/><rect x="1732.5" y="952.5" width="151" height="51.9999" stroke="#000000" stroke-width="4.58333" stroke-miterlimit="8" fill="#D9D9D9"/><text font-family="Times,Times_MSFontService,sans-serif" font-weight="400" font-size="50" transform="matrix(1 0 0 1 1756.7 995)">PGD</text><rect x="2013.5" y="926.5" width="151" height="286" stroke="#000000" stroke-width="4.58333" stroke-miterlimit="8" fill="#FFFFFF"/><rect x="2271.5" y="926.5" width="151" height="286" stroke="#000000" stroke-width="4.58333" stroke-miterlimit="8" fill="#FFFFFF"/><rect x="2529.5" y="926.5" width="150" height="286" stroke="#000000" stroke-width="4.58333" stroke-miterlimit="8" fill="#FFFFFF"/><rect x="2829.5" y="920.5" width="151" height="292" stroke="#000000" stroke-width="4.58333" stroke-miterlimit="8" fill="#FFFFFF"/><rect x="2829.5" y="1004.5" width="151" height="51.9999" stroke="#000000" stroke-width="4.58333" stroke-miterlimit="8" fill="#D9D9D9"/><text font-family="Times,Times_MSFontService,sans-serif" font-weight="400" font-size="50" transform="matrix(1 0 0 1 2872.07 1047)">PA</text><path d="M0-1.14583 105.094-1.14583 105.094 44.8434 102.803 44.8434 102.803 0 103.949 1.14583 0 1.14583ZM117.699 40.2601 103.949 67.7601 90.1986 40.2601Z" transform="matrix(1.83697e-16 1 1 -1.83697e-16 1664 874)"/><rect x="2013.5" y="1082.5" width="151" height="51.9999" stroke="#000000" stroke-width="4.58333" stroke-miterlimit="8" fill="#D9D9D9"/><text font-family="Times,Times_MSFontService,sans-serif" font-weight="400" font-size="50" transform="matrix(1 0 0 1 2037.83 1125)">PUD</text><rect x="2271.5" y="1004.5" width="151" height="51.9999" stroke="#000000" stroke-width="4.58333" stroke-miterlimit="8" fill="#D9D9D9"/><text font-family="Times,Times_MSFontService,sans-serif" font-weight="400" font-size="50" transform="matrix(1 0 0 1 2291.87 1047)">PMD</text><rect x="2529.5" y="1134.5" width="150" height="52.0002" stroke="#000000" stroke-width="4.58333" stroke-miterlimit="8" fill="#D9D9D9"/><text font-family="Times,Times_MSFontService,sans-serif" font-weight="400" font-size="50" transform="matrix(1 0 0 1 2558.9 1177)">PTE</text><path d="M1883 978 1914.57 978 1914.57 1211.02" stroke="#000000" stroke-width="2.29167" stroke-miterlimit="8" fill="none" fill-rule="evenodd"/><path d="M2164 1108 2213.51 1108 2213.51 1211.95" stroke="#000000" stroke-width="2.29167" stroke-miterlimit="8" fill="none" fill-rule="evenodd"/><path d="M2422 1030 2446.48 1030 2446.48 1211.91" stroke="#000000" stroke-width="2.29167" stroke-miterlimit="8" fill="none" fill-rule="evenodd"/><path d="M2679 1160 2712.88 1160 2712.88 1211.97 2746.76 1211.97" stroke="#000000" stroke-width="2.29167" stroke-miterlimit="8" fill="none" fill-rule="evenodd"/><path d="M1914 1210.85 1990.31 1210.85 1990.31 1213.15 1914 1213.15ZM1985.73 1198.25 2013.23 1212 1985.73 1225.75Z"/><path d="M2213 1210.85 2248.29 1210.85 2248.29 1213.15 2213 1213.15ZM2243.7 1198.25 2271.2 1212 2243.7 1225.75Z"/><path d="M2446 1210.85 2507.7 1210.85 2507.7 1213.15 2446 1213.15ZM2503.12 1198.25 2530.62 1212 2503.12 1225.75Z"/><path d="M2746 1210.85 2806.63 1210.85 2806.63 1213.15 2746 1213.15ZM2802.05 1198.25 2829.55 1212 2802.05 1225.75Z"/><path d="M1648 1210.85 1709.26 1210.85 1709.26 1213.15 1648 1213.15ZM1704.68 1198.25 1732.18 1212 1704.68 1225.75Z"/><rect x="1452.5" y="1030.5" width="150" height="51.9999" stroke="#000000" stroke-width="4.58333" stroke-miterlimit="8" fill="#D9D9D9"/><text font-family="Times,Times_MSFontService,sans-serif" font-weight="400" font-size="50" transform="matrix(1 0 0 1 1480.71 1074)">CR3</text><path d="M1602 1056 1647.77 1056 1647.77 1211.06" stroke="#000000" stroke-width="2.29167" stroke-miterlimit="8" fill="none" fill-rule="evenodd"/><path d="M0-1.14583 235.03-1.14583 235.03 44.8434 232.738 44.8434 232.738 0 233.884 1.14583 0 1.14583ZM247.634 40.2601 233.884 67.7601 220.134 40.2601Z" transform="matrix(1.83697e-16 1 1 -1.83697e-16 1946 874)"/><path d="M0-1.14583 157.069-1.14583 157.069 44.8434 154.777 44.8434 154.777 0 155.923 1.14583 0 1.14583ZM169.673 40.2601 155.923 67.7601 142.173 40.2601Z" transform="matrix(1.83697e-16 1 1 -1.83697e-16 2204 874)"/><path d="M0-1.14583 287.004-1.14583 287.004 44.8434 284.713 44.8434 284.713 0 285.859 1.14583 0 1.14583ZM299.609 40.2601 285.859 67.7601 272.109 40.2601Z" transform="matrix(1.83697e-16 1 1 -1.83697e-16 2470 874)"/><path d="M0-1.14583 157.069-1.14583 157.069 80.1261 154.777 80.1261 154.777 0 155.923 1.14583 0 1.14583ZM169.673 75.5427 155.923 103.043 142.173 75.5427Z" transform="matrix(1.83697e-16 1 1 -1.83697e-16 2726 874)"/><text font-family="Times,Times_MSFontService,sans-serif" font-weight="400" font-size="50" transform="matrix(1 0 0 1 2009.35 733)">Virtual Address (VA)</text></g></svg>