<svg width="3002" height="180" xmlns="http://www.w3.org/2000/svg" xmlns:xlink="http://www.w3.org/1999/xlink" xml:space="preserve" overflow="hidden"><defs><clipPath id="clip0"><rect x="699" y="549" width="3002" height="180"/></clipPath></defs><g clip-path="url(#clip0)" transform="translate(-699 -549)"><path d="M2839 575.834C2839 561.014 2851.01 549 2865.83 549L3674.17 549C3688.99 549 3701 561.014 3701 575.834L3701 683.166C3701 697.986 3688.99 710 3674.17 710L2865.83 710C2851.01 710 2839 697.986 2839 683.166Z" fill="#DDDDDD" fill-rule="evenodd"/><text font-family="Verdana,Verdana_MSFontService,sans-serif" font-weight="400" font-size="83" transform="matrix(1 0 0 1 2901.74 662)">Common routines</text><path d="M699 575.834C699 561.014 711.014 549 725.834 549L1534.17 549C1548.99 549 1561 561.014 1561 575.834L1561 683.166C1561 697.986 1548.99 710 1534.17 710L725.834 710C711.014 710 699 697.986 699 683.166Z" fill="#FF851B" fill-rule="evenodd"/><text fill="#663000" font-family="Verdana,Verdana_MSFontService,sans-serif" font-weight="400" font-size="83" transform="matrix(1 0 0 1 837.687 662)">Interface calls</text><path d="M1769 575.834C1769 561.014 1781.01 549 1795.83 549L2604.17 549C2618.99 549 2631 561.014 2631 575.834L2631 683.166C2631 697.986 2618.99 710 2604.17 710L1795.83 710C1781.01 710 1769 697.986 1769 683.166Z" fill="#0074D9" fill-rule="evenodd"/><text fill="#B3DBFF" font-family="Verdana,Verdana_MSFontService,sans-serif" font-weight="400" font-size="83" transform="matrix(1 0 0 1 1939.9 662)">Arch specific</text></g></svg>